<svg id="Layer_1" data-name="Layer 1" xmlns="http://www.w3.org/2000/svg" xmlns:xlink="http://www.w3.org/1999/xlink" viewBox="0 0 1182 1004.67"><defs><style>.cls-1{fill:none;}.cls-2{fill:#29abe2;}.cls-3{fill:#0071bc;}.cls-4{fill:#2389b3;}.cls-5{fill:#5ac7de;}.cls-6{fill:#ccc;}.cls-7{fill:#e6e6e6;}.cls-8{fill:#34aac3;}.cls-9{isolation:isolate;}.cls-10{clip-path:url(#clip-path);}.cls-11{fill:#848484;}.cls-12{fill:#b3b3b3;}.cls-13{fill:url(#radial-gradient);}.cls-14{fill:url(#radial-gradient-2);}.cls-15{fill:url(#radial-gradient-3);}.cls-16{fill:url(#radial-gradient-4);}.cls-17{fill:url(#radial-gradient-5);}.cls-18{fill:url(#radial-gradient-6);}.cls-19{fill:url(#radial-gradient-7);}.cls-20{fill:url(#radial-gradient-8);}</style><clipPath id="clip-path" transform="translate(-311.3 -29.8)"><polygon class="cls-1" points="683.8 475.5 709.55 460.54 825.6 527.53 799.85 542.5 683.8 475.5"/></clipPath><radialGradient id="radial-gradient" cx="696.41" cy="519.43" r="10.73" gradientUnits="userSpaceOnUse"><stop offset="0" stop-color="#5ac7de"/><stop offset="1" stop-color="#2389b3"/></radialGradient><radialGradient id="radial-gradient-2" cx="798.5" cy="580.2" r="10.73" xlink:href="#radial-gradient"/><radialGradient id="radial-gradient-3" cx="591.54" cy="580.01" r="10.73" xlink:href="#radial-gradient"/><radialGradient id="radial-gradient-4" cx="693.63" cy="640.79" r="10.73" xlink:href="#radial-gradient"/><radialGradient id="radial-gradient-5" cx="696.41" cy="402.16" r="10.73" xlink:href="#radial-gradient"/><radialGradient id="radial-gradient-6" cx="798.5" cy="462.94" r="10.73" xlink:href="#radial-gradient"/><radialGradient id="radial-gradient-7" cx="591.54" cy="462.75" r="10.73" xlink:href="#radial-gradient"/><radialGradient id="radial-gradient-8" cx="693.63" cy="523.52" r="10.73" xlink:href="#radial-gradient"/></defs><title>learning</title><polygon class="cls-2" points="374.16 34.43 1182 501.87 497.69 896.94 0 606.75 0 250.45 374.16 34.43"/><polyline class="cls-3" points="1182 501.87 1181.98 716.31 684.36 1004.67 497.69 896.94"/><g id="Book"><polygon class="cls-4" points="540.68 524.54 416.15 452.64 250.1 548.51 241.6 549.21 241.6 553.42 372.52 629 547.06 528.22 547.06 524.01 540.68 524.54"/><polygon class="cls-5" points="241.6 549.21 416.15 448.43 547.06 524.01 372.52 624.79 241.6 549.21"/><polygon class="cls-6" points="245.74 512.7 245.73 549.48 373.14 623.03 373.13 586.26 245.74 512.7"/><polygon class="cls-7" points="373.13 586.26 373.14 623.03 542.96 523.9 542.96 488.33 373.13 586.26"/><polygon class="cls-4" points="540.67 486.75 416.14 414.85 250.1 510.72 241.59 511.42 241.59 515.63 372.51 591.21 547.05 490.44 547.05 486.23 540.67 486.75"/><polygon class="cls-5" points="241.59 511.42 416.14 410.65 547.05 486.23 372.51 587 241.59 511.42"/><polygon class="cls-4" points="241.59 515.63 241.6 549.21 245.73 551.59 245.73 518.02 241.59 515.63"/><polygon class="cls-8" points="247.48 550.49 247.48 519.03 245.73 518.02 245.73 551.59 247.48 550.49"/><g class="cls-9"><g class="cls-10"><path class="cls-7" d="M716.1,465a14,14,0,0,0-7.15-1.94,14.25,14.25,0,0,0-7.16,2l-11.73,6.83,5.52,3.19,4.4-2.56,1.59.92,4.87-2.83-1.59-.92,2.29-1.33c1.28-.75,2.35-.87,3.21-.37.45.26.61.51.51.77a3,3,0,0,1-1.24,1l-11.56,6.71,5.52,3.19,11.93-6.93q3.56-2.07,3.71-4c.1-1.26-1-2.52-3.12-3.78" transform="translate(-311.3 -29.8)"/><polyline class="cls-7" points="418.79 443.8 413.71 440.86 395.25 451.59 400.34 454.53 418.79 443.8"/><path class="cls-7" d="M734.73,481.71a14,14,0,0,0-7-1.75,13.35,13.35,0,0,0-6.93,1.65q-2.68,1.56-2.83,3.61t2.33,3.49a10.34,10.34,0,0,0,2.5,1l4.65-2.7a3.68,3.68,0,0,1-1.25-.43,1.26,1.26,0,0,1-.78-1.05,1.22,1.22,0,0,1,.76-1A3.65,3.65,0,0,1,728,484a3.7,3.7,0,0,1,1.85.42c1.15.66,1,1.41-.39,2.23l-5.07,2.95a7.37,7.37,0,0,1-3.33,1.06,5.32,5.32,0,0,1-3-.7,3.66,3.66,0,0,1-1.47-1.48l-4.6,2.67a8.51,8.51,0,0,0,2,1.76,14.15,14.15,0,0,0,7.63,1.79,16.31,16.31,0,0,0,7.92-2.21l4.44-2.58c2.24-1.3,3.48-2.57,3.74-3.79a2.9,2.9,0,0,0-.58-2.3,7.21,7.21,0,0,0-2.42-2.14" transform="translate(-311.3 -29.8)"/><path class="cls-7" d="M741.7,496.22a1.31,1.31,0,0,1-.78-1.15,1.41,1.41,0,0,1,.86-1.16,4,4,0,0,1,2-.51,3.81,3.81,0,0,1,2,.46,1.35,1.35,0,0,1,.82,1.15,1.46,1.46,0,0,1-.87,1.17,4.43,4.43,0,0,1-4,0m9.19-5.18a14.39,14.39,0,0,0-7.19-1.81,13.6,13.6,0,0,0-7.08,1.68c-1.94,1.13-2.9,2.49-2.88,4.1s1,3,3,4.11a14,14,0,0,0,7.1,1.72,13.65,13.65,0,0,0,7.06-1.69c1.92-1.11,2.88-2.47,2.88-4s-1-3-2.88-4.06" transform="translate(-311.3 -29.8)"/><path class="cls-7" d="M765.91,499.71a11.22,11.22,0,0,0-6-1.46,13,13,0,0,0-6.26,1.78l-7.37,4.28,5.09,2.94,6.4-3.72c1.4-.82,2.57-1,3.5-.42a1.57,1.57,0,0,1,.66.73l5.41-3.14a11.78,11.78,0,0,0-1.4-1" transform="translate(-311.3 -29.8)"/><path class="cls-7" d="M773.76,504.57l-5.09-2.93-13.48,7.83,5.09,2.94,13.48-7.84m3.49-4.95a5.05,5.05,0,0,0-2.52-.61,4.77,4.77,0,0,0-2.46.56c-.7.41-1,.88-1,1.41s.42,1,1.16,1.45a5.1,5.1,0,0,0,2.5.67,4.81,4.81,0,0,0,2.45-.59,1.58,1.58,0,0,0,.94-1.44,1.75,1.75,0,0,0-1-1.45" transform="translate(-311.3 -29.8)"/><path class="cls-7" d="M786.26,506l-5.09-2.94-11.07,6.43q-2.88,1.68-3.45,3.37a3.25,3.25,0,0,0,.29,2.67,6.22,6.22,0,0,0,2.46,2.35l.6.33,5.31-3.09c-.9-.52-1.33-1-1.27-1.43s.64-1,1.71-1.59l2.28,1.32,5.34-3.1L781.09,509l5.17-3" transform="translate(-311.3 -29.8)"/><path class="cls-7" d="M796.14,511.73l-5.09-2.94L772.6,519.52l5.08,2.94L785,518.2a2,2,0,0,1,2.11-.24c.35.2.49.4.41.59a2.63,2.63,0,0,1-1,.78l-7.13,4.14,5.09,2.94,8.54-5c1.6-.93,2.48-1.88,2.65-2.87s-.39-1.85-1.7-2.61a8.6,8.6,0,0,0-3.52-1l5.64-3.28" transform="translate(-311.3 -29.8)"/><path class="cls-7" d="M814.57,527.82a12.45,12.45,0,0,0-5.9-1.21,3.7,3.7,0,0,0-2.16-3.44,10.18,10.18,0,0,0-5.31-1.23,11.06,11.06,0,0,0-5.41,1.35l-8.3,4.83,5.09,2.94,7.26-4.22c1-.58,1.79-.71,2.35-.39.31.18.41.37.32.57a2.85,2.85,0,0,1-1,.78L794.25,532l5.09,2.94,7.26-4.22c1-.58,1.79-.71,2.37-.38.31.18.4.37.31.57a2.75,2.75,0,0,1-1,.77L801,535.93l5.08,2.94,7.74-4.5c1.83-1.06,2.81-2.1,3-3.13q.3-1.95-2.24-3.42" transform="translate(-311.3 -29.8)"/></g></g></g><g id="Tree"><g id="Trunk"><polygon class="cls-6" points="573.34 242.42 596.53 228.95 595.93 440.54 572.74 454.02 573.34 242.42"/><polygon class="cls-11" points="550 228.95 573.19 215.48 596.53 228.95 573.34 242.42 550 228.95"/><polygon class="cls-12" points="573.34 242.42 572.74 454.02 549.4 440.55 550 228.95 573.34 242.42"/></g><g id="Branch_2" data-name="Branch 2"><polygon class="cls-12" points="700.56 153.07 686.07 144.65 685.98 114.22 700.48 122.64 700.56 153.07"/><polygon class="cls-7" points="700.48 122.64 685.98 114.22 700.57 105.8 715.06 114.22 700.48 122.64"/><polygon class="cls-7" points="628.72 194.55 614.23 186.13 686.07 144.65 700.56 153.07 628.72 194.55"/><polygon class="cls-12" points="628.77 211.31 614.28 202.89 614.23 186.13 628.72 194.55 628.77 211.31"/><polygon class="cls-6" points="715.06 114.22 715.15 144.65 715.2 161.25 628.77 211.31 628.72 194.55 700.56 153.07 700.48 122.64 715.06 114.22"/></g><g id="Branch_4" data-name="Branch 4"><polygon class="cls-6" points="469.13 104.09 483.62 95.67 483.54 126.11 469.04 134.53 469.13 104.09"/><polygon class="cls-7" points="454.55 95.67 469.04 87.25 483.62 95.67 469.13 104.09 454.55 95.67"/><polygon class="cls-6" points="540.89 176.01 555.38 167.59 555.34 184.35 540.84 192.77 540.89 176.01"/><polygon class="cls-7" points="469.04 134.53 483.54 126.11 555.38 167.59 540.89 176.01 469.04 134.53"/><polygon class="cls-12" points="469.13 104.09 469.04 134.53 540.89 176.01 540.84 192.77 454.41 142.87 454.46 126.11 454.55 95.67 469.13 104.09"/></g><g id="Branch_4_copy" data-name="Branch 4 copy"><polygon class="cls-6" points="424.48 47.11 431.73 42.9 431.69 58.12 424.44 62.33 424.48 47.11"/><polygon class="cls-7" points="417.19 42.9 424.44 38.69 431.73 42.9 424.48 47.11 417.19 42.9"/><polygon class="cls-6" points="460.36 83.07 467.61 78.86 467.58 87.24 460.34 91.45 460.36 83.07"/><polygon class="cls-7" points="424.44 62.33 431.69 58.12 467.61 78.86 460.36 83.07 424.44 62.33"/><polygon class="cls-12" points="424.48 47.11 424.44 62.33 460.36 83.07 460.34 91.45 417.12 66.5 417.14 58.12 417.19 42.9 424.48 47.11"/></g><g id="Bush_4_copy" data-name="Bush 4 copy"><polygon class="cls-8" points="440.82 29.26 440.77 48.12 424.46 57.59 424.52 38.74 440.82 29.26"/><polygon class="cls-4" points="424.52 38.74 424.46 57.59 408.05 48.12 408.11 29.26 424.52 38.74"/><polygon class="cls-5" points="440.82 29.26 424.52 38.74 408.11 29.26 424.41 19.79 440.82 29.26"/></g><g id="Branch_4_copy_3" data-name="Branch 4 copy 3"><polygon class="cls-6" points="391.39 160.07 398.64 155.86 398.6 171.07 391.35 175.28 391.39 160.07"/><polygon class="cls-7" points="384.1 155.86 391.35 151.65 398.64 155.86 391.39 160.07 384.1 155.86"/><polygon class="cls-6" points="427.27 196.03 434.52 191.81 434.5 200.19 427.25 204.41 427.27 196.03"/><polygon class="cls-7" points="391.35 175.28 398.6 171.07 434.52 191.81 427.27 196.03 391.35 175.28"/><polygon class="cls-12" points="391.39 160.07 391.35 175.28 427.27 196.03 427.25 204.41 384.03 179.46 384.06 171.07 384.1 155.86 391.39 160.07"/></g><g id="Bush_4_copy_3" data-name="Bush 4 copy 3"><polygon class="cls-8" points="407.73 142.22 407.68 161.07 391.38 170.55 391.43 151.69 407.73 142.22"/><polygon class="cls-4" points="391.43 151.69 391.38 170.55 374.96 161.07 375.02 142.22 391.43 151.69"/><polygon class="cls-5" points="407.73 142.22 391.43 151.69 375.02 142.22 391.32 132.74 407.73 142.22"/></g><g id="Branch_4_copy_4" data-name="Branch 4 copy 4"><polygon class="cls-6" points="646.08 58.04 653.33 53.83 653.28 69.04 646.04 73.25 646.08 58.04"/><polygon class="cls-7" points="638.79 53.83 646.03 49.62 653.33 53.83 646.08 58.04 638.79 53.83"/><polygon class="cls-6" points="681.96 94 689.21 89.78 689.18 98.17 681.94 102.38 681.96 94"/><polygon class="cls-7" points="646.04 73.25 653.28 69.04 689.21 89.78 681.96 94 646.04 73.25"/><polygon class="cls-12" points="646.08 58.04 646.04 73.25 681.96 94 681.94 102.38 638.72 77.42 638.75 69.05 638.79 53.83 646.08 58.04"/></g><g id="Bush_4_copy_4" data-name="Bush 4 copy 4"><polygon class="cls-8" points="662.42 40.19 662.37 59.05 646.07 68.52 646.12 49.66 662.42 40.19"/><polygon class="cls-4" points="646.12 49.66 646.07 68.52 629.65 59.05 629.71 40.19 646.12 49.66"/><polygon class="cls-5" points="662.42 40.19 646.12 49.66 629.71 40.19 646.01 30.71 662.42 40.19"/></g><g id="Branch_2_copy_3" data-name="Branch 2 copy 3"><polygon class="cls-12" points="507.01 44.32 499.76 40.11 499.72 24.89 506.97 29.11 507.01 44.32"/><polygon class="cls-7" points="506.97 29.11 499.72 24.89 507.01 20.68 514.26 24.9 506.97 29.11"/><polygon class="cls-7" points="471.09 65.06 463.85 60.85 499.76 40.11 507.01 44.32 471.09 65.06"/><polygon class="cls-12" points="471.12 73.44 463.87 69.23 463.85 60.85 471.09 65.06 471.12 73.44"/><polygon class="cls-6" points="514.26 24.9 514.3 40.11 514.33 48.41 471.12 73.44 471.09 65.06 507.01 44.32 506.97 29.11 514.26 24.9"/></g><g id="Bush_3_copy_3" data-name="Bush 3 copy 3"><polygon class="cls-8" points="523.38 9.47 523.32 28.33 507.02 37.81 507.07 18.95 523.38 9.47"/><polygon class="cls-4" points="507.07 18.95 507.02 37.81 490.61 28.33 490.66 9.47 507.07 18.95"/><polygon class="cls-5" points="523.38 9.47 507.07 18.95 490.66 9.47 506.96 0 523.38 9.47"/></g><g id="Branch_2_copy_2" data-name="Branch 2 copy 2"><polygon class="cls-12" points="484.56 182.25 477.31 178.04 477.27 162.83 484.52 167.04 484.56 182.25"/><polygon class="cls-7" points="484.52 167.04 477.27 162.83 484.56 158.62 491.81 162.83 484.52 167.04"/><polygon class="cls-7" points="448.64 202.99 441.39 198.78 477.31 178.04 484.56 182.25 448.64 202.99"/><polygon class="cls-12" points="448.67 211.37 441.42 207.16 441.39 198.78 448.64 202.99 448.67 211.37"/><polygon class="cls-6" points="491.81 162.83 491.85 178.04 491.88 186.34 448.67 211.37 448.64 202.99 484.56 182.25 484.52 167.04 491.81 162.83"/></g><g id="Bush_3_copy_2" data-name="Bush 3 copy 2"><polygon class="cls-8" points="500.93 147.41 500.87 166.27 484.57 175.74 484.62 156.88 500.93 147.41"/><polygon class="cls-4" points="484.62 156.88 484.57 175.74 468.16 166.27 468.21 147.41 484.62 156.88"/><polygon class="cls-5" points="500.93 147.41 484.62 156.88 468.21 147.41 484.51 137.93 500.93 147.41"/></g><g id="Bush_4" data-name="Bush 4"><polygon class="cls-8" points="501.81 68.39 501.71 106.11 469.1 125.06 469.2 87.34 501.81 68.39"/><polygon class="cls-4" points="469.2 87.34 469.1 125.06 436.28 106.11 436.38 68.39 469.2 87.34"/><polygon class="cls-5" points="501.81 68.39 469.2 87.34 436.38 68.39 468.99 49.45 501.81 68.39"/></g><g id="Bush_1" data-name="Bush 1"><polygon class="cls-8" points="638.87 158.55 638.66 233.98 573.44 271.88 573.66 196.45 638.87 158.55"/><polygon class="cls-4" points="573.66 196.45 573.44 271.88 507.8 233.98 508.01 158.56 573.66 196.45"/><polygon class="cls-5" points="638.87 158.55 573.66 196.45 508.01 158.56 573.23 120.66 638.87 158.55"/></g><g id="Branch_4_copy_2" data-name="Branch 4 copy 2"><polygon class="cls-6" points="649.14 166.78 656.38 162.57 656.34 177.78 649.09 182 649.14 166.78"/><polygon class="cls-7" points="641.84 162.57 649.09 158.36 656.38 162.57 649.14 166.78 641.84 162.57"/><polygon class="cls-6" points="685.02 202.74 692.26 198.53 692.24 206.91 684.99 211.12 685.02 202.74"/><polygon class="cls-7" points="649.09 182 656.34 177.78 692.26 198.53 685.02 202.74 649.09 182"/><polygon class="cls-12" points="649.14 166.78 649.09 182 685.02 202.74 684.99 211.12 641.78 186.17 641.8 177.79 641.84 162.57 649.14 166.78"/></g><g id="Bush_4_copy_2" data-name="Bush 4 copy 2"><polygon class="cls-8" points="665.48 148.93 665.42 167.78 649.12 177.26 649.17 158.4 665.48 148.93"/><polygon class="cls-4" points="649.17 158.4 649.12 177.26 632.71 167.78 632.76 148.93 649.17 158.4"/><polygon class="cls-5" points="665.48 148.93 649.17 158.4 632.76 148.93 649.07 139.45 665.48 148.93"/></g><g id="Branch_1" data-name="Branch 1"><polygon class="cls-7" points="459.68 246.9 445.19 238.48 517.04 197 531.53 205.42 459.68 246.9"/><polygon class="cls-12" points="445.1 255.32 445.01 224.88 430.52 216.46 430.6 246.9 430.65 263.66 445.14 272.08 445.1 255.32"/><polygon class="cls-7" points="445.01 224.88 430.52 216.46 445.1 208.04 459.6 216.46 445.01 224.88"/><polygon class="cls-6" points="459.6 216.46 459.68 246.9 531.53 205.42 531.58 222.18 445.14 272.08 445.1 255.32 445.01 224.88 459.6 216.46"/></g><g id="Bush_5" data-name="Bush 5"><polygon class="cls-8" points="477.78 186.56 477.67 224.28 445.06 243.22 445.17 205.51 477.78 186.56"/><polygon class="cls-4" points="445.17 205.51 445.06 243.22 412.24 224.28 412.35 186.56 445.17 205.51"/><polygon class="cls-5" points="477.78 186.56 445.17 205.51 412.35 186.56 444.96 167.61 477.78 186.56"/></g><g id="Branch_1_copy" data-name="Branch 1 copy"><polygon class="cls-7" points="395.65 233.86 388.4 229.65 424.32 208.9 431.57 213.12 395.65 233.86"/><polygon class="cls-12" points="388.36 238.07 388.31 222.85 381.06 218.64 381.11 233.85 381.13 242.24 388.38 246.45 388.36 238.07"/><polygon class="cls-7" points="388.31 222.85 381.06 218.64 388.36 214.43 395.6 218.64 388.31 222.85"/><polygon class="cls-6" points="395.6 218.64 395.65 233.86 431.57 213.12 431.59 221.5 388.38 246.45 388.36 238.07 388.31 222.85 395.6 218.64"/></g><g id="Bush_5_copy" data-name="Bush 5 copy"><polygon class="cls-8" points="404.7 203.69 404.64 222.54 388.34 232.02 388.39 213.16 404.7 203.69"/><polygon class="cls-4" points="388.39 213.16 388.34 232.02 371.93 222.54 371.98 203.69 388.39 213.16"/><polygon class="cls-5" points="404.7 203.69 388.39 213.16 371.98 203.69 388.29 194.21 404.7 203.69"/></g><g id="Branch_3" data-name="Branch 3"><polygon class="cls-7" points="608.82 218.01 623.31 209.59 695.15 251.06 680.66 259.49 608.82 218.01"/><polygon class="cls-6" points="695.33 237.47 695.24 267.91 695.2 284.5 709.69 276.08 709.73 259.49 709.82 229.05 695.33 237.47"/><polygon class="cls-7" points="680.74 229.05 695.24 220.63 709.82 229.05 695.33 237.47 680.74 229.05"/><polygon class="cls-12" points="695.33 237.47 695.24 267.91 695.2 284.5 608.77 234.77 608.82 218.01 680.66 259.49 680.74 229.05 695.33 237.47"/></g><g id="Branch_2_copy_4" data-name="Branch 2 copy 4"><polygon class="cls-12" points="745.14 195.79 737.89 191.58 737.85 176.36 745.1 180.57 745.14 195.79"/><polygon class="cls-7" points="745.1 180.57 737.85 176.36 745.14 172.15 752.39 176.36 745.1 180.57"/><polygon class="cls-7" points="709.22 216.53 701.98 212.32 737.89 191.58 745.14 195.79 709.22 216.53"/><polygon class="cls-12" points="709.25 224.91 702 220.7 701.98 212.32 709.22 216.53 709.25 224.91"/><polygon class="cls-6" points="752.39 176.36 752.43 191.58 752.46 199.88 709.25 224.91 709.22 216.53 745.14 195.79 745.1 180.57 752.39 176.36"/></g><g id="Bush_3_copy_4" data-name="Bush 3 copy 4"><polygon class="cls-8" points="761.51 160.94 761.45 179.8 745.15 189.28 745.2 170.42 761.51 160.94"/><polygon class="cls-4" points="745.2 170.42 745.15 189.28 728.74 179.8 728.79 160.94 745.2 170.42"/><polygon class="cls-5" points="761.51 160.94 745.2 170.42 728.79 160.94 745.1 151.47 761.51 160.94"/></g><g id="Bush_2" data-name="Bush 2"><polygon class="cls-8" points="727.92 199.15 727.81 236.87 695.2 255.82 695.31 218.1 727.92 199.15"/><polygon class="cls-4" points="695.31 218.1 695.2 255.82 662.38 236.87 662.49 199.15 695.31 218.1"/><polygon class="cls-5" points="727.92 199.15 695.31 218.1 662.49 199.15 695.1 180.2 727.92 199.15"/></g><g id="Branch_3_copy" data-name="Branch 3 copy"><polygon class="cls-7" points="707.59 227.37 714.84 223.16 750.76 243.89 743.51 248.1 707.59 227.37"/><polygon class="cls-6" points="750.85 237.1 750.81 252.31 750.78 260.61 758.03 256.4 758.05 248.1 758.1 232.89 750.85 237.1"/><polygon class="cls-7" points="743.56 232.89 750.8 228.68 758.1 232.89 750.85 237.1 743.56 232.89"/><polygon class="cls-12" points="750.85 237.1 750.81 252.31 750.78 260.61 707.57 235.75 707.59 227.37 743.51 248.1 743.56 232.89 750.85 237.1"/></g><g id="Bush_2_copy" data-name="Bush 2 copy"><polygon class="cls-8" points="767.14 217.94 767.09 236.79 750.79 246.27 750.84 227.41 767.14 217.94"/><polygon class="cls-4" points="750.84 227.41 750.79 246.27 734.38 236.79 734.43 217.94 750.84 227.41"/><polygon class="cls-5" points="767.14 217.94 750.84 227.41 734.43 217.94 750.73 208.46 767.14 217.94"/></g><g id="Branch_3_copy_3" data-name="Branch 3 copy 3"><polygon class="cls-7" points="458.6 214.78 465.84 210.56 501.76 231.3 494.52 235.51 458.6 214.78"/><polygon class="cls-6" points="501.85 224.51 501.81 239.72 501.79 248.02 509.03 243.81 509.06 235.51 509.1 220.29 501.85 224.51"/><polygon class="cls-7" points="494.56 220.3 501.81 216.09 509.1 220.29 501.85 224.51 494.56 220.3"/><polygon class="cls-12" points="501.85 224.51 501.81 239.72 501.79 248.02 458.57 223.16 458.6 214.78 494.52 235.51 494.56 220.3 501.85 224.51"/></g><g id="Bush_2_copy_3" data-name="Bush 2 copy 3"><polygon class="cls-8" points="518.15 205.35 518.09 224.2 501.79 233.68 501.84 214.82 518.15 205.35"/><polygon class="cls-4" points="501.84 214.82 501.79 233.68 485.38 224.2 485.43 205.35 501.84 214.82"/><polygon class="cls-5" points="518.15 205.35 501.84 214.82 485.43 205.35 501.74 195.87 518.15 205.35"/></g><g id="Branch_1_copy_2" data-name="Branch 1 copy 2"><polygon class="cls-7" points="645.13 246.12 637.88 241.91 673.8 221.17 681.05 225.38 645.13 246.12"/><polygon class="cls-12" points="637.83 250.33 637.79 235.12 630.54 230.9 630.59 246.12 630.61 254.5 637.86 258.71 637.83 250.33"/><polygon class="cls-7" points="637.79 235.12 630.54 230.9 637.84 226.69 645.08 230.9 637.79 235.12"/><polygon class="cls-6" points="645.08 230.9 645.13 246.12 681.05 225.38 681.07 233.76 637.86 258.71 637.83 250.33 637.79 235.12 645.08 230.9"/></g><g id="Bush_5_copy_2" data-name="Bush 5 copy 2"><polygon class="cls-8" points="654.17 215.95 654.12 234.81 637.82 244.28 637.87 225.43 654.17 215.95"/><polygon class="cls-4" points="637.87 225.43 637.82 244.28 621.41 234.81 621.46 215.95 637.87 225.43"/><polygon class="cls-5" points="654.17 215.95 637.87 225.43 621.46 215.95 637.76 206.48 654.17 215.95"/></g><g id="Branch_2_copy" data-name="Branch 2 copy"><polygon class="cls-12" points="742.61 62.39 735.37 58.18 735.32 42.97 742.57 47.18 742.61 62.39"/><polygon class="cls-7" points="742.57 47.18 735.32 42.97 742.62 38.76 749.86 42.97 742.57 47.18"/><polygon class="cls-7" points="706.69 83.13 699.45 78.92 735.37 58.18 742.61 62.39 706.69 83.13"/><polygon class="cls-12" points="706.72 91.51 699.47 87.3 699.45 78.92 706.69 83.13 706.72 91.51"/><polygon class="cls-6" points="749.86 42.97 749.9 58.18 749.93 66.48 706.72 91.51 706.69 83.13 742.61 62.39 742.57 47.18 749.86 42.97"/></g><g id="Bush_3_copy" data-name="Bush 3 copy"><polygon class="cls-8" points="758.98 27.55 758.92 46.41 742.62 55.88 742.67 37.02 758.98 27.55"/><polygon class="cls-4" points="742.67 37.02 742.62 55.88 726.21 46.41 726.26 27.55 742.67 37.02"/><polygon class="cls-5" points="758.98 27.55 742.67 37.02 726.26 27.55 742.57 18.07 758.98 27.55"/></g><g id="Bush_3" data-name="Bush 3"><polygon class="cls-8" points="733.29 83.38 733.18 121.09 700.58 140.04 700.68 102.33 733.29 83.38"/><polygon class="cls-4" points="700.68 102.33 700.58 140.04 667.75 121.09 667.86 83.38 700.68 102.33"/><polygon class="cls-5" points="733.29 83.38 700.68 102.33 667.86 83.38 700.47 64.43 733.29 83.38"/></g><g id="Branch_3_copy_4" data-name="Branch 3 copy 4"><polygon class="cls-7" points="713.79 111.68 721.04 107.47 756.96 128.21 749.71 132.42 713.79 111.68"/><polygon class="cls-6" points="757.05 121.41 757.01 136.63 756.98 144.92 764.23 140.71 764.25 132.42 764.3 117.2 757.05 121.41"/><polygon class="cls-7" points="749.76 117.2 757 112.99 764.3 117.2 757.05 121.41 749.76 117.2"/><polygon class="cls-12" points="757.05 121.41 757.01 136.63 756.98 144.92 713.77 120.06 713.79 111.68 749.71 132.42 749.76 117.2 757.05 121.41"/></g><g id="Bush_2_copy_4" data-name="Bush 2 copy 4"><polygon class="cls-8" points="773.34 102.25 773.29 121.11 756.99 130.58 757.04 111.72 773.34 102.25"/><polygon class="cls-4" points="757.04 111.72 756.99 130.58 740.58 121.11 740.63 102.25 757.04 111.72"/><polygon class="cls-5" points="773.34 102.25 757.04 111.72 740.63 102.25 756.93 92.78 773.34 102.25"/></g><g id="Branch_1_copy_3" data-name="Branch 1 copy 3"><polygon class="cls-7" points="646.63 120.99 639.38 116.78 675.3 96.04 682.55 100.25 646.63 120.99"/><polygon class="cls-12" points="639.33 125.2 639.29 109.99 632.04 105.78 632.09 120.99 632.11 129.37 639.36 133.58 639.33 125.2"/><polygon class="cls-7" points="639.29 109.99 632.04 105.78 639.34 101.56 646.58 105.78 639.29 109.99"/><polygon class="cls-6" points="646.58 105.78 646.63 120.99 682.55 100.25 682.57 108.63 639.36 133.58 639.33 125.2 639.29 109.99 646.58 105.78"/></g><g id="Bush_5_copy_3" data-name="Bush 5 copy 3"><polygon class="cls-8" points="655.67 90.83 655.62 109.68 639.32 119.16 639.37 100.3 655.67 90.83"/><polygon class="cls-4" points="639.37 100.3 639.32 119.16 622.9 109.68 622.96 90.83 639.37 100.3"/><polygon class="cls-5" points="655.67 90.83 639.37 100.3 622.96 90.83 639.26 81.35 655.67 90.83"/></g><g id="Branch_1_copy_4" data-name="Branch 1 copy 4"><polygon class="cls-7" points="419.32 114.68 412.08 110.47 448 89.73 455.25 93.94 419.32 114.68"/><polygon class="cls-12" points="412.03 118.89 411.99 103.68 404.74 99.47 404.79 114.68 404.81 123.06 412.06 127.27 412.03 118.89"/><polygon class="cls-7" points="411.99 103.68 404.74 99.47 412.04 95.25 419.28 99.47 411.99 103.68"/><polygon class="cls-6" points="419.28 99.47 419.32 114.68 455.25 93.94 455.27 102.32 412.06 127.27 412.03 118.89 411.99 103.68 419.28 99.47"/></g><g id="Bush_5_copy_4" data-name="Bush 5 copy 4"><polygon class="cls-8" points="428.37 84.51 428.32 103.37 412.01 112.85 412.07 93.99 428.37 84.51"/><polygon class="cls-4" points="412.07 93.99 412.01 112.85 395.6 103.37 395.66 84.51 412.07 93.99"/><polygon class="cls-5" points="428.37 84.51 412.07 93.99 395.66 84.51 411.96 75.04 428.37 84.51"/></g><g id="Branch_3_copy_2" data-name="Branch 3 copy 2"><polygon class="cls-7" points="482.45 93.98 489.7 89.77 525.62 110.51 518.37 114.72 482.45 93.98"/><polygon class="cls-6" points="525.71 103.72 525.66 118.93 525.64 127.23 532.89 123.02 532.91 114.72 532.95 99.5 525.71 103.72"/><polygon class="cls-7" points="518.41 99.51 525.66 95.3 532.95 99.5 525.71 103.72 518.41 99.51"/><polygon class="cls-12" points="525.71 103.72 525.66 118.93 525.64 127.23 482.43 102.36 482.45 93.98 518.37 114.72 518.41 99.51 525.71 103.72"/></g><g id="Bush_2_copy_2" data-name="Bush 2 copy 2"><polygon class="cls-8" points="542 84.56 541.95 103.41 525.64 112.89 525.7 94.03 542 84.56"/><polygon class="cls-4" points="525.7 94.03 525.64 112.89 509.23 103.41 509.29 84.56 525.7 94.03"/><polygon class="cls-5" points="542 84.56 525.7 94.03 509.29 84.56 525.59 75.08 542 84.56"/></g></g><g id="Box"><circle class="cls-13" cx="699.6" cy="522.26" r="10.73"/><path class="cls-6" d="M1013.72,558.32c0-.06,0-.11,0-.17s0-.11,0-.16,0-.11,0-.17l0-.17a1.22,1.22,0,0,1,0-.17l0-.17c0-.06,0-.12,0-.18s0-.12.05-.18,0-.12,0-.18l.06-.17.06-.18.06-.16a1.22,1.22,0,0,1,.07-.17l.07-.16a1.11,1.11,0,0,1,.07-.16l.09-.18c0-.07.07-.14.1-.2l.17-.3c.08-.14.16-.27.25-.4l.21-.31.15-.19.13-.16.14-.16a.86.86,0,0,1,.13-.14l.14-.15a1.85,1.85,0,0,1,.14-.14l.15-.14.15-.13.15-.12.15-.11.14-.11.15-.09.14-.09,0,0,.11-.06.14-.07.13-.07.14,0,.14-.06.13,0,.14,0,.14,0,.15,0,.15,0h.33l.2,0,.23.07a1.39,1.39,0,0,1,.28.12L1113,606.76a1.43,1.43,0,0,0-.28-.13l-.23-.07-.2,0H1112l-.15,0-.15,0-.14,0-.14,0-.13.05-.14,0-.13,0-.14.07-.14.07-.1.06,0,0-.14.09-.14.09-.15.11-.15.11-.15.12-.15.13-.15.14-.14.14-.14.15-.13.14a1.83,1.83,0,0,0-.13.16,1,1,0,0,0-.13.16l-.15.2-.22.3c-.09.13-.17.27-.25.4l-.17.3-.1.2-.09.18-.07.16c0,.06,0,.11-.07.16s0,.11-.07.17l-.06.16-.06.18a1.09,1.09,0,0,0,0,.17l-.06.18c0,.06,0,.12,0,.18s0,.12,0,.18l0,.17,0,.17,0,.17c0,.06,0,.12,0,.17s0,.11,0,.16v.17a.76.76,0,0,0,0,.15h0c0,.06,0,.11,0,.16a.81.81,0,0,0,0,.16c0,.06,0,.11,0,.17l0,.16,0,.16c0,.06,0,.12.05.17a.55.55,0,0,0,.06.18,1.08,1.08,0,0,0,.08.19c0,.09.08.16.12.24a1.88,1.88,0,0,0,.59.57l-93.54-54.36a2,2,0,0,1-.72-.81c0-.06,0-.12-.08-.19l-.06-.18c0-.05,0-.11,0-.17l0-.16,0-.17c0-.05,0-.1,0-.16a.92.92,0,0,0,0-.16v-.16h0Z" transform="translate(-311.3 -29.8)"/><circle class="cls-14" cx="801.69" cy="583.04" r="10.73"/><path class="cls-7" d="M1109.21,619v-.17c0-.05,0-.11,0-.16s0-.11,0-.17l0-.17,0-.17,0-.18c0-.05,0-.11,0-.17s0-.12,0-.18a1.21,1.21,0,0,1,0-.18l-.06-.18-.06-.17-.06-.16c0-.06,0-.11-.07-.17a1.11,1.11,0,0,0-.07-.16l-.07-.16-.09-.18c0-.07-.07-.14-.1-.2l-.17-.3c-.08-.14-.16-.27-.25-.4s-.14-.21-.22-.31l-.15-.19-.13-.17-.13-.15a.86.86,0,0,0-.13-.14l-.14-.15-.14-.14-.15-.14-.15-.13-.15-.12-.15-.12-.15-.1-.14-.1-.14-.08,0,0-.1-.06-.14-.07-.14-.07-.13-.06-.14,0-.13,0-.14,0-.14,0-.15,0-.15,0h-.33l-.2,0-.23.07a1.39,1.39,0,0,0-.28.12l-93.54,54.36.27-.12.24-.07.19,0h.34l.15,0,.15,0,.13,0,.14,0,.14,0,.14.06.13.05.14.07.13.07.11.06,0,0,.14.09.14.09.15.11.15.11.15.12.15.13.15.14.14.14.14.15.13.14c0,.05.09.1.13.16s.09.1.13.16l.15.19.22.31c.08.13.17.26.25.4l.16.3c0,.06.07.13.11.2a1.42,1.42,0,0,1,.08.18c0,.05,0,.11.08.16s0,.11.07.16l.06.17a1.11,1.11,0,0,1,.07.16l.06.18s0,.11,0,.17a442509860372.21,442509860372.21,0,0,1,.1.36,1.16,1.16,0,0,1,0,.18,1,1,0,0,1,0,.17l0,.17a1.11,1.11,0,0,1,0,.17,1,1,0,0,1,0,.17.86.86,0,0,1,0,.16,1,1,0,0,1,0,.17v.15h0v.16c0,.06,0,.11,0,.16a.78.78,0,0,1,0,.16,1,1,0,0,1,0,.17l0,.16c0,.06,0,.12-.05.17l-.06.18a1.08,1.08,0,0,1-.08.19,2,2,0,0,1-.71.81l93.54-54.37a1.69,1.69,0,0,0,.59-.57,1.67,1.67,0,0,0,.12-.23,1.08,1.08,0,0,0,.08-.19.64.64,0,0,0,.06-.18.84.84,0,0,0,.05-.17l0-.17,0-.16s0-.1,0-.16a.81.81,0,0,0,0-.16.86.86,0,0,0,0-.16h0A.76.76,0,0,0,1109.21,619Z" transform="translate(-311.3 -29.8)"/><path class="cls-6" d="M1007.12,558.21V558s0-.11,0-.16,0-.11,0-.17l0-.17,0-.17,0-.17c0-.06,0-.12,0-.18s0-.12,0-.18l-.06-.18a.84.84,0,0,0-.05-.17l-.06-.18-.06-.16c0-.06,0-.11-.07-.17s-.05-.1-.07-.16l-.07-.16-.09-.18c0-.07-.07-.14-.1-.2l-.17-.3c-.08-.14-.16-.27-.25-.4s-.14-.21-.22-.31l-.15-.19a501743775098.62,501743775098.62,0,0,0-.26-.32l-.13-.14-.14-.15-.14-.14-.15-.14-.15-.13-.15-.12-.15-.11-.15-.11-.14-.09-.14-.09,0,0-.1-.06-.14-.07-.14-.07-.13-.05-.14,0-.13-.05-.14,0-.14,0-.15,0-.15,0h-.33l-.2,0-.23.07a1,1,0,0,0-.28.13l-93.54,54.36a1.66,1.66,0,0,1,.27-.13l.24-.07.19,0h.34l.15,0,.15,0,.13,0,.14,0,.14.05.14,0,.13,0,.14.07.13.07.11.06,0,0,.15.09.14.09.15.11.15.11.15.12.15.13.15.14.14.14.14.15.13.14.13.16c0,.05.09.1.13.16l.15.2c.07.1.15.2.21.3l.26.4.16.3.11.2a1.42,1.42,0,0,1,.08.18c0,.05.05.11.08.16s0,.11.07.16l.06.17a1.11,1.11,0,0,1,.07.16l.06.18,0,.17a442509860372.63,442509860372.63,0,0,1,.1.36,1.16,1.16,0,0,1,0,.18,1.36,1.36,0,0,1,0,.17l0,.17a1.11,1.11,0,0,1,0,.17,1.11,1.11,0,0,1,0,.17.92.92,0,0,1,0,.16,1,1,0,0,1,0,.17v.15h0v.16c0,.06,0,.11,0,.16a1,1,0,0,1,0,.17,1,1,0,0,1,0,.16l0,.16c0,.06,0,.12,0,.17l-.06.18a1.08,1.08,0,0,1-.08.19,1.83,1.83,0,0,1-.13.24,1.75,1.75,0,0,1-.58.57l93.54-54.36a1.81,1.81,0,0,0,.59-.58,1.67,1.67,0,0,0,.12-.23,1.08,1.08,0,0,0,.08-.19.64.64,0,0,0,.06-.18.84.84,0,0,0,0-.17l0-.16,0-.17c0-.05,0-.1,0-.16a.81.81,0,0,0,0-.16s0-.11,0-.16h0A.76.76,0,0,0,1007.12,558.21Z" transform="translate(-311.3 -29.8)"/><circle class="cls-15" cx="594.73" cy="582.85" r="10.73"/><path class="cls-7" d="M906.45,618.12s0-.1,0-.16,0-.11,0-.16,0-.11,0-.17a.88.88,0,0,0,0-.17l0-.17a1.16,1.16,0,0,0,0-.18c0-.05,0-.11,0-.17s0-.12,0-.18,0-.12.05-.18l.06-.18.06-.17.06-.16a1.22,1.22,0,0,1,.07-.17l.06-.16.08-.16.09-.18a1.24,1.24,0,0,1,.1-.2c.05-.1.11-.2.17-.3s.16-.27.25-.4l.21-.31.15-.19.13-.17.13-.15.14-.14.13-.15.15-.14.15-.14a1,1,0,0,1,.15-.13l.15-.12.14-.12.15-.1.14-.1.15-.08,0,0,.11-.06.14-.07.13-.07.14-.06.13,0,.14,0,.14,0,.14,0,.14,0,.15,0h.34l.19,0,.24.07a1.11,1.11,0,0,1,.27.12l93.55,54.36a1.39,1.39,0,0,0-.28-.12l-.23-.07-.2,0h-.33l-.15,0-.15,0-.14,0-.14,0-.13,0-.14.06-.13.05-.14.07-.14.07-.11.06,0,0-.14.09-.15.09-.14.1-.15.12-.15.12-.15.13-.15.14-.14.14-.14.15a.86.86,0,0,0-.13.14,573421457070.45,573421457070.45,0,0,1-.26.32,1.25,1.25,0,0,0-.15.19c-.08.1-.15.21-.22.31s-.17.26-.25.4l-.17.3-.1.2-.09.18-.07.16-.07.16c0,.06,0,.11-.07.17l-.06.16-.06.18-.06.17a1.21,1.21,0,0,1,0,.18c0,.06,0,.12-.05.18a1.16,1.16,0,0,1,0,.18l0,.17,0,.17,0,.17c0,.06,0,.11,0,.17s0,.11,0,.16a1,1,0,0,1,0,.17v.15h0a.86.86,0,0,0,0,.16.81.81,0,0,0,0,.16c0,.06,0,.11,0,.16l0,.17,0,.16a.84.84,0,0,0,0,.17,1.21,1.21,0,0,0,0,.18c0,.07.06.13.08.19l.13.23a1.81,1.81,0,0,0,.59.58l-93.55-54.37a1.66,1.66,0,0,1-.58-.57,1.71,1.71,0,0,1-.13-.23c0-.06-.05-.12-.08-.19l-.06-.18s0-.11,0-.17a.85.85,0,0,1,0-.17s0-.1,0-.16,0-.1,0-.16a.86.86,0,0,0,0-.16v-.16h0Z" transform="translate(-311.3 -29.8)"/><circle class="cls-16" cx="696.82" cy="643.63" r="10.73"/><path class="cls-7" d="M910.94,498.05a1.33,1.33,0,0,1,0,.28,2.68,2.68,0,0,1-.07.27c0,.09-.08.18-.13.27s-.12.19-.19.28a3,3,0,0,1-.3.32,3.61,3.61,0,0,1-.6.45l-.06,0a5.13,5.13,0,0,1-1,.46,6.71,6.71,0,0,1-.91.22l-.6.09a4.71,4.71,0,0,1-.53,0H906l-.47,0-.46-.05-.48-.08-.49-.13a4.92,4.92,0,0,1-.58-.19,5.53,5.53,0,0,1-.69-.33,2.38,2.38,0,0,1-1.41-2l-.3,108.2a2.35,2.35,0,0,0,1.4,2,7.32,7.32,0,0,0,.69.33l.58.2.5.12.47.08.46,0,.47,0h.49a4.58,4.58,0,0,0,.53,0l.61-.08a8.46,8.46,0,0,0,.9-.23,5.13,5.13,0,0,0,1-.46l.06,0a3.61,3.61,0,0,0,.6-.45,2.24,2.24,0,0,0,.3-.32,2.31,2.31,0,0,0,.19-.28c.05-.09.09-.18.13-.27a2.76,2.76,0,0,0,.08-.27l0-.28v0l.3-108.19Z" transform="translate(-311.3 -29.8)"/><path class="cls-7" d="M1013,559.58a1.33,1.33,0,0,1,0,.28,2.68,2.68,0,0,1-.07.27c0,.09-.08.18-.13.27s-.12.19-.19.28a3,3,0,0,1-.3.32,3.61,3.61,0,0,1-.6.45l-.06,0a5.13,5.13,0,0,1-1,.46,6.71,6.71,0,0,1-.91.22,5.77,5.77,0,0,1-.6.09,4.71,4.71,0,0,1-.53,0h-.49l-.47,0-.46,0-.47-.08-.5-.13a4.92,4.92,0,0,1-.58-.19,6.3,6.3,0,0,1-.69-.33,2.4,2.4,0,0,1-1.41-2l-.3,108.2a2.35,2.35,0,0,0,1.4,2,7.32,7.32,0,0,0,.69.33l.58.2.5.12.47.08.47.05.46,0h.49a4.58,4.58,0,0,0,.53,0l.61-.08a8.46,8.46,0,0,0,.9-.23,5.13,5.13,0,0,0,1-.46l.06,0a3.61,3.61,0,0,0,.6-.45,2.24,2.24,0,0,0,.3-.32,2.31,2.31,0,0,0,.19-.28c0-.09.09-.18.13-.27a2.76,2.76,0,0,0,.08-.27l0-.28v0l.3-108.19Z" transform="translate(-311.3 -29.8)"/><path class="cls-7" d="M1117.9,496.75a1.33,1.33,0,0,1,0,.28,1.38,1.38,0,0,1-.08.27,1.59,1.59,0,0,1-.12.27,2.43,2.43,0,0,1-.2.28,2.15,2.15,0,0,1-.29.32,3.33,3.33,0,0,1-.61.45l0,0a5,5,0,0,1-1,.46,6.57,6.57,0,0,1-.9.22,6,6,0,0,1-.61.09,4.53,4.53,0,0,1-.52,0H1113l-.47,0-.46-.05-.48-.08-.5-.13c-.19-.05-.39-.12-.58-.19a6.13,6.13,0,0,1-.68-.33,2.4,2.4,0,0,1-1.41-2l-.31,108.19a2.38,2.38,0,0,0,1.41,2,6.3,6.3,0,0,0,.69.33l.58.2.5.12.47.08.46,0,.47,0h.49a4.71,4.71,0,0,0,.53,0,5.77,5.77,0,0,0,.6-.09,6.37,6.37,0,0,0,.91-.22,5.13,5.13,0,0,0,1-.46l.06,0a3.61,3.61,0,0,0,.6-.45,3,3,0,0,0,.3-.32c.07-.09.13-.19.19-.28s.09-.18.13-.27a2.68,2.68,0,0,0,.07-.27,1.27,1.27,0,0,0,0-.28v0l.31-108.19Z" transform="translate(-311.3 -29.8)"/><path class="cls-6" d="M1015.81,436.73a1.24,1.24,0,0,1,0,.27,1.38,1.38,0,0,1-.08.27,1.59,1.59,0,0,1-.12.27,2.51,2.51,0,0,1-.2.29,2.8,2.8,0,0,1-.29.32,3.84,3.84,0,0,1-.61.44l-.05,0a6.28,6.28,0,0,1-1,.46,8.45,8.45,0,0,1-.9.22,6,6,0,0,1-.61.08l-.52,0h-.49l-.47,0c-.16,0-.31,0-.46-.06l-.48-.08a4.54,4.54,0,0,1-.5-.12c-.19-.06-.39-.12-.58-.2a3.89,3.89,0,0,1-.68-.33,2.38,2.38,0,0,1-1.41-2L1006,544.85a2.41,2.41,0,0,0,1.41,2,6.3,6.3,0,0,0,.69.33c.18.07.38.13.58.19a4.05,4.05,0,0,0,.5.12c.15,0,.31.06.47.09l.46.05.47,0h.49l.53,0a5.77,5.77,0,0,0,.6-.09,8.63,8.63,0,0,0,.91-.22,5.75,5.75,0,0,0,1-.46l.06,0a4.24,4.24,0,0,0,.6-.44c.11-.11.21-.21.3-.32a2.9,2.9,0,0,0,.19-.29c.05-.09.09-.18.13-.27a2.68,2.68,0,0,0,.07-.27,1.24,1.24,0,0,0,0-.27v0l.31-108.19Z" transform="translate(-311.3 -29.8)"/><circle class="cls-17" cx="699.6" cy="404.99" r="10.73"/><path class="cls-7" d="M1013.72,441.05c0-.06,0-.11,0-.17s0-.11,0-.16,0-.11,0-.17l0-.17a1.22,1.22,0,0,1,0-.17l0-.17c0-.06,0-.12,0-.18s0-.12.05-.18,0-.12,0-.18l.06-.17.06-.18.06-.16a1.22,1.22,0,0,1,.07-.17l.07-.16a1.11,1.11,0,0,1,.07-.16l.09-.18c0-.07.07-.13.1-.2l.17-.3c.08-.14.16-.27.25-.4l.21-.3.15-.2.13-.16.14-.16.13-.14.14-.15a1.85,1.85,0,0,1,.14-.14l.15-.14.15-.13.15-.12.15-.11.14-.11.15-.09.14-.09,0,0,.11-.06.14-.07.13-.07.14-.05.14-.05.13-.05.14,0,.14,0,.15,0,.15,0h.33l.2,0,.23.07a1.43,1.43,0,0,1,.28.13L1113,489.49a1.43,1.43,0,0,0-.28-.13.86.86,0,0,0-.23-.06.69.69,0,0,0-.2,0H1112l-.15,0-.15,0-.14,0-.14,0-.13.05-.14.05-.13.06-.14.06-.14.07-.1.06,0,0-.14.09-.14.09-.15.11-.15.11-.15.12-.15.13-.15.14-.14.14-.14.15-.13.15-.13.15a1,1,0,0,0-.13.16l-.15.2-.22.3c-.09.13-.17.27-.25.4l-.17.3-.1.2-.09.18c0,.06-.05.11-.07.16s0,.11-.07.17,0,.1-.07.16l-.06.17-.06.17a1.09,1.09,0,0,0,0,.17l-.06.18c0,.06,0,.12,0,.18s0,.12,0,.18l0,.17,0,.18,0,.17c0,.05,0,.11,0,.16s0,.11,0,.17v.16a.76.76,0,0,0,0,.15h0c0,.06,0,.11,0,.16a.81.81,0,0,0,0,.16c0,.06,0,.11,0,.17l0,.16,0,.16c0,.06,0,.12.05.18a.49.49,0,0,0,.06.17,1.67,1.67,0,0,0,.08.2l.12.23a1.88,1.88,0,0,0,.59.57l-93.54-54.36a1.72,1.72,0,0,1-.59-.58,1.26,1.26,0,0,1-.13-.23c0-.06,0-.12-.08-.19l-.06-.18c0-.05,0-.11,0-.17l0-.16,0-.16c0-.06,0-.11,0-.17a.92.92,0,0,0,0-.16v-.16h0Z" transform="translate(-311.3 -29.8)"/><circle class="cls-18" cx="801.69" cy="465.77" r="10.73"/><path class="cls-7" d="M1109.21,501.72v-.17c0-.05,0-.11,0-.16s0-.11,0-.17l0-.17,0-.17,0-.17c0-.06,0-.12,0-.18s0-.12,0-.18a1.21,1.21,0,0,1,0-.18l-.06-.17-.06-.18-.06-.16c0-.06,0-.11-.07-.17l-.07-.16-.07-.16-.09-.18c0-.07-.07-.14-.1-.2l-.17-.3c-.08-.14-.16-.27-.25-.4s-.14-.21-.22-.31l-.15-.19a301046264944.83,301046264944.83,0,0,0-.26-.32.86.86,0,0,0-.13-.14l-.14-.15-.14-.14-.15-.14-.15-.13-.15-.12-.15-.11-.15-.11-.14-.09-.14-.09,0,0-.1-.06-.14-.07-.14-.07-.13-.05-.14-.06-.13,0-.14,0-.14,0-.15,0-.15,0h-.33l-.2,0-.23.07a1.39,1.39,0,0,0-.28.12l-93.54,54.37a1.66,1.66,0,0,1,.27-.13l.24-.07.19,0h.34l.15,0,.15,0,.13,0,.14,0,.14.05.14,0,.13.05.14.07.13.07.11.06,0,0,.14.09.14.09.15.11.15.11.15.12.15.13.15.14.14.14.14.15.13.14.13.16c0,.05.09.1.13.16l.15.2.22.3c.08.13.17.26.25.4l.16.3.11.2a1.42,1.42,0,0,1,.08.18c0,.05,0,.11.08.16s0,.11.07.16l.06.17a1.11,1.11,0,0,1,.07.16l.06.18,0,.17a442509860372.2,442509860372.2,0,0,1,.1.36,1.16,1.16,0,0,1,0,.18,1,1,0,0,1,0,.17l0,.17a1.11,1.11,0,0,1,0,.17,1,1,0,0,1,0,.17.86.86,0,0,1,0,.16,1,1,0,0,1,0,.17v.15h0v.16c0,.06,0,.11,0,.16a1,1,0,0,1,0,.17,1,1,0,0,1,0,.16l0,.16c0,.06,0,.12-.05.17l-.06.18a1.08,1.08,0,0,1-.08.19,1.26,1.26,0,0,1-.13.23,1.69,1.69,0,0,1-.58.58L1108.23,504a1.81,1.81,0,0,0,.59-.58,1.67,1.67,0,0,0,.12-.23,1.08,1.08,0,0,0,.08-.19.64.64,0,0,0,.06-.18.84.84,0,0,0,.05-.17l0-.16,0-.17c0-.05,0-.1,0-.16a.81.81,0,0,0,0-.16.86.86,0,0,0,0-.16h0A.76.76,0,0,0,1109.21,501.72Z" transform="translate(-311.3 -29.8)"/><path class="cls-7" d="M1007.12,440.94v-.17s0-.1,0-.16,0-.11,0-.17l0-.17,0-.17,0-.17c0-.06,0-.12,0-.18s0-.12,0-.18l-.06-.18a1.09,1.09,0,0,0-.05-.17l-.06-.18-.06-.16c0-.06,0-.11-.07-.17s-.05-.1-.07-.16l-.07-.16-.09-.18c0-.07-.07-.13-.1-.2l-.17-.3c-.08-.13-.16-.27-.25-.4l-.22-.3-.15-.2a1,1,0,0,0-.13-.16,1.83,1.83,0,0,0-.13-.16l-.13-.14-.14-.15a1.85,1.85,0,0,1-.14-.14l-.15-.14-.15-.13-.15-.12-.15-.11-.15-.11-.14-.09-.14-.09,0,0-.1-.06-.14-.07-.14-.07-.13-.05-.14-.05-.13-.05-.14,0-.14,0-.15,0-.15,0h-.33l-.2,0-.23.07a1.43,1.43,0,0,0-.28.13l-93.54,54.36a1.66,1.66,0,0,1,.27-.13,1.05,1.05,0,0,1,.24-.06.63.63,0,0,1,.19,0h.34l.15,0,.15,0,.13,0,.14,0,.14.05.14.05.13.06.14.06.13.07.11.06,0,0,.15.09.14.09.15.11.15.11.15.12.15.13.15.14.14.14.14.15.13.15.13.15.13.16.15.2c.07.1.15.2.21.3l.26.4.16.3.11.2a1.42,1.42,0,0,1,.08.18l.08.16c0,.06,0,.11.07.17l.06.16a1.22,1.22,0,0,1,.07.17l.06.17,0,.17a295006573654,295006573654,0,0,1,.1.36,1.16,1.16,0,0,1,0,.18,1.36,1.36,0,0,1,0,.17l0,.18a22.94,22.94,0,0,0,0,.33,1,1,0,0,1,0,.17.81.81,0,0,1,0,.16v.15h0v.16c0,.06,0,.11,0,.16a1,1,0,0,1,0,.17.88.88,0,0,1,0,.16l0,.16c0,.06,0,.12,0,.18l-.06.17a1.67,1.67,0,0,1-.08.2l-.13.23a1.75,1.75,0,0,1-.58.57l93.54-54.36a1.88,1.88,0,0,0,.59-.57,1.79,1.79,0,0,0,.12-.24,1.08,1.08,0,0,0,.08-.19.55.55,0,0,0,.06-.18.84.84,0,0,0,0-.17l0-.16,0-.16c0-.06,0-.11,0-.17a.81.81,0,0,0,0-.16c0-.05,0-.1,0-.16h0A.76.76,0,0,0,1007.12,440.94Z" transform="translate(-311.3 -29.8)"/><circle class="cls-19" cx="594.73" cy="465.58" r="10.73"/><path class="cls-7" d="M906.45,500.86c0-.06,0-.11,0-.17s0-.11,0-.16,0-.11,0-.17a.88.88,0,0,0,0-.17l0-.17a1.36,1.36,0,0,0,0-.17c0-.06,0-.12,0-.18s0-.12,0-.18,0-.12.05-.18l.06-.17.06-.18.06-.16a1.22,1.22,0,0,1,.07-.17l.06-.16.08-.16.09-.18a1.24,1.24,0,0,1,.1-.2c.05-.1.11-.2.17-.3s.16-.27.25-.4l.21-.31.15-.19.13-.16.13-.16a1.85,1.85,0,0,1,.14-.14l.13-.15.15-.14.15-.14a1,1,0,0,1,.15-.13l.15-.12.14-.12.15-.1.14-.09.15-.09,0,0,.11-.06.14-.07.13-.07.14-.05.13-.06.14,0,.14,0,.14,0,.14,0,.15,0h.34l.19,0,.24.07a1.11,1.11,0,0,1,.27.12l93.55,54.37a1.43,1.43,0,0,0-.28-.13l-.23-.07-.2,0h-.33l-.15,0-.15,0-.14,0-.14,0-.13.05-.14,0-.13.05-.14.07-.14.07-.11.06,0,0-.14.09-.15.09-.14.11-.15.11-.15.12-.15.13-.15.14-.14.14-.14.15-.13.14a602092529899.75,602092529899.75,0,0,0-.26.32,1,1,0,0,0-.15.2,3.3,3.3,0,0,0-.22.3c-.09.13-.17.26-.25.4l-.17.3c0,.06-.07.13-.1.2l-.09.18-.07.16-.07.16c0,.06,0,.11-.07.17l-.06.16-.06.18-.06.17a1.21,1.21,0,0,1,0,.18c0,.06,0,.12-.05.18a1.16,1.16,0,0,1,0,.18l0,.17,0,.17,0,.17c0,.06,0,.11,0,.17s0,.11,0,.16a1,1,0,0,1,0,.17v.15h0a.86.86,0,0,0,0,.16.81.81,0,0,0,0,.16c0,.06,0,.11,0,.16l0,.17,0,.16a.84.84,0,0,0,0,.17,1.21,1.21,0,0,0,0,.18c0,.07.06.13.08.19l.13.23a1.81,1.81,0,0,0,.59.58l-93.55-54.37a1.66,1.66,0,0,1-.58-.57,1.71,1.71,0,0,1-.13-.23c0-.06-.05-.12-.08-.19l-.06-.18c0-.05,0-.11,0-.17a.85.85,0,0,1,0-.17c0-.05,0-.1,0-.16s0-.1,0-.16a.92.92,0,0,0,0-.16V501h0Z" transform="translate(-311.3 -29.8)"/><circle class="cls-20" cx="696.82" cy="526.36" r="10.73"/></g></svg>