<?xml version="1.0" encoding="utf-8"?>
<!-- Generator: Adobe Illustrator 24.1.2, SVG Export Plug-In . SVG Version: 6.00 Build 0)  -->
<svg version="1.1" id="Layer_1" xmlns="http://www.w3.org/2000/svg" xmlns:xlink="http://www.w3.org/1999/xlink" x="0px" y="0px"
	 viewBox="0 0 1200 1200" style="enable-background:new 0 0 1200 1200;" xml:space="preserve">
<style type="text/css">
	.st0{fill:#FFFFFF;}
	.st1{fill:#A0A0A0;}
</style>
<rect class="st0" width="1200" height="1200"/>
<g>
	<g>
		<g>
			<g>
				<path d="M614.8,720.2c-4.6,0-8.3-3.7-8.3-8.3v-56.2c0-4.6,3.7-8.3,8.3-8.3s8.3,3.7,8.3,8.3v56.2
					C623.1,716.5,619.4,720.2,614.8,720.2z"/>
			</g>
			<g>
				<g>
					<g>
						<g>
							<path d="M643.2,748.1c-19.9,0-36.1-16.2-36.1-36.1c0-4.6,3.7-8.3,8.3-8.3c4.6,0,8.3,3.7,8.3,8.3c0,10.8,8.8,19.5,19.5,19.5
								c10.8,0,19.5-8.8,19.5-19.5c0-4.6,3.7-8.3,8.3-8.3s8.3,3.7,8.3,8.3C679.2,731.9,663.1,748.1,643.2,748.1z"/>
							<path d="M650.1,691.5h-32c-4.6,0-8.3-3.7-8.3-8.3c0-4.6,3.7-8.3,8.3-8.3h32c4.6,0,8.3,3.7,8.3,8.3
								C658.4,687.8,654.7,691.5,650.1,691.5z"/>
						</g>
					</g>
					<path d="M95.6,670.9c-4.6,0-8.3-3.7-8.3-8.3v-80.5c0-4.6,3.7-8.3,8.3-8.3s8.3,3.7,8.3,8.3v80.5
						C103.9,667.2,100.2,670.9,95.6,670.9z"/>
					<path d="M95.6,707.3c-4.6,0-8.3-3.7-8.3-8.3v-80.5c0-4.6,3.7-8.3,8.3-8.3s8.3,3.7,8.3,8.3V699
						C103.9,703.6,100.2,707.3,95.6,707.3z"/>
					<g>
						<g>
							<path d="M570.7,618c-19.8,0-35.8-16.1-35.8-35.8s16.1-35.8,35.8-35.8s35.8,16.1,35.8,35.8S590.5,618,570.7,618z M570.7,562.9
								c-10.6,0-19.3,8.7-19.3,19.3s8.7,19.3,19.3,19.3s19.3-8.7,19.3-19.3S581.4,562.9,570.7,562.9z"/>
							<path d="M599.4,619.1c-4.6,0-8.3-3.7-8.3-8.3v-56.2c0-4.6,3.7-8.3,8.3-8.3c4.6,0,8.3,3.7,8.3,8.3v56.2
								C607.7,615.4,604,619.1,599.4,619.1z"/>
						</g>
					</g>
					<path d="M391.5,619.1c-19.9,0-36.1-16.2-36.1-36.1c0-4.6,3.7-8.3,8.3-8.3s8.3,3.7,8.3,8.3c0,10.8,8.8,19.5,19.5,19.5
						S411,593.8,411,583c0-4.6,3.7-8.3,8.3-8.3s8.3,3.7,8.3,8.3C427.6,602.9,411.4,619.1,391.5,619.1z"/>
					<path d="M419.2,590.7c-4.6,0-8.3-3.7-8.3-8.3v-54c0-4.6,3.7-8.3,8.3-8.3s8.3,3.7,8.3,8.3v54C427.5,587,423.8,590.7,419.2,590.7
						z"/>
					<path d="M419.2,555.5c-4.6,0-8.3-3.7-8.3-8.3v-54c0-4.6,3.7-8.3,8.3-8.3s8.3,3.7,8.3,8.3v54
						C427.5,551.8,423.8,555.5,419.2,555.5z"/>
					<g>
						<g>
							<path d="M1077.1,617.2c-19.8,0-35.8-16.1-35.8-35.8c0-19.8,16.1-35.8,35.8-35.8s35.8,16.1,35.8,35.8
								C1112.9,601.1,1096.8,617.2,1077.1,617.2z M1077.1,562.1c-10.6,0-19.3,8.7-19.3,19.3s8.7,19.3,19.3,19.3s19.3-8.7,19.3-19.3
								S1087.7,562.1,1077.1,562.1z"/>
							<path d="M1076.9,670.9c-19.9,0-36.1-16.2-36.1-36.1c0-4.6,3.7-8.3,8.3-8.3c4.6,0,8.3,3.7,8.3,8.3c0,10.8,8.8,19.5,19.5,19.5
								c10.8,0,19.5-8.8,19.5-19.5c0-4.6,3.7-8.3,8.3-8.3c4.6,0,8.3,3.7,8.3,8.3C1113,654.7,1096.8,670.9,1076.9,670.9z"/>
							<path d="M1104.6,642.5c-4.6,0-8.3-3.7-8.3-8.3v-54c0-4.6,3.7-8.3,8.3-8.3c4.6,0,8.3,3.7,8.3,8.3v54
								C1112.9,638.8,1109.2,642.5,1104.6,642.5z"/>
						</g>
					</g>
					<g>
						<g>
							<path d="M240.7,588.4c-4.6,0-8.3-3.7-8.3-8.3c0-10.8-8.8-19.5-19.5-19.5c-10.8,0-19.5,8.8-19.5,19.5c0,4.6-3.7,8.3-8.3,8.3
								s-8.3-3.7-8.3-8.3c0-19.9,16.2-36.1,36.1-36.1s36.1,16.2,36.1,36.1C249,584.7,245.3,588.4,240.7,588.4z"/>
							<path d="M184.9,619.1c-4.6,0-8.3-3.7-8.3-8.3v-29.8c0-4.6,3.7-8.3,8.3-8.3s8.3,3.7,8.3,8.3v29.8
								C193.2,615.4,189.5,619.1,184.9,619.1z"/>
							<path d="M216.9,580.5"/>
						</g>
					</g>
					<g>
						<g>
							<path d="M958.7,619.1c-4.6,0-8.3-3.7-8.3-8.3v-56.2c0-4.6,3.7-8.3,8.3-8.3s8.3,3.7,8.3,8.3v56.2
								C967,615.4,963.3,619.1,958.7,619.1z"/>
							<g>
								<path d="M1014.8,590c-4.6,0-8.3-3.7-8.3-8.3c0-10.8-8.8-19.5-19.5-19.5s-19.5,8.8-19.5,19.5c0,4.6-3.7,8.3-8.3,8.3
									s-8.3-3.7-8.3-8.3c0-19.9,16.2-36.1,36.1-36.1s36.1,16.2,36.1,36.1C1023,586.3,1019.3,590,1014.8,590z"/>
								<path d="M1014.9,618c-4.6,0-8.3-3.7-8.3-8.3V580c0-4.6,3.7-8.3,8.3-8.3s8.3,3.7,8.3,8.3v29.8
									C1023.2,614.3,1019.5,618,1014.9,618z"/>
							</g>
						</g>
					</g>
					<g>
						<g>
							<path d="M491.4,747.7c-4.6,0-8.3-3.7-8.3-8.3v-56.2c0-4.6,3.7-8.3,8.3-8.3c4.6,0,8.3,3.7,8.3,8.3v56.2
								C499.6,744,495.9,747.7,491.4,747.7z"/>
							<g>
								<path d="M547.4,719.4c-4.6,0-8.3-3.7-8.3-8.3c0-10.8-8.8-19.5-19.5-19.5c-10.8,0-19.5,8.8-19.5,19.5c0,4.6-3.7,8.3-8.3,8.3
									c-4.6,0-8.3-3.7-8.3-8.3c0-19.9,16.2-36.1,36.1-36.1c19.9,0,36.1,16.2,36.1,36.1C555.7,715.7,552,719.4,547.4,719.4z"/>
								<path d="M547.6,747.7c-4.6,0-8.3-3.7-8.3-8.3v-29.8c0-4.6,3.7-8.3,8.3-8.3c4.6,0,8.3,3.7,8.3,8.3v29.8
									C555.8,744,552.1,747.7,547.6,747.7z"/>
							</g>
						</g>
					</g>
					<g>
						<g>
							<path d="M633,619.1c-4.6,0-8.3-3.7-8.3-8.3v-56.2c0-4.6,3.7-8.3,8.3-8.3c4.6,0,8.3,3.7,8.3,8.3v56.2
								C641.2,615.4,637.5,619.1,633,619.1z"/>
							<path d="M688.6,590.2c-4.6,0-8.3-3.7-8.3-8.3c0-10.8-8.8-19.5-19.5-19.5c-10.8,0-19.5,8.8-19.5,19.5c0,4.6-3.7,8.3-8.3,8.3
								c-4.6,0-8.3-3.7-8.3-8.3c0-19.9,16.2-36.1,36.1-36.1c19.9,0,36.1,16.2,36.1,36.1C696.9,586.5,693.2,590.2,688.6,590.2z"/>
							<path d="M744.2,590.2c-4.6,0-8.3-3.7-8.3-8.3c0-10.8-8.8-19.5-19.5-19.5c-10.8,0-19.5,8.8-19.5,19.5c0,4.6-3.7,8.3-8.3,8.3
								s-8.3-3.7-8.3-8.3c0-19.9,16.2-36.1,36.1-36.1s36.1,16.2,36.1,36.1C752.5,586.5,748.8,590.2,744.2,590.2z"/>
							<path d="M688.6,619.1c-4.6,0-8.3-3.7-8.3-8.3v-29.8c0-4.6,3.7-8.3,8.3-8.3s8.3,3.7,8.3,8.3v29.8
								C696.9,615.4,693.2,619.1,688.6,619.1z"/>
							<path d="M744.2,619.1c-4.6,0-8.3-3.7-8.3-8.3v-29.8c0-4.6,3.7-8.3,8.3-8.3s8.3,3.7,8.3,8.3v29.8
								C752.5,615.4,748.8,619.1,744.2,619.1z"/>
						</g>
					</g>
					<g>
						<g>
							<path d="M779.1,619.1c-4.6,0-8.3-3.7-8.3-8.3v-56.2c0-4.6,3.7-8.3,8.3-8.3c4.6,0,8.3,3.7,8.3,8.3v56.2
								C787.4,615.4,783.7,619.1,779.1,619.1z"/>
							<path d="M834.7,590.2c-4.6,0-8.3-3.7-8.3-8.3c0-10.8-8.8-19.5-19.5-19.5c-10.8,0-19.5,8.8-19.5,19.5c0,4.6-3.7,8.3-8.3,8.3
								c-4.6,0-8.3-3.7-8.3-8.3c0-19.9,16.2-36.1,36.1-36.1c19.9,0,36.1,16.2,36.1,36.1C843,586.5,839.3,590.2,834.7,590.2z"/>
							<path d="M890.3,590.2c-4.6,0-8.3-3.7-8.3-8.3c0-10.8-8.8-19.5-19.5-19.5s-19.5,8.8-19.5,19.5c0,4.6-3.7,8.3-8.3,8.3
								s-8.3-3.7-8.3-8.3c0-19.9,16.2-36.1,36.1-36.1s36.1,16.2,36.1,36.1C898.6,586.5,894.9,590.2,890.3,590.2z"/>
							<path d="M834.7,619.1c-4.6,0-8.3-3.7-8.3-8.3v-29.8c0-4.6,3.7-8.3,8.3-8.3s8.3,3.7,8.3,8.3v29.8
								C843,615.4,839.3,619.1,834.7,619.1z"/>
							<path d="M890.3,619.1c-4.6,0-8.3-3.7-8.3-8.3v-29.8c0-4.6,3.7-8.3,8.3-8.3s8.3,3.7,8.3,8.3v29.8
								C898.6,615.4,894.9,619.1,890.3,619.1z"/>
						</g>
					</g>
					<g>
						<g>
							<path d="M509.4,588.7c-4.6,0-8.3-3.7-8.3-8.3c0-10.8-8.8-19.5-19.5-19.5s-19.5,8.8-19.5,19.5c0,4.6-3.7,8.3-8.3,8.3
								s-8.3-3.7-8.3-8.3c0-19.9,16.2-36.1,36.1-36.1s36.1,16.2,36.1,36.1C517.7,585,514,588.7,509.4,588.7z"/>
							<path d="M453.9,619.1c-4.6,0-8.3-3.7-8.3-8.3v-29.8c0-4.6,3.7-8.3,8.3-8.3c4.6,0,8.3,3.7,8.3,8.3v29.8
								C462.2,615.4,458.5,619.1,453.9,619.1z"/>
							<path d="M485.6,581.6"/>
						</g>
					</g>
					<g>
						<g>
							<path d="M924.6,619.1c-4.6,0-8.3-3.7-8.3-8.3v-56.2c0-4.6,3.7-8.3,8.3-8.3s8.3,3.7,8.3,8.3v56.2
								C932.8,615.4,929.1,619.1,924.6,619.1z"/>
							<circle cx="924" cy="532" r="8.8"/>
						</g>
					</g>
					<g>
						<g>
							<path d="M761.2,719.4c-4.6,0-8.3-3.7-8.3-8.3c0-10.8-8.8-19.5-19.5-19.5s-19.5,8.8-19.5,19.5c0,4.6-3.7,8.3-8.3,8.3
								s-8.3-3.7-8.3-8.3c0-19.9,16.2-36.1,36.1-36.1s36.1,16.2,36.1,36.1C769.5,715.7,765.8,719.4,761.2,719.4z"/>
							<path d="M761.4,747.7c-4.6,0-8.3-3.7-8.3-8.3v-27.6c0-4.6,3.7-8.3,8.3-8.3s8.3,3.7,8.3,8.3v27.6
								C769.7,744,766,747.7,761.4,747.7z"/>
							<path d="M705.2,747.7c-4.6,0-8.3-3.7-8.3-8.3v-87.1c0-4.6,3.7-8.3,8.3-8.3c4.6,0,8.3,3.7,8.3,8.3v87.1
								C713.5,744,709.8,747.7,705.2,747.7z"/>
						</g>
					</g>
					<g>
						<g>
							<path d="M453.9,747.7c-4.6,0-8.3-3.7-8.3-8.3v-56.2c0-4.6,3.7-8.3,8.3-8.3c4.6,0,8.3,3.7,8.3,8.3v56.2
								C462.2,744,458.5,747.7,453.9,747.7z"/>
							<circle cx="453.3" cy="661.7" r="8.8"/>
						</g>
					</g>
					<g>
						<circle cx="419.2" cy="740" r="8.8"/>
					</g>
					<g>
						<circle cx="581.2" cy="740" r="8.8"/>
					</g>
				</g>
			</g>
		</g>
	</g>
	<path class="st1" d="M212.9,707.4c-19.8,0-35.8-16.1-35.8-35.8c0-19.8,16.1-35.8,35.8-35.8s35.8,16.1,35.8,35.8
		C248.7,691.3,232.7,707.4,212.9,707.4z M212.9,652.3c-10.6,0-19.3,8.7-19.3,19.3c0,10.6,8.7,19.3,19.3,19.3s19.3-8.7,19.3-19.3
		C232.2,660.9,223.6,652.3,212.9,652.3z"/>
	<g>
		<g>
			<line class="st1" x1="231.6" y1="652.9" x2="283.6" y2="600.9"/>
			
				<rect x="220.8" y="618.6" transform="matrix(0.7071 -0.7072 0.7072 0.7071 -367.8496 365.8173)" class="st1" width="73.6" height="16.5"/>
		</g>
	</g>
	<g>
		<g>
			<line class="st1" x1="142.2" y1="601.2" x2="193.6" y2="652.6"/>
			
				<rect x="159.6" y="590.5" transform="matrix(0.7071 -0.7071 0.7071 0.7071 -394.1019 302.3251)" class="st1" width="16.5" height="72.8"/>
		</g>
	</g>
	<g>
		<g>
			<line class="st1" x1="321.6" y1="562.9" x2="372" y2="512.5"/>
			
				<rect x="311.1" y="529.4" transform="matrix(0.7071 -0.7072 0.7072 0.7071 -278.6425 402.7648)" class="st1" width="71.3" height="16.5"/>
		</g>
	</g>
	<path d="M123.2,618c-19.8,0-35.8-16.1-35.8-35.8s16.1-35.8,35.8-35.8s35.8,16.1,35.8,35.8S143,618,123.2,618z M123.2,562.9
		c-10.6,0-19.3,8.7-19.3,19.3s8.7,19.3,19.3,19.3s19.3-8.7,19.3-19.3S133.8,562.9,123.2,562.9z"/>
	<path d="M391.6,528.8c-19.8,0-35.8-16.1-35.8-35.8s16.1-35.8,35.8-35.8c19.8,0,35.8,16.1,35.8,35.8S411.4,528.8,391.6,528.8z
		 M391.6,473.7c-10.6,0-19.3,8.7-19.3,19.3s8.7,19.3,19.3,19.3c10.6,0,19.3-8.7,19.3-19.3S402.3,473.7,391.6,473.7z"/>
	<path d="M302.3,618c-19.8,0-35.8-16.1-35.8-35.8s16.1-35.8,35.8-35.8s35.8,16.1,35.8,35.8S322.1,618,302.3,618z M302.3,562.9
		c-10.6,0-19.3,8.7-19.3,19.3s8.7,19.3,19.3,19.3s19.3-8.7,19.3-19.3S312.9,562.9,302.3,562.9z"/>
</g>
</svg>
