<svg id="Layer_1" data-name="Layer 1" xmlns="http://www.w3.org/2000/svg" viewBox="0 0 1200 1200"><defs><style>.cls-1{fill:#fff;}.cls-2{fill:#a0a0a0;}</style></defs><rect class="cls-1" width="1200" height="1200"/><path class="cls-2" d="M515.13,839.08a68.4,68.4,0,1,1,68.4-68.4A68.47,68.47,0,0,1,515.13,839.08Zm0-105.23A36.83,36.83,0,1,0,552,770.68,36.87,36.87,0,0,0,515.13,733.85Z"/><line class="cls-2" x1="550.78" y1="735.03" x2="650.15" y2="635.67"/><rect class="cls-2" x="530.2" y="669.56" width="140.53" height="31.57" transform="translate(-308.75 625.39) rotate(-45)"/><line class="cls-2" x1="380.02" y1="636.21" x2="478.3" y2="734.49"/><rect class="cls-2" x="413.37" y="615.86" width="31.57" height="138.99" transform="translate(-358.91 504.18) rotate(-45)"/><line class="cls-2" x1="722.63" y1="563.19" x2="818.93" y2="466.88"/><rect class="cls-2" x="702.68" y="499.25" width="136.2" height="31.57" transform="translate(-138.41 695.94) rotate(-45)"/><path d="M291.21,769.36a15.78,15.78,0,0,1-15.78-15.79V599.93a15.79,15.79,0,1,1,31.57,0V753.57A15.79,15.79,0,0,1,291.21,769.36Z"/><path d="M291.21,838.8A15.78,15.78,0,0,1,275.43,823V669.37a15.79,15.79,0,0,1,31.57,0V823A15.79,15.79,0,0,1,291.21,838.8Z"/><path d="M856.11,670.44a69,69,0,0,1-68.89-68.89,15.79,15.79,0,1,1,31.57,0,37.32,37.32,0,1,0,74.64,0,15.79,15.79,0,1,1,31.57,0A69,69,0,0,1,856.11,670.44Z"/><path d="M909,616.29a15.79,15.79,0,0,1-15.79-15.79V497.37a15.79,15.79,0,1,1,31.57,0V600.5A15.79,15.79,0,0,1,909,616.29Z"/><path d="M909,548.93a15.78,15.78,0,0,1-15.79-15.78V430a15.79,15.79,0,1,1,31.57,0V533.15A15.78,15.78,0,0,1,909,548.93Z"/><path d="M568.24,611.84a15.79,15.79,0,0,1-15.79-15.79,37.32,37.32,0,0,0-74.64,0,15.79,15.79,0,1,1-31.57,0,68.89,68.89,0,0,1,137.78,0A15.79,15.79,0,0,1,568.24,611.84Z"/><path d="M461.69,670.44a15.78,15.78,0,0,1-15.78-15.79V597.82a15.79,15.79,0,0,1,31.57,0v56.83A15.79,15.79,0,0,1,461.69,670.44Z"/><path d="M522.79,596.77"/><path d="M343.83,668.33a68.4,68.4,0,1,1,68.4-68.4A68.47,68.47,0,0,1,343.83,668.33Zm0-105.23a36.83,36.83,0,1,0,36.83,36.83A36.87,36.87,0,0,0,343.83,563.1Z"/><path d="M856.39,498.1a68.4,68.4,0,1,1,68.4-68.4A68.48,68.48,0,0,1,856.39,498.1Zm0-105.23a36.83,36.83,0,1,0,36.83,36.83A36.87,36.87,0,0,0,856.39,392.87Z"/><path d="M685.79,668.42A68.4,68.4,0,1,1,754.2,600,68.48,68.48,0,0,1,685.79,668.42Zm0-105.23A36.83,36.83,0,1,0,722.63,600,36.88,36.88,0,0,0,685.79,563.19Z"/></svg>