<?xml version="1.0" encoding="utf-8"?>
<!-- Generator: Adobe Illustrator 24.1.2, SVG Export Plug-In . SVG Version: 6.00 Build 0)  -->
<svg version="1.1" id="Layer_1" xmlns="http://www.w3.org/2000/svg" xmlns:xlink="http://www.w3.org/1999/xlink" x="0px" y="0px"
	 viewBox="0 0 1200 1200" style="enable-background:new 0 0 1200 1200;" xml:space="preserve">
<style type="text/css">
	.st0{fill:#FFFFFF;}
	.st1{fill:#A0A0A0;}
</style>
<rect class="st0" width="1200" height="1200"/>
<g>
	<path class="st1" d="M515.1,839.1c-37.7,0-68.4-30.7-68.4-68.4c0-37.7,30.7-68.4,68.4-68.4s68.4,30.7,68.4,68.4
		C583.5,808.4,552.8,839.1,515.1,839.1z M515.1,733.8c-20.3,0-36.8,16.5-36.8,36.8c0,20.3,16.5,36.8,36.8,36.8
		c20.3,0,36.8-16.5,36.8-36.8C552,750.4,535.4,733.8,515.1,733.8z"/>
	<g>
		<g>
			<line class="st1" x1="550.8" y1="735" x2="650.1" y2="635.7"/>
			
				<rect x="530.2" y="669.6" transform="matrix(0.7071 -0.7072 0.7072 0.7071 -308.7487 625.3918)" class="st1" width="140.5" height="31.6"/>
		</g>
	</g>
	<g>
		<g>
			<line class="st1" x1="380" y1="636.2" x2="478.3" y2="734.5"/>
			
				<rect x="413.4" y="615.9" transform="matrix(0.7071 -0.7071 0.7071 0.7071 -358.9148 504.1834)" class="st1" width="31.6" height="139"/>
		</g>
	</g>
	<g>
		<g>
			<line class="st1" x1="722.6" y1="563.2" x2="818.9" y2="466.9"/>
			
				<rect x="702.7" y="499.2" transform="matrix(0.7071 -0.7072 0.7072 0.7071 -138.4139 695.9406)" class="st1" width="136.2" height="31.6"/>
		</g>
	</g>
	<g>
		<path d="M291.2,769.4c-8.7,0-15.8-7.1-15.8-15.8V599.9c0-8.7,7.1-15.8,15.8-15.8s15.8,7.1,15.8,15.8v153.6
			C307,762.3,299.9,769.4,291.2,769.4z"/>
		<path d="M291.2,838.8c-8.7,0-15.8-7.1-15.8-15.8V669.4c0-8.7,7.1-15.8,15.8-15.8s15.8,7.1,15.8,15.8V823
			C307,831.7,299.9,838.8,291.2,838.8z"/>
		<path d="M856.1,670.4c-38,0-68.9-30.9-68.9-68.9c0-8.7,7.1-15.8,15.8-15.8s15.8,7.1,15.8,15.8c0,20.6,16.7,37.3,37.3,37.3
			s37.3-16.7,37.3-37.3c0-8.7,7.1-15.8,15.8-15.8s15.8,7.1,15.8,15.8C925,639.5,894.1,670.4,856.1,670.4z"/>
		<path d="M909,616.3c-8.7,0-15.8-7.1-15.8-15.8V497.4c0-8.7,7.1-15.8,15.8-15.8c8.7,0,15.8,7.1,15.8,15.8v103.1
			C924.8,609.2,917.7,616.3,909,616.3z"/>
		<path d="M909,548.9c-8.7,0-15.8-7.1-15.8-15.8V430c0-8.7,7.1-15.8,15.8-15.8c8.7,0,15.8,7.1,15.8,15.8v103.1
			C924.8,541.9,917.7,548.9,909,548.9z"/>
		<g>
			<g>
				<path d="M568.2,611.8c-8.7,0-15.8-7.1-15.8-15.8c0-20.6-16.7-37.3-37.3-37.3c-20.6,0-37.3,16.7-37.3,37.3
					c0,8.7-7.1,15.8-15.8,15.8s-15.8-7.1-15.8-15.8c0-38,30.9-68.9,68.9-68.9c38,0,68.9,30.9,68.9,68.9
					C584,604.8,577,611.8,568.2,611.8z"/>
				<path d="M461.7,670.4c-8.7,0-15.8-7.1-15.8-15.8v-56.8c0-8.7,7.1-15.8,15.8-15.8c8.7,0,15.8,7.1,15.8,15.8v56.8
					C477.5,663.4,470.4,670.4,461.7,670.4z"/>
				<path d="M522.8,596.8"/>
			</g>
		</g>
		<path d="M343.8,668.3c-37.7,0-68.4-30.7-68.4-68.4s30.7-68.4,68.4-68.4s68.4,30.7,68.4,68.4S381.5,668.3,343.8,668.3z
			 M343.8,563.1c-20.3,0-36.8,16.5-36.8,36.8s16.5,36.8,36.8,36.8c20.3,0,36.8-16.5,36.8-36.8S364.1,563.1,343.8,563.1z"/>
		<path d="M856.4,498.1c-37.7,0-68.4-30.7-68.4-68.4s30.7-68.4,68.4-68.4c37.7,0,68.4,30.7,68.4,68.4S894.1,498.1,856.4,498.1z
			 M856.4,392.9c-20.3,0-36.8,16.5-36.8,36.8c0,20.3,16.5,36.8,36.8,36.8c20.3,0,36.8-16.5,36.8-36.8
			C893.2,409.4,876.7,392.9,856.4,392.9z"/>
		<path d="M685.8,668.4c-37.7,0-68.4-30.7-68.4-68.4c0-37.7,30.7-68.4,68.4-68.4c37.7,0,68.4,30.7,68.4,68.4
			C754.2,637.7,723.5,668.4,685.8,668.4z M685.8,563.2c-20.3,0-36.8,16.5-36.8,36.8c0,20.3,16.5,36.8,36.8,36.8
			c20.3,0,36.8-16.5,36.8-36.8C722.6,579.7,706.1,563.2,685.8,563.2z"/>
	</g>
</g>
</svg>
