<svg id="Layer_1" data-name="Layer 1" xmlns="http://www.w3.org/2000/svg" xmlns:xlink="http://www.w3.org/1999/xlink" viewBox="0 0 1305.01 1232.92"><defs><clipPath id="clip-path" transform="translate(-528.67 -44.13)"><polygon points="1262.59 456.39 1515.02 310.65 1515.02 239.88 1262.59 390 1262.59 456.39" style="fill:none"/></clipPath><clipPath id="clip-path-2" transform="translate(-528.67 -44.13)"><polygon points="1505.71 314.08 1505.7 307.94 1511.04 304.85 1511.06 311 1505.71 314.08" style="fill:none"/></clipPath><clipPath id="clip-path-3" transform="translate(-528.67 -44.13)"><polygon points="1498.67 318.71 1498.65 312.56 1504 309.47 1504.02 315.62 1498.67 318.71" style="fill:none"/></clipPath><clipPath id="clip-path-4" transform="translate(-528.67 -44.13)"><polygon points="1491.13 323.23 1491.12 317.08 1496.46 313.99 1496.48 320.14 1491.13 323.23" style="fill:none"/></clipPath><clipPath id="clip-path-5" transform="translate(-528.67 -44.13)"><polygon points="1383.2 759.7 1207.14 657.38 1077.17 732.42 1253.23 834.73 1383.2 759.7" style="fill:none"/></clipPath><clipPath id="clip-path-6" transform="translate(-528.67 -44.13)"><polygon points="1328.43 802.81 1328.43 799.77 1318.48 805.52 1318.49 808.55 1328.43 802.81" style="fill:none"/></clipPath></defs><title>quote_5</title><polygon points="1305.01 890.44 1305.01 547.96 415.23 1061.68 711.83 1232.92 1305.01 890.44" style="fill:#0071bc"/><polygon points="1305.01 547.96 355.91 0 0 205.49 0 821.94 415.23 1061.68 1305.01 547.96" style="fill:#29abe2"/><path d="M1683,571.55,1538.1,487.92c-4.79-2.76-12.54-2.76-17.33,0L1270.4,632.47,1254,634.89v10c0,1.81,1.2,3.62,3.59,5l151,87.16c4.79,2.76,12.54,2.76,17.32,0l263.16-151.93c2.39-1.38,3.59-3.19,3.59-5v-10Z" transform="translate(-528.67 -44.13)" style="fill:#999"/><path d="M1520.77,478,1257.62,629.89c-4.79,2.76-4.79,7.24,0,10l151,87.16c4.79,2.76,12.54,2.76,17.32,0l263.16-151.94c4.78-2.76,4.78-7.23,0-10L1538.1,478C1533.31,475.19,1525.56,475.19,1520.77,478Z" transform="translate(-528.67 -44.13)" style="fill:#ccc"/><path d="M1529.43,473" transform="translate(-528.67 -44.13)" style="fill:#ccc"/><path d="M1520.81,290.71V458c0,5.52-3.88,12.24-8.66,15L1261.77,617.52l-10.28,13-8.63-5c-1.56-.9-2.53-2.84-2.53-5.6V445.58c0-5.52,3.88-12.23,8.66-15l263.16-151.93c2.39-1.38,4.55-1.51,6.12-.61l8.63,5Z" transform="translate(-528.67 -44.13)" style="fill:#999"/><path d="M1520.77,478,1257.62,629.89c-4.79,2.76-8.66.52-8.66-5V450.57c0-5.53,3.87-12.24,8.66-15l263.15-151.94c4.79-2.76,8.66-.52,8.66,5V463C1529.43,468.48,1525.56,475.19,1520.77,478Z" transform="translate(-528.67 -44.13)" style="fill:#b3b3b3"/><path d="M1529.43,473" transform="translate(-528.67 -44.13)" style="fill:#ccc"/><path d="M1271.25,441.39l235.11-135.74c4.78-2.76,8.66-.53,8.66,5V452.58c0,5.52-3.88,12.24-8.66,15L1271.25,603.32c-4.78,2.76-8.66.52-8.66-5V456.39C1262.59,450.87,1266.47,444.15,1271.25,441.39Z" transform="translate(-528.67 -44.13)" style="fill:#1a1a1a"/><path d="M1217.21,451.26,982.11,315.52c-4.79-2.76-8.66-.52-8.66,5V462.45c0,5.53,3.87,12.24,8.66,15l235.1,135.74c4.79,2.77,8.67.53,8.67-5V466.26C1225.88,460.74,1222,454,1217.21,451.26Z" transform="translate(-528.67 -44.13)" style="fill:#1a1a1a"/><g style="clip-path:url(#clip-path)"><path d="M1271.25,441.39l235.11-135.74c4.78-2.76,8.66-.53,8.66,5V452.58c0,5.52-3.88,12.24-8.66,15L1271.25,603.32c-4.78,2.76-8.66.52-8.66-5V456.39C1262.59,450.87,1266.47,444.15,1271.25,441.39Z" transform="translate(-528.67 -44.13)" style="fill:#333"/></g><path d="M1283.43,628.68l234.81-135.57c4.78-2.76,12.54-2.77,17.33,0l67.09,38.46c4.8,2.75,4.8,7.22,0,10L1367.57,677.26c-4.78,2.76-12.54,2.76-17.32,0l-66.82-38.58C1278.64,635.92,1278.64,631.44,1283.43,628.68Z" transform="translate(-528.67 -44.13)" style="fill:#e6e6e6"/><path d="M1459.67,633.27l66.82-38.58c4.78-2.76,12.54-2.76,17.32,0l38.77,22.39c4.79,2.76,4.79,7.24,0,10l-66.82,38.58c-4.78,2.76-12.54,2.76-17.32,0l-38.77-22.39C1454.88,640.51,1454.88,636,1459.67,633.27Z" transform="translate(-528.67 -44.13)" style="fill:#e6e6e6"/><g style="isolation:isolate"><g style="clip-path:url(#clip-path-2)"><path d="M1508.37,306.4a5.84,5.84,0,0,0-2.66,4.61c0,1.69,1.2,2.38,2.67,1.53a5.85,5.85,0,0,0,2.67-4.62c0-1.69-1.21-2.38-2.68-1.52" transform="translate(-528.67 -44.13)" style="fill:#8cc63f"/></g></g><g style="isolation:isolate"><g style="clip-path:url(#clip-path-3)"><path d="M1501.33,311a5.85,5.85,0,0,0-2.67,4.62c0,1.69,1.21,2.38,2.68,1.52a5.88,5.88,0,0,0,2.67-4.61c0-1.7-1.21-2.38-2.68-1.53" transform="translate(-528.67 -44.13)" style="fill:#fcee21"/></g></g><g style="isolation:isolate"><g style="clip-path:url(#clip-path-4)"><path d="M1493.79,315.53a5.87,5.87,0,0,0-2.66,4.62c0,1.7,1.2,2.39,2.68,1.53a5.89,5.89,0,0,0,2.66-4.61c0-1.7-1.2-2.39-2.68-1.54" transform="translate(-528.67 -44.13)" style="fill:#ed1c24"/></g></g><g id="Layer_3" data-name="Layer 3"><path d="M1076.87,733l121.15-70c4.78-2.76,12.54-2.76,17.32,0l165.88,95.77,8.43.72v7.08h0c0,1.81-1.2,3.62-3.59,5l-123.71,71.42c-4.78,2.76-12.54,2.76-17.32,0l-170.72-98.56c-2.39-1.38-3.59-3.19-3.59-5v-7Z" transform="translate(-528.67 -44.13)" style="fill:#999"/><path d="M1386.06,754.63l-170.72-98.57c-4.78-2.76-12.54-2.76-17.32,0l-123.71,71.43c-4.78,2.76-4.78,7.23,0,10L1245,836.05c4.78,2.76,12.54,2.76,17.32,0l123.71-71.42C1390.84,761.87,1390.84,757.39,1386.06,754.63Z" transform="translate(-528.67 -44.13)" style="fill:#ccc"/><g style="isolation:isolate"><g style="clip-path:url(#clip-path-5)"><path d="M1084.26,728.32l115.79-66.85a15.65,15.65,0,0,1,14.14,0l162,94.13c3.87,2.25,3.85,5.94-.05,8.19l-115.79,66.85a15.65,15.65,0,0,1-14.14,0l-162-94.13c-3.88-2.25-3.86-5.93,0-8.19" transform="translate(-528.67 -44.13)" style="fill:#1a1a1a"/></g></g><g style="isolation:isolate"><g style="clip-path:url(#clip-path-6)"><path d="M1319.8,804.75l7.3-4.21c.73-.42,1.33-.08,1.33.75a2.92,2.92,0,0,1-1.32,2.28l-7.3,4.22c-.73.42-1.33.07-1.33-.76a2.92,2.92,0,0,1,1.32-2.28" transform="translate(-528.67 -44.13)" style="fill:#1a1a1a"/></g></g></g><polyline points="457.45 291.15 455.72 290.15 455.69 300.55 461.24 303.76 461.25 302.08 457.43 299.87 457.45 291.15" style="fill:#9ef2c6"/><path d="M994.66,347.69a1.16,1.16,0,0,0-.52-.18.73.73,0,0,0-.42.09.66.66,0,0,0-.29.34,1.28,1.28,0,0,0-.11.55,2.28,2.28,0,0,0,.11.66,2.66,2.66,0,0,0,.28.65,2.78,2.78,0,0,0,.42.58,2.52,2.52,0,0,0,.52.43,1.4,1.4,0,0,0,.54.19.69.69,0,0,0,.72-.42A1.27,1.27,0,0,0,996,350a2.32,2.32,0,0,0-.1-.67,3.23,3.23,0,0,0-.29-.66,3.56,3.56,0,0,0-.43-.59,2.37,2.37,0,0,0-.54-.43" transform="translate(-528.67 -44.13)" style="fill:#f2f2f2"/><path d="M1001.06,349.37a1.35,1.35,0,0,1,.49-1.1,1,1,0,0,1,1.05.12,2.63,2.63,0,0,1,.54.42,2.45,2.45,0,0,1,.44.6,3,3,0,0,1,.3.76,3.24,3.24,0,0,1,.1.89l-2.92-1.69m1.57-2.41a3.28,3.28,0,0,0-1.36-.48,1.6,1.6,0,0,0-1,.29,2.06,2.06,0,0,0-.67,1,4.92,4.92,0,0,0-.24,1.65,7.71,7.71,0,0,0,.23,1.89,6.74,6.74,0,0,0,.68,1.66,6.58,6.58,0,0,0,1.07,1.4,7.19,7.19,0,0,0,1.45,1.1l.65.35c.23.11.46.22.67.3s.45.18.66.25a5.71,5.71,0,0,0,.59.19V355a11.61,11.61,0,0,1-1.22-.4,10.08,10.08,0,0,1-1.09-.55,4.05,4.05,0,0,1-.81-.6,4.17,4.17,0,0,1-.62-.78,3.77,3.77,0,0,1-.4-.92,3.44,3.44,0,0,1-.14-1l4.63,2.67c0-.17,0-.37,0-.57s0-.39,0-.52a6.34,6.34,0,0,0-.19-1.56,6.53,6.53,0,0,0-.59-1.48,6.33,6.33,0,0,0-1-1.3,5.69,5.69,0,0,0-1.33-1" transform="translate(-528.67 -44.13)" style="fill:#9ef2c6"/><path d="M1012.3,352.56a1.41,1.41,0,0,0-.45-.19.7.7,0,0,0-.38,0,.86.86,0,0,0-.34.22,2.29,2.29,0,0,0-.33.43,2.63,2.63,0,0,0-.35-1.19,2.36,2.36,0,0,0-.9-.87,1.2,1.2,0,0,0-.44-.18.58.58,0,0,0-.37,0,.69.69,0,0,0-.33.22,2.79,2.79,0,0,0-.3.44l0-1.2-1.25-.72,0,8.09,1.47.85v-5.25a2.48,2.48,0,0,1,.5-.85c.14-.15.28-.18.4-.11a.85.85,0,0,1,.22.2,1,1,0,0,1,.12.3,2.35,2.35,0,0,1,.06.42c0,.15,0,.33,0,.53l0,5.51,1.45.84,0-5.25a2.74,2.74,0,0,1,.47-.86.33.33,0,0,1,.43-.1.81.81,0,0,1,.21.2.9.9,0,0,1,.12.3,2.22,2.22,0,0,1,.06.42c0,.15,0,.33,0,.53v5.51l1.46.84v-5.8a4.94,4.94,0,0,0-.36-2,2.61,2.61,0,0,0-1.14-1.27" transform="translate(-528.67 -44.13)" style="fill:#9ef2c6"/><path d="M1018,362.69a4.56,4.56,0,0,1-.6-.41,4.76,4.76,0,0,1-.5-.42v-3.54a2.85,2.85,0,0,1,.83-.6.86.86,0,0,1,.82.07,1.82,1.82,0,0,1,.52.44,2.26,2.26,0,0,1,.38.67,4.67,4.67,0,0,1,.24.9,7.12,7.12,0,0,1,.07,1.19,4,4,0,0,1-.12,1.06,1.44,1.44,0,0,1-.36.65.76.76,0,0,1-.56.22,1.54,1.54,0,0,1-.73-.23m1-6.33a2.69,2.69,0,0,0-.69-.31,1.51,1.51,0,0,0-.58-.06,1.21,1.21,0,0,0-.51.14,2.13,2.13,0,0,0-.45.31l0-1.22-1.46-.85,0,11.26,1.69,1v-3.16a5,5,0,0,0,.48.38,5.13,5.13,0,0,0,.52.34,4.66,4.66,0,0,0,1.45.58,1.58,1.58,0,0,0,1.92-1,4.52,4.52,0,0,0,.28-1.77,8.7,8.7,0,0,0-.17-1.79,6.87,6.87,0,0,0-.5-1.57,5,5,0,0,0-.81-1.28,4.11,4.11,0,0,0-1.11-.93" transform="translate(-528.67 -44.13)" style="fill:#9ef2c6"/><polyline points="498.32 313.9 494.61 311.75 494.6 313.27 496.59 314.41 496.57 322.64 494.34 321.35 494.33 322.86 500.32 326.32 500.33 324.81 498.3 323.64 498.32 313.9" style="fill:#9ef2c6"/><path d="M1033.36,371.62a2.11,2.11,0,0,1-.75-.7,1.55,1.55,0,0,1-.28-.91.83.83,0,0,1,.09-.41.43.43,0,0,1,.28-.23.8.8,0,0,1,.48,0,3.24,3.24,0,0,1,.73.32l1,.6v1.08a2.65,2.65,0,0,1-.84.36,1.07,1.07,0,0,1-.74-.13m.3-6.75a7.94,7.94,0,0,0-1.37-.64,5.84,5.84,0,0,0-1.17-.29v1.55a4.54,4.54,0,0,1,1.18.22,6.29,6.29,0,0,1,1.23.55,3.3,3.3,0,0,1,.67.48,2.64,2.64,0,0,1,.44.52,2.16,2.16,0,0,1,.24.57,2.43,2.43,0,0,1,.07.61v.48l-.92-.53a6.58,6.58,0,0,0-1.52-.68,2.17,2.17,0,0,0-1.08-.07,1,1,0,0,0-.65.46,1.84,1.84,0,0,0-.21.94,4.33,4.33,0,0,0,.55,2.12,4.64,4.64,0,0,0,.69.91,4.23,4.23,0,0,0,.94.73,3.25,3.25,0,0,0,.76.34,1.9,1.9,0,0,0,.63.11,1.33,1.33,0,0,0,.54-.09,2.23,2.23,0,0,0,.47-.22l0,1.08,1.45.84,0-5.53a4.9,4.9,0,0,0-.17-1.29,4.43,4.43,0,0,0-.54-1.17,5.25,5.25,0,0,0-.92-1.05,8.84,8.84,0,0,0-1.35-.95" transform="translate(-528.67 -44.13)" style="fill:#9ef2c6"/><path d="M1042.25,369.88a4.15,4.15,0,0,0-1.52-.58,1.78,1.78,0,0,0-1.17.19,1.75,1.75,0,0,0-.76.91,4.08,4.08,0,0,0-.27,1.6,7.54,7.54,0,0,0,.24,1.92,7,7,0,0,0,.71,1.68,6.79,6.79,0,0,0,1.12,1.44,8,8,0,0,0,1.5,1.12,7.57,7.57,0,0,0,1.12.54,4.66,4.66,0,0,0,1,.26v-1.73a4.14,4.14,0,0,1-.45-.07,4.27,4.27,0,0,1-.48-.13,4.09,4.09,0,0,1-.49-.18,5.14,5.14,0,0,1-.47-.23,4.1,4.1,0,0,1-.84-.65,4.87,4.87,0,0,1-.63-.86,5.18,5.18,0,0,1-.42-1,4.58,4.58,0,0,1-.13-1.12,3,3,0,0,1,.13-.95,1.07,1.07,0,0,1,.4-.57.93.93,0,0,1,.63-.14,2,2,0,0,1,.84.3,7.25,7.25,0,0,1,1,.69,8.09,8.09,0,0,1,.93.92v-1.89c-.25-.22-.53-.46-.84-.7a12.28,12.28,0,0,0-1.15-.74" transform="translate(-528.67 -44.13)" style="fill:#9ef2c6"/><path d="M1047.86,376.4a1.38,1.38,0,0,1,.49-1.1,1,1,0,0,1,1.05.11,2.63,2.63,0,0,1,.54.42,2.45,2.45,0,0,1,.44.6,3.35,3.35,0,0,1,.31.77,3.13,3.13,0,0,1,.1.88l-2.93-1.68m1.58-2.42a3.32,3.32,0,0,0-1.37-.48,1.51,1.51,0,0,0-1,.3,2,2,0,0,0-.68,1,5.18,5.18,0,0,0-.24,1.65,7.71,7.71,0,0,0,.23,1.89A6.58,6.58,0,0,0,1047,380a6.38,6.38,0,0,0,1.08,1.4,7,7,0,0,0,1.44,1.1c.21.12.43.24.66.35a6.68,6.68,0,0,0,.67.31l.65.24c.21.08.41.14.59.19V382a9.53,9.53,0,0,1-1.21-.4,10.25,10.25,0,0,1-1.1-.55,4.36,4.36,0,0,1-.81-.6,4.17,4.17,0,0,1-.62-.78,4.12,4.12,0,0,1-.4-.91,3.48,3.48,0,0,1-.13-1l4.62,2.66c0-.17,0-.36,0-.57s0-.38,0-.52a6.42,6.42,0,0,0-.2-1.56,6.53,6.53,0,0,0-.59-1.48,6,6,0,0,0-1-1.3,5.85,5.85,0,0,0-1.32-1" transform="translate(-528.67 -44.13)" style="fill:#9ef2c6"/><path d="M1058.53,375.62a6.19,6.19,0,0,0-1.39.75,5,5,0,0,0-1.08,1.16,5.71,5.71,0,0,0-.71,1.62,8.25,8.25,0,0,0-.25,2.15,13.28,13.28,0,0,0,.83,4.53,24.23,24.23,0,0,0,2.51,5l1-.61a19.24,19.24,0,0,1-2-4.21,12.43,12.43,0,0,1-.66-3.87,6.17,6.17,0,0,1,.68-3,4.24,4.24,0,0,1,2-1.83l-1-1.66" transform="translate(-528.67 -44.13)" style="fill:#f2f2f2"/><polyline points="539.82 341.02 537.92 339.92 536.35 341.68 534.78 338.11 532.72 336.92 535.21 342.38 532.56 344.93 534.6 346.11 536.23 344.32 537.83 347.97 539.93 349.19 537.38 343.61 539.82 341.02" style="fill:#9ef2c6"/><path d="M1071.42,383.06l-1,.57a19.65,19.65,0,0,1,2,4.24,12.13,12.13,0,0,1,.66,3.86,6.21,6.21,0,0,1-.68,3,4.33,4.33,0,0,1-2,1.84l1,1.67a5.72,5.72,0,0,0,1.37-.76,4.48,4.48,0,0,0,1.08-1.17,5.9,5.9,0,0,0,.7-1.63,8.11,8.11,0,0,0,.25-2.14,13.5,13.5,0,0,0-.81-4.54,24.44,24.44,0,0,0-2.52-5" transform="translate(-528.67 -44.13)" style="fill:#f2f2f2"/><path d="M1080.38,397.15a1.07,1.07,0,0,0-.48-.17.6.6,0,0,0-.36.09.66.66,0,0,0-.22.29,1.23,1.23,0,0,0-.08.44,1.78,1.78,0,0,0,.06.47,2.37,2.37,0,0,0,.15.4c.06.13.12.25.19.37s.13.24.19.37a2.15,2.15,0,0,1,.15.38,1.18,1.18,0,0,1,0,.43.63.63,0,0,1-.15.47.57.57,0,0,1-.42.16,1.85,1.85,0,0,1-.63-.14,4.08,4.08,0,0,1-.6-.29l-.17-.1v1.27a5.23,5.23,0,0,0,1.65.66,2.06,2.06,0,0,0,1.18-.08,1.47,1.47,0,0,0,.71-.74,3.09,3.09,0,0,0,.24-1.25,3.86,3.86,0,0,0-.1-.89,4.32,4.32,0,0,0-.28-.86,3.14,3.14,0,0,0-.46-.75,2,2,0,0,0-.61-.53" transform="translate(-528.67 -44.13)" style="fill:#f2f2f2"/><path d="M1096.38,401.09a5.08,5.08,0,0,0-1.34-.59,1.87,1.87,0,0,0-1,0,.94.94,0,0,0-.59.43,1.68,1.68,0,0,0-.19.82,3.32,3.32,0,0,0,.13,1,3.27,3.27,0,0,0,.38.89,5.46,5.46,0,0,0,.65.87,10.9,10.9,0,0,0,.9.9c.38.34.68.63.91.85a7.14,7.14,0,0,1,.53.6,1.65,1.65,0,0,1,.26.44,1.06,1.06,0,0,1,.07.38c0,.26-.11.41-.33.44a1.65,1.65,0,0,1-1-.33,10.2,10.2,0,0,1-1.23-.85,13.86,13.86,0,0,1-1.29-1.19v1.74a13.81,13.81,0,0,0,1.18.93c.41.29.88.59,1.4.89a5.71,5.71,0,0,0,1.14.52,2.44,2.44,0,0,0,1,.13,1.11,1.11,0,0,0,.71-.38,1.68,1.68,0,0,0,.27-1,3.68,3.68,0,0,0-.11-.89,3,3,0,0,0-.37-.87,4.53,4.53,0,0,0-.66-.89,14,14,0,0,0-1-1c-.36-.33-.66-.61-.87-.83a5.55,5.55,0,0,1-.51-.58,1.39,1.39,0,0,1-.25-.42,1.13,1.13,0,0,1-.06-.36c0-.26.11-.39.32-.42a1.52,1.52,0,0,1,.83.27,10.08,10.08,0,0,1,1,.7,12.37,12.37,0,0,1,1.13,1v-1.58l-.91-.7a11,11,0,0,0-1.18-.75" transform="translate(-528.67 -44.13)" style="fill:#9ef2c6"/><path d="M1106.86,407.31l-1.68-1,0,5.12a2.78,2.78,0,0,1-.83.61.87.87,0,0,1-.82-.07,1.55,1.55,0,0,1-.65-.71,2.7,2.7,0,0,1-.21-1.12l0-5.28-1.7-1v5.43a5.61,5.61,0,0,0,.13,1.24,4.57,4.57,0,0,0,.41,1.14,4.43,4.43,0,0,0,.66,1,4.2,4.2,0,0,0,1,.75,2.37,2.37,0,0,0,.69.3,1.49,1.49,0,0,0,.58.06,1.45,1.45,0,0,0,.5-.15,2.93,2.93,0,0,0,.45-.3l0,1.21,1.46.85,0-8.09" transform="translate(-528.67 -44.13)" style="fill:#9ef2c6"/><path d="M1113.71,411.11a1.41,1.41,0,0,0-.45-.19.55.55,0,0,0-.38,0,.69.69,0,0,0-.34.21,2.29,2.29,0,0,0-.33.43,2.75,2.75,0,0,0-.35-1.19,2.4,2.4,0,0,0-.89-.87,1.56,1.56,0,0,0-.45-.18.52.52,0,0,0-.37,0,.69.69,0,0,0-.33.22,3.64,3.64,0,0,0-.31.44l0-1.2-1.26-.72,0,8.09,1.46.84,0-5.24a2.68,2.68,0,0,1,.49-.85c.15-.15.28-.18.41-.11a1.07,1.07,0,0,1,.22.2,1.17,1.17,0,0,1,.12.3,2.37,2.37,0,0,1,.06.41c0,.15,0,.34,0,.54l0,5.51,1.45.84,0-5.25a2.62,2.62,0,0,1,.47-.86.32.32,0,0,1,.42-.1.71.71,0,0,1,.22.2.9.9,0,0,1,.12.3,2.23,2.23,0,0,1,.06.41c0,.15,0,.34,0,.54l0,5.51,1.47.84v-5.8a4.94,4.94,0,0,0-.36-2,2.66,2.66,0,0,0-1.14-1.27" transform="translate(-528.67 -44.13)" style="fill:#9ef2c6"/><polyline points="591.94 367.95 588.21 365.8 588.21 367.31 590.2 368.46 590.18 376.68 587.94 375.39 587.94 376.9 593.93 380.37 593.94 378.86 591.91 377.68 591.94 367.95" style="fill:#9ef2c6"/><polyline points="607.24 379.82 605.69 378.92 605.68 382 603.09 380.51 603.09 382.11 605.67 383.6 605.66 386.7 607.22 387.6 607.23 384.5 609.82 385.99 609.82 384.39 607.24 382.9 607.24 379.82" style="fill:#f2f2f2"/><path d="M1145.9,434.39l-6-3.44v1.54l6,3.44v-1.54m0-3.14-6-3.44v1.55l6,3.44v-1.55" transform="translate(-528.67 -44.13)" style="fill:#f2f2f2"/><polyline points="633.42 395.06 631.52 393.96 629.96 395.73 628.39 392.15 626.33 390.96 628.82 396.42 626.17 398.98 628.21 400.16 629.84 398.37 631.43 402.01 633.53 403.23 630.99 397.66 633.42 395.06" style="fill:#9ef2c6"/><path d="M1166.28,446.74a1.07,1.07,0,0,0-.48-.17.59.59,0,0,0-.36.09.61.61,0,0,0-.23.29,1.5,1.5,0,0,0-.08.44,1.65,1.65,0,0,0,.06.46,2.48,2.48,0,0,0,.15.41c.06.13.12.25.19.37s.13.24.19.37a2.15,2.15,0,0,1,.15.38,1.44,1.44,0,0,1,.06.43.59.59,0,0,1-.16.47.54.54,0,0,1-.42.16,1.9,1.9,0,0,1-.63-.14,4.08,4.08,0,0,1-.6-.29l-.17-.1v1.27a5.05,5.05,0,0,0,1.65.66,1.94,1.94,0,0,0,1.17-.08,1.43,1.43,0,0,0,.71-.74,2.93,2.93,0,0,0,.24-1.25,3.86,3.86,0,0,0-.1-.89,3.76,3.76,0,0,0-.28-.86,3.11,3.11,0,0,0-.45-.75,2.16,2.16,0,0,0-.61-.53m0-5.17a1.28,1.28,0,0,0-.49-.18.7.7,0,0,0-.39.08.79.79,0,0,0-.27.3,1.13,1.13,0,0,0-.1.51,2.38,2.38,0,0,0,.09.62,3.66,3.66,0,0,0,.27.61,2.84,2.84,0,0,0,.4.53,2,2,0,0,0,.49.39,1.11,1.11,0,0,0,.49.17.62.62,0,0,0,.39-.07.72.72,0,0,0,.27-.3,1.49,1.49,0,0,0,.1-.51,2.53,2.53,0,0,0-.37-1.22,2.62,2.62,0,0,0-.38-.54,2.26,2.26,0,0,0-.5-.39" transform="translate(-528.67 -44.13)" style="fill:#f2f2f2"/><path d="M987.93,358.24l-3.72-2.15v1.51l2,1.15,0,5.06L984,362.52V364l6,3.46V366l-2-1.17,0-6.57m-.95-4a1,1,0,0,0-.45-.16.51.51,0,0,0-.35.07.56.56,0,0,0-.23.27,1,1,0,0,0-.09.44,2.15,2.15,0,0,0,.08.55,3.25,3.25,0,0,0,.23.54,2.67,2.67,0,0,0,.36.47,2.17,2.17,0,0,0,.44.36,1.14,1.14,0,0,0,.43.14.65.65,0,0,0,.35-.06.58.58,0,0,0,.24-.27,1.17,1.17,0,0,0,.08-.45,1.77,1.77,0,0,0-.08-.54,2.5,2.5,0,0,0-.23-.54,3.27,3.27,0,0,0-.35-.48,2,2,0,0,0-.43-.34" transform="translate(-528.67 -44.13)" style="fill:#45cbef"/><path d="M995.46,362.41a3.14,3.14,0,0,0-.7-.31,1.77,1.77,0,0,0-.59-.06,1.45,1.45,0,0,0-.5.15,1.81,1.81,0,0,0-.44.3l-.05-1.22-1.46-.84,0,8.09,1.69,1,0-5.12a2.66,2.66,0,0,1,.83-.61.84.84,0,0,1,.82.08,1.92,1.92,0,0,1,.86,1.82l0,5.28,1.69,1v-5.43a5.55,5.55,0,0,0-.13-1.24,4.59,4.59,0,0,0-.4-1.13,4.34,4.34,0,0,0-.67-1,3.83,3.83,0,0,0-.94-.75" transform="translate(-528.67 -44.13)" style="fill:#45cbef"/><path d="M1002.6,364.12l-1.74-.49v2.07L999,364.61v1.51l1.89,1.09v4a5.34,5.34,0,0,0,.16,1.36,4,4,0,0,0,.48,1.15,4.5,4.5,0,0,0,.83,1,7.16,7.16,0,0,0,1.19.86,7.34,7.34,0,0,0,.89.43,7.83,7.83,0,0,0,.92.34v-1.55a5.86,5.86,0,0,1-.72-.23,5.94,5.94,0,0,1-.81-.39,2.36,2.36,0,0,1-.93-.89,2.57,2.57,0,0,1-.27-1.21v-3.8l2.73,1.57v-1.51l-2.73-1.57v-2.59" transform="translate(-528.67 -44.13)" style="fill:#45cbef"/><path d="M1018.86,375.92a3.14,3.14,0,0,0-.7-.31,1.48,1.48,0,0,0-.58-.05,1.25,1.25,0,0,0-.51.14,2.45,2.45,0,0,0-.44.3l0-1.22-1.46-.84,0,8.09,1.69,1,0-5.12a2.78,2.78,0,0,1,.83-.61.87.87,0,0,1,.82.08,1.92,1.92,0,0,1,.86,1.82l0,5.28,1.69,1,0-5.43a5.61,5.61,0,0,0-.13-1.24,4.76,4.76,0,0,0-.41-1.13,4.24,4.24,0,0,0-.67-1,4.08,4.08,0,0,0-.94-.75" transform="translate(-528.67 -44.13)" style="fill:#9ef2c6"/><path d="M1025.86,386.74a3,3,0,0,1-1.21-1.34,4.8,4.8,0,0,1-.44-2.17,3.71,3.71,0,0,1,.1-.92,1.41,1.41,0,0,1,.29-.64.75.75,0,0,1,.52-.26,1.47,1.47,0,0,1,.76.24,3.06,3.06,0,0,1,1.21,1.33,5.11,5.11,0,0,1,.41,2.14,3.87,3.87,0,0,1-.11.95,1.45,1.45,0,0,1-.29.65.66.66,0,0,1-.5.25,1.34,1.34,0,0,1-.74-.23m.07-6.74a3.8,3.8,0,0,0-1.45-.53,1.6,1.6,0,0,0-1.1.24,1.93,1.93,0,0,0-.69.94,4.77,4.77,0,0,0-.24,1.62,8.71,8.71,0,0,0,.22,2,6.92,6.92,0,0,0,.66,1.68,6.16,6.16,0,0,0,1,1.39,6.41,6.41,0,0,0,1.4,1.07,3.86,3.86,0,0,0,1.47.54,1.56,1.56,0,0,0,1.09-.25,1.81,1.81,0,0,0,.68-1,4.75,4.75,0,0,0,.24-1.61,8,8,0,0,0-.22-1.93,6.59,6.59,0,0,0-1.69-3.08,6.93,6.93,0,0,0-1.41-1.08" transform="translate(-528.67 -44.13)" style="fill:#9ef2c6"/><polyline points="508.83 342.72 507.29 341.84 506.86 346.15 506.73 347.35 506.41 346.01 505.65 343.13 504.36 342.39 503.65 344.44 503.36 345.4 503.25 344.08 502.76 339.22 501.15 338.29 502.13 346.96 504.01 348.05 504.74 345.92 504.97 345.14 505.2 346.16 505.94 349.16 507.81 350.24 508.83 342.72" style="fill:#9ef2c6"/><path d="M1052.23,399.91l-6-3.44V398l6,3.44v-1.54m0-3.14-6-3.44v1.55l6,3.44v-1.55" transform="translate(-528.67 -44.13)" style="fill:#f2f2f2"/><polyline points="535.4 355.74 533.67 354.74 533.64 365.15 539.19 368.36 539.2 366.68 535.38 364.47 535.4 355.74" style="fill:#9ef2c6"/><path d="M1072.61,412.29a1.25,1.25,0,0,0-.52-.18.66.66,0,0,0-.42.1.62.62,0,0,0-.28.33,1.15,1.15,0,0,0-.11.55,2,2,0,0,0,.1.66,3.19,3.19,0,0,0,.28.66,3.07,3.07,0,0,0,.42.58,2.28,2.28,0,0,0,.53.42,1.27,1.27,0,0,0,.53.19.77.77,0,0,0,.44-.09.76.76,0,0,0,.29-.32,1.29,1.29,0,0,0,.1-.55,2.27,2.27,0,0,0-.1-.67,3.23,3.23,0,0,0-.29-.66,3.07,3.07,0,0,0-.43-.59,2.43,2.43,0,0,0-.54-.43" transform="translate(-528.67 -44.13)" style="fill:#f2f2f2"/><path d="M1080.72,411.64a5.28,5.28,0,0,0-1.34-.59,2,2,0,0,0-1,0,.93.93,0,0,0-.58.44,1.52,1.52,0,0,0-.2.81,3.39,3.39,0,0,0,.13,1,3.62,3.62,0,0,0,.38.89,5.89,5.89,0,0,0,.65.86,9.75,9.75,0,0,0,.91.91l.9.85a6.29,6.29,0,0,1,.54.6,1.78,1.78,0,0,1,.26.44,1,1,0,0,1,.06.37c0,.27-.11.41-.32.45a1.69,1.69,0,0,1-1-.33,11.73,11.73,0,0,1-1.22-.84,13.06,13.06,0,0,1-1.3-1.21V418a14,14,0,0,0,1.19.93c.41.29.88.59,1.39.89a6.34,6.34,0,0,0,1.14.52,2.32,2.32,0,0,0,1,.13,1.05,1.05,0,0,0,.71-.39,1.63,1.63,0,0,0,.27-1,3.7,3.7,0,0,0-.11-.9,3,3,0,0,0-.36-.86,5.5,5.5,0,0,0-.67-.9,14,14,0,0,0-1-1c-.36-.33-.65-.6-.87-.83a5.59,5.59,0,0,1-.51-.57,1.82,1.82,0,0,1-.25-.42,1.15,1.15,0,0,1-.06-.37c0-.25.11-.39.32-.41a1.46,1.46,0,0,1,.84.27,11.68,11.68,0,0,1,1,.69,14.84,14.84,0,0,1,1.14,1V413.1c-.27-.22-.57-.45-.91-.7a11,11,0,0,0-1.18-.76" transform="translate(-528.67 -44.13)" style="fill:#9ef2c6"/><path d="M1089.34,416.79l-3.72-2.15v1.51l2,1.14,0,5.07-2.23-1.29v1.52l6,3.46v-1.52l-2-1.17,0-6.57m-1-4.05a1,1,0,0,0-.44-.15.52.52,0,0,0-.35.07.64.64,0,0,0-.24.27,1.15,1.15,0,0,0-.08.44,2.09,2.09,0,0,0,.08.55,2.35,2.35,0,0,0,.24.54,2.49,2.49,0,0,0,.35.47,1.83,1.83,0,0,0,.44.35.93.93,0,0,0,.43.15.65.65,0,0,0,.35-.06.56.56,0,0,0,.23-.27,1,1,0,0,0,.09-.45,2.14,2.14,0,0,0-.08-.54,2.31,2.31,0,0,0-.23-.54,2.81,2.81,0,0,0-.35-.48,2.42,2.42,0,0,0-.44-.35" transform="translate(-528.67 -44.13)" style="fill:#9ef2c6"/><polyline points="570.22 378.17 564.62 374.94 564.62 376.6 567.98 378.54 564.52 381.62 564.52 382.98 570.25 386.29 570.25 384.57 566.83 382.6 570.21 379.54 570.22 378.17" style="fill:#9ef2c6"/><path d="M1102.41,427.49a1.4,1.4,0,0,1,.49-1.11,1,1,0,0,1,1,.12,2.38,2.38,0,0,1,.54.42,3.11,3.11,0,0,1,.45.61,3.17,3.17,0,0,1,.3.75,3.28,3.28,0,0,1,.09.89l-2.92-1.68m1.58-2.42a3.27,3.27,0,0,0-1.37-.48,1.5,1.5,0,0,0-1,.3,2,2,0,0,0-.66,1,5,5,0,0,0-.25,1.66,7.2,7.2,0,0,0,.24,1.89,6.56,6.56,0,0,0,.67,1.66,6.69,6.69,0,0,0,1.08,1.41,6.82,6.82,0,0,0,1.44,1.09c.21.12.43.24.66.35l.67.3.65.26c.22.07.41.13.59.17v-1.54a7,7,0,0,1-1.22-.41,8.65,8.65,0,0,1-1.1-.54,4,4,0,0,1-.81-.61,3.92,3.92,0,0,1-1-1.68,3.86,3.86,0,0,1-.14-1l4.63,2.67c0-.19,0-.38,0-.59s0-.37,0-.5a6.42,6.42,0,0,0-.19-1.57,6.35,6.35,0,0,0-.59-1.48,6.61,6.61,0,0,0-1-1.3,5.85,5.85,0,0,0-1.32-1" transform="translate(-528.67 -44.13)" style="fill:#9ef2c6"/><path d="M1113.07,426.71a5.23,5.23,0,0,0-1.37.76,4.27,4.27,0,0,0-1.09,1.15,5.34,5.34,0,0,0-.71,1.62,8.14,8.14,0,0,0-.26,2.14,13.79,13.79,0,0,0,.83,4.54,24.5,24.5,0,0,0,2.52,5l1-.59a19.46,19.46,0,0,1-2-4.22,12.46,12.46,0,0,1-.67-3.87,6,6,0,0,1,.69-3,4.19,4.19,0,0,1,2-1.84l-1-1.66" transform="translate(-528.67 -44.13)" style="fill:#f2f2f2"/><path d="M1118.17,429.65l-1,.57a19.19,19.19,0,0,1,2,4.24,12.12,12.12,0,0,1,.67,3.86,6.06,6.06,0,0,1-.69,3,4.22,4.22,0,0,1-2,1.84l1,1.67a5.45,5.45,0,0,0,1.38-.76,4.44,4.44,0,0,0,1.08-1.16,6.21,6.21,0,0,0,.7-1.63,8.65,8.65,0,0,0,.26-2.14,14,14,0,0,0-.82-4.54,23.69,23.69,0,0,0-2.52-5" transform="translate(-528.67 -44.13)" style="fill:#f2f2f2"/><polyline points="607.19 399.39 605.63 398.49 605.62 401.57 603.04 400.08 603.03 401.68 605.62 403.17 605.61 406.26 607.17 407.16 607.17 404.07 609.76 405.56 609.77 403.96 607.18 402.47 607.19 399.39" style="fill:#f2f2f2"/><path d="M1149.37,453.7v-2.93l.75.43a4.06,4.06,0,0,1,1.27,1.06,2.25,2.25,0,0,1,.42,1.34,1.16,1.16,0,0,1-.13.58.56.56,0,0,1-.35.27,1.17,1.17,0,0,1-.55,0,3.13,3.13,0,0,1-.72-.32l-.69-.4m.94-4-2.64-1.53,0,10.42,1.71,1v-4.31l.33.19a2.57,2.57,0,0,1,.76.68,3.07,3.07,0,0,1,.49,1l1.27,4.08,2,1.16-1.43-4.33a8.61,8.61,0,0,0-.56-1.34,2.54,2.54,0,0,0-.6-.78,2.45,2.45,0,0,0,.79.17,1,1,0,0,0,.63-.16,1.07,1.07,0,0,0,.41-.53,2.7,2.7,0,0,0,.15-.93,4.58,4.58,0,0,0-.89-2.76,6.25,6.25,0,0,0-1-1.09,10.12,10.12,0,0,0-1.36-.93" transform="translate(-528.67 -44.13)" style="fill:#9ef2c6"/><path d="M1158.42,461.83a1.35,1.35,0,0,0-.52-.18.64.64,0,0,0-.42.1.7.7,0,0,0-.29.32,1.34,1.34,0,0,0-.1.56,2,2,0,0,0,.1.66,3.19,3.19,0,0,0,.28.66,3.07,3.07,0,0,0,.42.58,2,2,0,0,0,.52.42,1.21,1.21,0,0,0,.54.19.67.67,0,0,0,.73-.41,1.27,1.27,0,0,0,.1-.54,2.33,2.33,0,0,0-.1-.68,3.23,3.23,0,0,0-.29-.66,2.5,2.5,0,0,0-.43-.58,2.22,2.22,0,0,0-.54-.44" transform="translate(-528.67 -44.13)" style="fill:#f2f2f2"/><path d="M1166.53,461.18a5.44,5.44,0,0,0-1.34-.59,2,2,0,0,0-1,0,1,1,0,0,0-.59.44,1.68,1.68,0,0,0-.19.82,3.37,3.37,0,0,0,.13,1,3.62,3.62,0,0,0,.38.89,5.4,5.4,0,0,0,.65.86,11,11,0,0,0,.9.91c.38.34.68.62.91.85a6.29,6.29,0,0,1,.54.6,1.7,1.7,0,0,1,.25.44.86.86,0,0,1,.07.37c0,.27-.11.41-.32.45a1.66,1.66,0,0,1-1-.33,11.5,11.5,0,0,1-1.23-.85,12.76,12.76,0,0,1-1.29-1.2v1.75a13.73,13.73,0,0,0,1.18.92,14.77,14.77,0,0,0,1.4.9,7.12,7.12,0,0,0,1.14.52,2.44,2.44,0,0,0,1,.13,1.08,1.08,0,0,0,.71-.39,1.63,1.63,0,0,0,.27-1,3.76,3.76,0,0,0-.11-.9,3,3,0,0,0-.37-.86,4.89,4.89,0,0,0-.66-.9q-.42-.46-1-1c-.36-.32-.66-.6-.87-.82a6.8,6.8,0,0,1-.51-.58,1.52,1.52,0,0,1-.25-.42,1.15,1.15,0,0,1-.06-.37c0-.25.11-.39.32-.41a1.52,1.52,0,0,1,.83.27,10.5,10.5,0,0,1,1,.69,14.49,14.49,0,0,1,1.13,1v-1.58c-.27-.22-.57-.45-.91-.7a11,11,0,0,0-1.18-.76" transform="translate(-528.67 -44.13)" style="fill:#9ef2c6"/><path d="M1175.14,466.32l-3.72-2.14v1.51l2,1.15,0,5.06-2.23-1.29v1.52l6,3.46v-1.52l-2-1.17,0-6.58m-1-4a1,1,0,0,0-.44-.16.55.55,0,0,0-.36.07.69.69,0,0,0-.23.27,1,1,0,0,0-.08.44,1.79,1.79,0,0,0,.08.55,2.58,2.58,0,0,0,.23.54,2.67,2.67,0,0,0,.36.47,2.17,2.17,0,0,0,.44.36,1.14,1.14,0,0,0,.43.14.67.67,0,0,0,.35-.06.56.56,0,0,0,.23-.27,1,1,0,0,0,.09-.45,2.14,2.14,0,0,0-.08-.54,3.65,3.65,0,0,0-.23-.54,3.27,3.27,0,0,0-.35-.48,2,2,0,0,0-.44-.34" transform="translate(-528.67 -44.13)" style="fill:#9ef2c6"/><polyline points="656.02 427.71 650.43 424.48 650.43 426.14 653.78 428.08 650.33 431.17 650.33 432.52 656.05 435.83 656.06 434.11 652.63 432.14 656.02 429.08 656.02 427.71" style="fill:#9ef2c6"/><path d="M1188.22,477a1.36,1.36,0,0,1,.49-1.11,1,1,0,0,1,1,.12,2.68,2.68,0,0,1,.54.43,2.77,2.77,0,0,1,.45.6,3.17,3.17,0,0,1,.29.75,3.27,3.27,0,0,1,.1.9l-2.92-1.69m1.57-2.42a3.21,3.21,0,0,0-1.36-.47,1.5,1.5,0,0,0-1,.29,2,2,0,0,0-.66,1,5,5,0,0,0-.25,1.66,7.31,7.31,0,0,0,.24,1.89,6.88,6.88,0,0,0,.67,1.66,6.32,6.32,0,0,0,1.08,1.4,8,8,0,0,0,2.1,1.44c.22.11.44.21.67.3a6.62,6.62,0,0,0,.65.25,4.29,4.29,0,0,0,.59.18v-1.54a7.18,7.18,0,0,1-1.21-.41,8.62,8.62,0,0,1-1.1-.53,4.05,4.05,0,0,1-.81-.62,3.81,3.81,0,0,1-.62-.77,3.88,3.88,0,0,1-.4-.91,3.49,3.49,0,0,1-.14-1l4.63,2.67c0-.18,0-.38,0-.59s0-.37,0-.5a6.42,6.42,0,0,0-.19-1.57,6.53,6.53,0,0,0-.59-1.48,6.27,6.27,0,0,0-1-1.29,5.67,5.67,0,0,0-1.33-1" transform="translate(-528.67 -44.13)" style="fill:#9ef2c6"/><path d="M1198.88,476.25a5.45,5.45,0,0,0-1.38.76,4.56,4.56,0,0,0-1.08,1.15,5.4,5.4,0,0,0-.71,1.63,8,8,0,0,0-.26,2.13,13.79,13.79,0,0,0,.83,4.54,24,24,0,0,0,2.52,5l1-.59a19.46,19.46,0,0,1-2-4.22,12.49,12.49,0,0,1-.68-3.87,6.1,6.1,0,0,1,.7-3,4.24,4.24,0,0,1,2-1.84l-1-1.66" transform="translate(-528.67 -44.13)" style="fill:#f2f2f2"/><path d="M1204,479.19l-1,.57a19.19,19.19,0,0,1,2,4.24,12.4,12.4,0,0,1,.67,3.86,6.14,6.14,0,0,1-.69,3,4.17,4.17,0,0,1-2,1.84l1,1.67a5.45,5.45,0,0,0,1.38-.76,4.25,4.25,0,0,0,1.07-1.16,5.91,5.91,0,0,0,.71-1.63,8.59,8.59,0,0,0,.26-2.14,13.79,13.79,0,0,0-.83-4.54,22.76,22.76,0,0,0-2.52-5" transform="translate(-528.67 -44.13)" style="fill:#f2f2f2"/><path d="M1213,493.33a1,1,0,0,0-.49-.17.68.68,0,0,0-.36.08.69.69,0,0,0-.22.3,1.2,1.2,0,0,0-.07.44,1.66,1.66,0,0,0,0,.46,2.37,2.37,0,0,0,.15.4,3.36,3.36,0,0,0,.19.38c.07.12.13.24.19.36a3,3,0,0,1,.15.38,1.56,1.56,0,0,1,.06.44.61.61,0,0,1-.16.47.57.57,0,0,1-.42.15,1.51,1.51,0,0,1-.63-.14,4.11,4.11,0,0,1-.64-.31.57.57,0,0,1-.13-.08v1.27a5.23,5.23,0,0,0,1.66.67,2,2,0,0,0,1.17-.09,1.48,1.48,0,0,0,.71-.73,3.18,3.18,0,0,0,.24-1.26,4.48,4.48,0,0,0-.1-.88,4.41,4.41,0,0,0-.28-.87,4.07,4.07,0,0,0-.46-.75,2.25,2.25,0,0,0-.6-.52m0-5.18a1.15,1.15,0,0,0-.49-.17.7.7,0,0,0-.39.08.61.61,0,0,0-.27.3,1.13,1.13,0,0,0-.1.51,2.38,2.38,0,0,0,.09.62,3.56,3.56,0,0,0,.27.6,3,3,0,0,0,.4.54,2.22,2.22,0,0,0,.48.39,1.37,1.37,0,0,0,.49.17.64.64,0,0,0,.4-.08.6.6,0,0,0,.26-.3,1.09,1.09,0,0,0,.11-.5,2.29,2.29,0,0,0-.1-.62,3,3,0,0,0-.27-.61,2.84,2.84,0,0,0-.39-.54,2,2,0,0,0-.49-.39" transform="translate(-528.67 -44.13)" style="fill:#f2f2f2"/><path d="M987.87,377.8l-3.72-2.14v1.51l2,1.14v5.07l-2.23-1.29v1.51l6,3.46v-1.51l-2-1.17V377.8m-1-4a1.32,1.32,0,0,0-.44-.16.6.6,0,0,0-.36.08.57.57,0,0,0-.23.27,1,1,0,0,0-.08.44,1.73,1.73,0,0,0,.08.54,2.14,2.14,0,0,0,.23.54,2.3,2.3,0,0,0,.35.47,1.83,1.83,0,0,0,.44.36,1,1,0,0,0,.44.15.58.58,0,0,0,.35-.07.52.52,0,0,0,.23-.27,1,1,0,0,0,.08-.44,1.45,1.45,0,0,0-.08-.54,2.14,2.14,0,0,0-.23-.54,2.12,2.12,0,0,0-.35-.48,2,2,0,0,0-.43-.35" transform="translate(-528.67 -44.13)" style="fill:#f9273c"/><path d="M996.36,379.38a5,5,0,0,0-1.26-.54,1.54,1.54,0,0,0-1,0,1.24,1.24,0,0,0-.62.65,3.51,3.51,0,0,0-.22,1.35v1.23l-2-1.18v1.51l2,1.18V389l1.7,1,0-5.42,2.76,1.6v-1.51l-2.77-1.6v-1.3a1.71,1.71,0,0,1,.11-.68.62.62,0,0,1,.29-.34.68.68,0,0,1,.45,0,1.85,1.85,0,0,1,.55.22,7.88,7.88,0,0,1,.85.57,7.1,7.1,0,0,1,.73.61v-1.57c-.24-.2-.49-.4-.77-.6a8.77,8.77,0,0,0-.87-.58" transform="translate(-528.67 -44.13)" style="fill:#f9273c"/><path d="M1003.81,383.21a5.82,5.82,0,0,0-1.38.77,4.78,4.78,0,0,0-1.09,1.15,5.71,5.71,0,0,0-.71,1.62,8.19,8.19,0,0,0-.25,2.15,13.28,13.28,0,0,0,.83,4.53,24.82,24.82,0,0,0,2.52,5l1-.61a19.64,19.64,0,0,1-2-4.21,12.4,12.4,0,0,1-.67-3.86,6.21,6.21,0,0,1,.69-3,4.34,4.34,0,0,1,2-1.83l-1-1.67" transform="translate(-528.67 -44.13)" style="fill:#f2f2f2"/><polyline points="480.74 343.78 479.01 342.79 478.98 353.19 484.54 356.39 484.54 354.71 480.72 352.51 480.74 343.78" style="fill:#9ef2c6"/><path d="M1018,400.33a1.16,1.16,0,0,0-.52-.18.67.67,0,0,0-.71.42,1.34,1.34,0,0,0-.1.56,2.25,2.25,0,0,0,.1.66,3.19,3.19,0,0,0,.28.66,2.67,2.67,0,0,0,.43.57,2,2,0,0,0,.51.43,1.15,1.15,0,0,0,.54.18.65.65,0,0,0,.73-.4,1.44,1.44,0,0,0,.1-.54,2.33,2.33,0,0,0-.1-.68,3.19,3.19,0,0,0-.28-.66,2.86,2.86,0,0,0-.44-.58,2,2,0,0,0-.54-.44" transform="translate(-528.67 -44.13)" style="fill:#f2f2f2"/><path d="M1026.06,399.68a5.44,5.44,0,0,0-1.34-.59,2,2,0,0,0-1,0,1,1,0,0,0-.58.44,1.58,1.58,0,0,0-.2.82,3.42,3.42,0,0,0,.13,1,3.55,3.55,0,0,0,.38.88,6,6,0,0,0,.64.87c.26.29.57.59.92.91s.67.62.9.85a6.29,6.29,0,0,1,.54.6,1.93,1.93,0,0,1,.26.44,1.21,1.21,0,0,1,.07.37c0,.26-.11.41-.34.44a1.67,1.67,0,0,1-1-.33,10.36,10.36,0,0,1-1.22-.84,12.82,12.82,0,0,1-1.3-1.2V406c.37.32.76.63,1.17.92s.88.59,1.4.89a5.71,5.71,0,0,0,1.14.52,2.3,2.3,0,0,0,1,.13,1,1,0,0,0,.71-.38,1.65,1.65,0,0,0,.27-1,3.36,3.36,0,0,0-.47-1.76,6,6,0,0,0-.66-.9,14.27,14.27,0,0,0-1-1c-.36-.32-.65-.6-.87-.82a7.34,7.34,0,0,1-.52-.59,1.56,1.56,0,0,1-.24-.42,1.09,1.09,0,0,1-.06-.36c0-.25.11-.39.32-.41a1.39,1.39,0,0,1,.83.26,9.12,9.12,0,0,1,1,.7,12.85,12.85,0,0,1,1.13,1v-1.58c-.26-.22-.56-.45-.91-.7a9.65,9.65,0,0,0-1.18-.76" transform="translate(-528.67 -44.13)" style="fill:#9ef2c6"/><path d="M1034.67,404.82l-3.71-2.14v1.51l2,1.15v5.06l-2.23-1.29v1.51l6,3.46v-1.51l-2-1.17v-6.58m-1-4a1,1,0,0,0-.43-.15.52.52,0,0,0-.36.07.52.52,0,0,0-.23.27,1,1,0,0,0-.09.44,2,2,0,0,0,.08.54,3.25,3.25,0,0,0,.23.54,2.41,2.41,0,0,0,.36.48,2,2,0,0,0,.43.35,1.09,1.09,0,0,0,.44.15.62.62,0,0,0,.36-.07.62.62,0,0,0,.23-.27,1.12,1.12,0,0,0,.08-.44,1.73,1.73,0,0,0-.08-.54,2.58,2.58,0,0,0-.23-.54,3.27,3.27,0,0,0-.35-.48,2.12,2.12,0,0,0-.44-.35" transform="translate(-528.67 -44.13)" style="fill:#9ef2c6"/><polyline points="515.55 366.2 509.96 362.98 509.96 364.64 513.32 366.58 509.86 369.67 509.86 371.01 515.59 374.32 515.59 372.61 512.17 370.64 515.55 367.57 515.55 366.2" style="fill:#9ef2c6"/><path d="M1047.75,415.52a1.41,1.41,0,0,1,.49-1.1,1,1,0,0,1,1,.12,2.78,2.78,0,0,1,1,1,3.46,3.46,0,0,1,.31.76,3.24,3.24,0,0,1,.1.89l-2.93-1.69m1.58-2.41a3.32,3.32,0,0,0-1.37-.48,1.46,1.46,0,0,0-1,.29,2.14,2.14,0,0,0-.68,1,5.3,5.3,0,0,0-.24,1.66,7.71,7.71,0,0,0,.23,1.89,7,7,0,0,0,.68,1.67,6.5,6.5,0,0,0,1.08,1.39,7.13,7.13,0,0,0,1.44,1.1c.21.12.43.24.66.35s.45.21.67.3a6.62,6.62,0,0,0,.65.25c.21.07.41.14.59.18v-1.55a7.15,7.15,0,0,1-1.21-.4,10.2,10.2,0,0,1-1.1-.53,4.05,4.05,0,0,1-.81-.62,3.81,3.81,0,0,1-.62-.77,4.2,4.2,0,0,1-.4-.92,3.81,3.81,0,0,1-.14-1l4.63,2.67c0-.17,0-.37,0-.58s0-.38,0-.51a5.52,5.52,0,0,0-.2-1.56,6.07,6.07,0,0,0-.58-1.48,5.75,5.75,0,0,0-1-1.3,5.85,5.85,0,0,0-1.32-1" transform="translate(-528.67 -44.13)" style="fill:#9ef2c6"/><path d="M1058.42,414.74a5.55,5.55,0,0,0-1.39.77,4.57,4.57,0,0,0-1.08,1.15,5.71,5.71,0,0,0-.71,1.62,8.17,8.17,0,0,0-.25,2.14,13.2,13.2,0,0,0,.83,4.53,23.74,23.74,0,0,0,2.51,5l1-.6a19.71,19.71,0,0,1-2-4.22,12.32,12.32,0,0,1-.66-3.86,6.17,6.17,0,0,1,.68-3,4.36,4.36,0,0,1,2-1.84l-.95-1.66" transform="translate(-528.67 -44.13)" style="fill:#f2f2f2"/><path d="M1063.51,417.68l-1,.58a19.52,19.52,0,0,1,2,4.23,12.5,12.5,0,0,1,.67,3.86,6.1,6.1,0,0,1-.69,3,4.22,4.22,0,0,1-2,1.84l1,1.67a5.23,5.23,0,0,0,1.37-.76,4.15,4.15,0,0,0,1.07-1.17,5.68,5.68,0,0,0,.71-1.62,8.7,8.7,0,0,0,.25-2.15,13.32,13.32,0,0,0-.82-4.54,23.86,23.86,0,0,0-2.51-5" transform="translate(-528.67 -44.13)" style="fill:#f2f2f2"/><polyline points="550.27 385.49 549.2 386.12 552.62 391.37 549.18 392.64 550.25 394.52 554.93 392.69 550.27 385.49" style="fill:#f2f2f2"/><path d="M1097.42,437.26a5.32,5.32,0,0,0-1.38.77,4.43,4.43,0,0,0-1.09,1.15,5.59,5.59,0,0,0-.71,1.62,8.61,8.61,0,0,0-.25,2.14,13.44,13.44,0,0,0,.83,4.53,23.74,23.74,0,0,0,2.51,5l1-.6a19.24,19.24,0,0,1-2-4.22,12.4,12.4,0,0,1-.67-3.86,6.17,6.17,0,0,1,.69-3,4.29,4.29,0,0,1,2-1.84l-.95-1.66" transform="translate(-528.67 -44.13)" style="fill:#f2f2f2"/><path d="M1104.61,445a2.74,2.74,0,0,0-.7-.31,1.73,1.73,0,0,0-.58-.07,1.23,1.23,0,0,0-.5.16,1.61,1.61,0,0,0-.45.3l0-1.22-1.46-.84,0,8.08,1.7,1V447a2.72,2.72,0,0,1,.83-.6.87.87,0,0,1,.82.07,1.92,1.92,0,0,1,.86,1.83l0,5.27,1.69,1,0-5.43a5.68,5.68,0,0,0-.14-1.24,4.5,4.5,0,0,0-.39-1.12,4.12,4.12,0,0,0-.67-1,3.66,3.66,0,0,0-1-.75" transform="translate(-528.67 -44.13)" style="fill:#9ef2c6"/><path d="M1111.61,455.84a3.05,3.05,0,0,1-1.21-1.34,4.86,4.86,0,0,1-.44-2.16,4.27,4.27,0,0,1,.1-.93,1.36,1.36,0,0,1,.3-.64.7.7,0,0,1,.51-.25,1.44,1.44,0,0,1,.75.24,3,3,0,0,1,1.22,1.33,4.94,4.94,0,0,1,.4,2.13,4.61,4.61,0,0,1-.09,1,1.59,1.59,0,0,1-.3.64.66.66,0,0,1-.51.26,1.55,1.55,0,0,1-.73-.24m.08-6.73a3.78,3.78,0,0,0-1.46-.53,1.63,1.63,0,0,0-1.09.23,1.83,1.83,0,0,0-.69.95,4.67,4.67,0,0,0-.25,1.62,7.8,7.8,0,0,0,.23,2,6.53,6.53,0,0,0,1.69,3.06,6.41,6.41,0,0,0,1.4,1.07,3.7,3.7,0,0,0,1.47.54,1.56,1.56,0,0,0,1.1-.25,2,2,0,0,0,.68-1,4.92,4.92,0,0,0,.24-1.61,8.42,8.42,0,0,0-.22-1.92,6.75,6.75,0,0,0-.66-1.69,6.16,6.16,0,0,0-1-1.39,6.46,6.46,0,0,0-1.4-1.08" transform="translate(-528.67 -44.13)" style="fill:#9ef2c6"/><polyline points="594.58 411.83 593.05 410.95 592.61 415.25 592.48 416.46 592.15 415.12 591.41 412.24 590.12 411.5 589.4 413.54 589.12 414.5 589.01 413.19 588.51 408.32 586.91 407.4 587.88 416.06 589.76 417.15 590.49 415.03 590.72 414.24 590.95 415.26 591.69 418.26 593.57 419.34 594.58 411.83" style="fill:#9ef2c6"/><polyline points="607.13 418.95 605.58 418.05 605.57 421.13 602.98 419.63 602.98 421.23 605.56 422.73 605.55 425.83 607.11 426.73 607.12 423.63 609.71 425.12 609.71 423.52 607.12 422.03 607.13 418.95" style="fill:#f2f2f2"/><polyline points="623.15 425.94 621.73 425.12 618.85 425.2 619.4 427.11 621.41 426.99 621.39 433.68 619.09 432.35 619.08 434.07 625.11 437.55 625.11 435.83 623.13 434.68 623.15 425.94" style="fill:#7572ff"/><path d="M1157.12,471.73l-1,.58a19.07,19.07,0,0,1,2,4.22,12.22,12.22,0,0,1,.67,3.87,6.13,6.13,0,0,1-.69,3,4.27,4.27,0,0,1-2,1.83l1,1.67a5.42,5.42,0,0,0,1.38-.75,4.84,4.84,0,0,0,1.08-1.17,6.21,6.21,0,0,0,.7-1.63,8.11,8.11,0,0,0,.25-2.14,13.7,13.7,0,0,0-.81-4.54,24.19,24.19,0,0,0-2.52-5" transform="translate(-528.67 -44.13)" style="fill:#f2f2f2"/><polyline points="648.44 439.76 646.8 438.81 641.93 448.98 643.57 449.93 648.44 439.76" style="fill:#f2f2f2"/><path d="M1189.5,491.72a3.54,3.54,0,0,0-1.59-.54,2.68,2.68,0,0,0-1.34.23l.89,1.84a2.06,2.06,0,0,1,.87-.21,2.09,2.09,0,0,1,1,.31,2.33,2.33,0,0,1,.55.43,2.67,2.67,0,0,1,.4.55,2,2,0,0,1,.24.6,1.84,1.84,0,0,1,.08.6,3.3,3.3,0,0,1-.06.66,1.58,1.58,0,0,1-.26.58,2.71,2.71,0,0,1-.56.57,8.38,8.38,0,0,1-1,.64l-2.14,1.22v1.43l6.15,3.55v-1.79l-3.81-2.2,1.32-.68q.51-.27.93-.54a3.44,3.44,0,0,0,.68-.63,2.92,2.92,0,0,0,.43-.8,3.83,3.83,0,0,0,.14-1.08,5,5,0,0,0-.21-1.44,5.09,5.09,0,0,0-.59-1.3,5.66,5.66,0,0,0-.92-1.11,6,6,0,0,0-1.21-.89" transform="translate(-528.67 -44.13)" style="fill:#7572ff"/><path d="M1196.12,494.24l-1,.58a19.74,19.74,0,0,1,2,4.23,12.54,12.54,0,0,1,.68,3.87,6.17,6.17,0,0,1-.7,3,4.17,4.17,0,0,1-2,1.84l1,1.67a5.5,5.5,0,0,0,1.37-.75,4.65,4.65,0,0,0,1.08-1.17,5.9,5.9,0,0,0,.7-1.63,8.14,8.14,0,0,0,.26-2.14,14,14,0,0,0-.82-4.54,23.51,23.51,0,0,0-2.52-5" transform="translate(-528.67 -44.13)" style="fill:#f2f2f2"/><path d="M1215.43,505.66l-.58-.34a4.13,4.13,0,0,0-1.29-.53,1.23,1.23,0,0,0-.89.11,1.3,1.3,0,0,0-.51.74A4.74,4.74,0,0,0,1212,507v1.4a2.32,2.32,0,0,1-.08.66.52.52,0,0,1-.23.35.58.58,0,0,1-.44,0,2.66,2.66,0,0,1-.63-.28l-.44-.25v1.5l.44.25a2.63,2.63,0,0,1,1.06,1,3.06,3.06,0,0,1,.32,1.42v2a5.23,5.23,0,0,0,2.84,4.94l.58.34v-1.5l-.44-.25a3.44,3.44,0,0,1-.6-.44,2.3,2.3,0,0,1-.46-.56,2.6,2.6,0,0,1-.3-.72,3.6,3.6,0,0,1-.1-.92v-2a4.55,4.55,0,0,0-.35-2,3.19,3.19,0,0,0-1.1-1.3,1.66,1.66,0,0,0,.65.16.58.58,0,0,0,.46-.17,1.18,1.18,0,0,0,.27-.55,4.32,4.32,0,0,0,.09-1v-1.4a2.21,2.21,0,0,1,.11-.77.63.63,0,0,1,.3-.38.71.71,0,0,1,.46,0,2.41,2.41,0,0,1,.6.25l.44.26v-1.5" transform="translate(-528.67 -44.13)" style="fill:#f2f2f2"/><polyline points="490.36 368.09 486.64 365.94 486.63 367.45 488.62 368.6 488.6 376.82 486.37 375.54 486.37 377.05 492.36 380.51 492.37 379 490.33 377.83 490.36 368.09" style="fill:#45cbef"/><path d="M1025.75,425.87a3,3,0,0,1-1.21-1.34,4.79,4.79,0,0,1-.44-2.16,3.76,3.76,0,0,1,.1-.94,1.46,1.46,0,0,1,.29-.64.72.72,0,0,1,.51-.24,1.31,1.31,0,0,1,.77.24,3,3,0,0,1,1.21,1.33,5,5,0,0,1,.41,2.12,4.45,4.45,0,0,1-.11,1,1.56,1.56,0,0,1-.29.65.66.66,0,0,1-.5.25,1.4,1.4,0,0,1-.74-.23m.07-6.73a3.71,3.71,0,0,0-1.46-.54,1.58,1.58,0,0,0-1.09.23,2,2,0,0,0-.69.95,4.77,4.77,0,0,0-.24,1.62,8.09,8.09,0,0,0,.22,2,7,7,0,0,0,.65,1.69,6.27,6.27,0,0,0,1,1.39,6.74,6.74,0,0,0,1.4,1.07,3.7,3.7,0,0,0,1.47.54,1.62,1.62,0,0,0,1.09-.25,1.93,1.93,0,0,0,.68-1,4.67,4.67,0,0,0,.24-1.61,7.9,7.9,0,0,0-.22-1.92,6.66,6.66,0,0,0-.65-1.68,6.41,6.41,0,0,0-2.45-2.47" transform="translate(-528.67 -44.13)" style="fill:#45cbef"/><path d="M1034.35,424.06a3.14,3.14,0,0,0-.7-.31,1.49,1.49,0,0,0-.58-.06,1.2,1.2,0,0,0-.5.14,1.9,1.9,0,0,0-.45.31l0-1.22-1.46-.85,0,8.09,1.69,1,0-5.12a2.72,2.72,0,0,1,.83-.6.84.84,0,0,1,.82.07,1.93,1.93,0,0,1,.86,1.83l0,5.27,1.69,1v-5.43a5.07,5.07,0,0,0-.13-1.24,4.47,4.47,0,0,0-.4-1.13,4.15,4.15,0,0,0-.67-1,4.1,4.1,0,0,0-.94-.74" transform="translate(-528.67 -44.13)" style="fill:#45cbef"/><path d="M1041.26,438.31a4.83,4.83,0,0,1-1.17-.89,1.42,1.42,0,0,1-.4-.93,1.37,1.37,0,0,1,0-.29.5.5,0,0,1,.1-.22.55.55,0,0,1,.2-.17,1,1,0,0,1,.33-.11l1.49.89c.17.11.33.22.47.33a3.23,3.23,0,0,1,.37.37,1.58,1.58,0,0,1,.24.39,1.15,1.15,0,0,1,.08.41.86.86,0,0,1-.09.41.46.46,0,0,1-.3.22,1.19,1.19,0,0,1-.54-.05,3.12,3.12,0,0,1-.8-.36m0-6a2.41,2.41,0,0,1-.91-.91,2.27,2.27,0,0,1-.33-1.21,1.48,1.48,0,0,1,.08-.53.65.65,0,0,1,.23-.34.59.59,0,0,1,.38-.1,1.4,1.4,0,0,1,.54.19,2.33,2.33,0,0,1,.92.92,2.43,2.43,0,0,1,.33,1.25,1.44,1.44,0,0,1-.08.49.64.64,0,0,1-.23.33.53.53,0,0,1-.38.1,1.29,1.29,0,0,1-.55-.19m0-4.23a3.84,3.84,0,0,0-1.13-.47,1.55,1.55,0,0,0-.89,0,1.14,1.14,0,0,0-.59.56,2.35,2.35,0,0,0-.22,1.08,3.75,3.75,0,0,0,.17,1.15,5.93,5.93,0,0,0,.42,1l-.27.23a1.55,1.55,0,0,0-.24.27,1.46,1.46,0,0,0-.16.36,1.66,1.66,0,0,0-.07.47,2.28,2.28,0,0,0,.18.85,3,3,0,0,0,.51.87,1.62,1.62,0,0,0-.44.16,1,1,0,0,0-.31.25.91.91,0,0,0-.19.35,1.61,1.61,0,0,0-.07.47,2.65,2.65,0,0,0,.19,1,4.05,4.05,0,0,0,.57,1,6.41,6.41,0,0,0,1,1,9.77,9.77,0,0,0,1.46,1,6.23,6.23,0,0,0,1.55.67,2.16,2.16,0,0,0,1.11.06,1,1,0,0,0,.67-.48,1.83,1.83,0,0,0,.23-.95,2.87,2.87,0,0,0-.18-1,3.73,3.73,0,0,0-.5-.94,4.87,4.87,0,0,0-.78-.87,7.15,7.15,0,0,0-1-.75l-1.67-1a3.1,3.1,0,0,1-.34-.27,3.4,3.4,0,0,1-.25-.31,1.2,1.2,0,0,1-.16-.32.83.83,0,0,1-.06-.29.53.53,0,0,1,.09-.32.61.61,0,0,1,.2-.19,2.58,2.58,0,0,0,.47.47,4.15,4.15,0,0,0,.68.48,4.24,4.24,0,0,0,1.14.48,1.65,1.65,0,0,0,.89,0,1,1,0,0,0,.57-.54,2.31,2.31,0,0,0,.21-1.07,3.18,3.18,0,0,0-.07-.67,3.58,3.58,0,0,0-.28-.74l1.11.64v-1.43l-2.44-1.41a5.9,5.9,0,0,0-.52-.41,5.36,5.36,0,0,0-.59-.38" transform="translate(-528.67 -44.13)" style="fill:#45cbef"/><path d="M1057.09,434.77l-1.73-.48v2.07l-1.89-1.09v1.51l1.89,1.09v3.95a5.69,5.69,0,0,0,.15,1.35,4.58,4.58,0,0,0,.48,1.16,5.08,5.08,0,0,0,.83,1,7.1,7.1,0,0,0,1.2.86,6.52,6.52,0,0,0,.88.43,9.55,9.55,0,0,0,.92.35v-1.56a6,6,0,0,1-.73-.23,5,5,0,0,1-.81-.39,2.37,2.37,0,0,1-.92-.88,2.5,2.5,0,0,1-.28-1.22v-3.8l2.74,1.59v-1.52l-2.74-1.58v-2.59" transform="translate(-528.67 -44.13)" style="fill:#9ef2c6"/><path d="M1075.52,452.55l-6-3.44v1.54l6,3.44v-1.54m0-3.14-6-3.44v1.54l6,3.45v-1.55" transform="translate(-528.67 -44.13)" style="fill:#f2f2f2"/><polyline points="558.7 408.39 556.96 407.39 556.93 417.79 562.49 421 562.49 419.32 558.67 417.11 558.7 408.39" style="fill:#9ef2c6"/><path d="M1095.9,464.92a1.23,1.23,0,0,0-.51-.17.74.74,0,0,0-.43.09.82.82,0,0,0-.29.34,1.32,1.32,0,0,0-.1.55,2.25,2.25,0,0,0,.1.66,3.44,3.44,0,0,0,.28.65,2.79,2.79,0,0,0,.43.59,2.47,2.47,0,0,0,.51.42,1.51,1.51,0,0,0,.55.19.78.78,0,0,0,.43-.09.62.62,0,0,0,.28-.33,1.11,1.11,0,0,0,.11-.54,2,2,0,0,0-.1-.67,2.76,2.76,0,0,0-.29-.66,3.51,3.51,0,0,0-.42-.59,3.22,3.22,0,0,0-.55-.44" transform="translate(-528.67 -44.13)" style="fill:#f2f2f2"/><path d="M1103.9,461.8l-1.73-.49v2.07l-1.89-1.1v1.52l1.9,1.1v4a4.91,4.91,0,0,0,.15,1.35,4,4,0,0,0,.48,1.15,4.75,4.75,0,0,0,.83,1,6.5,6.5,0,0,0,1.19.86,9,9,0,0,0,.88.44c.32.13.62.25.92.34v-1.56a5.36,5.36,0,0,1-.72-.23,4.92,4.92,0,0,1-.81-.38,2.43,2.43,0,0,1-.93-.89,2.48,2.48,0,0,1-.27-1.21v-3.8l2.73,1.57V466l-2.73-1.58V461.8" transform="translate(-528.67 -44.13)" style="fill:#9ef2c6"/><path d="M1111.55,475.41a3.11,3.11,0,0,1-1.21-1.34,4.93,4.93,0,0,1-.43-2.16,3.82,3.82,0,0,1,.1-.94,1.32,1.32,0,0,1,.29-.63.72.72,0,0,1,.51-.25,1.36,1.36,0,0,1,.76.23,3.05,3.05,0,0,1,1.22,1.34,5,5,0,0,1,.4,2.12,3.88,3.88,0,0,1-.1,1,1.4,1.4,0,0,1-.3.65.62.62,0,0,1-.5.24,1.31,1.31,0,0,1-.74-.22m.08-6.73a3.61,3.61,0,0,0-1.46-.54,1.64,1.64,0,0,0-1.09.23,1.89,1.89,0,0,0-.69.95,4.75,4.75,0,0,0-.24,1.61,7.7,7.7,0,0,0,.22,2,7,7,0,0,0,.65,1.69,6.27,6.27,0,0,0,1,1.39,6.49,6.49,0,0,0,1.4,1.07,3.7,3.7,0,0,0,1.47.54,1.7,1.7,0,0,0,1.09-.25,2,2,0,0,0,.68-1,4.71,4.71,0,0,0,.24-1.61,7.9,7.9,0,0,0-.22-1.92,6.81,6.81,0,0,0-.65-1.68,6.26,6.26,0,0,0-1-1.4,6.49,6.49,0,0,0-1.4-1.07" transform="translate(-528.67 -44.13)" style="fill:#9ef2c6"/><path d="M1119.19,479.93a5.33,5.33,0,0,1-.6-.41,6.08,6.08,0,0,1-.5-.42v-3.54a2.75,2.75,0,0,1,.84-.6.87.87,0,0,1,.82.07,2.14,2.14,0,0,1,.52.44,2.59,2.59,0,0,1,.37.66,3.86,3.86,0,0,1,.24.92,8,8,0,0,1,.08,1.18,3.61,3.61,0,0,1-.13,1.06,1.31,1.31,0,0,1-.36.65.8.8,0,0,1-.56.22,1.54,1.54,0,0,1-.73-.23m1-6.33a3.14,3.14,0,0,0-.7-.31,1.49,1.49,0,0,0-.58-.06,1.25,1.25,0,0,0-.51.14,3,3,0,0,0-.45.31l0-1.22-1.46-.85,0,11.26,1.69,1v-3.16a5,5,0,0,0,.48.38,4.32,4.32,0,0,0,.53.34,4.57,4.57,0,0,0,1.45.58,1.7,1.7,0,0,0,1.15-.13,1.79,1.79,0,0,0,.77-.9,4.83,4.83,0,0,0,.27-1.78,8.7,8.7,0,0,0-.17-1.79,6.86,6.86,0,0,0-.49-1.57,5.1,5.1,0,0,0-.82-1.28,3.92,3.92,0,0,0-1.1-.93" transform="translate(-528.67 -44.13)" style="fill:#9ef2c6"/><path d="M1128.57,474.84a6.45,6.45,0,0,0-1.39.76,4.79,4.79,0,0,0-1.08,1.16,5.71,5.71,0,0,0-.71,1.62,8.17,8.17,0,0,0-.25,2.14,13.24,13.24,0,0,0,.83,4.53,24.23,24.23,0,0,0,2.51,5l1-.6a19.24,19.24,0,0,1-2-4.22,12.13,12.13,0,0,1-.67-3.87,6,6,0,0,1,.69-3,4.26,4.26,0,0,1,2-1.84l-1-1.66" transform="translate(-528.67 -44.13)" style="fill:#f2f2f2"/><path d="M1133.66,477.78l-1,.57a19.59,19.59,0,0,1,2,4.24,12.45,12.45,0,0,1,.67,3.86,6.1,6.1,0,0,1-.69,3,4.22,4.22,0,0,1-2,1.84l1,1.67a5.53,5.53,0,0,0,1.37-.76,4.15,4.15,0,0,0,1.07-1.17,5.63,5.63,0,0,0,.71-1.63,8.55,8.55,0,0,0,.25-2.14,13.27,13.27,0,0,0-.82-4.54,23.86,23.86,0,0,0-2.51-5" transform="translate(-528.67 -44.13)" style="fill:#f2f2f2"/><path d="M1142.71,491.92a1.15,1.15,0,0,0-.49-.17.57.57,0,0,0-.35.09.59.59,0,0,0-.22.29,1.23,1.23,0,0,0-.08.44,1.6,1.6,0,0,0,.06.46,1.8,1.8,0,0,0,.14.41c.06.13.13.25.19.37s.13.24.19.37a2.15,2.15,0,0,1,.15.38,1.16,1.16,0,0,1,0,.42.66.66,0,0,1-.14.48.57.57,0,0,1-.43.16,1.76,1.76,0,0,1-.62-.14,4.7,4.7,0,0,1-.61-.29l-.17-.1v1.26a5.1,5.1,0,0,0,1.64.67,1.88,1.88,0,0,0,1.18-.09,1.41,1.41,0,0,0,.71-.73,3.09,3.09,0,0,0,.24-1.25,3.86,3.86,0,0,0-.1-.89,4.32,4.32,0,0,0-.28-.86,3.47,3.47,0,0,0-.45-.75,2.16,2.16,0,0,0-.61-.53m0-5.17a1.16,1.16,0,0,0-.48-.17.59.59,0,0,0-.4.08.54.54,0,0,0-.27.3,1.24,1.24,0,0,0-.1.5,2,2,0,0,0,.1.62,3,3,0,0,0,.26.61,3.51,3.51,0,0,0,.4.53,2.16,2.16,0,0,0,.48.39,1.19,1.19,0,0,0,.5.17.62.62,0,0,0,.39-.07.72.72,0,0,0,.27-.3,1.33,1.33,0,0,0,.09-.51,2.32,2.32,0,0,0-.09-.62,2.48,2.48,0,0,0-.26-.6,2.36,2.36,0,0,0-.4-.54,2,2,0,0,0-.49-.39" transform="translate(-528.67 -44.13)" style="fill:#f2f2f2"/><polyline points="628.9 448.92 627.17 447.92 627.14 458.33 632.7 461.53 632.7 459.85 628.88 457.64 628.9 448.92" style="fill:#9ef2c6"/><path d="M1166.11,505.46a1.35,1.35,0,0,0-.52-.18.83.83,0,0,0-.43.09.87.87,0,0,0-.28.34,1.32,1.32,0,0,0-.1.55,2.25,2.25,0,0,0,.1.66,3.19,3.19,0,0,0,.28.66,3.43,3.43,0,0,0,.42.58,2,2,0,0,0,.52.42,1.3,1.3,0,0,0,.54.19.61.61,0,0,0,.43-.09.63.63,0,0,0,.3-.32,1.44,1.44,0,0,0,.1-.54,2.65,2.65,0,0,0-.1-.67,2.83,2.83,0,0,0-.29-.67,2.73,2.73,0,0,0-.43-.58,2.22,2.22,0,0,0-.54-.44" transform="translate(-528.67 -44.13)" style="fill:#f2f2f2"/><path d="M1173.79,511.45a4.38,4.38,0,0,1-.59-.4,3.8,3.8,0,0,1-.5-.43v-3.53a2.85,2.85,0,0,1,.83-.6.84.84,0,0,1,.82.07,2,2,0,0,1,.52.43,2.67,2.67,0,0,1,.38.67,4.16,4.16,0,0,1,.23.91,6.08,6.08,0,0,1,.08,1.18,4.1,4.1,0,0,1-.12,1.07,1.44,1.44,0,0,1-.36.65.77.77,0,0,1-.56.21,1.46,1.46,0,0,1-.74-.23m1-6.32a2.69,2.69,0,0,0-.69-.31,1.79,1.79,0,0,0-.59-.07,1.39,1.39,0,0,0-.5.15,2.21,2.21,0,0,0-.45.3l0-1.22-1.46-.84,0,11.25,1.7,1v-3.16l.47.38c.18.13.36.24.53.34a4.66,4.66,0,0,0,1.45.58,1.78,1.78,0,0,0,1.16-.13,1.71,1.71,0,0,0,.76-.91,4.55,4.55,0,0,0,.28-1.77,8.63,8.63,0,0,0-.17-1.79,6.87,6.87,0,0,0-.5-1.57,5.63,5.63,0,0,0-.81-1.29,4.26,4.26,0,0,0-1.11-.92" transform="translate(-528.67 -44.13)" style="fill:#9ef2c6"/><path d="M1181.76,515.94a3.05,3.05,0,0,1-1.21-1.34,4.89,4.89,0,0,1-.44-2.16,4.27,4.27,0,0,1,.1-.93,1.32,1.32,0,0,1,.3-.64.7.7,0,0,1,.51-.25,1.41,1.41,0,0,1,.75.24,2.92,2.92,0,0,1,1.22,1.33,4.86,4.86,0,0,1,.41,2.12,5.15,5.15,0,0,1-.1,1,1.68,1.68,0,0,1-.29.66.71.71,0,0,1-.52.24,1.42,1.42,0,0,1-.73-.23m.08-6.73a3.82,3.82,0,0,0-1.46-.54,1.63,1.63,0,0,0-1.09.24,1.9,1.9,0,0,0-.69.94,4.75,4.75,0,0,0-.25,1.62,7.69,7.69,0,0,0,.23,2,6.49,6.49,0,0,0,1.69,3.07,6.41,6.41,0,0,0,1.4,1.07,3.7,3.7,0,0,0,1.47.54,1.66,1.66,0,0,0,1.1-.25,2,2,0,0,0,.68-1,4.71,4.71,0,0,0,.24-1.61,8.58,8.58,0,0,0-.22-1.93,7.23,7.23,0,0,0-.65-1.68,6.27,6.27,0,0,0-1-1.39,6.46,6.46,0,0,0-1.4-1.08" transform="translate(-528.67 -44.13)" style="fill:#9ef2c6"/><path d="M1189.4,520.46a4.81,4.81,0,0,1-.6-.4,6,6,0,0,1-.5-.43V516.1a3,3,0,0,1,.83-.61.86.86,0,0,1,.83.08,2.08,2.08,0,0,1,.51.43,2.26,2.26,0,0,1,.38.67,4.14,4.14,0,0,1,.24.91,8.21,8.21,0,0,1,.08,1.18,4.06,4.06,0,0,1-.13,1.07,1.35,1.35,0,0,1-.36.64.78.78,0,0,1-.56.22,1.41,1.41,0,0,1-.73-.23m1-6.32a2.6,2.6,0,0,0-.71-.31,1.71,1.71,0,0,0-.58-.07,1.38,1.38,0,0,0-.5.14,2.58,2.58,0,0,0-.45.31l0-1.22-1.46-.84,0,11.25,1.69,1v-3.16l.47.37c.18.13.35.24.53.35a4.62,4.62,0,0,0,1.45.57,1.57,1.57,0,0,0,1.92-1,4.75,4.75,0,0,0,.28-1.77,8,8,0,0,0-.17-1.79,6.57,6.57,0,0,0-.5-1.57,5.13,5.13,0,0,0-.81-1.29,4.18,4.18,0,0,0-1.1-.92" transform="translate(-528.67 -44.13)" style="fill:#9ef2c6"/><path d="M1198.77,515.37a6.58,6.58,0,0,0-1.38.76,5,5,0,0,0-1.09,1.16,5.44,5.44,0,0,0-.7,1.62,8.17,8.17,0,0,0-.26,2.15,13.53,13.53,0,0,0,.83,4.53,24.42,24.42,0,0,0,2.51,5l1-.6a19.7,19.7,0,0,1-2-4.21,12.46,12.46,0,0,1-.67-3.87,6.29,6.29,0,0,1,.69-3,4.29,4.29,0,0,1,2-1.83l-1-1.67" transform="translate(-528.67 -44.13)" style="fill:#f2f2f2"/><path d="M1203.86,518.31l-1,.58a19.34,19.34,0,0,1,2,4.23,12.5,12.5,0,0,1,.67,3.86,6.21,6.21,0,0,1-.69,3,4.24,4.24,0,0,1-2,1.84l1,1.67a5.75,5.75,0,0,0,1.38-.75,4.33,4.33,0,0,0,1.07-1.18A6,6,0,0,0,1207,530a8.17,8.17,0,0,0,.25-2.14,13.48,13.48,0,0,0-.82-4.54,23.51,23.51,0,0,0-2.52-5" transform="translate(-528.67 -44.13)" style="fill:#f2f2f2"/><path d="M1212.91,532.45a1.16,1.16,0,0,0-.48-.17.6.6,0,0,0-.36.09.64.64,0,0,0-.22.29,1.5,1.5,0,0,0-.08.44,1.73,1.73,0,0,0,.06.47,2.86,2.86,0,0,0,.15.41c.06.12.12.25.19.36l.19.37a1.74,1.74,0,0,1,.14.38,1.21,1.21,0,0,1,.07.43.66.66,0,0,1-.16.48.57.57,0,0,1-.42.15,1.86,1.86,0,0,1-.63-.13,4.19,4.19,0,0,1-.6-.3l-.18-.1v1.27a5.48,5.48,0,0,0,1.66.67,2,2,0,0,0,1.17-.09,1.47,1.47,0,0,0,.71-.74,3.09,3.09,0,0,0,.24-1.25,4.35,4.35,0,0,0-.38-1.74,3.5,3.5,0,0,0-.46-.75,2.07,2.07,0,0,0-.61-.54m.06-5.17a1.15,1.15,0,0,0-.49-.17.64.64,0,0,0-.66.38,1.09,1.09,0,0,0-.1.5,2.27,2.27,0,0,0,.09.62,3.33,3.33,0,0,0,.27.61,2.9,2.9,0,0,0,.39.53,2.21,2.21,0,0,0,.49.39,1.41,1.41,0,0,0,.49.18.74.74,0,0,0,.4-.08.6.6,0,0,0,.26-.3,1.28,1.28,0,0,0,.11-.51,2,2,0,0,0-.11-.61,2.2,2.2,0,0,0-.26-.61,2.84,2.84,0,0,0-.39-.54,2,2,0,0,0-.49-.39" transform="translate(-528.67 -44.13)" style="fill:#f2f2f2"/><path d="M1018.15,434.3a5.44,5.44,0,0,0-1.34-.59,2,2,0,0,0-1,0,1,1,0,0,0-.59.44,1.68,1.68,0,0,0-.19.82,3.37,3.37,0,0,0,.13,1,3.62,3.62,0,0,0,.38.89,6,6,0,0,0,.65.87,12.71,12.71,0,0,0,.9.9c.38.34.68.63.91.86a6.35,6.35,0,0,1,.54.59,1.58,1.58,0,0,1,.25.44.86.86,0,0,1,.07.37c0,.27-.11.41-.32.45a1.66,1.66,0,0,1-1-.33,11.5,11.5,0,0,1-1.23-.85,11.71,11.71,0,0,1-1.29-1.2v1.76c.37.31.76.62,1.18.92a16.17,16.17,0,0,0,1.4.89,5.71,5.71,0,0,0,1.14.52,2.44,2.44,0,0,0,1,.13,1,1,0,0,0,.71-.39,1.63,1.63,0,0,0,.27-1,3.82,3.82,0,0,0-.11-.9,3,3,0,0,0-.37-.86,4.89,4.89,0,0,0-.66-.9q-.42-.46-1-1c-.36-.32-.65-.6-.87-.82a5.55,5.55,0,0,1-.51-.58,1.64,1.64,0,0,1-.25-.42,1.15,1.15,0,0,1-.06-.37c0-.25.11-.39.32-.41a1.57,1.57,0,0,1,.84.27,10,10,0,0,1,1,.7,12.37,12.37,0,0,1,1.13,1v-1.58c-.27-.22-.57-.45-.91-.7a11,11,0,0,0-1.18-.76" transform="translate(-528.67 -44.13)" style="fill:#9ef2c6"/><path d="M1028.63,440.53l-1.68-1,0,5.12a3,3,0,0,1-.83.61.87.87,0,0,1-.82-.07,1.52,1.52,0,0,1-.64-.71,2.59,2.59,0,0,1-.22-1.13l0-5.27-1.69-1,0,5.43a5.61,5.61,0,0,0,.13,1.24,4.76,4.76,0,0,0,.41,1.13,4.21,4.21,0,0,0,.67,1,3.94,3.94,0,0,0,1,.75,2.37,2.37,0,0,0,.69.3,1.71,1.71,0,0,0,.58.06,1.39,1.39,0,0,0,.5-.15,2.93,2.93,0,0,0,.45-.3l0,1.21,1.46.85,0-8.09" transform="translate(-528.67 -44.13)" style="fill:#9ef2c6"/><path d="M1035.49,444.32a2.37,2.37,0,0,0-.46-.19.62.62,0,0,0-.38,0,.86.86,0,0,0-.34.22,2.29,2.29,0,0,0-.33.43,2.75,2.75,0,0,0-.35-1.19,2.35,2.35,0,0,0-.89-.88,1.91,1.91,0,0,0-.45-.18.66.66,0,0,0-.37,0,.86.86,0,0,0-.33.23,3,3,0,0,0-.31.44l0-1.2-1.26-.72,0,8.09,1.46.84,0-5.25a2.81,2.81,0,0,1,.49-.85c.15-.14.29-.17.41-.1a.85.85,0,0,1,.22.2.73.73,0,0,1,.12.3,2.37,2.37,0,0,1,.06.41c0,.16,0,.33,0,.54l0,5.51,1.45.84,0-5.26a3.12,3.12,0,0,1,.47-.86.32.32,0,0,1,.42-.09.62.62,0,0,1,.22.2.73.73,0,0,1,.12.3,2.23,2.23,0,0,1,.06.41c0,.15,0,.33,0,.54l0,5.51,1.47.84v-5.8a4.94,4.94,0,0,0-.36-2,2.67,2.67,0,0,0-1.13-1.28" transform="translate(-528.67 -44.13)" style="fill:#9ef2c6"/><polyline points="513.71 401.16 509.98 399.01 509.98 400.53 511.97 401.68 511.95 409.9 509.71 408.61 509.71 410.13 515.71 413.59 515.71 412.07 513.68 410.9 513.71 401.16" style="fill:#9ef2c6"/><polyline points="530.38 416.85 526.07 414.36 526.06 416.08 530.37 418.57 530.38 416.85" style="fill:#f2f2f2"/><path d="M1067.67,467.61l-6-3.44v1.54l6,3.44v-1.54m0-3.14-6-3.44v1.55l6,3.44v-1.55" transform="translate(-528.67 -44.13)" style="fill:#f2f2f2"/><path d="M1080.44,467.84l-1.73-.48v2.07l-1.89-1.09v1.51l1.89,1.09,0,3.95a5.21,5.21,0,0,0,.16,1.35,4,4,0,0,0,.48,1.16,4.5,4.5,0,0,0,.83,1,7.26,7.26,0,0,0,1.2.86,6.54,6.54,0,0,0,.88.43,7.83,7.83,0,0,0,.92.34v-1.55a5.36,5.36,0,0,1-.72-.23,5.94,5.94,0,0,1-.81-.39,2.36,2.36,0,0,1-.93-.89,2.48,2.48,0,0,1-.27-1.21v-3.81l2.74,1.58V472l-2.74-1.58v-2.59" transform="translate(-528.67 -44.13)" style="fill:#9ef2c6"/><path d="M1088.05,480a1.07,1.07,0,0,0-.48-.17.59.59,0,0,0-.36.09.61.61,0,0,0-.23.29,1.2,1.2,0,0,0-.07.44,1.36,1.36,0,0,0,0,.46,3.91,3.91,0,0,0,.15.41c.06.13.12.25.19.37s.13.24.19.37a2.5,2.5,0,0,1,.15.38,1.44,1.44,0,0,1,.06.43.61.61,0,0,1-.16.47.57.57,0,0,1-.42.15,1.54,1.54,0,0,1-.63-.14,3.69,3.69,0,0,1-.64-.31l-.13-.07v1.26a5.1,5.1,0,0,0,1.65.67,2,2,0,0,0,1.17-.09,1.41,1.41,0,0,0,.71-.73,3,3,0,0,0,.24-1.26,4.11,4.11,0,0,0-.38-1.75,3.75,3.75,0,0,0-.45-.74,2.16,2.16,0,0,0-.61-.53m0-5.18a1.11,1.11,0,0,0-.49-.17.72.72,0,0,0-.39.08.75.75,0,0,0-.27.31,1.06,1.06,0,0,0-.1.5,2,2,0,0,0,.1.62,2.66,2.66,0,0,0,.26.6,3.15,3.15,0,0,0,.4.54,2,2,0,0,0,.49.39,1.15,1.15,0,0,0,.49.17.61.61,0,0,0,.4-.08.74.74,0,0,0,.26-.29,1.29,1.29,0,0,0,.1-.51,1.86,1.86,0,0,0-.1-.61,2.81,2.81,0,0,0-.26-.62,2.9,2.9,0,0,0-.39-.53,2,2,0,0,0-.5-.4" transform="translate(-528.67 -44.13)" style="fill:#f2f2f2"/><path d="M1016.53,455.4v-2.95l.75.43a4.17,4.17,0,0,1,1.26,1.07,2.24,2.24,0,0,1,.43,1.35,1.12,1.12,0,0,1-.13.57.64.64,0,0,1-.35.28,1.24,1.24,0,0,1-.56,0,3.08,3.08,0,0,1-.72-.32l-.69-.39m1-4-2.64-1.52,0,10.4,1.71,1v-4.31l.33.19a2.54,2.54,0,0,1,.75.68,3.08,3.08,0,0,1,.5,1l1.27,4.08,2,1.15-1.44-4.31a7.94,7.94,0,0,0-.55-1.35,2.7,2.7,0,0,0-.61-.79,2.08,2.08,0,0,0,.79.18,1,1,0,0,0,.64-.16,1.22,1.22,0,0,0,.41-.52,2.78,2.78,0,0,0,.14-.94,4.48,4.48,0,0,0-.23-1.49,4.66,4.66,0,0,0-.66-1.27,5.52,5.52,0,0,0-1-1.08,9.88,9.88,0,0,0-1.36-.94" transform="translate(-528.67 -44.13)" style="fill:#9ef2c6"/><path d="M1025.59,463.52a1.17,1.17,0,0,0-.53-.17.72.72,0,0,0-.42.08.74.74,0,0,0-.28.34,1.33,1.33,0,0,0-.11.56,2.25,2.25,0,0,0,.1.66,3.36,3.36,0,0,0,.28.65,3.43,3.43,0,0,0,.42.58,2,2,0,0,0,.53.42,1.27,1.27,0,0,0,.53.19.69.69,0,0,0,.44-.08.78.78,0,0,0,.29-.33,1.24,1.24,0,0,0,.11-.54,2.41,2.41,0,0,0-.11-.68,3.19,3.19,0,0,0-.28-.66,3.54,3.54,0,0,0-.44-.58,2,2,0,0,0-.53-.44" transform="translate(-528.67 -44.13)" style="fill:#f2f2f2"/><path d="M1032,465.2a1.43,1.43,0,0,1,.49-1.1,1,1,0,0,1,1,.12,2,2,0,0,1,.54.43,2.63,2.63,0,0,1,.45.59,3.25,3.25,0,0,1,.4,1.65L1032,465.2m1.58-2.41a3.11,3.11,0,0,0-1.37-.47,1.5,1.5,0,0,0-1,.28,2.09,2.09,0,0,0-.67,1,5,5,0,0,0-.24,1.66,7.31,7.31,0,0,0,.23,1.89,6.88,6.88,0,0,0,.67,1.66,6.57,6.57,0,0,0,1.08,1.39,7.13,7.13,0,0,0,1.44,1.1c.21.12.43.24.66.35s.45.22.67.31l.65.25.59.18v-1.55a8.29,8.29,0,0,1-1.22-.4,11.24,11.24,0,0,1-1.1-.54,4.34,4.34,0,0,1-.8-.61,3.85,3.85,0,0,1-.63-.78,4.2,4.2,0,0,1-.4-.92,3.75,3.75,0,0,1-.14-1l4.63,2.68c0-.18,0-.37,0-.58v-.52a6,6,0,0,0-.19-1.56,6.43,6.43,0,0,0-.58-1.47,6.12,6.12,0,0,0-2.29-2.34" transform="translate(-528.67 -44.13)" style="fill:#9ef2c6"/><path d="M1043.23,468.39a1.51,1.51,0,0,0-.45-.19.69.69,0,0,0-.38,0,.89.89,0,0,0-.35.22,1.85,1.85,0,0,0-.32.42,2.84,2.84,0,0,0-.35-1.19,2.41,2.41,0,0,0-.9-.86,1.33,1.33,0,0,0-.44-.19.65.65,0,0,0-.37,0,.74.74,0,0,0-.33.23,2.66,2.66,0,0,0-.31.43l0-1.19-1.25-.72,0,8.08,1.46.85v-5.25a2.66,2.66,0,0,1,.5-.85c.15-.14.28-.18.4-.11a.93.93,0,0,1,.23.21,1,1,0,0,1,.12.3,2.18,2.18,0,0,1,0,.41,4.55,4.55,0,0,1,0,.53v5.51l1.45.84v-5.25a2.93,2.93,0,0,1,.48-.86.31.31,0,0,1,.42-.09.61.61,0,0,1,.22.2,1,1,0,0,1,.12.3c0,.11,0,.25.06.41s0,.33,0,.53l0,5.51,1.46.85,0-5.81a5,5,0,0,0-.37-2,2.64,2.64,0,0,0-1.13-1.27" transform="translate(-528.67 -44.13)" style="fill:#9ef2c6"/><path d="M1048.87,478.52a7,7,0,0,1-.6-.4,5.75,5.75,0,0,1-.49-.43v-3.53a2.78,2.78,0,0,1,.83-.61.9.9,0,0,1,.82.08,1.78,1.78,0,0,1,.51.44,2.1,2.1,0,0,1,.39.66,4.78,4.78,0,0,1,.24.91,8.21,8.21,0,0,1,.08,1.18,4,4,0,0,1-.14,1.07,1.35,1.35,0,0,1-.36.65.78.78,0,0,1-.56.21,1.43,1.43,0,0,1-.73-.23m1-6.33a3.14,3.14,0,0,0-.7-.31,2,2,0,0,0-.58-.06,1.31,1.31,0,0,0-.51.15,2.08,2.08,0,0,0-.44.31l0-1.22-1.46-.85,0,11.25,1.68,1v-3.16c.15.13.31.26.48.38a5.37,5.37,0,0,0,.53.35,4.53,4.53,0,0,0,1.45.57,1.64,1.64,0,0,0,1.15-.13,1.74,1.74,0,0,0,.77-.9,4.79,4.79,0,0,0,.27-1.78,8.54,8.54,0,0,0-.16-1.78,7.49,7.49,0,0,0-.5-1.58,5.57,5.57,0,0,0-.81-1.28,4.26,4.26,0,0,0-1.11-.93" transform="translate(-528.67 -44.13)" style="fill:#9ef2c6"/><polyline points="529.25 429.74 525.53 427.59 525.53 429.1 527.51 430.24 527.49 438.47 525.26 437.18 525.26 438.69 531.25 442.15 531.26 440.64 529.23 439.47 529.25 429.74" style="fill:#9ef2c6"/><path d="M1064.29,487.45a2.21,2.21,0,0,1-.76-.69,1.66,1.66,0,0,1-.28-.92,1,1,0,0,1,.09-.41.46.46,0,0,1,.28-.23.93.93,0,0,1,.49,0,3.2,3.2,0,0,1,.72.32l1,.6v1.08a2.29,2.29,0,0,1-.84.36,1,1,0,0,1-.73-.13m.3-6.74a7.63,7.63,0,0,0-1.38-.64,5.93,5.93,0,0,0-1.17-.3v1.55a5.23,5.23,0,0,1,1.18.23,6,6,0,0,1,1.23.55,4,4,0,0,1,.66.47,2.9,2.9,0,0,1,.44.52,1.7,1.7,0,0,1,.24.58,2.35,2.35,0,0,1,.08.6v.48l-.92-.53a7,7,0,0,0-1.52-.68,2.18,2.18,0,0,0-1.08-.07.93.93,0,0,0-.65.46,1.87,1.87,0,0,0-.21.94,4.09,4.09,0,0,0,.13,1.1,4.64,4.64,0,0,0,.42,1,4.5,4.5,0,0,0,.68.91,4.61,4.61,0,0,0,1,.73,4.32,4.32,0,0,0,.75.34,2.21,2.21,0,0,0,.64.11,1.51,1.51,0,0,0,.53-.09,2,2,0,0,0,.47-.23l0,1.08,1.44.84,0-5.53a5,5,0,0,0-.17-1.29,4.1,4.1,0,0,0-.53-1.17,5.28,5.28,0,0,0-.93-1.05,8.71,8.71,0,0,0-1.34-.94" transform="translate(-528.67 -44.13)" style="fill:#9ef2c6"/><path d="M1073.17,485.71a3.88,3.88,0,0,0-1.52-.57,1.81,1.81,0,0,0-1.17.18,1.94,1.94,0,0,0-.76.91,4.13,4.13,0,0,0-.27,1.61,7.1,7.1,0,0,0,.25,1.91,7,7,0,0,0,.7,1.69,6.78,6.78,0,0,0,1.13,1.43A7.29,7.29,0,0,0,1073,494a6.69,6.69,0,0,0,1.12.54,5.14,5.14,0,0,0,1,.25v-1.73a2.6,2.6,0,0,1-.45-.07l-.49-.12-.49-.18-.47-.23a3.71,3.71,0,0,1-.82-.66,4.14,4.14,0,0,1-.65-.86,4.09,4.09,0,0,1-.4-1,3.9,3.9,0,0,1-.15-1.13,2.86,2.86,0,0,1,.14-.94,1.08,1.08,0,0,1,.39-.57.93.93,0,0,1,.63-.15,2.33,2.33,0,0,1,.85.31,5.78,5.78,0,0,1,1,.69,7.42,7.42,0,0,1,.94.92v-1.89a10.37,10.37,0,0,0-.84-.7,9.8,9.8,0,0,0-1.16-.75" transform="translate(-528.67 -44.13)" style="fill:#9ef2c6"/><path d="M1078.79,492.23a1.33,1.33,0,0,1,.49-1.1,1,1,0,0,1,1,.11,2.68,2.68,0,0,1,.54.43,2.74,2.74,0,0,1,.44.6,2.87,2.87,0,0,1,.3.76,3.15,3.15,0,0,1,.1.89l-2.92-1.69m1.57-2.42a3.12,3.12,0,0,0-1.36-.47,1.5,1.5,0,0,0-1,.29,2.08,2.08,0,0,0-.67,1,5,5,0,0,0-.24,1.66,7.77,7.77,0,0,0,.23,1.89,6.74,6.74,0,0,0,.68,1.66,6.58,6.58,0,0,0,1.07,1.4,7.15,7.15,0,0,0,1.45,1.09c.21.12.42.24.65.35s.45.22.67.31l.66.25.58.18v-1.55a7.26,7.26,0,0,1-1.22-.4,10.06,10.06,0,0,1-1.09-.54,3.74,3.74,0,0,1-.81-.61,3.87,3.87,0,0,1-.62-.78,3.7,3.7,0,0,1-.4-.91,3.44,3.44,0,0,1-.14-1l4.63,2.67c0-.18,0-.37,0-.58s0-.38,0-.51a6.15,6.15,0,0,0-.78-3,6.07,6.07,0,0,0-1-1.3,6,6,0,0,0-1.33-1" transform="translate(-528.67 -44.13)" style="fill:#9ef2c6"/><path d="M1089.45,491.45a5.78,5.78,0,0,0-1.38.76,4.65,4.65,0,0,0-1.09,1.16,5.26,5.26,0,0,0-.7,1.61,8.22,8.22,0,0,0-.26,2.15,13.44,13.44,0,0,0,.83,4.53,24.48,24.48,0,0,0,2.51,5l1-.6a19.3,19.3,0,0,1-2-4.22,12.4,12.4,0,0,1-.67-3.86,6.14,6.14,0,0,1,.69-3,4.36,4.36,0,0,1,2-1.84l-1-1.66" transform="translate(-528.67 -44.13)" style="fill:#f2f2f2"/><path d="M1096,496.42l-1.74-.48V498l-1.89-1.09v1.51l1.89,1.09v4a5.69,5.69,0,0,0,.15,1.35,3.91,3.91,0,0,0,.49,1.15,4.74,4.74,0,0,0,.82,1,7.1,7.1,0,0,0,1.2.86,8,8,0,0,0,.88.43,7,7,0,0,0,.93.34V507c-.22-.06-.46-.14-.72-.23a5.42,5.42,0,0,1-.81-.39,2.23,2.23,0,0,1-.93-.89,2.53,2.53,0,0,1-.28-1.2v-3.81l2.74,1.58v-1.51L1096,499v-2.59" transform="translate(-528.67 -44.13)" style="fill:#9ef2c6"/><path d="M1102.34,498.89l-1,.58a19.13,19.13,0,0,1,2,4.23,12.5,12.5,0,0,1,.67,3.86,6.21,6.21,0,0,1-.69,3,4.22,4.22,0,0,1-2,1.84l1,1.67a5.45,5.45,0,0,0,1.38-.76,4.15,4.15,0,0,0,1.07-1.17,5.55,5.55,0,0,0,.7-1.62,8.22,8.22,0,0,0,.26-2.15,13.72,13.72,0,0,0-.82-4.53,23.28,23.28,0,0,0-2.52-5" transform="translate(-528.67 -44.13)" style="fill:#f2f2f2"/><path d="M1111.31,513a1,1,0,0,0-.48-.16.54.54,0,0,0-.36.09.58.58,0,0,0-.23.29,1.14,1.14,0,0,0-.07.43,1.8,1.8,0,0,0,.06.48,3.65,3.65,0,0,0,.34.77l.19.37a2.77,2.77,0,0,1,.14.38,1.37,1.37,0,0,1,.06.42.58.58,0,0,1-.16.47.5.5,0,0,1-.41.16,1.81,1.81,0,0,1-.63-.13,5.53,5.53,0,0,1-.65-.32l-.13-.07v1.26a5.34,5.34,0,0,0,1.65.67,2,2,0,0,0,1.17-.09,1.37,1.37,0,0,0,.71-.73,3,3,0,0,0,.24-1.26,4.46,4.46,0,0,0-.09-.88,4.81,4.81,0,0,0-.28-.86,3.5,3.5,0,0,0-.46-.75,2.07,2.07,0,0,0-.61-.54" transform="translate(-528.67 -44.13)" style="fill:#f2f2f2"/><path d="M1127.31,516.92a5.65,5.65,0,0,0-1.35-.59,2,2,0,0,0-1,0,1,1,0,0,0-.58.43,1.72,1.72,0,0,0-.2.83,3.83,3.83,0,0,0,.13,1,4.18,4.18,0,0,0,.38.88,5.46,5.46,0,0,0,.65.87c.26.29.56.59.91.91s.67.62.91.86a4.29,4.29,0,0,1,.53.59,1.62,1.62,0,0,1,.26.44,1,1,0,0,1,.07.37.39.39,0,0,1-.33.45,1.78,1.78,0,0,1-1-.34,10.36,10.36,0,0,1-1.22-.84,12.82,12.82,0,0,1-1.3-1.2v1.75c.37.32.76.63,1.17.92s.89.6,1.41.9a5.9,5.9,0,0,0,1.13.51,2.3,2.3,0,0,0,1,.13,1,1,0,0,0,.71-.38,1.65,1.65,0,0,0,.27-1,3.27,3.27,0,0,0-.11-.9,3.21,3.21,0,0,0-.36-.87,6.54,6.54,0,0,0-.66-.89,12.48,12.48,0,0,0-1-1c-.36-.33-.65-.6-.87-.83a5.71,5.71,0,0,1-.51-.58,1.77,1.77,0,0,1-.25-.42,1.43,1.43,0,0,1-.06-.36c0-.26.11-.39.32-.41a1.52,1.52,0,0,1,.84.26,12,12,0,0,1,1,.7c.35.27.72.59,1.13,1v-1.58c-.26-.22-.56-.45-.91-.7a9.49,9.49,0,0,0-1.17-.76" transform="translate(-528.67 -44.13)" style="fill:#9ef2c6"/><path d="M1137.79,523.14l-1.69-1v5.11a2.86,2.86,0,0,1-.84.62.87.87,0,0,1-.81-.07,1.57,1.57,0,0,1-.65-.72,2.39,2.39,0,0,1-.21-1.12v-5.27l-1.69-1,0,5.42a6.46,6.46,0,0,0,.13,1.25,4.92,4.92,0,0,0,.41,1.13,4.25,4.25,0,0,0,.68,1,3.85,3.85,0,0,0,.94.74,3.14,3.14,0,0,0,.7.31,1.71,1.71,0,0,0,.58.06,1.35,1.35,0,0,0,.49-.16,3,3,0,0,0,.46-.3l0,1.22,1.45.84,0-8.09" transform="translate(-528.67 -44.13)" style="fill:#9ef2c6"/><path d="M1144.64,526.94a1.82,1.82,0,0,0-.45-.19.61.61,0,0,0-.38,0,.8.8,0,0,0-.34.22,2.21,2.21,0,0,0-.34.42,2.54,2.54,0,0,0-.35-1.19,2.4,2.4,0,0,0-.89-.87,1.45,1.45,0,0,0-.45-.18.58.58,0,0,0-.37,0,.83.83,0,0,0-.32.23,2.17,2.17,0,0,0-.31.43l0-1.19-1.26-.72,0,8.08,1.46.85v-5.25a2.48,2.48,0,0,1,.5-.85c.14-.14.28-.18.4-.11a.64.64,0,0,1,.22.21.73.73,0,0,1,.12.3,1.61,1.61,0,0,1,.06.41c0,.16,0,.33,0,.53v5.51l1.45.84v-5.25a2.93,2.93,0,0,1,.48-.86.33.33,0,0,1,.42-.1.88.88,0,0,1,.22.21,1,1,0,0,1,.12.3,1.56,1.56,0,0,1,.05.4c0,.16,0,.34,0,.54v5.51l1.46.84,0-5.8a5.1,5.1,0,0,0-.36-2,2.76,2.76,0,0,0-1.14-1.27" transform="translate(-528.67 -44.13)" style="fill:#9ef2c6"/><path d="M1151.58,530.93a3.13,3.13,0,0,0-.72-.32,1.82,1.82,0,0,0-.59-.07,1.27,1.27,0,0,0-.88.48l-.06-1.21-1.53-.89,0,8.09,1.74,1,0-5.11a2.06,2.06,0,0,1,.87-.66.93.93,0,0,1,.78.08,1.62,1.62,0,0,1,.38.32,2,2,0,0,1,.28.47,2.43,2.43,0,0,1,.16.62,3.89,3.89,0,0,1,0,.79l1.69,1a6.26,6.26,0,0,0-.11-1.52,5,5,0,0,0-.41-1.27,4.07,4.07,0,0,0-.69-1,3.61,3.61,0,0,0-.94-.76" transform="translate(-528.67 -44.13)" style="fill:#9ef2c6"/><polyline points="638.17 495.65 636.61 494.75 636.6 497.83 634.02 496.34 634.01 497.94 636.6 499.43 636.59 502.54 638.15 503.44 638.15 500.33 640.74 501.83 640.75 500.23 638.16 498.73 638.17 495.65" style="fill:#f2f2f2"/><path d="M1176.82,550.22l-6-3.44v1.55l6,3.44v-1.55m0-3.13-6-3.44v1.54l6,3.44v-1.54" transform="translate(-528.67 -44.13)" style="fill:#f2f2f2"/><path d="M1189.6,550.46l-1.74-.48v2.07L1186,551v1.51l1.89,1.09v4a5.69,5.69,0,0,0,.15,1.35,4.09,4.09,0,0,0,.49,1.16,4.2,4.2,0,0,0,.83,1,6.63,6.63,0,0,0,1.19.86,7.22,7.22,0,0,0,.88.44c.31.13.61.24.92.34v-1.55c-.22-.06-.46-.14-.73-.24a5.82,5.82,0,0,1-.81-.38,2.28,2.28,0,0,1-.92-.9,2.31,2.31,0,0,1-.27-1.2v-3.81l2.73,1.58v-1.51l-2.73-1.58v-2.59" transform="translate(-528.67 -44.13)" style="fill:#9ef2c6"/><path d="M1197.2,562.57a1.18,1.18,0,0,0-.48-.16.54.54,0,0,0-.36.09.56.56,0,0,0-.22.29,1.14,1.14,0,0,0-.08.43,1.78,1.78,0,0,0,.06.47,2.26,2.26,0,0,0,.15.41c.06.12.12.25.19.37s.13.24.18.36a1.68,1.68,0,0,1,.16.39,1.79,1.79,0,0,1,0,.42.62.62,0,0,1-.15.47.57.57,0,0,1-.43.16,1.64,1.64,0,0,1-.62-.14,4.19,4.19,0,0,1-.65-.31l-.12-.07V567a5.54,5.54,0,0,0,1.65.67,2.05,2.05,0,0,0,1.18-.09,1.43,1.43,0,0,0,.7-.73,3,3,0,0,0,.24-1.26,4.46,4.46,0,0,0-.09-.88,3.87,3.87,0,0,0-.29-.87,3.25,3.25,0,0,0-.45-.74,2.07,2.07,0,0,0-.61-.54m.06-5.17a1.2,1.2,0,0,0-.49-.17.61.61,0,0,0-.4.08.64.64,0,0,0-.26.3,1.09,1.09,0,0,0-.11.5,2,2,0,0,0,.1.62,4.14,4.14,0,0,0,.26.61,3.51,3.51,0,0,0,.4.53,2,2,0,0,0,.49.4,1.31,1.31,0,0,0,.49.17.74.74,0,0,0,.4-.08.6.6,0,0,0,.26-.3,1.13,1.13,0,0,0,.1-.51,2.2,2.2,0,0,0-.09-.61,4.14,4.14,0,0,0-.26-.61,3.59,3.59,0,0,0-.4-.54,2.21,2.21,0,0,0-.49-.39" transform="translate(-528.67 -44.13)" style="fill:#f2f2f2"/><path d="M984.78,450.88l-.58-.34V452l.44.25a3,3,0,0,1,.6.44,2.45,2.45,0,0,1,.46.55,2.8,2.8,0,0,1,.3.73,3.71,3.71,0,0,1,.1.92v1.33a4.45,4.45,0,0,0,.35,1.95,3.27,3.27,0,0,0,1.09,1.31,2,2,0,0,0-.65-.16.57.57,0,0,0-.45.18,1.09,1.09,0,0,0-.27.55,5,5,0,0,0-.09,1v2.06a2.59,2.59,0,0,1-.11.78.63.63,0,0,1-.3.38.65.65,0,0,1-.46,0,2.41,2.41,0,0,1-.6-.25l-.44-.26v1.5l.58.33a4.5,4.5,0,0,0,1.3.54,1.23,1.23,0,0,0,.89-.11,1.3,1.3,0,0,0,.51-.74,4.58,4.58,0,0,0,.17-1.35v-2.09a2.4,2.4,0,0,1,.08-.67.58.58,0,0,1,.23-.35.56.56,0,0,1,.43,0,2.22,2.22,0,0,1,.64.28l.44.25v-1.5l-.44-.26a2.61,2.61,0,0,1-1.06-1,2.94,2.94,0,0,1-.31-1.41v-1.34a5.66,5.66,0,0,0-.7-2.92,5.61,5.61,0,0,0-2.14-2" transform="translate(-528.67 -44.13)" style="fill:#f2f2f2"/></svg>