<svg id="Layer_1" data-name="Layer 1" xmlns="http://www.w3.org/2000/svg" xmlns:xlink="http://www.w3.org/1999/xlink" viewBox="0 0 1305.01 1232.92"><defs><clipPath id="clip-path" transform="translate(-528.67 -44.13)"><polygon points="1262.59 456.39 1515.02 310.65 1515.02 239.88 1262.59 390 1262.59 456.39" style="fill:none"/></clipPath><clipPath id="clip-path-2" transform="translate(-528.67 -44.13)"><polygon points="1505.71 314.08 1505.7 307.94 1511.04 304.85 1511.06 311 1505.71 314.08" style="fill:none"/></clipPath><clipPath id="clip-path-3" transform="translate(-528.67 -44.13)"><polygon points="1498.67 318.71 1498.65 312.56 1504 309.47 1504.02 315.62 1498.67 318.71" style="fill:none"/></clipPath><clipPath id="clip-path-4" transform="translate(-528.67 -44.13)"><polygon points="1491.13 323.23 1491.12 317.08 1496.46 313.99 1496.48 320.14 1491.13 323.23" style="fill:none"/></clipPath><clipPath id="clip-path-5" transform="translate(-528.67 -44.13)"><polygon points="1383.2 759.7 1207.14 657.38 1077.17 732.42 1253.23 834.73 1383.2 759.7" style="fill:none"/></clipPath><clipPath id="clip-path-6" transform="translate(-528.67 -44.13)"><polygon points="1328.43 802.81 1328.43 799.77 1318.48 805.52 1318.49 808.55 1328.43 802.81" style="fill:none"/></clipPath></defs><title>quote_3</title><polygon points="1305.01 890.44 1305.01 547.96 415.23 1061.68 711.83 1232.92 1305.01 890.44" style="fill:#0071bc"/><polygon points="1305.01 547.96 355.91 0 0 205.49 0 821.94 415.23 1061.68 1305.01 547.96" style="fill:#29abe2"/><path d="M1683,571.55,1538.1,487.92c-4.79-2.76-12.54-2.76-17.33,0L1270.4,632.47,1254,634.89v10c0,1.81,1.2,3.62,3.59,5l151,87.16c4.79,2.76,12.54,2.76,17.32,0l263.16-151.93c2.39-1.38,3.59-3.19,3.59-5v-10Z" transform="translate(-528.67 -44.13)" style="fill:#999"/><path d="M1520.77,478,1257.62,629.89c-4.79,2.76-4.79,7.24,0,10l151,87.16c4.79,2.76,12.54,2.76,17.32,0l263.16-151.94c4.78-2.76,4.78-7.23,0-10L1538.1,478C1533.31,475.19,1525.56,475.19,1520.77,478Z" transform="translate(-528.67 -44.13)" style="fill:#ccc"/><path d="M1529.43,473" transform="translate(-528.67 -44.13)" style="fill:#ccc"/><path d="M1520.81,290.71V458c0,5.52-3.88,12.24-8.66,15L1261.77,617.52l-10.28,13-8.63-5c-1.56-.9-2.53-2.84-2.53-5.6V445.58c0-5.52,3.88-12.23,8.66-15l263.16-151.93c2.39-1.38,4.55-1.51,6.12-.61l8.63,5Z" transform="translate(-528.67 -44.13)" style="fill:#999"/><path d="M1520.77,478,1257.62,629.89c-4.79,2.76-8.66.52-8.66-5V450.57c0-5.53,3.87-12.24,8.66-15l263.15-151.94c4.79-2.76,8.66-.52,8.66,5V463C1529.43,468.48,1525.56,475.19,1520.77,478Z" transform="translate(-528.67 -44.13)" style="fill:#b3b3b3"/><path d="M1529.43,473" transform="translate(-528.67 -44.13)" style="fill:#ccc"/><path d="M1271.25,441.39l235.11-135.74c4.78-2.76,8.66-.53,8.66,5V452.58c0,5.52-3.88,12.24-8.66,15L1271.25,603.32c-4.78,2.76-8.66.52-8.66-5V456.39C1262.59,450.87,1266.47,444.15,1271.25,441.39Z" transform="translate(-528.67 -44.13)" style="fill:#1a1a1a"/><path d="M1217.21,451.26,982.11,315.52c-4.79-2.76-8.66-.52-8.66,5V462.45c0,5.53,3.87,12.24,8.66,15l235.1,135.74c4.79,2.77,8.67.53,8.67-5V466.26C1225.88,460.74,1222,454,1217.21,451.26Z" transform="translate(-528.67 -44.13)" style="fill:#1a1a1a"/><g style="clip-path:url(#clip-path)"><path d="M1271.25,441.39l235.11-135.74c4.78-2.76,8.66-.53,8.66,5V452.58c0,5.52-3.88,12.24-8.66,15L1271.25,603.32c-4.78,2.76-8.66.52-8.66-5V456.39C1262.59,450.87,1266.47,444.15,1271.25,441.39Z" transform="translate(-528.67 -44.13)" style="fill:#333"/></g><path d="M1283.43,628.68l234.81-135.57c4.78-2.76,12.54-2.77,17.33,0l67.09,38.46c4.8,2.75,4.8,7.22,0,10L1367.57,677.26c-4.78,2.76-12.54,2.76-17.32,0l-66.82-38.58C1278.64,635.92,1278.64,631.44,1283.43,628.68Z" transform="translate(-528.67 -44.13)" style="fill:#e6e6e6"/><path d="M1459.67,633.27l66.82-38.58c4.78-2.76,12.54-2.76,17.32,0l38.77,22.39c4.79,2.76,4.79,7.24,0,10l-66.82,38.58c-4.78,2.76-12.54,2.76-17.32,0l-38.77-22.39C1454.88,640.51,1454.88,636,1459.67,633.27Z" transform="translate(-528.67 -44.13)" style="fill:#e6e6e6"/><g style="isolation:isolate"><g style="clip-path:url(#clip-path-2)"><path d="M1508.37,306.4a5.84,5.84,0,0,0-2.66,4.61c0,1.69,1.2,2.38,2.67,1.53a5.85,5.85,0,0,0,2.67-4.62c0-1.69-1.21-2.38-2.68-1.52" transform="translate(-528.67 -44.13)" style="fill:#8cc63f"/></g></g><g style="isolation:isolate"><g style="clip-path:url(#clip-path-3)"><path d="M1501.33,311a5.85,5.85,0,0,0-2.67,4.62c0,1.69,1.21,2.38,2.68,1.52a5.88,5.88,0,0,0,2.67-4.61c0-1.7-1.21-2.38-2.68-1.53" transform="translate(-528.67 -44.13)" style="fill:#fcee21"/></g></g><g style="isolation:isolate"><g style="clip-path:url(#clip-path-4)"><path d="M1493.79,315.53a5.87,5.87,0,0,0-2.66,4.62c0,1.7,1.2,2.39,2.68,1.53a5.89,5.89,0,0,0,2.66-4.61c0-1.7-1.2-2.39-2.68-1.54" transform="translate(-528.67 -44.13)" style="fill:#ed1c24"/></g></g><g id="Layer_3" data-name="Layer 3"><path d="M1076.87,733l121.15-70c4.78-2.76,12.54-2.76,17.32,0l165.88,95.77,8.43.72v7.08h0c0,1.81-1.2,3.62-3.59,5l-123.71,71.42c-4.78,2.76-12.54,2.76-17.32,0l-170.72-98.56c-2.39-1.38-3.59-3.19-3.59-5v-7Z" transform="translate(-528.67 -44.13)" style="fill:#999"/><path d="M1386.06,754.63l-170.72-98.57c-4.78-2.76-12.54-2.76-17.32,0l-123.71,71.43c-4.78,2.76-4.78,7.23,0,10L1245,836.05c4.78,2.76,12.54,2.76,17.32,0l123.71-71.42C1390.84,761.87,1390.84,757.39,1386.06,754.63Z" transform="translate(-528.67 -44.13)" style="fill:#ccc"/><g style="isolation:isolate"><g style="clip-path:url(#clip-path-5)"><path d="M1084.26,728.32l115.79-66.85a15.65,15.65,0,0,1,14.14,0l162,94.13c3.87,2.25,3.85,5.94-.05,8.19l-115.79,66.85a15.65,15.65,0,0,1-14.14,0l-162-94.13c-3.88-2.25-3.86-5.93,0-8.19" transform="translate(-528.67 -44.13)" style="fill:#1a1a1a"/></g></g><g style="isolation:isolate"><g style="clip-path:url(#clip-path-6)"><path d="M1319.8,804.75l7.3-4.21c.73-.42,1.33-.08,1.33.75a2.92,2.92,0,0,1-1.32,2.28l-7.3,4.22c-.73.42-1.33.07-1.33-.76a2.92,2.92,0,0,1,1.32-2.28" transform="translate(-528.67 -44.13)" style="fill:#1a1a1a"/></g></g></g><path d="M989.07,344.57a5.21,5.21,0,0,1-.6-.4,4.41,4.41,0,0,1-.49-.43v-3.53a2.72,2.72,0,0,1,.83-.6.84.84,0,0,1,.82.07,1.77,1.77,0,0,1,.51.43,2.57,2.57,0,0,1,.39.67,4.16,4.16,0,0,1,.23.91,7,7,0,0,1,.08,1.18,4.1,4.1,0,0,1-.12,1.07,1.6,1.6,0,0,1-.36.65.84.84,0,0,1-.57.21,1.43,1.43,0,0,1-.73-.23m1-6.32a2.74,2.74,0,0,0-.7-.31,1.76,1.76,0,0,0-.59-.07,1.45,1.45,0,0,0-.5.15,2.45,2.45,0,0,0-.44.3l0-1.22-1.46-.84,0,11.25,1.69,1v-3.16l.48.38a5.13,5.13,0,0,0,.52.34,4.76,4.76,0,0,0,1.45.58,1.84,1.84,0,0,0,1.16-.13,1.72,1.72,0,0,0,.77-.91,5,5,0,0,0,.28-1.77,9.37,9.37,0,0,0-.17-1.79,7.4,7.4,0,0,0-.5-1.57,5.63,5.63,0,0,0-.81-1.29,4.39,4.39,0,0,0-1.11-.92" transform="translate(-528.67 -44.13)" style="fill:#9ef2c6"/><path d="M1000,344.15l-1.69-1,0,5.12a2.75,2.75,0,0,1-.82.61.86.86,0,0,1-.82-.07,1.54,1.54,0,0,1-.65-.71,2.7,2.7,0,0,1-.21-1.12v-5.28l-1.69-1v5.42a5.64,5.64,0,0,0,.13,1.25,4.74,4.74,0,0,0,.4,1.13,4.3,4.3,0,0,0,.67,1,4.37,4.37,0,0,0,1,.75,3.34,3.34,0,0,0,.7.3,1.69,1.69,0,0,0,.58.06,1.34,1.34,0,0,0,.49-.15,2.65,2.65,0,0,0,.46-.31l0,1.22,1.47.85,0-8.1" transform="translate(-528.67 -44.13)" style="fill:#9ef2c6"/><path d="M1005.1,346.94a5.36,5.36,0,0,0-1.34-.58,1.92,1.92,0,0,0-1,0,1,1,0,0,0-.57.43,1.49,1.49,0,0,0-.2.82,3.24,3.24,0,0,0,.12,1,4,4,0,0,0,.39.9,5.21,5.21,0,0,0,.64.87c.26.29.57.59.91.9s.68.62.91.85a7.14,7.14,0,0,1,.53.6,1.87,1.87,0,0,1,.27.44,1.33,1.33,0,0,1,.07.38.4.4,0,0,1-.34.44,1.77,1.77,0,0,1-1-.33,10.86,10.86,0,0,1-1.21-.85,11.89,11.89,0,0,1-1.31-1.2v1.75c.37.32.77.63,1.18.92a15.51,15.51,0,0,0,1.4.9,6.26,6.26,0,0,0,1.13.52,2.51,2.51,0,0,0,1,.13,1,1,0,0,0,.7-.39,1.65,1.65,0,0,0,.27-1,3.36,3.36,0,0,0-.1-.9,3.94,3.94,0,0,0-.36-.86,5.65,5.65,0,0,0-.67-.9q-.42-.46-1-1c-.37-.32-.65-.6-.88-.82s-.39-.43-.51-.58a1.56,1.56,0,0,1-.24-.42,1.13,1.13,0,0,1-.06-.36c0-.26.1-.4.31-.42a1.52,1.52,0,0,1,.84.27,11.79,11.79,0,0,1,1,.69,14.49,14.49,0,0,1,1.13,1V348.4c-.27-.22-.57-.45-.91-.7a12.81,12.81,0,0,0-1.18-.76" transform="translate(-528.67 -44.13)" style="fill:#9ef2c6"/><path d="M1011.4,347.59l-1.68-1,0,11.24,1.68,1,0-5.12a2.72,2.72,0,0,1,.83-.6.84.84,0,0,1,.82.07,1.93,1.93,0,0,1,.86,1.83l0,5.27,1.69,1,0-5.43a5.61,5.61,0,0,0-.13-1.24,4.49,4.49,0,0,0-.41-1.13,4.24,4.24,0,0,0-.67-1,4,4,0,0,0-.94-.74,3.11,3.11,0,0,0-.66-.3,1.88,1.88,0,0,0-.55-.08,1.31,1.31,0,0,0-.48.12,2.15,2.15,0,0,0-.44.28l.09-1.42v-2.77" transform="translate(-528.67 -44.13)" style="fill:#9ef2c6"/><path d="M1021.85,353a5.78,5.78,0,0,0-1.38.76,4.48,4.48,0,0,0-1.09,1.16,5.22,5.22,0,0,0-.7,1.62,8.09,8.09,0,0,0-.26,2.14,13.53,13.53,0,0,0,.83,4.53,24.23,24.23,0,0,0,2.51,5l1-.61a19,19,0,0,1-2-4.21,12.51,12.51,0,0,1-.67-3.87,6.1,6.1,0,0,1,.69-3,4.17,4.17,0,0,1,2-1.84l-1-1.66" transform="translate(-528.67 -44.13)" style="fill:#f2f2f2"/><path d="M1028.07,367.09a4.38,4.38,0,0,1-.59-.4,3.8,3.8,0,0,1-.5-.43v-3.53a2.85,2.85,0,0,1,.83-.6.86.86,0,0,1,.82.06,2.21,2.21,0,0,1,.52.44,2.55,2.55,0,0,1,.38.67,4.16,4.16,0,0,1,.23.91,6.08,6.08,0,0,1,.08,1.18,4.1,4.1,0,0,1-.12,1.07,1.4,1.4,0,0,1-.36.64.78.78,0,0,1-.56.22,1.57,1.57,0,0,1-.74-.23m1-6.33a3,3,0,0,0-.69-.3,1.79,1.79,0,0,0-.59-.07,1.39,1.39,0,0,0-.5.15,1.86,1.86,0,0,0-.45.3l0-1.22-1.46-.84,0,11.25,1.7,1v-3.16l.47.38.53.33a4.22,4.22,0,0,0,1.45.58,1.78,1.78,0,0,0,1.16-.12,1.75,1.75,0,0,0,.76-.91,4.55,4.55,0,0,0,.28-1.77,8.63,8.63,0,0,0-.17-1.79,7.12,7.12,0,0,0-.5-1.58,5.79,5.79,0,0,0-.81-1.28,4.11,4.11,0,0,0-1.11-.93" transform="translate(-528.67 -44.13)" style="fill:#9ef2c6"/><path d="M1035.91,370a1.11,1.11,0,0,0-.49-.17.5.5,0,0,0-.35.09.55.55,0,0,0-.22.29,1.23,1.23,0,0,0-.08.44,1.65,1.65,0,0,0,.06.46,2,2,0,0,0,.14.41l.19.37c.07.12.13.24.19.37a2.39,2.39,0,0,1,.15.37,1.54,1.54,0,0,1,.06.43.7.7,0,0,1-.15.48.57.57,0,0,1-.43.16,1.85,1.85,0,0,1-.62-.14,4.7,4.7,0,0,1-.61-.29l-.17-.11v1.27a5,5,0,0,0,1.64.67,2,2,0,0,0,1.18-.09,1.44,1.44,0,0,0,.71-.73,3,3,0,0,0,.24-1.26,3.83,3.83,0,0,0-.1-.88,3.76,3.76,0,0,0-.28-.86,3.47,3.47,0,0,0-.45-.75,2.16,2.16,0,0,0-.61-.53" transform="translate(-528.67 -44.13)" style="fill:#f2f2f2"/><polyline points="524.06 327.31 520.34 325.17 520.33 326.68 522.32 327.83 522.3 336.05 520.07 334.76 520.06 336.27 526.06 339.73 526.06 338.22 524.03 337.05 524.06 327.31" style="fill:#9ef2c6"/><path d="M1059.31,383.54a1.07,1.07,0,0,0-.48-.17.59.59,0,0,0-.36.09.55.55,0,0,0-.22.29,1.23,1.23,0,0,0-.08.44,1.65,1.65,0,0,0,.06.46,1.77,1.77,0,0,0,.15.42l.18.36c.07.13.14.25.19.37a2.17,2.17,0,0,1,.16.38,1.88,1.88,0,0,1,0,.43.63.63,0,0,1-.15.47.57.57,0,0,1-.43.16,1.85,1.85,0,0,1-.62-.14,4.08,4.08,0,0,1-.6-.29l-.17-.1V388a5.28,5.28,0,0,0,1.64.66,1.88,1.88,0,0,0,1.18-.09,1.44,1.44,0,0,0,.71-.73,3,3,0,0,0,.24-1.25,4.63,4.63,0,0,0-.09-.89,4.35,4.35,0,0,0-.29-.86,3.55,3.55,0,0,0-.45-.75,2.16,2.16,0,0,0-.61-.53" transform="translate(-528.67 -44.13)" style="fill:#f2f2f2"/><path d="M1076.17,388a3.08,3.08,0,0,0-.71-.32,1.45,1.45,0,0,0-.6-.07,1.22,1.22,0,0,0-.48.14,1.39,1.39,0,0,0-.39.34l-.06-1.22-1.54-.89,0,8.1,1.74,1v-5.12a2.08,2.08,0,0,1,.88-.66,1,1,0,0,1,.77.09,1.45,1.45,0,0,1,.39.32,2,2,0,0,1,.28.46,3.29,3.29,0,0,1,.16.62,6.37,6.37,0,0,1,0,.8l1.69,1a6.72,6.72,0,0,0-.11-1.51,5.05,5.05,0,0,0-.41-1.28,4.57,4.57,0,0,0-.69-1,3.84,3.84,0,0,0-.95-.75" transform="translate(-528.67 -44.13)" style="fill:#9ef2c6"/><path d="M1081.55,387.46l-1,.58a18.69,18.69,0,0,1,2,4.23,12.22,12.22,0,0,1,.67,3.87,6.09,6.09,0,0,1-.69,3,4.24,4.24,0,0,1-2,1.84l1,1.67a6.12,6.12,0,0,0,1.38-.75,4.53,4.53,0,0,0,1.08-1.18,5.94,5.94,0,0,0,.7-1.63,8,8,0,0,0,.25-2.13,13.45,13.45,0,0,0-.81-4.54,24.25,24.25,0,0,0-2.52-5" transform="translate(-528.67 -44.13)" style="fill:#f2f2f2"/><path d="M1090.59,401.6a1.12,1.12,0,0,0-.47-.17.64.64,0,0,0-.36.09.66.66,0,0,0-.23.29,1.23,1.23,0,0,0-.08.44,1.73,1.73,0,0,0,.06.47c0,.14.09.28.15.41s.12.24.19.36l.19.37a2.5,2.5,0,0,1,.15.38,1.49,1.49,0,0,1,.06.43.68.68,0,0,1-.16.48.57.57,0,0,1-.42.15,2.2,2.2,0,0,1-.63-.13,4.78,4.78,0,0,1-.6-.3l-.17-.1V406a5.1,5.1,0,0,0,1.64.66,2,2,0,0,0,1.18-.08,1.43,1.43,0,0,0,.71-.74,2.93,2.93,0,0,0,.24-1.25,4.55,4.55,0,0,0-.38-1.75,3.25,3.25,0,0,0-.45-.74,2.23,2.23,0,0,0-.62-.54m.06-5.17a1.11,1.11,0,0,0-.49-.17.63.63,0,0,0-.39.08.67.67,0,0,0-.27.3,1.09,1.09,0,0,0-.1.5,2,2,0,0,0,.1.62,2.55,2.55,0,0,0,.26.61,3.45,3.45,0,0,0,.39.53,2.26,2.26,0,0,0,.5.39,1.28,1.28,0,0,0,.49.18.7.7,0,0,0,.39-.08.67.67,0,0,0,.27-.3,1.29,1.29,0,0,0,.09-.51,1.88,1.88,0,0,0-.09-.61,2.73,2.73,0,0,0-.26-.61,2.59,2.59,0,0,0-.39-.53,2,2,0,0,0-.5-.4" transform="translate(-528.67 -44.13)" style="fill:#f2f2f2"/><path d="M990.25,358.14,986.53,356v1.51l2,1.15,0,5.06-2.23-1.29v1.52l6,3.46v-1.52l-2-1.17,0-6.57m-1-4a1.08,1.08,0,0,0-.44-.16.55.55,0,0,0-.36.07.69.69,0,0,0-.23.27,1,1,0,0,0-.08.45,1.73,1.73,0,0,0,.08.54,2.58,2.58,0,0,0,.23.54,2.67,2.67,0,0,0,.36.47,2.17,2.17,0,0,0,.44.36,1,1,0,0,0,.43.14.58.58,0,0,0,.35-.06.56.56,0,0,0,.23-.27,1,1,0,0,0,.09-.45,2.14,2.14,0,0,0-.08-.54,3.14,3.14,0,0,0-.23-.53,2.9,2.9,0,0,0-.35-.49,2,2,0,0,0-.44-.34" transform="translate(-528.67 -44.13)" style="fill:#f9273c"/><path d="M998.75,359.73a5.42,5.42,0,0,0-1.26-.55,1.63,1.63,0,0,0-1,0,1.16,1.16,0,0,0-.62.66,3.46,3.46,0,0,0-.23,1.35v1.23l-2-1.18v1.51l2,1.18,0,5.42,1.71,1v-5.42l2.77,1.6V365l-2.76-1.6v-1.3a1.8,1.8,0,0,1,.11-.69.64.64,0,0,1,.29-.33.75.75,0,0,1,.45,0,1.91,1.91,0,0,1,.55.23,8,8,0,0,1,.86.57,8.12,8.12,0,0,1,.72.61V360.9c-.24-.21-.49-.4-.77-.61a8.46,8.46,0,0,0-.86-.56" transform="translate(-528.67 -44.13)" style="fill:#f9273c"/><path d="M1006.19,363.55a5.82,5.82,0,0,0-1.38.77,4.44,4.44,0,0,0-1.09,1.15,5.22,5.22,0,0,0-.7,1.62,8.14,8.14,0,0,0-.26,2.14,13.54,13.54,0,0,0,.83,4.54,24.5,24.5,0,0,0,2.52,5l1-.59a19.52,19.52,0,0,1-2-4.22,12.19,12.19,0,0,1-.66-3.87,6.15,6.15,0,0,1,.68-3,4.29,4.29,0,0,1,2-1.83l-1-1.67" transform="translate(-528.67 -44.13)" style="fill:#f2f2f2"/><polyline points="487.48 328.95 485.58 327.86 484.02 329.62 482.45 326.05 480.39 324.86 482.88 330.32 480.23 332.87 482.27 334.05 483.89 332.26 485.49 335.91 487.59 337.13 485.05 331.56 487.48 328.95" style="fill:#9ef2c6"/><polyline points="498.05 334.29 496.97 334.93 500.39 340.18 496.95 341.45 498.02 343.32 502.71 341.5 498.05 334.29" style="fill:#f2f2f2"/><path d="M1044.92,389.52a3.91,3.91,0,0,0-.72-.32,1.56,1.56,0,0,0-.59-.06,1.16,1.16,0,0,0-.49.14,1.14,1.14,0,0,0-.39.34l-.06-1.22-1.53-.89,0,8.1,1.74,1v-5.12a2.14,2.14,0,0,1,.88-.66.94.94,0,0,1,.78.09,1.62,1.62,0,0,1,.38.32,1.47,1.47,0,0,1,.27.46,2.16,2.16,0,0,1,.17.62,4,4,0,0,1,0,.79l1.7,1a6.18,6.18,0,0,0-.11-1.51,5.05,5.05,0,0,0-.41-1.28,4.26,4.26,0,0,0-.69-1,3.83,3.83,0,0,0-.94-.76" transform="translate(-528.67 -44.13)" style="fill:#9ef2c6"/><polyline points="531.52 349.42 529.96 348.52 529.92 364.82 531.48 365.73 531.52 349.42" style="fill:#f2f2f2"/><polyline points="539.32 353.93 537.77 353.03 537.72 369.33 539.28 370.23 539.32 353.93" style="fill:#f2f2f2"/><polyline points="555.2 364.89 551.48 362.74 551.48 364.25 553.47 365.4 553.45 373.63 551.21 372.33 551.21 373.85 557.2 377.31 557.21 375.8 555.18 374.62 555.2 364.89" style="fill:#9ef2c6"/><polyline points="568.25 374.83 567.18 375.46 570.6 380.71 567.16 381.98 568.23 383.86 572.91 382.04 568.25 374.83" style="fill:#f2f2f2"/><path d="M1117.76,431.75l-1.81-1-1.49,3.8-.43,1.16-.44-1.73-1.45-5.43-1.88-1.09,2.76,9.7a1.81,1.81,0,0,1-.3.51,1,1,0,0,1-.39.32.88.88,0,0,1-.46.09,1.23,1.23,0,0,1-.54-.18l-.23-.14-.23-.16a1.88,1.88,0,0,1-.23-.16l-.19-.14v1.64l.41.31c.14.08.27.17.39.23a3.55,3.55,0,0,0,1.31.49,1.73,1.73,0,0,0,1.06-.18,2.59,2.59,0,0,0,.88-.82,6.92,6.92,0,0,0,.77-1.4l2.49-5.78" transform="translate(-528.67 -44.13)" style="fill:#9ef2c6"/><path d="M1120.5,429.55l-1,.57a19.65,19.65,0,0,1,2,4.24,12.4,12.4,0,0,1,.67,3.86,6.17,6.17,0,0,1-.69,3,4.19,4.19,0,0,1-2,1.84l1,1.67a5.45,5.45,0,0,0,1.38-.76,4.8,4.8,0,0,0,1.08-1.16,6.21,6.21,0,0,0,.7-1.63,8.17,8.17,0,0,0,.25-2.14,13.42,13.42,0,0,0-.82-4.53,23.44,23.44,0,0,0-2.51-5" transform="translate(-528.67 -44.13)" style="fill:#f2f2f2"/><path d="M1138.52,443.56a3.49,3.49,0,0,0-.71-.31,1.4,1.4,0,0,0-.59-.06,1,1,0,0,0-.49.14,1.24,1.24,0,0,0-.4.33l0-1.21-1.53-.89,0,8.09,1.73,1v-5.12a2.14,2.14,0,0,1,.88-.66,1,1,0,0,1,.77.09,1.32,1.32,0,0,1,.38.32,1.49,1.49,0,0,1,.28.46,2.35,2.35,0,0,1,.17.62,6.37,6.37,0,0,1,0,.8l1.69,1a6.67,6.67,0,0,0-.11-1.51,5.34,5.34,0,0,0-.41-1.28,4.64,4.64,0,0,0-.69-1,4.13,4.13,0,0,0-1-.76" transform="translate(-528.67 -44.13)" style="fill:#f9273c"/><path d="M1143.74,449.91a1.4,1.4,0,0,1,.49-1.11,1,1,0,0,1,1,.12,2.18,2.18,0,0,1,.54.42,3.11,3.11,0,0,1,.45.61,3.18,3.18,0,0,1,.4,1.64l-2.93-1.68m1.58-2.42A3.27,3.27,0,0,0,1144,447a1.5,1.5,0,0,0-1,.3,2,2,0,0,0-.66,1A5,5,0,0,0,1142,450a6.85,6.85,0,0,0,.23,1.89,6.72,6.72,0,0,0,.67,1.66,6.16,6.16,0,0,0,1.08,1.4,6.5,6.5,0,0,0,1.44,1.09,7,7,0,0,0,.66.36l.67.3.65.25a4.76,4.76,0,0,0,.59.18v-1.54a8.32,8.32,0,0,1-1.22-.41,8.65,8.65,0,0,1-1.1-.54,4.3,4.3,0,0,1-.81-.61,3.92,3.92,0,0,1-1-1.68,3.49,3.49,0,0,1-.14-1l4.63,2.67c0-.19,0-.38,0-.58s0-.38,0-.51a6.42,6.42,0,0,0-.19-1.57,5.94,5.94,0,0,0-.59-1.48,6.23,6.23,0,0,0-1-1.3,5.85,5.85,0,0,0-1.32-1" transform="translate(-528.67 -44.13)" style="fill:#f9273c"/><path d="M1153.14,449.59l-1.73-.48v2.07l-1.89-1.1v1.52l1.89,1.09,0,3.94a5.29,5.29,0,0,0,.16,1.36,3.89,3.89,0,0,0,.48,1.15,4.5,4.5,0,0,0,.83,1,6.47,6.47,0,0,0,1.19.85,9.24,9.24,0,0,0,.89.45c.3.12.61.24.92.34v-1.56a5.86,5.86,0,0,1-.72-.23,5.94,5.94,0,0,1-.81-.39,2.29,2.29,0,0,1-.93-.89,2.53,2.53,0,0,1-.27-1.2v-3.81l2.73,1.58v-1.51l-2.73-1.58v-2.59" transform="translate(-528.67 -44.13)" style="fill:#f9273c"/><path d="M1163.74,458.3l-1.69-1,0,5.12a3,3,0,0,1-.83.61.87.87,0,0,1-.81-.06,1.62,1.62,0,0,1-.65-.72,2.59,2.59,0,0,1-.22-1.13l0-5.26-1.69-1,0,5.43a5.54,5.54,0,0,0,.14,1.24,4.74,4.74,0,0,0,.4,1.13,4.65,4.65,0,0,0,.67,1,4.14,4.14,0,0,0,1,.75,2.73,2.73,0,0,0,.7.3,1.71,1.71,0,0,0,.58.06,1.26,1.26,0,0,0,.5-.15,2.45,2.45,0,0,0,.44-.3l0,1.22,1.46.84,0-8.09" transform="translate(-528.67 -44.13)" style="fill:#f9273c"/><path d="M1169.72,461.58a3.34,3.34,0,0,0-.71-.32,1.56,1.56,0,0,0-.59-.06,1,1,0,0,0-.49.15,1.19,1.19,0,0,0-.39.33l-.06-1.22-1.53-.88,0,8.09,1.73,1v-5.12a2.27,2.27,0,0,1,.88-.67.91.91,0,0,1,.77.1,1.34,1.34,0,0,1,.39.32,1.81,1.81,0,0,1,.28.46,2.58,2.58,0,0,1,.16.61,5,5,0,0,1,0,.8l1.7,1a7.32,7.32,0,0,0-.12-1.52,4.68,4.68,0,0,0-.41-1.28,4.07,4.07,0,0,0-.69-1,3.88,3.88,0,0,0-1-.76" transform="translate(-528.67 -44.13)" style="fill:#f9273c"/><path d="M1177.2,465.9a3.79,3.79,0,0,0-.7-.32,1.69,1.69,0,0,0-.58-.05,1.2,1.2,0,0,0-.5.14,2.26,2.26,0,0,0-.45.31l0-1.22-1.47-.85,0,8.1,1.69,1,0-5.12a2.72,2.72,0,0,1,.83-.6.87.87,0,0,1,.82.07,1.93,1.93,0,0,1,.86,1.83l0,5.27,1.69,1V470a5.1,5.1,0,0,0-.13-1.25,4.66,4.66,0,0,0-.4-1.12,3.6,3.6,0,0,0-.67-1,3.46,3.46,0,0,0-.94-.75" transform="translate(-528.67 -44.13)" style="fill:#f9273c"/><path d="M1184.14,475.21a1.12,1.12,0,0,0-.47-.17.64.64,0,0,0-.36.09.66.66,0,0,0-.23.29,1.45,1.45,0,0,0-.07.44,1.73,1.73,0,0,0,.06.47,2.35,2.35,0,0,0,.14.4c.07.13.12.25.19.37s.13.25.19.37a2.5,2.5,0,0,1,.15.38,1.49,1.49,0,0,1,.06.43.69.69,0,0,1-.16.48.54.54,0,0,1-.41.14,1.61,1.61,0,0,1-.63-.13,4.19,4.19,0,0,1-.65-.31l-.13-.08v1.26a5,5,0,0,0,1.64.67,2,2,0,0,0,1.18-.09,1.41,1.41,0,0,0,.71-.73,3,3,0,0,0,.24-1.26,3.81,3.81,0,0,0-.1-.87,4.19,4.19,0,0,0-.27-.87,3.76,3.76,0,0,0-.46-.75,2.22,2.22,0,0,0-.62-.53m.06-5.18a1.25,1.25,0,0,0-.49-.17.8.8,0,0,0-.39.08.75.75,0,0,0-.27.31,1.43,1.43,0,0,0-.1.5,2.29,2.29,0,0,0,.1.62,2.53,2.53,0,0,0,.27.61,2.85,2.85,0,0,0,.38.53,2.26,2.26,0,0,0,.5.39,1.28,1.28,0,0,0,.49.18.61.61,0,0,0,.39-.08.79.79,0,0,0,.27-.3,1.29,1.29,0,0,0,.09-.51,1.84,1.84,0,0,0-.09-.61,3,3,0,0,0-.26-.62,3.79,3.79,0,0,0-.39-.53,2.31,2.31,0,0,0-.5-.4" transform="translate(-528.67 -44.13)" style="fill:#f2f2f2"/><path d="M990.2,377.7l-3.72-2.14v1.51l2,1.14v5.07L986.22,382v1.51l6,3.46v-1.51l-2-1.17,0-6.58m-1-4a1.09,1.09,0,0,0-.44-.15.6.6,0,0,0-.36.06.65.65,0,0,0-.23.28,1,1,0,0,0-.09.44,2.08,2.08,0,0,0,.08.54,3.25,3.25,0,0,0,.23.54,2.74,2.74,0,0,0,.36.48,1.83,1.83,0,0,0,.44.35,1,1,0,0,0,.43.15.62.62,0,0,0,.36-.07.62.62,0,0,0,.23-.27,1,1,0,0,0,.08-.44,1.73,1.73,0,0,0-.08-.54,2.91,2.91,0,0,0-.23-.55,2.61,2.61,0,0,0-.35-.47,2,2,0,0,0-.43-.35" transform="translate(-528.67 -44.13)" style="fill:#f2f2f2"/><path d="M998.69,379.29a5.25,5.25,0,0,0-1.26-.55,1.54,1.54,0,0,0-1,0,1.2,1.2,0,0,0-.62.65,3.51,3.51,0,0,0-.22,1.35V382l-2-1.18v1.51l2,1.18v5.41l1.7,1,0-5.42,2.76,1.6v-1.51l-2.76-1.6v-1.3a1.71,1.71,0,0,1,.11-.68.68.68,0,0,1,.3-.34.71.71,0,0,1,.44,0,2,2,0,0,1,.56.24,6.56,6.56,0,0,1,.85.56c.28.22.53.42.73.61v-1.57c-.23-.2-.49-.4-.76-.6a8.13,8.13,0,0,0-.87-.57" transform="translate(-528.67 -44.13)" style="fill:#f2f2f2"/><path d="M1006.14,383.11a6.19,6.19,0,0,0-1.38.77,4.78,4.78,0,0,0-1.09,1.15,5.71,5.71,0,0,0-.71,1.62,8.67,8.67,0,0,0-.26,2.15,13.55,13.55,0,0,0,.84,4.53,23.74,23.74,0,0,0,2.51,5l1-.61a19.18,19.18,0,0,1-2-4.21,12.4,12.4,0,0,1-.67-3.86,6.1,6.1,0,0,1,.69-3,4.25,4.25,0,0,1,2-1.83l-1-1.67" transform="translate(-528.67 -44.13)" style="fill:#f2f2f2"/><polyline points="487.42 348.52 485.53 347.43 483.96 349.18 482.39 345.62 480.33 344.43 482.82 349.88 480.17 352.43 482.22 353.61 483.84 351.82 485.43 355.47 487.54 356.68 484.99 351.12 487.42 348.52" style="fill:#9ef2c6"/><polyline points="500.94 355.56 496.26 357.38 500.92 364.59 502 363.96 498.58 358.7 502.02 357.44 500.94 355.56" style="fill:#f2f2f2"/><path d="M1038.9,410.37l-6-3.44v1.54l6,3.44v-1.54m0-3.14-6-3.44v1.54l6,3.44v-1.54" transform="translate(-528.67 -44.13)" style="fill:#f2f2f2"/><polyline points="523.95 366.44 520.22 364.29 520.22 365.8 522.21 366.95 522.19 375.18 519.95 373.89 519.95 375.4 525.95 378.86 525.95 377.35 523.92 376.18 523.95 366.44" style="fill:#9ef2c6"/><path d="M1066.56,428.5a3.24,3.24,0,0,1-.6-.45,3.68,3.68,0,0,1-.46-.6,3.31,3.31,0,0,1-.29-.67,2.47,2.47,0,0,1-.1-.7,1.52,1.52,0,0,1,.21-.88,1.3,1.3,0,0,1,.56-.42l2,4a1.09,1.09,0,0,1-.6,0,2.09,2.09,0,0,1-.7-.28m-.16-5.49V423a9.77,9.77,0,0,1-.49-1.11,2.68,2.68,0,0,1-.18-.92,1.11,1.11,0,0,1,.07-.43.49.49,0,0,1,.19-.28.55.55,0,0,1,.32-.09,1,1,0,0,1,.42.15,1.49,1.49,0,0,1,.41.34,1.75,1.75,0,0,1,.31.42,2.11,2.11,0,0,1,.19.47,1.47,1.47,0,0,1,.06.45,1,1,0,0,1-.1.49.76.76,0,0,1-.28.31,1.25,1.25,0,0,1-.41.16c-.16,0-.32.06-.5.09m.37-4.2a3,3,0,0,0-1.13-.42,1.37,1.37,0,0,0-.83.16,1.26,1.26,0,0,0-.52.61,2.63,2.63,0,0,0-.17,1,4.74,4.74,0,0,0,.2,1.25,9.69,9.69,0,0,0,.6,1.47l.14.3a3.17,3.17,0,0,0-.62.18,1.39,1.39,0,0,0-.51.37,1.61,1.61,0,0,0-.36.62,3,3,0,0,0-.13,1,4.84,4.84,0,0,0,.19,1.35,5.47,5.47,0,0,0,.59,1.28,6.38,6.38,0,0,0,1,1.15,6.55,6.55,0,0,0,1.28.95,4.1,4.1,0,0,0,1.23.49,2.12,2.12,0,0,0,1,0l.49,1,2,1.16-1.47-2.91a3.38,3.38,0,0,0,.53-1.21,7.57,7.57,0,0,0,.18-1.76l-1.57-.9a7.72,7.72,0,0,1,0,1,5.42,5.42,0,0,1-.14.81l-1.52-3c.26,0,.52-.05.77-.09a1.84,1.84,0,0,0,.67-.23,1.36,1.36,0,0,0,.48-.55,2.21,2.21,0,0,0,.19-1,3.6,3.6,0,0,0-.17-1.05,5.06,5.06,0,0,0-.49-1.06,5.69,5.69,0,0,0-.8-1,5.47,5.47,0,0,0-1.07-.81" transform="translate(-528.67 -44.13)" style="fill:#f2f2f2"/><path d="M1074.36,433a3.3,3.3,0,0,1-.6-.46,2.94,2.94,0,0,1-.45-.6,3,3,0,0,1-.3-.66,2.53,2.53,0,0,1-.1-.71,1.52,1.52,0,0,1,.21-.88,1.24,1.24,0,0,1,.56-.42l2,4a1,1,0,0,1-.6,0,2.05,2.05,0,0,1-.7-.27m-.16-5.5v0a10.69,10.69,0,0,1-.49-1.12,2.62,2.62,0,0,1-.18-.91,1.16,1.16,0,0,1,.07-.44.55.55,0,0,1,.19-.27.44.44,0,0,1,.32-.09.83.83,0,0,1,.42.15,1.5,1.5,0,0,1,.42.33,2.08,2.08,0,0,1,.3.43,1.6,1.6,0,0,1,.19.47,1.83,1.83,0,0,1,.07.45,1,1,0,0,1-.11.49.72.72,0,0,1-.27.3,1.18,1.18,0,0,1-.42.16,3.44,3.44,0,0,1-.5.09m.36-4.2a2.86,2.86,0,0,0-1.12-.41,1.37,1.37,0,0,0-.83.15,1.26,1.26,0,0,0-.52.61,2.64,2.64,0,0,0-.17,1,4.46,4.46,0,0,0,.21,1.25,9.39,9.39,0,0,0,.59,1.47l.14.29a2.77,2.77,0,0,0-.62.19,1.49,1.49,0,0,0-.51.36,1.78,1.78,0,0,0-.36.62,3.28,3.28,0,0,0-.13,1,4.74,4.74,0,0,0,.19,1.35,4.82,4.82,0,0,0,.6,1.28,5.64,5.64,0,0,0,.94,1.15,6.17,6.17,0,0,0,1.28.95,3.94,3.94,0,0,0,1.23.49,2,2,0,0,0,1,0l.49,1,2,1.15-1.46-2.91a3.3,3.3,0,0,0,.53-1.21,7.48,7.48,0,0,0,.18-1.75l-1.57-.91a8,8,0,0,1,0,1,4.23,4.23,0,0,1-.15.8l-1.51-3,.77-.09a1.9,1.9,0,0,0,.68-.24,1.42,1.42,0,0,0,.47-.55,2.21,2.21,0,0,0,.19-1,3.53,3.53,0,0,0-.17-1,4.71,4.71,0,0,0-.5-1.07,5.07,5.07,0,0,0-.79-1,5.21,5.21,0,0,0-1.08-.82" transform="translate(-528.67 -44.13)" style="fill:#f2f2f2"/><path d="M1091.66,436.11a2.9,2.9,0,0,0-.71-.32,1.82,1.82,0,0,0-.59-.07,1.27,1.27,0,0,0-.88.48l-.06-1.21-1.53-.89,0,8.09,1.73,1,0-5.12a2.12,2.12,0,0,1,.88-.65.93.93,0,0,1,.78.08,1.61,1.61,0,0,1,.37.32,1.42,1.42,0,0,1,.28.46,2.25,2.25,0,0,1,.17.62,3.44,3.44,0,0,1,0,.8l1.7,1a6.76,6.76,0,0,0-.11-1.52,5.4,5.4,0,0,0-.41-1.27,4.26,4.26,0,0,0-.69-1,3.5,3.5,0,0,0-.95-.76" transform="translate(-528.67 -44.13)" style="fill:#9ef2c6"/><polyline points="578.95 400.6 574.27 402.42 578.92 409.63 580.01 409 576.58 403.74 580.03 402.48 578.95 400.6" style="fill:#f2f2f2"/><path d="M1116.91,455.4l-6-3.44v1.55l6,3.44V455.4m0-3.13-6-3.44v1.54l6,3.44v-1.54" transform="translate(-528.67 -44.13)" style="fill:#f2f2f2"/><path d="M1133.31,460.33l-1.82-1.05-1.49,3.79-.43,1.18-.43-1.74-1.45-5.43-1.88-1.08,2.76,9.69a2.17,2.17,0,0,1-.31.52,1.27,1.27,0,0,1-.38.32.9.9,0,0,1-.46.08,1.11,1.11,0,0,1-.54-.18l-.23-.14-.24-.16-.22-.16-.2-.15v1.65c.15.12.29.21.42.3a2.9,2.9,0,0,0,.38.24,3.59,3.59,0,0,0,1.31.5,1.84,1.84,0,0,0,1.07-.19,2.66,2.66,0,0,0,.88-.81,9.36,9.36,0,0,0,.77-1.4l2.49-5.78" transform="translate(-528.67 -44.13)" style="fill:#9ef2c6"/><path d="M1136,458.11l-1,.59a19.52,19.52,0,0,1,2,4.22,12.19,12.19,0,0,1,.66,3.87,6.27,6.27,0,0,1-.68,3,4.34,4.34,0,0,1-2,1.84l1,1.66a5.42,5.42,0,0,0,1.38-.75,4.67,4.67,0,0,0,1.07-1.18,5.7,5.7,0,0,0,.7-1.62,8.17,8.17,0,0,0,.25-2.14,13.45,13.45,0,0,0-.81-4.54,24.25,24.25,0,0,0-2.52-5" transform="translate(-528.67 -44.13)" style="fill:#f2f2f2"/><path d="M1155.35,469.53l-.58-.34a4.29,4.29,0,0,0-1.29-.53,1.15,1.15,0,0,0-.88.12,1.24,1.24,0,0,0-.52.73,4.63,4.63,0,0,0-.17,1.35v1.41a3.06,3.06,0,0,1-.07.67.54.54,0,0,1-.25.34.55.55,0,0,1-.43,0,2.5,2.5,0,0,1-.63-.28l-.44-.25v1.5l.43.25a2.63,2.63,0,0,1,1.06,1,3,3,0,0,1,.32,1.42v2a5.23,5.23,0,0,0,2.84,4.94l.58.34v-1.5l-.43-.25a3.31,3.31,0,0,1-.6-.44,2.45,2.45,0,0,1-.46-.55,2.8,2.8,0,0,1-.3-.73,3.65,3.65,0,0,1-.1-.92v-2a4.76,4.76,0,0,0-.35-1.95,3.41,3.41,0,0,0-1.11-1.31,1.66,1.66,0,0,0,.65.16.61.61,0,0,0,.47-.17,1.41,1.41,0,0,0,.27-.55,5,5,0,0,0,.08-1v-1.4a2.24,2.24,0,0,1,.1-.77.66.66,0,0,1,.3-.38.7.7,0,0,1,.46,0,2.08,2.08,0,0,1,.6.25l.44.25v-1.49" transform="translate(-528.67 -44.13)" style="fill:#f2f2f2"/><polyline points="492.69 367.99 488.97 365.84 488.96 367.36 490.95 368.5 490.93 376.73 488.7 375.44 488.69 376.95 494.69 380.41 494.69 378.9 492.66 377.73 492.69 367.99" style="fill:#9ef2c6"/><polyline points="502.23 376.66 496.63 373.43 496.63 375.1 499.99 377.03 496.53 380.12 496.53 381.47 502.26 384.78 502.26 383.07 498.84 381.1 502.22 378.03 502.23 376.66" style="fill:#9ef2c6"/><polyline points="509.08 377.1 505.43 374.99 505.39 389.76 509.04 391.86 509.04 390.35 506.95 389.14 506.99 377.4 509.07 378.61 509.08 377.1" style="fill:#f2f2f2"/><path d="M1043.51,434.79a5.69,5.69,0,0,1-.6-.4,4.53,4.53,0,0,1-.49-.43v-3.53a2.94,2.94,0,0,1,.82-.61.86.86,0,0,1,.83.08,2.33,2.33,0,0,1,.52.43,2.49,2.49,0,0,1,.37.67,3.65,3.65,0,0,1,.24.91,8.21,8.21,0,0,1,.08,1.18,4.06,4.06,0,0,1-.13,1.07,1.32,1.32,0,0,1-.36.64.76.76,0,0,1-.56.22,1.43,1.43,0,0,1-.73-.23m1-6.32a2.43,2.43,0,0,0-.7-.31,1.44,1.44,0,0,0-1.09.07,3,3,0,0,0-.45.31l0-1.22-1.47-.84,0,11.25,1.69,1v-3.16c.14.12.3.24.48.37a6.06,6.06,0,0,0,.53.35,4.82,4.82,0,0,0,1.45.58,1.82,1.82,0,0,0,1.15-.13,1.86,1.86,0,0,0,.77-.91,5,5,0,0,0,.28-1.77,8.62,8.62,0,0,0-.18-1.79,7,7,0,0,0-.49-1.57,5.16,5.16,0,0,0-.82-1.29,4,4,0,0,0-1.1-.92" transform="translate(-528.67 -44.13)" style="fill:#9ef2c6"/><polyline points="524.38 385.93 520.75 383.83 520.75 385.35 522.82 386.54 522.79 398.28 520.71 397.08 520.71 398.6 524.34 400.7 524.38 385.93" style="fill:#f2f2f2"/><polyline points="539.2 397.88 537.64 396.98 537.63 400.06 535.05 398.57 535.04 400.17 537.63 401.66 537.62 404.76 539.18 405.66 539.19 402.56 541.77 404.05 541.78 402.45 539.19 400.96 539.2 397.88" style="fill:#f2f2f2"/><path d="M1077.85,452.45l-6-3.44v1.54l6,3.44v-1.54m0-3.14-6-3.44v1.55l6,3.44v-1.55" transform="translate(-528.67 -44.13)" style="fill:#f2f2f2"/><polyline points="560.65 407.23 558.96 406.25 558.92 417.5 560.62 418.48 560.63 414.43 563.21 419.98 565.42 421.25 562.35 415.06 565.21 413.02 563.1 411.8 560.63 413.81 560.65 407.23" style="fill:#9ef2c6"/><path d="M1098.23,464.8a1.07,1.07,0,0,0-.48-.17.59.59,0,0,0-.36.09.55.55,0,0,0-.22.29,1.19,1.19,0,0,0-.08.44,1.65,1.65,0,0,0,.06.46,2,2,0,0,0,.15.41l.18.37c.07.13.14.24.19.36a2.66,2.66,0,0,1,.16.39,1.88,1.88,0,0,1,.05.43.63.63,0,0,1-.15.47.59.59,0,0,1-.42.16,2.13,2.13,0,0,1-.63-.14,4.08,4.08,0,0,1-.6-.29l-.17-.1v1.27a5.23,5.23,0,0,0,1.65.66,2,2,0,0,0,1.18-.08,1.53,1.53,0,0,0,.7-.74,3,3,0,0,0,.24-1.25,4.48,4.48,0,0,0-.09-.89,4.35,4.35,0,0,0-.29-.86,3.11,3.11,0,0,0-.45-.75,2.16,2.16,0,0,0-.61-.53m0-5.18a1.33,1.33,0,0,0-.48-.17.74.74,0,0,0-.4.08.67.67,0,0,0-.27.3,1.29,1.29,0,0,0-.1.51,2.42,2.42,0,0,0,.1.62,2.53,2.53,0,0,0,.27.61,3.28,3.28,0,0,0,.39.53,2.27,2.27,0,0,0,.49.39,1.15,1.15,0,0,0,.49.17.7.7,0,0,0,.39-.07.72.72,0,0,0,.27-.3,1.13,1.13,0,0,0,.1-.51,2.32,2.32,0,0,0-.09-.62,3.24,3.24,0,0,0-.27-.6,2.36,2.36,0,0,0-.4-.54,2.09,2.09,0,0,0-.49-.4" transform="translate(-528.67 -44.13)" style="fill:#f2f2f2"/><path d="M1020.05,440.85a7.11,7.11,0,0,1-.6-.41,5.8,5.8,0,0,1-.49-.42v-3.54a3,3,0,0,1,.83-.61.9.9,0,0,1,.82.08,1.66,1.66,0,0,1,.51.44,2.35,2.35,0,0,1,.39.66,4.38,4.38,0,0,1,.23.9,7.23,7.23,0,0,1,.08,1.2,4.07,4.07,0,0,1-.12,1.06,1.54,1.54,0,0,1-.36.65.9.9,0,0,1-.57.22,1.54,1.54,0,0,1-.73-.23m1-6.34a3.14,3.14,0,0,0-.7-.31,1.69,1.69,0,0,0-.58-.05,1.25,1.25,0,0,0-.51.14,2.08,2.08,0,0,0-.44.31l0-1.23-1.46-.84,0,11.25,1.69,1V441.6l.48.38c.18.12.35.24.53.34a4.88,4.88,0,0,0,1.44.58,1.77,1.77,0,0,0,1.16-.13,1.75,1.75,0,0,0,.77-.92,4.82,4.82,0,0,0,.28-1.76,9.37,9.37,0,0,0-.17-1.79,7.4,7.4,0,0,0-.5-1.57,5.43,5.43,0,0,0-.81-1.29,4.43,4.43,0,0,0-1.11-.93" transform="translate(-528.67 -44.13)" style="fill:#9ef2c6"/><path d="M1031,440.43l-1.69-1v5.12a3.11,3.11,0,0,1-.83.61.86.86,0,0,1-.82-.07,1.54,1.54,0,0,1-.65-.71,2.75,2.75,0,0,1-.21-1.13V438l-1.69-1v5.43a5.61,5.61,0,0,0,.13,1.24,5.22,5.22,0,0,0,.4,1.13,4.25,4.25,0,0,0,.68,1,4.08,4.08,0,0,0,.94.75,2.89,2.89,0,0,0,.7.3,1.71,1.71,0,0,0,.58.06,1.28,1.28,0,0,0,.49-.15,2.59,2.59,0,0,0,.46-.3l0,1.21,1.47.85,0-8.09" transform="translate(-528.67 -44.13)" style="fill:#9ef2c6"/><path d="M1036.08,443.21a5.44,5.44,0,0,0-1.34-.59,2,2,0,0,0-1,0,.91.91,0,0,0-.57.44,1.54,1.54,0,0,0-.2.81,3.08,3.08,0,0,0,.13,1,3.62,3.62,0,0,0,.38.89,5.31,5.31,0,0,0,.64.86,11.15,11.15,0,0,0,.91.91c.38.34.68.63.91.85a5,5,0,0,1,.53.6,2.09,2.09,0,0,1,.27.44,1.33,1.33,0,0,1,.07.37c0,.27-.11.41-.34.44a1.6,1.6,0,0,1-1-.32,10.48,10.48,0,0,1-1.21-.85,13,13,0,0,1-1.31-1.2v1.75c.37.32.77.63,1.18.93s.88.58,1.4.88a5.47,5.47,0,0,0,1.14.52,2.3,2.3,0,0,0,1,.14,1,1,0,0,0,.71-.39,1.7,1.7,0,0,0,.26-1,3.31,3.31,0,0,0-.1-.9,3.74,3.74,0,0,0-.36-.86,5.5,5.5,0,0,0-.67-.9,14,14,0,0,0-1-1c-.37-.33-.65-.6-.87-.82a7.2,7.2,0,0,1-.52-.58,1.73,1.73,0,0,1-.24-.42,1.15,1.15,0,0,1-.06-.37c0-.25.1-.39.31-.41a1.44,1.44,0,0,1,.84.27,11.79,11.79,0,0,1,1,.69,14.49,14.49,0,0,1,1.13,1v-1.58c-.26-.22-.57-.45-.91-.7a11,11,0,0,0-1.18-.76" transform="translate(-528.67 -44.13)" style="fill:#9ef2c6"/><path d="M1042.39,443.86l-1.69-1,0,11.26,1.69,1V450a3,3,0,0,1,.83-.61.9.9,0,0,1,.82.08,1.91,1.91,0,0,1,.86,1.82l0,5.28,1.69,1,0-5.43a5.64,5.64,0,0,0-.13-1.25,4.9,4.9,0,0,0-.4-1.13,4.63,4.63,0,0,0-.68-1,4.08,4.08,0,0,0-.94-.75,3.19,3.19,0,0,0-.65-.29,1.65,1.65,0,0,0-.56-.08,1.31,1.31,0,0,0-.48.12,2.15,2.15,0,0,0-.44.28l.09-1.42v-2.77" transform="translate(-528.67 -44.13)" style="fill:#9ef2c6"/><path d="M1052.83,449.27a5.78,5.78,0,0,0-1.38.76,4.43,4.43,0,0,0-1.09,1.15,5.44,5.44,0,0,0-.7,1.62,8.22,8.22,0,0,0-.26,2.15,13.53,13.53,0,0,0,.83,4.53,25,25,0,0,0,2.51,5l1-.59a19.94,19.94,0,0,1-2-4.22,12.41,12.41,0,0,1-.67-3.87,6.1,6.1,0,0,1,.69-3,4.31,4.31,0,0,1,2-1.84l-1-1.66" transform="translate(-528.67 -44.13)" style="fill:#f2f2f2"/><path d="M1059.06,463.37a5.79,5.79,0,0,1-.6-.41,3.8,3.8,0,0,1-.5-.43V459a2.91,2.91,0,0,1,.83-.61.87.87,0,0,1,.82.08,1.78,1.78,0,0,1,.52.43,2.55,2.55,0,0,1,.38.67,4.38,4.38,0,0,1,.23.9,6.29,6.29,0,0,1,.08,1.2,4.07,4.07,0,0,1-.12,1.06,1.5,1.5,0,0,1-.36.65.87.87,0,0,1-.56.22,1.66,1.66,0,0,1-.73-.23m1-6.34a3.09,3.09,0,0,0-.69-.31,1.75,1.75,0,0,0-.59-.05,1.2,1.2,0,0,0-.5.14,1.9,1.9,0,0,0-.45.31l0-1.23-1.46-.84,0,11.25,1.7,1v-3.15l.47.38.53.34a4.92,4.92,0,0,0,1.45.58,1.6,1.6,0,0,0,1.92-1.05,4.46,4.46,0,0,0,.28-1.76,8.63,8.63,0,0,0-.17-1.79,6.87,6.87,0,0,0-.5-1.57,5.23,5.23,0,0,0-.81-1.29A4.11,4.11,0,0,0,1060,457" transform="translate(-528.67 -44.13)" style="fill:#9ef2c6"/><path d="M1066.89,466.3a1.2,1.2,0,0,0-.49-.17.57.57,0,0,0-.35.09.64.64,0,0,0-.22.29,1.19,1.19,0,0,0-.08.44,2.14,2.14,0,0,0,.2.87l.19.37a3.24,3.24,0,0,1,.19.37,2.15,2.15,0,0,1,.15.38,1.49,1.49,0,0,1,.06.43.69.69,0,0,1-.15.48.65.65,0,0,1-.43.14,1.57,1.57,0,0,1-.62-.13,3.89,3.89,0,0,1-.65-.32l-.13-.07v1.26a5.34,5.34,0,0,0,1.64.67,2,2,0,0,0,1.18-.09,1.44,1.44,0,0,0,.71-.73,3,3,0,0,0,.24-1.26,3.9,3.9,0,0,0-.1-.88,3.61,3.61,0,0,0-.28-.86,3.47,3.47,0,0,0-.45-.75,2.33,2.33,0,0,0-.61-.53" transform="translate(-528.67 -44.13)" style="fill:#f2f2f2"/><polyline points="555.04 423.58 551.32 421.43 551.31 422.94 553.3 424.09 553.28 432.32 551.04 431.03 551.04 432.55 557.04 436.01 557.04 434.49 555.01 433.32 555.04 423.58" style="fill:#9ef2c6"/><path d="M1090.29,479.81a1.21,1.21,0,0,0-.48-.17.69.69,0,0,0-.36.09.72.72,0,0,0-.22.29,1.15,1.15,0,0,0-.08.44,1.95,1.95,0,0,0,.21.87c.06.13.12.25.19.37s.13.25.18.37a1.8,1.8,0,0,1,.16.38,2,2,0,0,1,0,.43.69.69,0,0,1-.15.48.65.65,0,0,1-.43.14,1.6,1.6,0,0,1-.62-.13,3.72,3.72,0,0,1-.64-.31L1088,483v1.26a5.34,5.34,0,0,0,1.64.67,2,2,0,0,0,1.18-.09,1.41,1.41,0,0,0,.71-.73,3,3,0,0,0,.24-1.26,4.43,4.43,0,0,0-.09-.87,3.87,3.87,0,0,0-.29-.87,3.32,3.32,0,0,0-.45-.75,2.18,2.18,0,0,0-.61-.53" transform="translate(-528.67 -44.13)" style="fill:#f2f2f2"/><path d="M1107.15,484.24a3.57,3.57,0,0,0-.71-.32,1.61,1.61,0,0,0-.6-.06,1.13,1.13,0,0,0-.48.15,1.21,1.21,0,0,0-.39.33l-.06-1.22-1.53-.88,0,8.09,1.73,1v-5.12a2.14,2.14,0,0,1,.88-.66,1,1,0,0,1,.77.09,1.71,1.71,0,0,1,.39.32,2,2,0,0,1,.28.46,3.1,3.1,0,0,1,.16.62,6.27,6.27,0,0,1,0,.8l1.7,1a7.28,7.28,0,0,0-.12-1.51,4.58,4.58,0,0,0-.41-1.28,4.42,4.42,0,0,0-.69-1,4.13,4.13,0,0,0-.95-.76" transform="translate(-528.67 -44.13)" style="fill:#9ef2c6"/><path d="M1112.53,483.74l-1,.57a19.65,19.65,0,0,1,2,4.24,12.09,12.09,0,0,1,.66,3.86,6.15,6.15,0,0,1-.68,3,4.23,4.23,0,0,1-2,1.84l1,1.67a5.29,5.29,0,0,0,1.38-.76,4.6,4.6,0,0,0,1.08-1.16,5.9,5.9,0,0,0,.7-1.63,8.22,8.22,0,0,0,.25-2.14,13.5,13.5,0,0,0-.81-4.54,24.19,24.19,0,0,0-2.52-5" transform="translate(-528.67 -44.13)" style="fill:#f2f2f2"/><path d="M1121.57,497.87a1,1,0,0,0-.47-.16.57.57,0,0,0-.36.08.66.66,0,0,0-.23.29,1.19,1.19,0,0,0-.08.44,1.41,1.41,0,0,0,.07.47,1.72,1.72,0,0,0,.14.4c.06.13.12.26.19.38s.13.24.19.36a3,3,0,0,1,.15.38,1.54,1.54,0,0,1,.06.43.68.68,0,0,1-.16.48.66.66,0,0,1-.41.15,1.73,1.73,0,0,1-.64-.14,4.11,4.11,0,0,1-.64-.31l-.13-.08v1.26a5,5,0,0,0,1.64.68,2,2,0,0,0,1.18-.09,1.43,1.43,0,0,0,.71-.74,2.93,2.93,0,0,0,.24-1.25,4.55,4.55,0,0,0-.38-1.75,3.32,3.32,0,0,0-.45-.75,2.39,2.39,0,0,0-.62-.53m.06-5.17a1.13,1.13,0,0,0-.49-.18.8.8,0,0,0-.39.08.75.75,0,0,0-.27.31,1.24,1.24,0,0,0-.1.5,2.42,2.42,0,0,0,.1.63,2.87,2.87,0,0,0,.26.6,3.45,3.45,0,0,0,.39.53,2.66,2.66,0,0,0,.5.4,1.25,1.25,0,0,0,.49.17.63.63,0,0,0,.39-.08.67.67,0,0,0,.27-.3,1.29,1.29,0,0,0,.09-.51,1.92,1.92,0,0,0-.09-.61,2.73,2.73,0,0,0-.26-.61,3.36,3.36,0,0,0-.39-.54,2.26,2.26,0,0,0-.5-.39" transform="translate(-528.67 -44.13)" style="fill:#f2f2f2"/><path d="M1021.29,454.27a3.08,3.08,0,0,0-.71-.32,1.85,1.85,0,0,0-.59-.07,1.34,1.34,0,0,0-.49.15,1.23,1.23,0,0,0-.39.33l-.06-1.21-1.54-.89,0,8.09,1.73,1,0-5.12a2.21,2.21,0,0,1,.87-.66.9.9,0,0,1,.78.09,1.61,1.61,0,0,1,.38.31,1.83,1.83,0,0,1,.28.47,2.66,2.66,0,0,1,.17.62,4,4,0,0,1,0,.79l1.7,1a7.35,7.35,0,0,0-.11-1.51,5.4,5.4,0,0,0-.41-1.27,4.16,4.16,0,0,0-.7-1,3.61,3.61,0,0,0-.94-.75" transform="translate(-528.67 -44.13)" style="fill:#f9273c"/><path d="M1026.51,460.6a1.39,1.39,0,0,1,.49-1.09,1,1,0,0,1,1,.1,2.74,2.74,0,0,1,.54.44,2.39,2.39,0,0,1,.44.59,3.17,3.17,0,0,1,.3.76,2.9,2.9,0,0,1,.1.89l-2.92-1.69m1.58-2.41a3.36,3.36,0,0,0-1.38-.48,1.54,1.54,0,0,0-1,.29,2.13,2.13,0,0,0-.67,1,5.08,5.08,0,0,0-.24,1.67,7.62,7.62,0,0,0,.23,1.88,6.81,6.81,0,0,0,.68,1.67,6.57,6.57,0,0,0,1.08,1.39,6.86,6.86,0,0,0,1.44,1.1l.65.35.68.31.65.25a6.12,6.12,0,0,0,.59.17v-1.54a8.74,8.74,0,0,1-1.22-.41,10,10,0,0,1-1.09-.53,3.78,3.78,0,0,1-.81-.62,3.94,3.94,0,0,1-.62-.78,3.23,3.23,0,0,1-.4-.91,3.75,3.75,0,0,1-.14-1l4.63,2.67q0-.25,0-.57c0-.21,0-.39,0-.52a6.42,6.42,0,0,0-.2-1.56,6.53,6.53,0,0,0-.59-1.48,6.33,6.33,0,0,0-1-1.3,5.85,5.85,0,0,0-1.32-1" transform="translate(-528.67 -44.13)" style="fill:#f9273c"/><path d="M1035.91,460.29l-1.74-.48v2.07l-1.89-1.09v1.51l1.89,1.09v3.94a5.7,5.7,0,0,0,.16,1.36,3.89,3.89,0,0,0,.48,1.15,4.8,4.8,0,0,0,.83,1,7,7,0,0,0,1.19.86,7.16,7.16,0,0,0,.88.43,9.42,9.42,0,0,0,.92.34v-1.55c-.22-.06-.46-.13-.73-.23a6.4,6.4,0,0,1-.8-.38,2.31,2.31,0,0,1-.93-.9,2.42,2.42,0,0,1-.27-1.2v-3.81l2.73,1.58v-1.51l-2.74-1.58v-2.59" transform="translate(-528.67 -44.13)" style="fill:#f9273c"/><path d="M1046.51,469l-1.69-1,0,5.11a3.24,3.24,0,0,1-.83.62.88.88,0,0,1-.81-.08,1.49,1.49,0,0,1-.65-.71,2.71,2.71,0,0,1-.22-1.13l0-5.26-1.69-1V471a5.2,5.2,0,0,0,.13,1.25,4.4,4.4,0,0,0,.4,1.12,4.09,4.09,0,0,0,.67,1,4.14,4.14,0,0,0,1,.75,2.83,2.83,0,0,0,.69.3,1.51,1.51,0,0,0,.58.06,1.21,1.21,0,0,0,.5-.15,2.48,2.48,0,0,0,.46-.31l0,1.22,1.46.85,0-8.09" transform="translate(-528.67 -44.13)" style="fill:#f9273c"/><path d="M1052.49,472.28a2.84,2.84,0,0,0-.71-.31,1.85,1.85,0,0,0-.59-.08,1.56,1.56,0,0,0-.49.15,1.23,1.23,0,0,0-.39.33l-.06-1.21-1.53-.88,0,8.08,1.73,1,0-5.12a2.12,2.12,0,0,1,.88-.65.9.9,0,0,1,.78.09,1.56,1.56,0,0,1,.37.31,1.53,1.53,0,0,1,.28.46,2.43,2.43,0,0,1,.17.63,3.35,3.35,0,0,1,0,.79l1.7,1a6.67,6.67,0,0,0-.11-1.51,5.49,5.49,0,0,0-.41-1.28,4.26,4.26,0,0,0-.69-1,3.92,3.92,0,0,0-1-.76" transform="translate(-528.67 -44.13)" style="fill:#f9273c"/><path d="M1060,476.6a2.74,2.74,0,0,0-.7-.31,1.49,1.49,0,0,0-.58-.06,1.25,1.25,0,0,0-.51.14,3,3,0,0,0-.45.31l0-1.22-1.46-.84,0,8.08,1.69,1v-5.12a2.88,2.88,0,0,1,.84-.6.87.87,0,0,1,.82.07,1.91,1.91,0,0,1,.85,1.83v5.27l1.69,1,0-5.43a6.36,6.36,0,0,0-.13-1.24,5,5,0,0,0-.41-1.12,4.13,4.13,0,0,0-1.61-1.71" transform="translate(-528.67 -44.13)" style="fill:#f9273c"/><path d="M1066.92,485.91a1.11,1.11,0,0,0-.49-.17.71.71,0,0,0-.36.09.59.59,0,0,0-.21.29,1,1,0,0,0-.08.44,2.34,2.34,0,0,0,0,.47,2.74,2.74,0,0,0,.15.4c.06.13.13.26.19.38s.13.24.19.36a2.5,2.5,0,0,1,.15.38,1.44,1.44,0,0,1,.06.43.58.58,0,0,1-.16.47.54.54,0,0,1-.42.16,1.76,1.76,0,0,1-.62-.14,3.8,3.8,0,0,1-.65-.31l-.13-.08v1.26a5.38,5.38,0,0,0,1.66.68,2,2,0,0,0,1.17-.09,1.48,1.48,0,0,0,.71-.73,3.22,3.22,0,0,0,.24-1.26,4.55,4.55,0,0,0-.38-1.75,3.5,3.5,0,0,0-.46-.75,2.14,2.14,0,0,0-.6-.53m0-5.17a1.15,1.15,0,0,0-.49-.17.62.62,0,0,0-.39.07.63.63,0,0,0-.27.31,1.06,1.06,0,0,0-.1.5,2,2,0,0,0,.1.62,2.73,2.73,0,0,0,.26.61,3.35,3.35,0,0,0,.4.53,2.22,2.22,0,0,0,.48.39,1.07,1.07,0,0,0,.49.17.64.64,0,0,0,.4-.07.58.58,0,0,0,.26-.31,1.06,1.06,0,0,0,.11-.5,2,2,0,0,0-.1-.62,3.2,3.2,0,0,0-.26-.6,2.7,2.7,0,0,0-.4-.54,2,2,0,0,0-.49-.39" transform="translate(-528.67 -44.13)" style="fill:#f2f2f2"/><path d="M987.1,450.78l-.58-.34v1.5l.44.25a3.31,3.31,0,0,1,.6.44,2.3,2.3,0,0,1,.46.56,2.6,2.6,0,0,1,.3.72,3.71,3.71,0,0,1,.1.92v1.33a4.76,4.76,0,0,0,.35,1.95,3.31,3.31,0,0,0,1.1,1.31,2.11,2.11,0,0,0-.65-.16.63.63,0,0,0-.46.18,1.23,1.23,0,0,0-.26.55,4.29,4.29,0,0,0-.09,1V463a2.24,2.24,0,0,1-.1.77.63.63,0,0,1-.3.38.64.64,0,0,1-.46,0,2.47,2.47,0,0,1-.6-.26l-.44-.26v1.5l.58.33a4.23,4.23,0,0,0,1.3.54,1.23,1.23,0,0,0,.89-.11,1.3,1.3,0,0,0,.51-.74,4.94,4.94,0,0,0,.17-1.35v-2.09a2.27,2.27,0,0,1,.08-.66.54.54,0,0,1,.23-.36.56.56,0,0,1,.43,0,2.22,2.22,0,0,1,.64.28l.44.25v-1.5l-.44-.26a2.58,2.58,0,0,1-1-1,2.92,2.92,0,0,1-.32-1.4v-1.35a5.22,5.22,0,0,0-2.85-5" transform="translate(-528.67 -44.13)" style="fill:#f2f2f2"/></svg>