<svg id="Layer_1" data-name="Layer 1" xmlns="http://www.w3.org/2000/svg" xmlns:xlink="http://www.w3.org/1999/xlink" viewBox="0 0 1305.01 1232.92"><defs><style>.cls-1{fill:none;}.cls-2{fill:#0071bc;}.cls-3{fill:#29abe2;}.cls-4{fill:#999;}.cls-5{fill:#ccc;}.cls-6{fill:#b3b3b3;}.cls-7{fill:#1a1a1a;}.cls-8{clip-path:url(#clip-path);}.cls-9{fill:#333;}.cls-10{fill:#e6e6e6;}.cls-11{isolation:isolate;}.cls-12{clip-path:url(#clip-path-2);}.cls-13{fill:#8cc63f;}.cls-14{clip-path:url(#clip-path-3);}.cls-15{fill:#fcee21;}.cls-16{clip-path:url(#clip-path-4);}.cls-17{fill:#ed1c24;}.cls-18{clip-path:url(#clip-path-5);}.cls-19{clip-path:url(#clip-path-6);}.cls-20{fill:#45cbef;}.cls-21{fill:#9ef2c6;}.cls-22{fill:#f2f2f2;}.cls-23{fill:#7572ff;}.cls-24{fill:#f9273c;}</style><clipPath id="clip-path" transform="translate(-528.67 -44.13)"><polygon class="cls-1" points="1262.59 456.39 1515.02 310.65 1515.02 239.88 1262.59 390 1262.59 456.39"/></clipPath><clipPath id="clip-path-2" transform="translate(-528.67 -44.13)"><polygon class="cls-1" points="1505.71 314.08 1505.7 307.94 1511.04 304.85 1511.06 311 1505.71 314.08"/></clipPath><clipPath id="clip-path-3" transform="translate(-528.67 -44.13)"><polygon class="cls-1" points="1498.67 318.71 1498.65 312.56 1504 309.47 1504.02 315.62 1498.67 318.71"/></clipPath><clipPath id="clip-path-4" transform="translate(-528.67 -44.13)"><polygon class="cls-1" points="1491.13 323.23 1491.12 317.08 1496.46 313.99 1496.48 320.14 1491.13 323.23"/></clipPath><clipPath id="clip-path-5" transform="translate(-528.67 -44.13)"><polygon class="cls-1" points="1383.2 759.7 1207.14 657.38 1077.17 732.42 1253.23 834.73 1383.2 759.7"/></clipPath><clipPath id="clip-path-6" transform="translate(-528.67 -44.13)"><polygon class="cls-1" points="1328.43 802.81 1328.43 799.77 1318.48 805.52 1318.49 808.55 1328.43 802.81"/></clipPath></defs><title>quote_2</title><polygon class="cls-2" points="1305.01 890.44 1305.01 547.96 415.23 1061.68 711.83 1232.92 1305.01 890.44"/><polygon class="cls-3" points="1305.01 547.96 355.91 0 0 205.49 0 821.94 415.23 1061.68 1305.01 547.96"/><path class="cls-4" d="M1683,571.55,1538.1,487.92c-4.79-2.76-12.54-2.76-17.33,0L1270.4,632.47,1254,634.89v10c0,1.81,1.2,3.62,3.59,5l151,87.16c4.79,2.76,12.54,2.76,17.32,0l263.16-151.93c2.39-1.38,3.59-3.19,3.59-5v-10Z" transform="translate(-528.67 -44.13)"/><path class="cls-5" d="M1520.77,478,1257.62,629.89c-4.79,2.76-4.79,7.24,0,10l151,87.16c4.79,2.76,12.54,2.76,17.32,0l263.16-151.94c4.78-2.76,4.78-7.23,0-10L1538.1,478C1533.31,475.19,1525.56,475.19,1520.77,478Z" transform="translate(-528.67 -44.13)"/><path class="cls-5" d="M1529.43,473" transform="translate(-528.67 -44.13)"/><path class="cls-4" d="M1520.81,290.71V458c0,5.52-3.88,12.24-8.66,15L1261.77,617.52l-10.28,13-8.63-5c-1.56-.9-2.53-2.84-2.53-5.6V445.58c0-5.52,3.88-12.23,8.66-15l263.16-151.93c2.39-1.38,4.55-1.51,6.12-.61l8.63,5Z" transform="translate(-528.67 -44.13)"/><path class="cls-6" d="M1520.77,478,1257.62,629.89c-4.79,2.76-8.66.52-8.66-5V450.57c0-5.53,3.87-12.24,8.66-15l263.15-151.94c4.79-2.76,8.66-.52,8.66,5V463C1529.43,468.48,1525.56,475.19,1520.77,478Z" transform="translate(-528.67 -44.13)"/><path class="cls-5" d="M1529.43,473" transform="translate(-528.67 -44.13)"/><path class="cls-7" d="M1271.25,441.39l235.11-135.74c4.78-2.76,8.66-.53,8.66,5V452.58c0,5.52-3.88,12.24-8.66,15L1271.25,603.32c-4.78,2.76-8.66.52-8.66-5V456.39C1262.59,450.87,1266.47,444.15,1271.25,441.39Z" transform="translate(-528.67 -44.13)"/><path class="cls-7" d="M1217.21,451.26,982.11,315.52c-4.79-2.76-8.66-.52-8.66,5V462.45c0,5.53,3.87,12.24,8.66,15l235.1,135.74c4.79,2.77,8.67.53,8.67-5V466.26C1225.88,460.74,1222,454,1217.21,451.26Z" transform="translate(-528.67 -44.13)"/><g class="cls-8"><path class="cls-9" d="M1271.25,441.39l235.11-135.74c4.78-2.76,8.66-.53,8.66,5V452.58c0,5.52-3.88,12.24-8.66,15L1271.25,603.32c-4.78,2.76-8.66.52-8.66-5V456.39C1262.59,450.87,1266.47,444.15,1271.25,441.39Z" transform="translate(-528.67 -44.13)"/></g><path class="cls-10" d="M1283.43,628.68l234.81-135.57c4.78-2.76,12.54-2.77,17.33,0l67.09,38.46c4.8,2.75,4.8,7.22,0,10L1367.57,677.26c-4.78,2.76-12.54,2.76-17.32,0l-66.82-38.58C1278.64,635.92,1278.64,631.44,1283.43,628.68Z" transform="translate(-528.67 -44.13)"/><path class="cls-10" d="M1459.67,633.27l66.82-38.58c4.78-2.76,12.54-2.76,17.32,0l38.77,22.39c4.79,2.76,4.79,7.24,0,10l-66.82,38.58c-4.78,2.76-12.54,2.76-17.32,0l-38.77-22.39C1454.88,640.51,1454.88,636,1459.67,633.27Z" transform="translate(-528.67 -44.13)"/><g class="cls-11"><g class="cls-12"><path class="cls-13" d="M1508.37,306.4a5.84,5.84,0,0,0-2.66,4.61c0,1.69,1.2,2.38,2.67,1.53a5.85,5.85,0,0,0,2.67-4.62c0-1.69-1.21-2.38-2.68-1.52" transform="translate(-528.67 -44.13)"/></g></g><g class="cls-11"><g class="cls-14"><path class="cls-15" d="M1501.33,311a5.85,5.85,0,0,0-2.67,4.62c0,1.69,1.21,2.38,2.68,1.52a5.88,5.88,0,0,0,2.67-4.61c0-1.7-1.21-2.38-2.68-1.53" transform="translate(-528.67 -44.13)"/></g></g><g class="cls-11"><g class="cls-16"><path class="cls-17" d="M1493.79,315.53a5.87,5.87,0,0,0-2.66,4.62c0,1.7,1.2,2.39,2.68,1.53a5.89,5.89,0,0,0,2.66-4.61c0-1.7-1.2-2.39-2.68-1.54" transform="translate(-528.67 -44.13)"/></g></g><g id="Layer_3" data-name="Layer 3"><path class="cls-4" d="M1076.87,733l121.15-70c4.78-2.76,12.54-2.76,17.32,0l165.88,95.77,8.43.72v7.08h0c0,1.81-1.2,3.62-3.59,5l-123.71,71.42c-4.78,2.76-12.54,2.76-17.32,0l-170.72-98.56c-2.39-1.38-3.59-3.19-3.59-5v-7Z" transform="translate(-528.67 -44.13)"/><path class="cls-5" d="M1386.06,754.63l-170.72-98.57c-4.78-2.76-12.54-2.76-17.32,0l-123.71,71.43c-4.78,2.76-4.78,7.23,0,10L1245,836.05c4.78,2.76,12.54,2.76,17.32,0l123.71-71.42C1390.84,761.87,1390.84,757.39,1386.06,754.63Z" transform="translate(-528.67 -44.13)"/><g class="cls-11"><g class="cls-18"><path class="cls-7" d="M1084.26,728.32l115.79-66.85a15.65,15.65,0,0,1,14.14,0l162,94.13c3.87,2.25,3.85,5.94-.05,8.19l-115.79,66.85a15.65,15.65,0,0,1-14.14,0l-162-94.13c-3.88-2.25-3.86-5.93,0-8.19" transform="translate(-528.67 -44.13)"/></g></g><g class="cls-11"><g class="cls-19"><path class="cls-7" d="M1319.8,804.75l7.3-4.21c.73-.42,1.33-.08,1.33.75a2.92,2.92,0,0,1-1.32,2.28l-7.3,4.22c-.73.42-1.33.07-1.33-.76a2.92,2.92,0,0,1,1.32-2.28" transform="translate(-528.67 -44.13)"/></g></g></g><path class="cls-20" d="M988.63,339.12,984.91,337v1.52l2,1.15,0,5.06-2.23-1.29v1.51l6,3.46v-1.51l-2-1.17,0-6.58m-1-4a1.09,1.09,0,0,0-.44-.15.54.54,0,0,0-.36.07.49.49,0,0,0-.23.26,1.06,1.06,0,0,0-.09.45,2,2,0,0,0,.08.54,2.61,2.61,0,0,0,.24.54,2.68,2.68,0,0,0,.35.48,2.12,2.12,0,0,0,.44.35,1.06,1.06,0,0,0,.43.15.6.6,0,0,0,.36-.07.49.49,0,0,0,.23-.26,1.2,1.2,0,0,0,.09-.45,2.08,2.08,0,0,0-.08-.54,2.61,2.61,0,0,0-.24-.54,2.36,2.36,0,0,0-.35-.48,1.79,1.79,0,0,0-.43-.35" transform="translate(-528.67 -44.13)"/><path class="cls-20" d="M996.16,343.29a2.67,2.67,0,0,0-.7-.3,1.49,1.49,0,0,0-.58-.06,1.2,1.2,0,0,0-.5.14,1.9,1.9,0,0,0-.45.31l0-1.23-1.47-.84,0,8.09,1.69,1,0-5.12a2.72,2.72,0,0,1,.83-.6.84.84,0,0,1,.82.07,1.93,1.93,0,0,1,.86,1.82l0,5.28,1.69,1,0-5.42a5.64,5.64,0,0,0-.13-1.25,5.05,5.05,0,0,0-.41-1.13,4.48,4.48,0,0,0-.67-1,3.88,3.88,0,0,0-.94-.75" transform="translate(-528.67 -44.13)"/><path class="cls-20" d="M1003.3,345l-1.73-.48v2.07l-1.9-1.1V347l1.89,1.1v3.94a5.69,5.69,0,0,0,.15,1.35,4.24,4.24,0,0,0,.48,1.16,4.75,4.75,0,0,0,.83,1,6.86,6.86,0,0,0,1.19.86c.29.16.58.3.89.44s.62.24.92.34v-1.56a6,6,0,0,1-.73-.23,5,5,0,0,1-.81-.39,2.36,2.36,0,0,1-.93-.89,2.53,2.53,0,0,1-.27-1.2v-3.8l2.74,1.58v-1.52l-2.74-1.58V345" transform="translate(-528.67 -44.13)"/><polyline class="cls-21" points="491.17 309.85 487.45 307.7 487.45 309.21 489.44 310.36 489.42 318.58 487.18 317.29 487.18 318.81 493.17 322.27 493.18 320.75 491.15 319.58 491.17 309.85"/><path class="cls-22" d="M1037.33,371.79l-5.95-3.44v1.54l6,3.44v-1.54m0-3.14-6-3.44v1.55l6,3.43v-1.54" transform="translate(-528.67 -44.13)"/><polyline class="cls-23" points="522.5 328.71 521.08 327.89 518.2 327.98 518.75 329.88 520.76 329.76 520.74 336.45 518.43 335.12 518.43 336.85 524.46 340.33 524.46 338.6 522.48 337.45 522.5 328.71"/><path class="cls-22" d="M1057.63,384.08a1.18,1.18,0,0,0-.48-.16.54.54,0,0,0-.36.09.57.57,0,0,0-.22.28,1.08,1.08,0,0,0-.08.44,1.73,1.73,0,0,0,.06.47,2.86,2.86,0,0,0,.15.41,3.24,3.24,0,0,0,.19.37l.19.37a1.66,1.66,0,0,1,.14.37,1.54,1.54,0,0,1,.06.43.55.55,0,0,1-.57.64,1.85,1.85,0,0,1-.63-.14,4.7,4.7,0,0,1-.61-.29l-.17-.11v1.27a5.05,5.05,0,0,0,1.65.67,2.06,2.06,0,0,0,1.18-.09,1.39,1.39,0,0,0,.7-.73,3,3,0,0,0,.24-1.26,4.46,4.46,0,0,0-.09-.88,4.35,4.35,0,0,0-.29-.86,3.39,3.39,0,0,0-.45-.76,2.35,2.35,0,0,0-.61-.53" transform="translate(-528.67 -44.13)"/><path class="cls-21" d="M1074.49,388.52a2.64,2.64,0,0,0-.71-.31,1.42,1.42,0,0,0-.59-.07,1.12,1.12,0,0,0-.49.14,1.38,1.38,0,0,0-.4.33l0-1.21-1.53-.89,0,8.1,1.73,1v-5.12a2.23,2.23,0,0,1,.88-.66.91.91,0,0,1,.77.1,1.15,1.15,0,0,1,.38.31,1.54,1.54,0,0,1,.28.47,2.25,2.25,0,0,1,.17.62,6.21,6.21,0,0,1,0,.79l1.69,1a6.67,6.67,0,0,0-.11-1.51,5.49,5.49,0,0,0-.41-1.28,4.32,4.32,0,0,0-.69-1,4.08,4.08,0,0,0-1-.75" transform="translate(-528.67 -44.13)"/><path class="cls-22" d="M1091.94,403.31l-6-3.44v1.54l6,3.45v-1.55m0-3.14-6-3.44v1.55l6,3.44v-1.55" transform="translate(-528.67 -44.13)"/><path class="cls-21" d="M1105.37,406.34a2.67,2.67,0,0,0-.7-.3,1.49,1.49,0,0,0-.58-.06,1.25,1.25,0,0,0-.51.14,2.08,2.08,0,0,0-.44.31l-.05-1.22-1.46-.85,0,8.09,1.69,1,0-5.12a2.72,2.72,0,0,1,.83-.6.87.87,0,0,1,.82.07,1.93,1.93,0,0,1,.86,1.82l0,5.28,1.69,1,0-5.43a5.64,5.64,0,0,0-.13-1.25,4.55,4.55,0,0,0-1.08-2.09,4.37,4.37,0,0,0-.94-.75" transform="translate(-528.67 -44.13)"/><path class="cls-22" d="M1112.32,415.66a1.25,1.25,0,0,0-.49-.17.57.57,0,0,0-.35.09.64.64,0,0,0-.22.29,1.23,1.23,0,0,0-.08.44,2.26,2.26,0,0,0,0,.47,2.37,2.37,0,0,0,.15.4c.06.13.13.25.19.37s.14.25.19.37a2.15,2.15,0,0,1,.15.38,1.49,1.49,0,0,1,.06.43.67.67,0,0,1-.15.48.61.61,0,0,1-.43.15,2,2,0,0,1-.62-.13,4.86,4.86,0,0,1-.61-.3l-.17-.1v1.27a5.36,5.36,0,0,0,1.66.66,2,2,0,0,0,1.18-.08,1.49,1.49,0,0,0,.7-.74,3,3,0,0,0,.24-1.26,4,4,0,0,0-.1-.88,4.32,4.32,0,0,0-.28-.86,3,3,0,0,0-.46-.75,2.14,2.14,0,0,0-.6-.53m0-5.17a1.16,1.16,0,0,0-.48-.17.64.64,0,0,0-.4.07.63.63,0,0,0-.27.31,1.24,1.24,0,0,0-.1.5,2,2,0,0,0,.1.62,3,3,0,0,0,.26.61,3.51,3.51,0,0,0,.4.53,2.16,2.16,0,0,0,.48.39,1.24,1.24,0,0,0,.5.17.62.62,0,0,0,.39-.07.61.61,0,0,0,.27-.3,1.13,1.13,0,0,0,.1-.51,1.9,1.9,0,0,0-.1-.61,2.81,2.81,0,0,0-.26-.62,2.55,2.55,0,0,0-.4-.53,1.83,1.83,0,0,0-.49-.39" transform="translate(-528.67 -44.13)"/><polyline class="cls-24" points="462.67 316.15 461.14 315.27 460.7 319.58 460.57 320.78 460.25 319.44 459.5 316.56 458.21 315.81 457.49 317.86 457.21 318.82 457.09 317.51 456.6 312.64 455 311.72 455.97 320.38 457.85 321.47 458.58 319.35 458.81 318.57 459.04 319.58 459.78 322.58 461.66 323.66 462.67 316.15"/><path class="cls-24" d="M994.07,358.69l-1.69-1,0,11.25,1.7,1v-5.12a3.05,3.05,0,0,1,.83-.6.86.86,0,0,1,.82.07,1.91,1.91,0,0,1,.86,1.83v5.27l1.69,1v-5.43a5.67,5.67,0,0,0-.13-1.24,5.13,5.13,0,0,0-.4-1.12,3.84,3.84,0,0,0-.67-1,3.71,3.71,0,0,0-.95-.75,3.05,3.05,0,0,0-.65-.3,1.62,1.62,0,0,0-.56-.07,1,1,0,0,0-.47.11,2.39,2.39,0,0,0-.45.28l.09-1.42v-2.77" transform="translate(-528.67 -44.13)"/><path class="cls-24" d="M1004.17,367.69l-3.71-2.14v1.51l2,1.14,0,5.07L1000.2,372v1.51l6,3.46v-1.51l-2-1.17,0-6.58m-.94-4a1.29,1.29,0,0,0-.45-.16.57.57,0,0,0-.35.08.64.64,0,0,0-.24.27,1.15,1.15,0,0,0-.08.44,2.15,2.15,0,0,0,.08.55,3.14,3.14,0,0,0,.23.53,2.74,2.74,0,0,0,.36.48,1.83,1.83,0,0,0,.44.35,1,1,0,0,0,.43.15.57.57,0,0,0,.35-.07.56.56,0,0,0,.24-.26,1.21,1.21,0,0,0,.08-.45,1.73,1.73,0,0,0-.08-.54,3.25,3.25,0,0,0-.23-.54,2.81,2.81,0,0,0-.35-.48,2,2,0,0,0-.43-.35" transform="translate(-528.67 -44.13)"/><polyline class="cls-24" points="483.32 324.9 479.6 322.76 479.6 324.27 481.58 325.42 481.56 333.64 479.33 332.35 479.33 333.86 485.31 337.32 485.32 335.81 483.29 334.64 483.32 324.9"/><path class="cls-24" d="M1017.25,378.4a1.42,1.42,0,0,1,.49-1.11,1,1,0,0,1,1,.12,2.38,2.38,0,0,1,.54.42,3.36,3.36,0,0,1,.45.6,3.76,3.76,0,0,1,.3.76,3.57,3.57,0,0,1,.1.89l-2.93-1.68m1.58-2.42a3.18,3.18,0,0,0-1.37-.48,1.46,1.46,0,0,0-1,.3,1.94,1.94,0,0,0-.67,1,5,5,0,0,0-.24,1.66,6.9,6.9,0,0,0,.23,1.89,6.72,6.72,0,0,0,.67,1.66,6.63,6.63,0,0,0,1.08,1.4,7.08,7.08,0,0,0,1.44,1.09c.21.12.43.25.66.36s.44.21.67.3l.65.25.59.18V384a9.66,9.66,0,0,1-2.31-1,3.94,3.94,0,0,1-.8-.61,3.37,3.37,0,0,1-.63-.78,4.26,4.26,0,0,1-.4-.9,3.88,3.88,0,0,1-.14-1l4.63,2.68c0-.19,0-.38,0-.59s0-.37,0-.51a6.34,6.34,0,0,0-.19-1.56,6.27,6.27,0,0,0-1.55-2.78,5.79,5.79,0,0,0-1.32-1" transform="translate(-528.67 -44.13)"/><path class="cls-22" d="M1027.92,377.61a5.85,5.85,0,0,0-1.39.76,4.62,4.62,0,0,0-1.08,1.16,5.47,5.47,0,0,0-.71,1.62,8.53,8.53,0,0,0-.26,2.14,13.56,13.56,0,0,0,.84,4.54,23.92,23.92,0,0,0,2.51,5l1-.59a19.68,19.68,0,0,1-2-4.22,12.54,12.54,0,0,1-.68-3.87,6.08,6.08,0,0,1,.7-3,4.24,4.24,0,0,1,2-1.85l-1-1.66" transform="translate(-528.67 -44.13)"/><polyline class="cls-21" points="506.72 338.42 503 336.27 503 337.78 504.98 338.92 504.96 347.15 502.73 345.86 502.73 347.37 508.71 350.83 508.72 349.32 506.69 348.15 506.72 338.42"/><polyline class="cls-22" points="522.72 350.06 518.04 351.87 522.7 359.09 523.78 358.46 520.35 353.19 523.8 351.93 522.72 350.06"/><path class="cls-21" d="M1066.63,403.58a3.51,3.51,0,0,0-.7-.32,1.61,1.61,0,0,0-.6-.06,1,1,0,0,0-.49.15,1.19,1.19,0,0,0-.39.33l-.06-1.22-1.53-.88,0,8.08,1.73,1v-5.11a2.09,2.09,0,0,1,.89-.66.88.88,0,0,1,.77.09,1.61,1.61,0,0,1,.38.31,1.77,1.77,0,0,1,.28.47,2.58,2.58,0,0,1,.16.61,4,4,0,0,1,0,.8l1.7,1a8.07,8.07,0,0,0-.11-1.51,5.06,5.06,0,0,0-.42-1.28,4.22,4.22,0,0,0-.68-1,4.12,4.12,0,0,0-1-.76" transform="translate(-528.67 -44.13)"/><path class="cls-22" d="M1072,403.07l-1,.58a19.81,19.81,0,0,1,2,4.23,12.13,12.13,0,0,1,.66,3.86,6.21,6.21,0,0,1-.68,3,4.24,4.24,0,0,1-2,1.84l1,1.67a5.45,5.45,0,0,0,1.38-.76,4.63,4.63,0,0,0,1.07-1.17,5.65,5.65,0,0,0,.7-1.63,8.17,8.17,0,0,0,.25-2.14,13.4,13.4,0,0,0-.81-4.53,24,24,0,0,0-2.52-5" transform="translate(-528.67 -44.13)"/><path class="cls-22" d="M1091.32,414.48l-.58-.34a4.29,4.29,0,0,0-1.29-.53,1.2,1.2,0,0,0-.88.12,1.24,1.24,0,0,0-.52.74,4.58,4.58,0,0,0-.17,1.35v1.4a2.5,2.5,0,0,1-.07.67.59.59,0,0,1-.25.35.56.56,0,0,1-.43,0,2.11,2.11,0,0,1-.63-.27l-.44-.25v1.5l.43.25a2.61,2.61,0,0,1,1.06,1,3,3,0,0,1,.32,1.42v2a5.23,5.23,0,0,0,2.84,4.94l.58.34v-1.5l-.43-.25a3.82,3.82,0,0,1-.6-.43,2.75,2.75,0,0,1-.46-.56,2.8,2.8,0,0,1-.3-.73,4.08,4.08,0,0,1-.1-.91v-2a4.82,4.82,0,0,0-.35-1.95,3.3,3.3,0,0,0-1.11-1.3,2.11,2.11,0,0,0,.65.16.66.66,0,0,0,.47-.18,1.28,1.28,0,0,0,.27-.55,5,5,0,0,0,.08-1v-1.39a2.64,2.64,0,0,1,.1-.78.61.61,0,0,1,.3-.37.64.64,0,0,1,.46,0,2.47,2.47,0,0,1,.6.26l.44.25v-1.5" transform="translate(-528.67 -44.13)"/><path class="cls-20" d="M1014.06,393l-3.72-2.15v1.51l2,1.15v5.06l-2.24-1.29v1.51l6,3.46v-1.51l-2-1.17,0-6.57m-1-4.05a1,1,0,0,0-.44-.15.52.52,0,0,0-.35.07.58.58,0,0,0-.24.27,1.15,1.15,0,0,0-.08.44,2,2,0,0,0,.08.54,2.17,2.17,0,0,0,.24.54,2,2,0,0,0,.35.48,1.83,1.83,0,0,0,.44.35.93.93,0,0,0,.43.15.5.5,0,0,0,.35-.07.51.51,0,0,0,.24-.26,1.43,1.43,0,0,0,.09-.45,2.18,2.18,0,0,0-.09-.54,2.31,2.31,0,0,0-.23-.54,2.81,2.81,0,0,0-.35-.48,2.05,2.05,0,0,0-.44-.35" transform="translate(-528.67 -44.13)"/><path class="cls-20" d="M1021.59,397.17a2.9,2.9,0,0,0-.7-.31,1.71,1.71,0,0,0-.58-.06,1.25,1.25,0,0,0-.51.14,3,3,0,0,0-.45.31l0-1.22-1.46-.84,0,8.08,1.69,1v-5.12a2.75,2.75,0,0,1,.84-.6.9.9,0,0,1,.82.07,1.92,1.92,0,0,1,.85,1.83v5.27l1.69,1,0-5.42a6.38,6.38,0,0,0-.13-1.25,5,5,0,0,0-.41-1.12,4.3,4.3,0,0,0-.67-1,4,4,0,0,0-.94-.74" transform="translate(-528.67 -44.13)"/><path class="cls-20" d="M1028.73,398.87l-1.73-.47v2.07l-1.89-1.1v1.51l1.9,1.1v3.94a5.64,5.64,0,0,0,.15,1.35,4,4,0,0,0,.48,1.16,4.75,4.75,0,0,0,.83,1,6.5,6.5,0,0,0,1.19.86,9,9,0,0,0,.88.44c.32.13.62.24.93.34V409.5l-.72-.23a5.51,5.51,0,0,1-.81-.4,2.29,2.29,0,0,1-.93-.89,2.53,2.53,0,0,1-.27-1.2V403l2.74,1.58v-1.51l-2.74-1.59v-2.59" transform="translate(-528.67 -44.13)"/><path class="cls-21" d="M1046.18,411.38a1.82,1.82,0,0,0-.45-.19.69.69,0,0,0-.38,0,.89.89,0,0,0-.35.22,2.55,2.55,0,0,0-.32.42,2.8,2.8,0,0,0-.35-1.19,2.41,2.41,0,0,0-.9-.86,1.33,1.33,0,0,0-.44-.19.69.69,0,0,0-.38,0,.86.86,0,0,0-.33.23,3.49,3.49,0,0,0-.3.43l0-1.19-1.25-.72,0,8.08,1.46.85,0-5.25a2.61,2.61,0,0,1,.49-.85c.15-.14.28-.18.4-.11a.93.93,0,0,1,.23.21,1,1,0,0,1,.12.3,2.3,2.3,0,0,1,0,.41c0,.16,0,.34,0,.53l0,5.51,1.45.84v-5.24a2.88,2.88,0,0,1,.48-.87.31.31,0,0,1,.42-.09.61.61,0,0,1,.22.2,1,1,0,0,1,.12.3c0,.11,0,.25.06.41s0,.34,0,.53l0,5.51,1.46.85,0-5.81a5,5,0,0,0-.37-2,2.64,2.64,0,0,0-1.13-1.27" transform="translate(-528.67 -44.13)"/><path class="cls-21" d="M1053.06,415.52l-3.72-2.15v1.51l2,1.15,0,5.06-2.23-1.29v1.51l6,3.46v-1.51l-2-1.17,0-6.57m-1-4a1.09,1.09,0,0,0-.44-.15.5.5,0,0,0-.35.06.6.6,0,0,0-.24.28,1.15,1.15,0,0,0-.09.44,1.7,1.7,0,0,0,.09.54,2.14,2.14,0,0,0,.23.54,3.27,3.27,0,0,0,.35.48,1.83,1.83,0,0,0,.44.35.92.92,0,0,0,.44.15.58.58,0,0,0,.35-.07.48.48,0,0,0,.23-.27,1,1,0,0,0,.08-.44,1.73,1.73,0,0,0-.08-.54,2.31,2.31,0,0,0-.23-.54,1.85,1.85,0,0,0-.35-.48,1.79,1.79,0,0,0-.43-.35" transform="translate(-528.67 -44.13)"/><path class="cls-21" d="M1059.4,425.79a2.22,2.22,0,0,1-.53-.44,2.5,2.5,0,0,1-.38-.67,4,4,0,0,1-.23-.91,8.32,8.32,0,0,1-.08-1.18,4,4,0,0,1,.13-1.07,1.35,1.35,0,0,1,.36-.65.79.79,0,0,1,.56-.21,1.4,1.4,0,0,1,.74.23,6.54,6.54,0,0,1,.58.39,3.81,3.81,0,0,1,.5.44v3.52a2.66,2.66,0,0,1-.83.62.85.85,0,0,1-.81-.07m3.36-7.84-1.7-1v3.16a5,5,0,0,0-.48-.37,4,4,0,0,0-.53-.35,4.43,4.43,0,0,0-1.45-.58,1.69,1.69,0,0,0-1.15.13,1.71,1.71,0,0,0-.76.91,4.61,4.61,0,0,0-.28,1.78,8.7,8.7,0,0,0,.17,1.79,6.55,6.55,0,0,0,.5,1.57,5.31,5.31,0,0,0,.81,1.29,4.26,4.26,0,0,0,1.11.92,2.32,2.32,0,0,0,.68.3,1.94,1.94,0,0,0,.57.06,1.49,1.49,0,0,0,.52-.15,2.35,2.35,0,0,0,.45-.3l0,1.22,1.46.84,0-11.24" transform="translate(-528.67 -44.13)"/><path class="cls-22" d="M1078.36,434.67l-6-3.45v1.55l6,3.44v-1.54m0-3.14-6-3.44v1.54l6,3.44v-1.54" transform="translate(-528.67 -44.13)"/><path class="cls-22" d="M1092.4,434.44a5.78,5.78,0,0,0-1.38.76,4.65,4.65,0,0,0-1.09,1.16,5.22,5.22,0,0,0-.7,1.62,8.09,8.09,0,0,0-.26,2.14,13.44,13.44,0,0,0,.83,4.53,24.23,24.23,0,0,0,2.51,5l1-.6a18.8,18.8,0,0,1-2-4.22,12.14,12.14,0,0,1-.68-3.86,6.26,6.26,0,0,1,.69-3,4.26,4.26,0,0,1,2-1.84l-1-1.66" transform="translate(-528.67 -44.13)"/><polyline class="cls-21" points="571.21 395.25 567.49 393.1 567.48 394.61 569.47 395.75 569.45 403.98 567.22 402.69 567.21 404.2 573.2 407.66 573.21 406.15 571.18 404.98 571.21 395.25"/><polyline class="cls-22" points="586.52 407.12 584.95 406.22 584.95 409.3 582.37 407.81 582.36 409.41 584.94 410.9 584.93 413.99 586.5 414.89 586.5 411.8 589.08 413.29 589.09 411.69 586.51 410.2 586.52 407.12"/><path class="cls-21" d="M1131.12,460.41a2.9,2.9,0,0,0-.71-.32,1.79,1.79,0,0,0-.59-.07,1.27,1.27,0,0,0-.88.48l-.06-1.21-1.53-.89,0,8.09,1.74,1v-5.12a2.33,2.33,0,0,1,.88-.66,1,1,0,0,1,.77.09,1.5,1.5,0,0,1,.38.32,1.42,1.42,0,0,1,.28.46,2.25,2.25,0,0,1,.17.62,3.44,3.44,0,0,1,0,.8l1.7,1a6.67,6.67,0,0,0-.11-1.51,5.34,5.34,0,0,0-.41-1.28,4.07,4.07,0,0,0-.69-1,3.66,3.66,0,0,0-1-.76" transform="translate(-528.67 -44.13)"/><path class="cls-22" d="M1136.49,459.89l-1,.59a19.3,19.3,0,0,1,2,4.23,12.4,12.4,0,0,1,.67,3.86,6.13,6.13,0,0,1-.69,3,4.27,4.27,0,0,1-2,1.84l1,1.67a5.53,5.53,0,0,0,1.37-.76,4.44,4.44,0,0,0,1.07-1.17,5.63,5.63,0,0,0,.71-1.63,8.61,8.61,0,0,0,.25-2.14,13.27,13.27,0,0,0-.82-4.54,23.51,23.51,0,0,0-2.52-5" transform="translate(-528.67 -44.13)"/><polyline class="cls-22" points="627.83 427.94 626.18 426.98 621.3 437.15 622.95 438.09 627.83 427.94"/><path class="cls-23" d="M1168.89,479.89a3.75,3.75,0,0,0-1.6-.54,2.56,2.56,0,0,0-1.33.24l.89,1.83a1.81,1.81,0,0,1,1.86.1,2.55,2.55,0,0,1,.55.43,2.71,2.71,0,0,1,.41.55,2.89,2.89,0,0,1,.24.6,2.62,2.62,0,0,1,.08.61,3.24,3.24,0,0,1-.07.65,1.51,1.51,0,0,1-.26.58,2.55,2.55,0,0,1-.57.57,7.93,7.93,0,0,1-1,.64l-2.15,1.23v1.43l6.14,3.54v-1.79l-3.81-2.2,1.32-.68a8.31,8.31,0,0,0,.92-.54,3.22,3.22,0,0,0,.69-.63,2.47,2.47,0,0,0,.43-.8,4.12,4.12,0,0,0,.15-1.07,5,5,0,0,0-.21-1.45,5.29,5.29,0,0,0-.59-1.3,6.09,6.09,0,0,0-.93-1.11,6.23,6.23,0,0,0-1.2-.89" transform="translate(-528.67 -44.13)"/><path class="cls-22" d="M1176.75,492.05a1,1,0,0,0-.49-.16.57.57,0,0,0-.35.08.58.58,0,0,0-.22.3,1.14,1.14,0,0,0-.08.43,1.73,1.73,0,0,0,.06.47,2.7,2.7,0,0,0,.14.4l.19.38a3.13,3.13,0,0,1,.19.36,2.5,2.5,0,0,1,.15.38,1.44,1.44,0,0,1,.06.43.66.66,0,0,1-.15.48.58.58,0,0,1-.42.15,1.85,1.85,0,0,1-.63-.14,5.7,5.7,0,0,1-.67-.32l-.11-.07v1.27a5.54,5.54,0,0,0,1.65.67,2.05,2.05,0,0,0,1.18-.09,1.47,1.47,0,0,0,.7-.73,3,3,0,0,0,.24-1.26,4.44,4.44,0,0,0-.38-1.75,3.47,3.47,0,0,0-.45-.75,2.33,2.33,0,0,0-.61-.53m0-5.17a1.11,1.11,0,0,0-.48-.17.59.59,0,0,0-.4.08.67.67,0,0,0-.27.3,1.43,1.43,0,0,0-.1.5,2.29,2.29,0,0,0,.1.62,2.37,2.37,0,0,0,.27.61,2.9,2.9,0,0,0,.39.53,2,2,0,0,0,.49.39,1.11,1.11,0,0,0,.49.17.62.62,0,0,0,.66-.37,1.25,1.25,0,0,0,.1-.51,2.35,2.35,0,0,0-.1-.62,2.87,2.87,0,0,0-.26-.6,2.36,2.36,0,0,0-.4-.54,2,2,0,0,0-.49-.39" transform="translate(-528.67 -44.13)"/><path class="cls-24" d="M1014,412.56l-3.72-2.15v1.52l2,1.15,0,5.06-2.23-1.29v1.51l6,3.46v-1.51l-2-1.17,0-6.58m-1-4.05a1.09,1.09,0,0,0-.44-.15.55.55,0,0,0-.35.07.63.63,0,0,0-.24.27,1.16,1.16,0,0,0-.09.45,2,2,0,0,0,.09.54,2.31,2.31,0,0,0,.23.54,3.19,3.19,0,0,0,.35.47,1.78,1.78,0,0,0,.44.35,1,1,0,0,0,.44.16.67.67,0,0,0,.35-.07.64.64,0,0,0,.24-.27,1.12,1.12,0,0,0,.08-.44,2.15,2.15,0,0,0-.08-.55,3.19,3.19,0,0,0-.24-.54,2,2,0,0,0-.35-.47,1.83,1.83,0,0,0-.43-.36" transform="translate(-528.67 -44.13)"/><path class="cls-24" d="M1022.49,414.14a5.12,5.12,0,0,0-1.25-.54,1.57,1.57,0,0,0-1,0,1.12,1.12,0,0,0-.61.65,3.33,3.33,0,0,0-.22,1.35v1.23l-2-1.18v1.51l2,1.18,0,5.42,1.7,1,0-5.42,2.76,1.6v-1.51l-2.77-1.6v-1.31a1.73,1.73,0,0,1,.12-.68.71.71,0,0,1,.29-.34.68.68,0,0,1,.45,0,2.09,2.09,0,0,1,.55.23,9.14,9.14,0,0,1,.86.57c.27.21.52.41.72.6v-1.57c-.23-.19-.49-.4-.76-.6s-.56-.39-.87-.57" transform="translate(-528.67 -44.13)"/><path class="cls-22" d="M1029.94,418a6.16,6.16,0,0,0-1.38.76,4.78,4.78,0,0,0-1.08,1.16,5.45,5.45,0,0,0-.71,1.62,8.22,8.22,0,0,0-.26,2.15,13.47,13.47,0,0,0,.83,4.52,24.11,24.11,0,0,0,2.52,5l1-.61a19.18,19.18,0,0,1-2-4.21,12.51,12.51,0,0,1-.67-3.87,6.17,6.17,0,0,1,.69-3,4.24,4.24,0,0,1,2-1.83l-1-1.67" transform="translate(-528.67 -44.13)"/><path class="cls-21" d="M1037.06,425.75a4.2,4.2,0,0,0-1.52-.58,1.87,1.87,0,0,0-1.17.18,1.85,1.85,0,0,0-.75.92,4.13,4.13,0,0,0-.27,1.61,6.92,6.92,0,0,0,.24,1.9,6.73,6.73,0,0,0,1.83,3.13,7.83,7.83,0,0,0,1.51,1.13,7.39,7.39,0,0,0,1.11.53,4.67,4.67,0,0,0,1,.25V433.1l-.45-.07-.49-.13-.49-.18a4.93,4.93,0,0,1-.46-.23,4,4,0,0,1-.83-.65,4.14,4.14,0,0,1-.65-.86,4.7,4.7,0,0,1-.4-1,4.33,4.33,0,0,1-.15-1.13,2.93,2.93,0,0,1,.14-.95,1.23,1.23,0,0,1,.39-.57,1,1,0,0,1,.64-.14,2.09,2.09,0,0,1,.84.3,8,8,0,0,1,1,.69,9,9,0,0,1,.93.92v-1.89c-.25-.22-.53-.46-.84-.7a11.34,11.34,0,0,0-1.16-.74" transform="translate(-528.67 -44.13)"/><path class="cls-21" d="M1042.9,426.08l-1.69-1,0,11.25,1.69,1,0-5.12a2.8,2.8,0,0,1,.82-.61.86.86,0,0,1,.83.08,1.93,1.93,0,0,1,.85,1.82l0,5.27,1.7,1v-5.43a5.55,5.55,0,0,0-.13-1.24,4.67,4.67,0,0,0-1.07-2.09,4.31,4.31,0,0,0-.94-.75,2.77,2.77,0,0,0-.66-.29,1.65,1.65,0,0,0-.56-.08,1,1,0,0,0-.48.12,2.1,2.1,0,0,0-.43.28l.08-1.42v-2.77" transform="translate(-528.67 -44.13)"/><polyline class="cls-21" points="522.02 386.6 520.33 385.62 520.3 396.87 521.99 397.84 522 393.8 524.59 399.34 526.79 400.62 523.72 394.43 526.58 392.39 524.47 391.17 522 393.18 522.02 386.6"/><path class="cls-22" d="M1061.06,436.09a5.78,5.78,0,0,0-1.38.76,4.83,4.83,0,0,0-1.09,1.16,5.59,5.59,0,0,0-.71,1.62,8.17,8.17,0,0,0-.25,2.14,13.28,13.28,0,0,0,.83,4.53,24.31,24.31,0,0,0,2.52,5l1-.6a19.46,19.46,0,0,1-2-4.22,12.4,12.4,0,0,1-.67-3.86,6.17,6.17,0,0,1,.69-3,4.31,4.31,0,0,1,2-1.84l-1-1.66" transform="translate(-528.67 -44.13)"/><path class="cls-21" d="M1069.44,444.56a1.82,1.82,0,0,0-.45-.19.81.81,0,0,0-.38,0,1,1,0,0,0-.34.22,2.68,2.68,0,0,0-.33.43,2.8,2.8,0,0,0-.35-1.19,2.36,2.36,0,0,0-.9-.87,1.68,1.68,0,0,0-.45-.19.78.78,0,0,0-.37,0,1,1,0,0,0-.32.23,3.64,3.64,0,0,0-.31.44l0-1.2-1.26-.72,0,8.09,1.46.85,0-5.25a2.81,2.81,0,0,1,.49-.85c.15-.14.29-.18.41-.11a.73.73,0,0,1,.22.21.84.84,0,0,1,.12.29,3.84,3.84,0,0,1,.06.42c0,.15,0,.33,0,.53l0,5.51,1.45.84,0-5.24a2.7,2.7,0,0,1,.47-.87.32.32,0,0,1,.43-.09.57.57,0,0,1,.21.2.84.84,0,0,1,.12.29,2.35,2.35,0,0,1,.06.42c0,.15,0,.33,0,.53l0,5.51,1.47.85v-5.81a4.84,4.84,0,0,0-.36-2,2.66,2.66,0,0,0-1.14-1.27" transform="translate(-528.67 -44.13)"/><path class="cls-21" d="M1076.33,448.69l-3.73-2.15v1.52l2,1.14v5.07l-2.23-1.29v1.51l6,3.46v-1.51l-2-1.17,0-6.58m-1-4a1.09,1.09,0,0,0-.44-.15.51.51,0,0,0-.35.06.7.7,0,0,0-.24.27,1.25,1.25,0,0,0-.08.45,2,2,0,0,0,.08.54,2.58,2.58,0,0,0,.23.54,3.27,3.27,0,0,0,.35.48,2.42,2.42,0,0,0,.44.35,1.21,1.21,0,0,0,.44.15.67.67,0,0,0,.35-.07.52.52,0,0,0,.23-.27,1,1,0,0,0,.09-.44,1.81,1.81,0,0,0-.09-.55,2.2,2.2,0,0,0-.22-.53,3,3,0,0,0-.35-.48,2.33,2.33,0,0,0-.44-.35" transform="translate(-528.67 -44.13)"/><path class="cls-21" d="M1082.66,459a2,2,0,0,1-.52-.44,2.57,2.57,0,0,1-.39-.67,4.82,4.82,0,0,1-.23-.91,8.47,8.47,0,0,1-.07-1.19,4,4,0,0,1,.12-1.06,1.54,1.54,0,0,1,.36-.65.78.78,0,0,1,.57-.22,1.57,1.57,0,0,1,.73.23,5.57,5.57,0,0,1,.59.4,4.41,4.41,0,0,1,.49.43v3.53a2.76,2.76,0,0,1-.82.62.87.87,0,0,1-.82-.07m3.36-7.84-1.69-1v3.15l-.47-.37c-.18-.13-.36-.24-.53-.34a4.52,4.52,0,0,0-1.45-.58,1.59,1.59,0,0,0-1.92,1,4.75,4.75,0,0,0-.28,1.77,9.3,9.3,0,0,0,.17,1.79,7,7,0,0,0,.5,1.58,5.63,5.63,0,0,0,.81,1.29,4.26,4.26,0,0,0,1.11.92,3,3,0,0,0,.68.3,2,2,0,0,0,.58.05,1.29,1.29,0,0,0,.51-.14,2.52,2.52,0,0,0,.45-.3l0,1.22,1.46.84,0-11.24" transform="translate(-528.67 -44.13)"/><path class="cls-22" d="M1089.55,452.54l-1,.58a19.34,19.34,0,0,1,2,4.23,12.5,12.5,0,0,1,.67,3.86,6.21,6.21,0,0,1-.69,3,4.17,4.17,0,0,1-2,1.84l1,1.67a5.78,5.78,0,0,0,1.38-.76,4.15,4.15,0,0,0,1.07-1.17,5.5,5.5,0,0,0,.7-1.63,8,8,0,0,0,.26-2.14,13.67,13.67,0,0,0-.82-4.53,23.28,23.28,0,0,0-2.52-5" transform="translate(-528.67 -44.13)"/><polyline class="cls-22" points="579.27 422.04 574.59 423.86 579.25 431.08 580.33 430.44 576.9 425.18 580.35 423.93 579.27 422.04"/><path class="cls-22" d="M1117.23,476.85l-6-3.44V475l6,3.44v-1.54m0-3.14-6-3.44v1.55l6,3.44v-1.55" transform="translate(-528.67 -44.13)"/><polyline class="cls-21" points="600.03 431.63 598.34 430.66 598.3 441.9 600 442.88 600.01 438.84 602.59 444.38 604.8 445.65 601.73 439.47 604.59 437.43 602.48 436.21 600.01 438.21 600.03 431.63"/><path class="cls-22" d="M1136.36,479.56l-1,.58a19.65,19.65,0,0,1,2,4.24,12.37,12.37,0,0,1,.66,3.86,6.17,6.17,0,0,1-.68,3,4.31,4.31,0,0,1-2,1.85l1,1.66a5.29,5.29,0,0,0,1.38-.76,4.44,4.44,0,0,0,1.08-1.16,5.9,5.9,0,0,0,.7-1.63,8.59,8.59,0,0,0,.26-2.14,13.73,13.73,0,0,0-.82-4.54,24,24,0,0,0-2.52-5" transform="translate(-528.67 -44.13)"/><path class="cls-21" d="M1154.38,493.58a3,3,0,0,0-.7-.31,1.88,1.88,0,0,0-.6-.07,1.34,1.34,0,0,0-.49.15,1.32,1.32,0,0,0-.39.33l-.06-1.22-1.53-.88,0,8.09,1.73,1v-5.12a2.14,2.14,0,0,1,.88-.66.94.94,0,0,1,.77.09,1.34,1.34,0,0,1,.39.32,1.88,1.88,0,0,1,.28.46,2.67,2.67,0,0,1,.16.62,4,4,0,0,1,0,.8l1.7,1a7.94,7.94,0,0,0-.11-1.51,5.14,5.14,0,0,0-.42-1.29,4.46,4.46,0,0,0-.69-1,3.92,3.92,0,0,0-.95-.76" transform="translate(-528.67 -44.13)"/><path class="cls-22" d="M1171.83,508.38l-6-3.44v1.54l6,3.44v-1.54m0-3.14-6-3.44v1.54l6,3.45v-1.55" transform="translate(-528.67 -44.13)"/><path class="cls-21" d="M1186.45,512.12a1.73,1.73,0,0,0-.45-.2.81.81,0,0,0-.38,0,.86.86,0,0,0-.34.22,2.29,2.29,0,0,0-.33.43,2.63,2.63,0,0,0-.35-1.19,2.36,2.36,0,0,0-.9-.87,1.46,1.46,0,0,0-.44-.19.66.66,0,0,0-.37,0,.79.79,0,0,0-.33.23,2,2,0,0,0-.3.44l0-1.2-1.25-.72,0,8.09,1.47.85V512.8a2.48,2.48,0,0,1,.5-.85c.14-.15.28-.18.4-.11a.7.7,0,0,1,.22.2.82.82,0,0,1,.12.3,2.22,2.22,0,0,1,.06.42c0,.15,0,.33,0,.53l0,5.51,1.45.84,0-5.25a3,3,0,0,1,.47-.87.34.34,0,0,1,.43-.09.67.67,0,0,1,.21.2,1,1,0,0,1,.12.3,1.64,1.64,0,0,1,0,.41,4.36,4.36,0,0,1,0,.54v5.51l1.46.84v-5.8a4.94,4.94,0,0,0-.36-2,2.61,2.61,0,0,0-1.14-1.27" transform="translate(-528.67 -44.13)"/><path class="cls-21" d="M1193.34,516.25l-3.73-2.15v1.52l2,1.14,0,5.06-2.23-1.28v1.51l6,3.46V524l-2-1.16,0-6.58m-1-4a1,1,0,0,0-.44-.15.62.62,0,0,0-.36.07.69.69,0,0,0-.23.27,1.17,1.17,0,0,0-.08.45,1.73,1.73,0,0,0,.08.54,2.5,2.5,0,0,0,.23.53,2.41,2.41,0,0,0,.36.48,1.62,1.62,0,0,0,.44.35,1,1,0,0,0,.43.16.67.67,0,0,0,.35-.07.56.56,0,0,0,.23-.27,1,1,0,0,0,.09-.45,2.14,2.14,0,0,0-.08-.54,2.83,2.83,0,0,0-.23-.54,2.73,2.73,0,0,0-.35-.47,1.83,1.83,0,0,0-.44-.36" transform="translate(-528.67 -44.13)"/><path class="cls-21" d="M1199.67,526.52a1.67,1.67,0,0,1-.52-.44,2.33,2.33,0,0,1-.38-.66,3.77,3.77,0,0,1-.24-.91,8.47,8.47,0,0,1-.07-1.19,4,4,0,0,1,.12-1.06,1.48,1.48,0,0,1,.36-.65.83.83,0,0,1,.56-.23,1.49,1.49,0,0,1,.74.24,6.16,6.16,0,0,1,.59.4,4.59,4.59,0,0,1,.5.43V526a3.18,3.18,0,0,1-.83.62.87.87,0,0,1-.82-.08m3.36-7.84-1.69-1v3.15c-.14-.12-.3-.25-.48-.38s-.35-.24-.53-.34a4.77,4.77,0,0,0-1.44-.58,1.72,1.72,0,0,0-1.16.14,1.68,1.68,0,0,0-.76.91,5,5,0,0,0-.28,1.77,9.45,9.45,0,0,0,.17,1.79,6.87,6.87,0,0,0,.5,1.57,5.43,5.43,0,0,0,.81,1.29,4.43,4.43,0,0,0,1.11.93,2.71,2.71,0,0,0,.68.29,2,2,0,0,0,.58.06,1.5,1.5,0,0,0,.51-.15,2.13,2.13,0,0,0,.46-.3l0,1.23,1.45.84,0-11.25" transform="translate(-528.67 -44.13)"/><path class="cls-22" d="M1207.82,529.73a1.3,1.3,0,0,0-.49-.17.69.69,0,0,0-.36.09.72.72,0,0,0-.22.29,1.27,1.27,0,0,0-.07.44,1.74,1.74,0,0,0,0,.47,2.86,2.86,0,0,0,.15.41c.06.12.12.24.19.36s.13.25.19.37a2.5,2.5,0,0,1,.15.38,2,2,0,0,1,0,.43.67.67,0,0,1-.15.48.57.57,0,0,1-.42.15,2.08,2.08,0,0,1-.63-.13,4.19,4.19,0,0,1-.6-.3,1,1,0,0,1-.17-.1v1.27a5,5,0,0,0,1.65.66,2,2,0,0,0,1.18-.08,1.41,1.41,0,0,0,.7-.74,3,3,0,0,0,.24-1.26,4.43,4.43,0,0,0-.09-.87,4.12,4.12,0,0,0-.28-.86,3.84,3.84,0,0,0-.46-.76,2.29,2.29,0,0,0-.6-.53m0-5.17a1.15,1.15,0,0,0-.49-.17.7.7,0,0,0-.39.07.63.63,0,0,0-.27.31,1.12,1.12,0,0,0-.1.5,2.27,2.27,0,0,0,.09.62,3.05,3.05,0,0,0,.27.61,2.55,2.55,0,0,0,.4.53,2,2,0,0,0,.48.39,1.34,1.34,0,0,0,.49.18.64.64,0,0,0,.4-.08.6.6,0,0,0,.26-.3,1.13,1.13,0,0,0,.1-.51,2.2,2.2,0,0,0-.09-.61,4.14,4.14,0,0,0-.26-.61,3,3,0,0,0-.4-.53,2,2,0,0,0-.49-.4" transform="translate(-528.67 -44.13)"/><path class="cls-24" d="M1011.42,433.82a1.42,1.42,0,0,1,.49-1.11,1,1,0,0,1,1.05.12,2.71,2.71,0,0,1,.54.42,2.65,2.65,0,0,1,.44.6,3.27,3.27,0,0,1,.31.76,3.71,3.71,0,0,1,.1.9l-2.93-1.69m1.58-2.42a3.32,3.32,0,0,0-1.37-.48,1.46,1.46,0,0,0-1,.3,2.06,2.06,0,0,0-.68,1,5.3,5.3,0,0,0-.23,1.67,7.63,7.63,0,0,0,.22,1.88,6.74,6.74,0,0,0,.68,1.66,6.61,6.61,0,0,0,1.08,1.41,7.47,7.47,0,0,0,1.44,1.09c.21.12.43.24.66.35s.45.21.67.3.44.18.65.25.41.14.59.18v-1.54a8.2,8.2,0,0,1-1.21-.41,8.65,8.65,0,0,1-1.1-.54,3.66,3.66,0,0,1-.81-.61,3.87,3.87,0,0,1-.62-.78,4,4,0,0,1-.4-.9,3.86,3.86,0,0,1-.14-1l4.63,2.67c0-.18,0-.38,0-.59s0-.37,0-.5a5.55,5.55,0,0,0-.2-1.57,6.07,6.07,0,0,0-.58-1.48,6.61,6.61,0,0,0-1-1.3,6,6,0,0,0-1.32-1" transform="translate(-528.67 -44.13)"/><polyline class="cls-24" points="493.09 389.33 489.37 387.18 489.36 388.69 491.35 389.84 491.33 398.07 489.1 396.78 489.09 398.29 495.09 401.75 495.09 400.24 493.06 399.07 493.09 389.33"/><path class="cls-24" d="M1028.73,440.48a5.58,5.58,0,0,0-1.34-.58,2,2,0,0,0-1,0,.94.94,0,0,0-.58.43,1.58,1.58,0,0,0-.19.82,3.44,3.44,0,0,0,.12,1,3.72,3.72,0,0,0,.38.88,6.14,6.14,0,0,0,.65.87,9.75,9.75,0,0,0,.91.91c.38.33.67.62.9.85a6.29,6.29,0,0,1,.54.6,1.51,1.51,0,0,1,.26.44,1,1,0,0,1,.07.37c0,.27-.11.41-.33.44a1.69,1.69,0,0,1-1-.32,9.8,9.8,0,0,1-1.23-.85,12.85,12.85,0,0,1-1.29-1.2v1.75c.37.32.76.62,1.17.92s.89.59,1.4.89a5.78,5.78,0,0,0,1.15.52,2.28,2.28,0,0,0,1,.14,1.05,1.05,0,0,0,.71-.39,1.69,1.69,0,0,0,.28-1,3.26,3.26,0,0,0-.12-.9,3.21,3.21,0,0,0-.36-.87,5.78,5.78,0,0,0-.67-.9,14,14,0,0,0-1-1c-.36-.33-.65-.61-.87-.83a7.13,7.13,0,0,1-.51-.57,1.59,1.59,0,0,1-.24-.42,1,1,0,0,1-.07-.37c0-.26.11-.39.32-.41a1.39,1.39,0,0,1,.83.26,10.75,10.75,0,0,1,1.06.7,12.61,12.61,0,0,1,1.13,1V442c-.26-.22-.57-.46-.9-.7s-.74-.51-1.19-.77" transform="translate(-528.67 -44.13)"/><path class="cls-24" d="M1034.82,447.33a1.43,1.43,0,0,1,.49-1.11,1,1,0,0,1,1,.12,2.71,2.71,0,0,1,.54.42,3.36,3.36,0,0,1,.45.6,3.44,3.44,0,0,1,.3.76,3.71,3.71,0,0,1,.1.9l-2.93-1.69m1.58-2.42a3.27,3.27,0,0,0-1.37-.48,1.51,1.51,0,0,0-1,.3,2,2,0,0,0-.67,1,5,5,0,0,0-.24,1.67,7.05,7.05,0,0,0,.9,3.54,6.69,6.69,0,0,0,1.08,1.41,7.47,7.47,0,0,0,1.44,1.09c.21.12.43.24.66.35l.67.3c.22.09.44.18.65.25a4.76,4.76,0,0,0,.59.18V453a8.32,8.32,0,0,1-1.22-.41,8.65,8.65,0,0,1-1.1-.54,3.61,3.61,0,0,1-.8-.61,3.37,3.37,0,0,1-.63-.78,4,4,0,0,1-.4-.9,3.86,3.86,0,0,1-.14-1l4.63,2.67c0-.18,0-.37,0-.58v-.51a6,6,0,0,0-.19-1.57,6.5,6.5,0,0,0-.58-1.48,6.32,6.32,0,0,0-1-1.29,5.62,5.62,0,0,0-1.32-1" transform="translate(-528.67 -44.13)"/><polyline class="cls-21" points="524.29 407.35 520.57 405.2 520.57 406.71 522.56 407.86 522.53 416.08 520.3 414.79 520.3 416.31 526.29 419.77 526.29 418.25 524.26 417.08 524.29 407.35"/><path class="cls-22" d="M1070.45,469.29l-6-3.44v1.55l6,3.43v-1.54m0-3.14-6-3.44v1.55l6,3.44v-1.55" transform="translate(-528.67 -44.13)"/><path class="cls-21" d="M1085.07,473a1.51,1.51,0,0,0-.45-.19.7.7,0,0,0-.38,0,1,1,0,0,0-.34.22,2.29,2.29,0,0,0-.33.43,2.71,2.71,0,0,0-.35-1.18,2.31,2.31,0,0,0-.9-.88,1.68,1.68,0,0,0-.45-.19.78.78,0,0,0-.37,0,1,1,0,0,0-.32.23,3.14,3.14,0,0,0-.31.45l0-1.2-1.26-.73,0,8.09,1.46.84,0-5.24a3,3,0,0,1,.49-.86.34.34,0,0,1,.41-.09.6.6,0,0,1,.22.2.82.82,0,0,1,.12.3,3.43,3.43,0,0,1,.06.4c0,.16,0,.34,0,.55l0,5.5,1.45.84,0-5.25a2.62,2.62,0,0,1,.47-.86.3.3,0,0,1,.42-.09.61.61,0,0,1,.22.2.84.84,0,0,1,.12.29,2.37,2.37,0,0,1,.06.41c0,.16,0,.34,0,.55l0,5.5,1.47.84v-5.8a4.84,4.84,0,0,0-.36-2,2.61,2.61,0,0,0-1.14-1.27" transform="translate(-528.67 -44.13)"/><path class="cls-21" d="M1092,477.16l-3.73-2.15v1.51l2,1.15v5.06l-2.23-1.29V483l6,3.46v-1.51l-2-1.18,0-6.57m-1-4a1.13,1.13,0,0,0-.44-.16.51.51,0,0,0-.35.08.56.56,0,0,0-.24.26,1.25,1.25,0,0,0-.08.45,2.08,2.08,0,0,0,.08.54,2.58,2.58,0,0,0,.23.54,2.73,2.73,0,0,0,.35.47,2.11,2.11,0,0,0,.44.36,1.21,1.21,0,0,0,.44.15.58.58,0,0,0,.35-.07.48.48,0,0,0,.23-.27,1,1,0,0,0,.09-.45,1.79,1.79,0,0,0-.09-.54,2.2,2.2,0,0,0-.22-.53,2.51,2.51,0,0,0-.36-.48,1.74,1.74,0,0,0-.43-.35" transform="translate(-528.67 -44.13)"/><path class="cls-21" d="M1098.29,487.44a2.21,2.21,0,0,1-.52-.44,2.57,2.57,0,0,1-.39-.67,4.82,4.82,0,0,1-.23-.91,8.38,8.38,0,0,1-.07-1.19,4,4,0,0,1,.12-1.06,1.48,1.48,0,0,1,.36-.65.78.78,0,0,1,.56-.22,1.52,1.52,0,0,1,.74.24,4.29,4.29,0,0,1,.59.39,4.41,4.41,0,0,1,.49.43v3.54a3.09,3.09,0,0,1-.82.61.87.87,0,0,1-.82-.07m3.36-7.85-1.69-1v3.17c-.14-.13-.3-.25-.47-.38s-.36-.24-.53-.34a4.76,4.76,0,0,0-1.45-.58,1.63,1.63,0,0,0-1.15.13,1.72,1.72,0,0,0-.77.91,4.57,4.57,0,0,0-.28,1.78,9.35,9.35,0,0,0,.17,1.78,6.8,6.8,0,0,0,.5,1.58,5.36,5.36,0,0,0,.81,1.28,4.11,4.11,0,0,0,1.11.93,3,3,0,0,0,.68.3,2,2,0,0,0,.58.05,1.29,1.29,0,0,0,.51-.14,2.52,2.52,0,0,0,.45-.3l.05,1.21,1.46.85,0-11.25" transform="translate(-528.67 -44.13)"/><polyline class="cls-22" points="586.41 446.25 584.84 445.35 584.83 448.43 582.25 446.94 582.25 448.54 584.83 450.03 584.82 453.13 586.38 454.03 586.39 450.93 588.97 452.42 588.98 450.82 586.4 449.33 586.41 446.25"/><polyline class="cls-23" points="602.42 453.24 601 452.42 598.12 452.5 598.67 454.4 600.68 454.3 600.66 460.98 598.36 459.65 598.36 461.37 604.38 464.85 604.39 463.13 602.39 461.98 602.42 453.24"/><path class="cls-22" d="M1137.64,508.66a1.25,1.25,0,0,0-.49-.17.56.56,0,0,0-.35.09.74.74,0,0,0-.23.29,1.2,1.2,0,0,0-.07.44,1.74,1.74,0,0,0,0,.47,2.37,2.37,0,0,0,.15.4,3.2,3.2,0,0,0,.19.37l.19.37a2.5,2.5,0,0,1,.15.38,1.54,1.54,0,0,1,.06.43.62.62,0,0,1-.16.48.56.56,0,0,1-.42.14,1.64,1.64,0,0,1-.63-.13,4.11,4.11,0,0,1-.64-.31l-.13-.08v1.26a5.06,5.06,0,0,0,1.66.68,2,2,0,0,0,1.17-.09,1.51,1.51,0,0,0,.71-.74,3.09,3.09,0,0,0,.24-1.25,3.83,3.83,0,0,0-.1-.88,4,4,0,0,0-.28-.87,3.14,3.14,0,0,0-.46-.75,2.29,2.29,0,0,0-.6-.53m0-5.18a1.31,1.31,0,0,0-.49-.17.7.7,0,0,0-.39.08.63.63,0,0,0-.27.31,1.06,1.06,0,0,0-.1.5,2.27,2.27,0,0,0,.09.62,3.66,3.66,0,0,0,.27.61,3,3,0,0,0,.4.53,2,2,0,0,0,.48.39,1.29,1.29,0,0,0,.49.18.62.62,0,0,0,.66-.38,1.13,1.13,0,0,0,.11-.51,1.94,1.94,0,0,0-.1-.61,3.38,3.38,0,0,0-.26-.62,3,3,0,0,0-.4-.53,2.32,2.32,0,0,0-.49-.4" transform="translate(-528.67 -44.13)"/><path class="cls-22" d="M985.48,431.76l-.58-.34v1.5l.45.26a3.26,3.26,0,0,1,.6.43,2.81,2.81,0,0,1,.46.56,2.28,2.28,0,0,1,.29.73,3.57,3.57,0,0,1,.11.92v1.33a4.71,4.71,0,0,0,.35,2,3.33,3.33,0,0,0,1.1,1.3,1.66,1.66,0,0,0-.65-.16.58.58,0,0,0-.46.17,1.18,1.18,0,0,0-.27.55,5.14,5.14,0,0,0-.08,1V444a2.17,2.17,0,0,1-.11.77.62.62,0,0,1-.29.38.65.65,0,0,1-.46,0,2.32,2.32,0,0,1-.6-.26l-.45-.26v1.5l.59.33a4.1,4.1,0,0,0,1.29.54,1.17,1.17,0,0,0,.89-.11,1.28,1.28,0,0,0,.52-.74,5,5,0,0,0,.16-1.34v-2.1a2.75,2.75,0,0,1,.08-.66.58.58,0,0,1,.24-.36.56.56,0,0,1,.43,0,2.23,2.23,0,0,1,.63.27l.45.26v-1.51l-.44-.26a2.53,2.53,0,0,1-1.06-1,3,3,0,0,1-.31-1.41v-1.35a5.56,5.56,0,0,0-.69-2.92,5.71,5.71,0,0,0-2.15-2" transform="translate(-528.67 -44.13)"/><path class="cls-21" d="M986.87,462.43a2.2,2.2,0,0,1-.75-.7,1.55,1.55,0,0,1-.28-.91.93.93,0,0,1,.09-.42.51.51,0,0,1,.27-.23.94.94,0,0,1,.49,0,2.84,2.84,0,0,1,.73.32l1,.6v1.08a2.9,2.9,0,0,1-.84.36,1.07,1.07,0,0,1-.74-.13m.3-6.75a7.94,7.94,0,0,0-1.37-.64,5.84,5.84,0,0,0-1.17-.29v1.55a4.7,4.7,0,0,1,1.17.22,6.58,6.58,0,0,1,1.23.54,3.32,3.32,0,0,1,.67.49,2.24,2.24,0,0,1,.43.52,1.8,1.8,0,0,1,.25.57,2.43,2.43,0,0,1,.08.61v.48l-.92-.53a6.82,6.82,0,0,0-1.53-.68,2.17,2.17,0,0,0-1.08-.07,1,1,0,0,0-.65.46,1.83,1.83,0,0,0-.21.93,4.56,4.56,0,0,0,.14,1.11,4.11,4.11,0,0,0,.41,1,4.64,4.64,0,0,0,.69.91,4.07,4.07,0,0,0,1,.73,3,3,0,0,0,.75.34,1.9,1.9,0,0,0,.63.11,1.85,1.85,0,0,0,.54-.08,2.25,2.25,0,0,0,.46-.24l0,1.09,1.45.84,0-5.53a5,5,0,0,0-.17-1.3,4.23,4.23,0,0,0-.54-1.16,5.25,5.25,0,0,0-.92-1.05,8.2,8.2,0,0,0-1.35-.95" transform="translate(-528.67 -44.13)"/><path class="cls-21" d="M995.83,460.67a3.86,3.86,0,0,0-.7-.3,1.71,1.71,0,0,0-.58-.06,1.25,1.25,0,0,0-.51.14,2.13,2.13,0,0,0-.45.31l0-1.22-1.46-.85,0,8.1,1.69,1v-5.12a2.94,2.94,0,0,1,.84-.6.87.87,0,0,1,.82.07,1.92,1.92,0,0,1,.85,1.83v5.27l1.69,1,0-5.43a6.38,6.38,0,0,0-.13-1.25,5.44,5.44,0,0,0-.41-1.13,4.74,4.74,0,0,0-.67-1,4.37,4.37,0,0,0-.94-.75" transform="translate(-528.67 -44.13)"/><path class="cls-21" d="M1003.09,464.86a5.33,5.33,0,0,0-1.35-.57,1.76,1.76,0,0,0-1,0,.93.93,0,0,0-.58.42,1.59,1.59,0,0,0-.19.83,3.33,3.33,0,0,0,.12,1,3.62,3.62,0,0,0,.38.89,6.77,6.77,0,0,0,.65.87,11.11,11.11,0,0,0,.91.9c.38.34.68.62.9.85s.41.44.54.6a1.51,1.51,0,0,1,.26.44,1,1,0,0,1,.07.37q0,.41-.33.45a1.73,1.73,0,0,1-1-.33,8.84,8.84,0,0,1-1.23-.85,12.7,12.7,0,0,1-1.29-1.19v1.74a12,12,0,0,0,1.18.92c.41.3.88.6,1.39.9a7.2,7.2,0,0,0,1.15.52,2.42,2.42,0,0,0,1,.13,1,1,0,0,0,.71-.39,1.69,1.69,0,0,0,.28-1,3.37,3.37,0,0,0-.12-.9,3.21,3.21,0,0,0-.36-.87,5.78,5.78,0,0,0-.67-.9,14,14,0,0,0-1-1c-.36-.33-.65-.6-.87-.83a7.13,7.13,0,0,1-.51-.57,1.33,1.33,0,0,1-.24-.42.94.94,0,0,1-.07-.37c0-.25.11-.38.32-.41a1.55,1.55,0,0,1,.84.27,11.79,11.79,0,0,1,1,.69,14.49,14.49,0,0,1,1.13,1v-1.58l-.9-.7c-.35-.25-.74-.51-1.18-.77" transform="translate(-528.67 -44.13)"/><polyline class="cls-21" points="485.79 427.48 484.26 426.59 483.83 430.9 483.7 432.12 483.37 430.77 482.62 427.89 481.33 427.14 480.62 429.2 480.33 430.16 480.22 428.84 479.73 423.98 478.12 423.05 479.09 431.71 480.98 432.8 481.7 430.68 481.94 429.89 482.17 430.92 482.9 433.91 484.78 435 485.79 427.48"/><path class="cls-21" d="M1017,476.21a1.38,1.38,0,0,1,.48-1.1,1,1,0,0,1,1,.12,2.68,2.68,0,0,1,.55.42,2.74,2.74,0,0,1,.44.6,4,4,0,0,1,.3.76,3.24,3.24,0,0,1,.1.89l-2.92-1.69m1.57-2.42a3.29,3.29,0,0,0-1.37-.47,1.52,1.52,0,0,0-1,.29,2.06,2.06,0,0,0-.67,1,4.92,4.92,0,0,0-.24,1.65,7.25,7.25,0,0,0,.23,1.89,6.72,6.72,0,0,0,.67,1.66,7,7,0,0,0,1.08,1.4,7.42,7.42,0,0,0,1.44,1.1l.66.35c.22.11.45.21.67.3s.44.18.65.25.41.13.59.18v-1.54a10.08,10.08,0,0,1-1.21-.4,11.28,11.28,0,0,1-1.1-.55,4.29,4.29,0,0,1-.8-.6,4.68,4.68,0,0,1-.63-.78,4.2,4.2,0,0,1-.4-.92,3.44,3.44,0,0,1-.13-1l4.62,2.67c0-.17,0-.37,0-.58a5,5,0,0,0,0-.51,6,6,0,0,0-.2-1.57,6.44,6.44,0,0,0-.59-1.48,6.06,6.06,0,0,0-2.28-2.33" transform="translate(-528.67 -44.13)"/><path class="cls-21" d="M1027.35,478.88a2.84,2.84,0,0,0-.71-.31,1.38,1.38,0,0,0-.59-.07,1.32,1.32,0,0,0-.49.14,1.54,1.54,0,0,0-.39.34l-.06-1.22-1.53-.89,0,8.1,1.73,1v-5.12a2.06,2.06,0,0,1,.89-.65.92.92,0,0,1,.77.09,1.4,1.4,0,0,1,.38.31,1.77,1.77,0,0,1,.28.47,2.67,2.67,0,0,1,.16.62,3.94,3.94,0,0,1,0,.79l1.69,1a6.67,6.67,0,0,0-.11-1.51,4.68,4.68,0,0,0-.41-1.28,4,4,0,0,0-.69-1,3.7,3.7,0,0,0-1-.76" transform="translate(-528.67 -44.13)"/><path class="cls-22" d="M1035.44,479.94a5.29,5.29,0,0,0-1.38.76,4.48,4.48,0,0,0-1.09,1.16,5.53,5.53,0,0,0-.71,1.61,8.7,8.7,0,0,0-.25,2.15,13.28,13.28,0,0,0,.83,4.53,24.23,24.23,0,0,0,2.51,5l1-.61a19.18,19.18,0,0,1-2-4.21,12.51,12.51,0,0,1-.67-3.87,6.17,6.17,0,0,1,.69-3,4.22,4.22,0,0,1,2-1.83l-1-1.66" transform="translate(-528.67 -44.13)"/><path class="cls-21" d="M1043,487.88a3.55,3.55,0,0,0-.72-.31,1.82,1.82,0,0,0-.59-.07,1.23,1.23,0,0,0-.48.15,1.38,1.38,0,0,0-.4.33l-.06-1.22-1.53-.88,0,8.09,1.73,1,0-5.12a2.12,2.12,0,0,1,.87-.66,1,1,0,0,1,.78.09,1.66,1.66,0,0,1,.38.32,1.88,1.88,0,0,1,.28.46,2.32,2.32,0,0,1,.16.63,3.89,3.89,0,0,1,0,.79l1.7,1A7.3,7.3,0,0,0,1045,491a5.34,5.34,0,0,0-.41-1.28,4.19,4.19,0,0,0-1.64-1.79" transform="translate(-528.67 -44.13)"/><path class="cls-22" d="M1048.33,487.38l-1,.58a19.36,19.36,0,0,1,2,4.23,12.5,12.5,0,0,1,.67,3.86,6.21,6.21,0,0,1-.69,3,4.29,4.29,0,0,1-2,1.84l1,1.67a5.56,5.56,0,0,0,1.37-.77,4.44,4.44,0,0,0,1.08-1.16,5.9,5.9,0,0,0,.7-1.63,8.09,8.09,0,0,0,.26-2.14,13.67,13.67,0,0,0-.82-4.53,23.28,23.28,0,0,0-2.52-5" transform="translate(-528.67 -44.13)"/><path class="cls-22" d="M1057.38,501.52a1.07,1.07,0,0,0-.48-.17.54.54,0,0,0-.36.09.59.59,0,0,0-.22.29,1,1,0,0,0-.08.44,1.84,1.84,0,0,0,.06.47,2.74,2.74,0,0,0,.15.4,3.24,3.24,0,0,0,.19.37c.06.13.12.24.19.37a1.57,1.57,0,0,1,.14.38,1.44,1.44,0,0,1,.06.43.63.63,0,0,1-.15.47.61.61,0,0,1-.42.16,1.85,1.85,0,0,1-.63-.14,4.7,4.7,0,0,1-.61-.29l-.17-.1V506a5.23,5.23,0,0,0,1.65.66,2,2,0,0,0,1.18-.08,1.41,1.41,0,0,0,.7-.74,3,3,0,0,0,.24-1.26,4.46,4.46,0,0,0-.09-.88,4.35,4.35,0,0,0-.29-.86,3.11,3.11,0,0,0-.45-.75,2.18,2.18,0,0,0-.61-.53m.06-5.17a1.23,1.23,0,0,0-.49-.18.74.74,0,0,0-.4.08.67.67,0,0,0-.26.31,1.09,1.09,0,0,0-.1.5,2.27,2.27,0,0,0,.09.62,3.61,3.61,0,0,0,.26.61,3,3,0,0,0,.4.52,1.83,1.83,0,0,0,.49.4,1.15,1.15,0,0,0,.49.17.67.67,0,0,0,.4-.07.64.64,0,0,0,.26-.3,1.13,1.13,0,0,0,.1-.51,2,2,0,0,0-.1-.62,3,3,0,0,0-.26-.61,2.9,2.9,0,0,0-.39-.53,2.21,2.21,0,0,0-.49-.39" transform="translate(-528.67 -44.13)"/></svg>