<svg id="Layer_1" data-name="Layer 1" xmlns="http://www.w3.org/2000/svg" xmlns:xlink="http://www.w3.org/1999/xlink" viewBox="0 0 1305.01 1232.92"><defs><clipPath id="clip-path" transform="translate(-528.67 -44.13)"><polygon points="1262.59 456.39 1515.02 310.65 1515.02 239.88 1262.59 390 1262.59 456.39" style="fill:none"/></clipPath><clipPath id="clip-path-2" transform="translate(-528.67 -44.13)"><polygon points="1505.71 314.08 1505.7 307.94 1511.04 304.85 1511.06 311 1505.71 314.08" style="fill:none"/></clipPath><clipPath id="clip-path-3" transform="translate(-528.67 -44.13)"><polygon points="1498.67 318.71 1498.65 312.56 1504 309.47 1504.02 315.62 1498.67 318.71" style="fill:none"/></clipPath><clipPath id="clip-path-4" transform="translate(-528.67 -44.13)"><polygon points="1491.13 323.23 1491.12 317.08 1496.46 313.99 1496.48 320.14 1491.13 323.23" style="fill:none"/></clipPath><clipPath id="clip-path-5" transform="translate(-528.67 -44.13)"><polygon points="1383.2 759.7 1207.14 657.38 1077.17 732.42 1253.23 834.73 1383.2 759.7" style="fill:none"/></clipPath><clipPath id="clip-path-6" transform="translate(-528.67 -44.13)"><polygon points="1328.43 802.81 1328.43 799.77 1318.48 805.52 1318.49 808.55 1328.43 802.81" style="fill:none"/></clipPath></defs><title>quote_4</title><polygon points="1305.01 890.44 1305.01 547.96 415.23 1061.68 711.83 1232.92 1305.01 890.44" style="fill:#0071bc"/><polygon points="1305.01 547.96 355.91 0 0 205.49 0 821.94 415.23 1061.68 1305.01 547.96" style="fill:#29abe2"/><path d="M1683,571.55,1538.1,487.92c-4.79-2.76-12.54-2.76-17.33,0L1270.4,632.47,1254,634.89v10c0,1.81,1.2,3.62,3.59,5l151,87.16c4.79,2.76,12.54,2.76,17.32,0l263.16-151.93c2.39-1.38,3.59-3.19,3.59-5v-10Z" transform="translate(-528.67 -44.13)" style="fill:#999"/><path d="M1520.77,478,1257.62,629.89c-4.79,2.76-4.79,7.24,0,10l151,87.16c4.79,2.76,12.54,2.76,17.32,0l263.16-151.94c4.78-2.76,4.78-7.23,0-10L1538.1,478C1533.31,475.19,1525.56,475.19,1520.77,478Z" transform="translate(-528.67 -44.13)" style="fill:#ccc"/><path d="M1529.43,473" transform="translate(-528.67 -44.13)" style="fill:#ccc"/><path d="M1520.81,290.71V458c0,5.52-3.88,12.24-8.66,15L1261.77,617.52l-10.28,13-8.63-5c-1.56-.9-2.53-2.84-2.53-5.6V445.58c0-5.52,3.88-12.23,8.66-15l263.16-151.93c2.39-1.38,4.55-1.51,6.12-.61l8.63,5Z" transform="translate(-528.67 -44.13)" style="fill:#999"/><path d="M1520.77,478,1257.62,629.89c-4.79,2.76-8.66.52-8.66-5V450.57c0-5.53,3.87-12.24,8.66-15l263.15-151.94c4.79-2.76,8.66-.52,8.66,5V463C1529.43,468.48,1525.56,475.19,1520.77,478Z" transform="translate(-528.67 -44.13)" style="fill:#b3b3b3"/><path d="M1529.43,473" transform="translate(-528.67 -44.13)" style="fill:#ccc"/><path d="M1271.25,441.39l235.11-135.74c4.78-2.76,8.66-.53,8.66,5V452.58c0,5.52-3.88,12.24-8.66,15L1271.25,603.32c-4.78,2.76-8.66.52-8.66-5V456.39C1262.59,450.87,1266.47,444.15,1271.25,441.39Z" transform="translate(-528.67 -44.13)" style="fill:#1a1a1a"/><path d="M1217.21,451.26,982.11,315.52c-4.79-2.76-8.66-.52-8.66,5V462.45c0,5.53,3.87,12.24,8.66,15l235.1,135.74c4.79,2.77,8.67.53,8.67-5V466.26C1225.88,460.74,1222,454,1217.21,451.26Z" transform="translate(-528.67 -44.13)" style="fill:#1a1a1a"/><g style="clip-path:url(#clip-path)"><path d="M1271.25,441.39l235.11-135.74c4.78-2.76,8.66-.53,8.66,5V452.58c0,5.52-3.88,12.24-8.66,15L1271.25,603.32c-4.78,2.76-8.66.52-8.66-5V456.39C1262.59,450.87,1266.47,444.15,1271.25,441.39Z" transform="translate(-528.67 -44.13)" style="fill:#333"/></g><path d="M1283.43,628.68l234.81-135.57c4.78-2.76,12.54-2.77,17.33,0l67.09,38.46c4.8,2.75,4.8,7.22,0,10L1367.57,677.26c-4.78,2.76-12.54,2.76-17.32,0l-66.82-38.58C1278.64,635.92,1278.64,631.44,1283.43,628.68Z" transform="translate(-528.67 -44.13)" style="fill:#e6e6e6"/><path d="M1459.67,633.27l66.82-38.58c4.78-2.76,12.54-2.76,17.32,0l38.77,22.39c4.79,2.76,4.79,7.24,0,10l-66.82,38.58c-4.78,2.76-12.54,2.76-17.32,0l-38.77-22.39C1454.88,640.51,1454.88,636,1459.67,633.27Z" transform="translate(-528.67 -44.13)" style="fill:#e6e6e6"/><g style="isolation:isolate"><g style="clip-path:url(#clip-path-2)"><path d="M1508.37,306.4a5.84,5.84,0,0,0-2.66,4.61c0,1.69,1.2,2.38,2.67,1.53a5.85,5.85,0,0,0,2.67-4.62c0-1.69-1.21-2.38-2.68-1.52" transform="translate(-528.67 -44.13)" style="fill:#8cc63f"/></g></g><g style="isolation:isolate"><g style="clip-path:url(#clip-path-3)"><path d="M1501.33,311a5.85,5.85,0,0,0-2.67,4.62c0,1.69,1.21,2.38,2.68,1.52a5.88,5.88,0,0,0,2.67-4.61c0-1.7-1.21-2.38-2.68-1.53" transform="translate(-528.67 -44.13)" style="fill:#fcee21"/></g></g><g style="isolation:isolate"><g style="clip-path:url(#clip-path-4)"><path d="M1493.79,315.53a5.87,5.87,0,0,0-2.66,4.62c0,1.7,1.2,2.39,2.68,1.53a5.89,5.89,0,0,0,2.66-4.61c0-1.7-1.2-2.39-2.68-1.54" transform="translate(-528.67 -44.13)" style="fill:#ed1c24"/></g></g><g id="Layer_3" data-name="Layer 3"><path d="M1076.87,733l121.15-70c4.78-2.76,12.54-2.76,17.32,0l165.88,95.77,8.43.72v7.08h0c0,1.81-1.2,3.62-3.59,5l-123.71,71.42c-4.78,2.76-12.54,2.76-17.32,0l-170.72-98.56c-2.39-1.38-3.59-3.19-3.59-5v-7Z" transform="translate(-528.67 -44.13)" style="fill:#999"/><path d="M1386.06,754.63l-170.72-98.57c-4.78-2.76-12.54-2.76-17.32,0l-123.71,71.43c-4.78,2.76-4.78,7.23,0,10L1245,836.05c4.78,2.76,12.54,2.76,17.32,0l123.71-71.42C1390.84,761.87,1390.84,757.39,1386.06,754.63Z" transform="translate(-528.67 -44.13)" style="fill:#ccc"/><g style="isolation:isolate"><g style="clip-path:url(#clip-path-5)"><path d="M1084.26,728.32l115.79-66.85a15.65,15.65,0,0,1,14.14,0l162,94.13c3.87,2.25,3.85,5.94-.05,8.19l-115.79,66.85a15.65,15.65,0,0,1-14.14,0l-162-94.13c-3.88-2.25-3.86-5.93,0-8.19" transform="translate(-528.67 -44.13)" style="fill:#1a1a1a"/></g></g><g style="isolation:isolate"><g style="clip-path:url(#clip-path-6)"><path d="M1319.8,804.75l7.3-4.21c.73-.42,1.33-.08,1.33.75a2.92,2.92,0,0,1-1.32,2.28l-7.3,4.22c-.73.42-1.33.07-1.33-.76a2.92,2.92,0,0,1,1.32-2.28" transform="translate(-528.67 -44.13)" style="fill:#1a1a1a"/></g></g></g><path d="M989.5,336.75a5.17,5.17,0,0,0-1.26-.54,1.54,1.54,0,0,0-1,0,1.2,1.2,0,0,0-.62.65,3.51,3.51,0,0,0-.22,1.35v1.23l-2.05-1.18v1.51l2,1.18v5.41l1.7,1,0-5.42,2.76,1.6v-1.51l-2.76-1.6v-1.31a1.66,1.66,0,0,1,.11-.67.61.61,0,0,1,.75-.38,2.4,2.4,0,0,1,.55.23,7.88,7.88,0,0,1,.85.57,8.4,8.4,0,0,1,.73.6v-1.56c-.23-.2-.49-.4-.76-.61s-.57-.39-.87-.57" transform="translate(-528.67 -44.13)" style="fill:#f9273c"/><path d="M995.54,350.16a3.11,3.11,0,0,1-1.21-1.34,4.79,4.79,0,0,1-.44-2.16,3.82,3.82,0,0,1,.1-.94,1.33,1.33,0,0,1,.3-.63.7.7,0,0,1,.51-.25,1.39,1.39,0,0,1,.75.23,2.94,2.94,0,0,1,1.22,1.34,4.85,4.85,0,0,1,.4,2.13,3.85,3.85,0,0,1-.1.95,1.51,1.51,0,0,1-.29.65.66.66,0,0,1-.51.24,1.31,1.31,0,0,1-.73-.22m.07-6.73a3.73,3.73,0,0,0-1.45-.54,1.71,1.71,0,0,0-1.1.23,1.86,1.86,0,0,0-.68,1,4.63,4.63,0,0,0-.25,1.6,8.17,8.17,0,0,0,.22,2,6.84,6.84,0,0,0,.66,1.69,5.94,5.94,0,0,0,1,1.39,6.74,6.74,0,0,0,1.4,1.07,3.7,3.7,0,0,0,1.47.54,1.58,1.58,0,0,0,1.09-.25,1.89,1.89,0,0,0,.68-1,4.65,4.65,0,0,0,.25-1.61,8.49,8.49,0,0,0-.22-1.92,6.84,6.84,0,0,0-.66-1.68,6.21,6.21,0,0,0-1-1.4,6.55,6.55,0,0,0-1.41-1.07" transform="translate(-528.67 -44.13)" style="fill:#f9273c"/><path d="M1004.47,348.54a3.13,3.13,0,0,0-.72-.32,1.79,1.79,0,0,0-.59-.07,1.34,1.34,0,0,0-.49.15,1.49,1.49,0,0,0-.39.33l-.06-1.21-1.53-.89,0,8.09,1.73,1,0-5.12a2.19,2.19,0,0,1,.88-.66,1,1,0,0,1,.77.09,1.44,1.44,0,0,1,.38.32,1.88,1.88,0,0,1,.28.46,2.67,2.67,0,0,1,.16.62,4,4,0,0,1,0,.8l1.69,1a6.76,6.76,0,0,0-.11-1.52,4.51,4.51,0,0,0-.41-1.27,4,4,0,0,0-.69-1,3.79,3.79,0,0,0-.94-.75" transform="translate(-528.67 -44.13)" style="fill:#f9273c"/><path d="M1012.55,349.59a6.16,6.16,0,0,0-1.38.76,4.64,4.64,0,0,0-1.09,1.16,5.71,5.71,0,0,0-.71,1.62,8.61,8.61,0,0,0-.25,2.14,13.24,13.24,0,0,0,.83,4.53,24.23,24.23,0,0,0,2.51,5l1-.6a19.71,19.71,0,0,1-2-4.22,12.41,12.41,0,0,1-.67-3.87,6.13,6.13,0,0,1,.69-3,4.36,4.36,0,0,1,2-1.84l-1-1.66" transform="translate(-528.67 -44.13)" style="fill:#f2f2f2"/><path d="M1020,357.69l-3.73-2.15v1.51l2,1.15v5.06L1016,362v1.51l6,3.46v-1.52l-2-1.16,0-6.58m-1-4.05a1,1,0,0,0-.44-.15.6.6,0,0,0-.36.07.69.69,0,0,0-.23.27,1,1,0,0,0-.08.45,1.77,1.77,0,0,0,.08.54,2.5,2.5,0,0,0,.23.53,2.36,2.36,0,0,0,.35.48,1.78,1.78,0,0,0,.44.35,1.08,1.08,0,0,0,.44.16.58.58,0,0,0,.35-.07.56.56,0,0,0,.23-.27,1,1,0,0,0,.09-.45,1.79,1.79,0,0,0-.09-.54,2.78,2.78,0,0,0-.22-.54,2.87,2.87,0,0,0-.35-.47,2,2,0,0,0-.44-.36" transform="translate(-528.67 -44.13)" style="fill:#45cbef"/><path d="M1027.54,361.86a3.14,3.14,0,0,0-.7-.31,1.47,1.47,0,0,0-.58-.06,1.2,1.2,0,0,0-.5.14,2.26,2.26,0,0,0-.45.31l0-1.21-1.46-.85,0,8.09,1.69,1v-5.12a2.91,2.91,0,0,1,.83-.6.89.89,0,0,1,.82.07,1.92,1.92,0,0,1,.86,1.83v5.27l1.68,1,0-5.43a5.64,5.64,0,0,0-.13-1.25,4.82,4.82,0,0,0-.4-1.12,4.24,4.24,0,0,0-.67-1,4.14,4.14,0,0,0-1-.75" transform="translate(-528.67 -44.13)" style="fill:#45cbef"/><path d="M1034.69,363.57l-1.74-.49v2.08l-1.89-1.09v1.51l1.89,1.09v3.95a5.32,5.32,0,0,0,.16,1.35,3.89,3.89,0,0,0,.48,1.15,4.24,4.24,0,0,0,.83,1,7.16,7.16,0,0,0,1.19.86,8,8,0,0,0,.88.43c.31.13.61.24.92.34v-1.55c-.22-.06-.46-.13-.73-.23a5.94,5.94,0,0,1-.81-.39,2.39,2.39,0,0,1-.92-.89,2.46,2.46,0,0,1-.27-1.21v-3.8l2.73,1.58v-1.51l-2.73-1.58v-2.59" transform="translate(-528.67 -44.13)" style="fill:#45cbef"/><polyline points="525.24 333.13 523.42 332.08 521.94 335.87 521.5 337.04 521.08 335.32 519.63 329.89 517.74 328.8 520.51 338.49 522.46 339.62 525.24 333.13" style="fill:#9ef2c6"/><path d="M1065.73,389.5a1.11,1.11,0,0,0-.48-.17.66.66,0,0,0-.4.08.62.62,0,0,0-.27.3,1.38,1.38,0,0,0-.1.5,2.29,2.29,0,0,0,.1.62,2.71,2.71,0,0,0,.27.61,2.59,2.59,0,0,0,.39.53,2,2,0,0,0,.49.39,1.13,1.13,0,0,0,.49.18.61.61,0,0,0,.39-.08.75.75,0,0,0,.27-.31,1.24,1.24,0,0,0,.09-.5,1.94,1.94,0,0,0-.09-.62,2.48,2.48,0,0,0-.26-.6,2.59,2.59,0,0,0-.39-.53,2,2,0,0,0-.5-.4m0-5.48a1.15,1.15,0,0,0-.49-.17.57.57,0,0,0-.39.08.54.54,0,0,0-.27.3,1.06,1.06,0,0,0-.1.5,2.32,2.32,0,0,0,.09.62,2.9,2.9,0,0,0,.67,1.14,2.22,2.22,0,0,0,.48.39,1.2,1.2,0,0,0,.49.17.64.64,0,0,0,.4-.07.62.62,0,0,0,.26-.31,1.09,1.09,0,0,0,.1-.5,2.32,2.32,0,0,0-.09-.62,3.62,3.62,0,0,0-.26-.6,2.7,2.7,0,0,0-.4-.54,2,2,0,0,0-.49-.39" transform="translate(-528.67 -44.13)" style="fill:#f2f2f2"/><path d="M1081.25,403.14a5.24,5.24,0,0,1-1.16-.89,1.42,1.42,0,0,1-.4-.94,1.37,1.37,0,0,1,0-.29.55.55,0,0,1,.1-.22.49.49,0,0,1,.2-.17,1.58,1.58,0,0,1,.33-.11l1.49.89.46.34a2.54,2.54,0,0,1,.37.36,1.7,1.7,0,0,1,.25.39,1.15,1.15,0,0,1,.08.41.86.86,0,0,1-.09.41.41.41,0,0,1-.3.22,1.17,1.17,0,0,1-.54,0,3.32,3.32,0,0,1-.81-.36m0-6a2.48,2.48,0,0,1-.92-.9A2.32,2.32,0,0,1,1080,395a1.64,1.64,0,0,1,.07-.52.72.72,0,0,1,.24-.34.53.53,0,0,1,.38-.1,1.25,1.25,0,0,1,.54.19,2.46,2.46,0,0,1,1.25,2.16,1.6,1.6,0,0,1-.08.51.65.65,0,0,1-.23.32.53.53,0,0,1-.38.1,1.32,1.32,0,0,1-.55-.2m0-4.23a4.19,4.19,0,0,0-1.13-.47,1.51,1.51,0,0,0-.88,0,1.11,1.11,0,0,0-.59.56,2.23,2.23,0,0,0-.22,1.08,4,4,0,0,0,.16,1.14,5.59,5.59,0,0,0,.43,1,3.11,3.11,0,0,0-.28.23,1.56,1.56,0,0,0-.23.28,1.31,1.31,0,0,0-.16.36,1.29,1.29,0,0,0-.07.47,2.36,2.36,0,0,0,.18.85,3,3,0,0,0,.51.87,2.05,2.05,0,0,0-.44.15,1.19,1.19,0,0,0-.32.25,1.31,1.31,0,0,0-.19.35,2.25,2.25,0,0,0-.06.48,2.6,2.6,0,0,0,.19,1,3.6,3.6,0,0,0,.57,1,6.48,6.48,0,0,0,1,1,10.56,10.56,0,0,0,1.46,1,6.31,6.31,0,0,0,1.55.68,2.4,2.4,0,0,0,1.11.06,1.06,1.06,0,0,0,.67-.49,1.79,1.79,0,0,0,.23-.94,2.87,2.87,0,0,0-.18-1,4.14,4.14,0,0,0-.5-.95,5.24,5.24,0,0,0-.78-.87,7.11,7.11,0,0,0-1-.74l-1.67-1a1.5,1.5,0,0,1-.34-.27,1.89,1.89,0,0,1-.25-.31,1.41,1.41,0,0,1-.17-.32,1,1,0,0,1,0-.29.48.48,0,0,1,.09-.31.57.57,0,0,1,.19-.19,3.6,3.6,0,0,0,.48.47,5.35,5.35,0,0,0,.67.47,4.71,4.71,0,0,0,1.15.49,1.65,1.65,0,0,0,.89,0,1.14,1.14,0,0,0,.57-.54,2.34,2.34,0,0,0,.21-1.07,2.74,2.74,0,0,0-.08-.68,3.19,3.19,0,0,0-.27-.74l1.11.64V395.1l-2.44-1.41a3.72,3.72,0,0,0-.52-.43c-.19-.13-.39-.26-.6-.38" transform="translate(-528.67 -44.13)" style="fill:#9ef2c6"/><polyline points="562.35 351.02 558.71 348.92 558.67 363.69 562.31 365.79 562.31 364.28 560.23 363.08 560.26 351.33 562.35 352.54 562.35 351.02" style="fill:#f2f2f2"/><path d="M1099.89,403.81l-1.69-1V408a2.94,2.94,0,0,1-.84.6.82.82,0,0,1-.81-.07,1.5,1.5,0,0,1-.65-.71,2.7,2.7,0,0,1-.21-1.12v-5.27l-1.69-1v5.43a5.12,5.12,0,0,0,.13,1.24,4.74,4.74,0,0,0,.4,1.13,4,4,0,0,0,.68,1,3.87,3.87,0,0,0,.94.76,2.82,2.82,0,0,0,.7.29,1.49,1.49,0,0,0,.58.06,1,1,0,0,0,.49-.15,2.59,2.59,0,0,0,.46-.3l0,1.22,1.46.84,0-8.08" transform="translate(-528.67 -44.13)" style="fill:#9ef2c6"/><polyline points="577.65 359.86 574.03 357.77 574.02 359.28 576.09 360.47 576.06 372.22 573.99 371.02 573.99 372.54 577.61 374.63 577.65 359.86" style="fill:#f2f2f2"/><path d="M1111.25,406.57l-1,.59a18.63,18.63,0,0,1,2,4.22,12.54,12.54,0,0,1,.68,3.87,6.17,6.17,0,0,1-.7,3,4.13,4.13,0,0,1-2,1.84l1,1.67a5.2,5.2,0,0,0,1.37-.75,4.65,4.65,0,0,0,1.08-1.17,5.9,5.9,0,0,0,.7-1.63,8.14,8.14,0,0,0,.26-2.14,13.77,13.77,0,0,0-.82-4.54,23.51,23.51,0,0,0-2.52-5" transform="translate(-528.67 -44.13)" style="fill:#f2f2f2"/><path d="M1130.56,418l-.58-.34a4.39,4.39,0,0,0-1.29-.53,1.23,1.23,0,0,0-.89.11,1.3,1.3,0,0,0-.51.74,4.66,4.66,0,0,0-.16,1.35v1.4a2.4,2.4,0,0,1-.08.67.52.52,0,0,1-.23.35.56.56,0,0,1-.43,0,2.54,2.54,0,0,1-.64-.28l-.44-.25v1.5l.43.26a2.51,2.51,0,0,1,1.06,1,2.94,2.94,0,0,1,.32,1.41v2a5.23,5.23,0,0,0,2.84,4.95l.58.34v-1.5l-.44-.25a4,4,0,0,1-.6-.43,3,3,0,0,1-.46-.56,2.8,2.8,0,0,1-.3-.73,3.57,3.57,0,0,1-.1-.91v-2a4.65,4.65,0,0,0-.36-2,3.19,3.19,0,0,0-1.09-1.31,1.58,1.58,0,0,0,.65.16.64.64,0,0,0,.45-.17,1.18,1.18,0,0,0,.27-.55,4.26,4.26,0,0,0,.09-1v-1.39a2.37,2.37,0,0,1,.1-.79.64.64,0,0,1,.3-.37.71.71,0,0,1,.46,0,2.31,2.31,0,0,1,.61.26l.43.25V418" transform="translate(-528.67 -44.13)" style="fill:#f2f2f2"/><path d="M1014.29,374l-3.72-2.15v1.51l2,1.15,0,5.07-2.23-1.29v1.51l6,3.46v-1.51l-2-1.17,0-6.58m-.95-4a1,1,0,0,0-.44-.15.61.61,0,0,0-.36.06.77.77,0,0,0-.23.27,1.08,1.08,0,0,0-.08.46,1.71,1.71,0,0,0,.08.53,2.58,2.58,0,0,0,.23.54,2.74,2.74,0,0,0,.36.48,1.83,1.83,0,0,0,.44.35,1,1,0,0,0,.43.15.51.51,0,0,0,.58-.34,1,1,0,0,0,.09-.44,2.15,2.15,0,0,0-.08-.55,3.54,3.54,0,0,0-.23-.53,2.81,2.81,0,0,0-.35-.48,2.05,2.05,0,0,0-.44-.35" transform="translate(-528.67 -44.13)" style="fill:#f9273c"/><path d="M1022.79,375.57a5,5,0,0,0-1.26-.54,1.55,1.55,0,0,0-1,0,1.16,1.16,0,0,0-.62.66,3.51,3.51,0,0,0-.23,1.36v1.22l-2-1.18v1.51l2.05,1.18,0,5.42,1.71,1v-5.41l2.77,1.59v-1.51l-2.76-1.59V378a1.84,1.84,0,0,1,.11-.69.61.61,0,0,1,.3-.33.64.64,0,0,1,.44,0,1.85,1.85,0,0,1,.55.22,6.82,6.82,0,0,1,.86.58,6.71,6.71,0,0,1,.72.6v-1.57c-.24-.2-.49-.4-.77-.6a7.12,7.12,0,0,0-.86-.57" transform="translate(-528.67 -44.13)" style="fill:#f9273c"/><path d="M1030.23,379.4a5.45,5.45,0,0,0-1.38.76,4.61,4.61,0,0,0-1.09,1.15,5.44,5.44,0,0,0-.7,1.62,8.22,8.22,0,0,0-.26,2.15,13.53,13.53,0,0,0,.83,4.53,25,25,0,0,0,2.51,5l1-.59a19.52,19.52,0,0,1-2-4.22,12.15,12.15,0,0,1-.66-3.87,6.1,6.1,0,0,1,.68-3,4.31,4.31,0,0,1,2-1.84l-1-1.66" transform="translate(-528.67 -44.13)" style="fill:#f2f2f2"/><polyline points="511.72 344.92 509.91 343.87 508.42 347.66 507.98 348.83 507.55 347.1 506.11 341.67 504.22 340.58 506.99 350.29 508.94 351.41 511.72 344.92" style="fill:#9ef2c6"/><path d="M1055.2,402.14l-6-3.44v1.55l6,3.43v-1.54m0-3.14-6-3.44v1.55l6,3.44V399" transform="translate(-528.67 -44.13)" style="fill:#f2f2f2"/><path d="M1063,406.65l-6-3.44v1.54l6,3.44v-1.54m0-3.14-6-3.44v1.54l6,3.45v-1.55" transform="translate(-528.67 -44.13)" style="fill:#f2f2f2"/><path d="M1075.46,416a7,7,0,0,1-.6-.4,4.59,4.59,0,0,1-.5-.43v-3.54a3.31,3.31,0,0,1,.84-.6.84.84,0,0,1,.82.08,1.75,1.75,0,0,1,.51.43,2.12,2.12,0,0,1,.38.66,3.86,3.86,0,0,1,.24.92,6.91,6.91,0,0,1,.08,1.18,3.57,3.57,0,0,1-.13,1.06,1.31,1.31,0,0,1-.36.65.76.76,0,0,1-.56.22,1.43,1.43,0,0,1-.73-.23m1-6.33a3.14,3.14,0,0,0-.7-.31,1.71,1.71,0,0,0-.58-.06,1.25,1.25,0,0,0-.51.14,3,3,0,0,0-.45.31l0-1.22-1.45-.84,0,11.25,1.68,1v-3.16c.15.13.31.25.48.38s.35.24.53.35a4.83,4.83,0,0,0,1.44.57,1.78,1.78,0,0,0,1.16-.13,1.65,1.65,0,0,0,.76-.9,4.55,4.55,0,0,0,.28-1.77,8.74,8.74,0,0,0-.16-1.8,7.59,7.59,0,0,0-.5-1.57,5.86,5.86,0,0,0-.81-1.29,4.39,4.39,0,0,0-1.11-.92" transform="translate(-528.67 -44.13)" style="fill:#9ef2c6"/><path d="M1082.13,409.36l-1,.57a19.59,19.59,0,0,1,2,4.24,12.45,12.45,0,0,1,.67,3.86,6,6,0,0,1-.69,3,4.19,4.19,0,0,1-2,1.85l1,1.66a5.5,5.5,0,0,0,1.37-.75,4.33,4.33,0,0,0,1.08-1.17,5.9,5.9,0,0,0,.7-1.63,8.11,8.11,0,0,0,.25-2.14,13.27,13.27,0,0,0-.82-4.54,23.62,23.62,0,0,0-2.51-5" transform="translate(-528.67 -44.13)" style="fill:#f2f2f2"/><path d="M1099.76,423.2a4.46,4.46,0,0,0-1.52-.58,1.7,1.7,0,0,0-1.93,1.1,4.11,4.11,0,0,0-.27,1.6,7.35,7.35,0,0,0,.24,1.91,6.73,6.73,0,0,0,1.84,3.13,7.37,7.37,0,0,0,1.5,1.13,7.47,7.47,0,0,0,1.12.53,4.06,4.06,0,0,0,1,.25v-1.72a3.79,3.79,0,0,1-.45-.07l-.49-.12c-.16-.06-.33-.11-.49-.18a5.16,5.16,0,0,1-.47-.24,3.93,3.93,0,0,1-1.47-1.52,4.26,4.26,0,0,1-.55-2.14,2.93,2.93,0,0,1,.14-.95,1.13,1.13,0,0,1,.39-.56.93.93,0,0,1,.63-.15,2.16,2.16,0,0,1,.85.31,6.31,6.31,0,0,1,1,.68,8.09,8.09,0,0,1,.93.92v-1.89a10.12,10.12,0,0,0-.83-.69,11.25,11.25,0,0,0-1.16-.75" transform="translate(-528.67 -44.13)" style="fill:#f9273c"/><path d="M1106.83,434a3,3,0,0,1-1.21-1.34,4.94,4.94,0,0,1-.44-2.17,4.35,4.35,0,0,1,.1-.93,1.42,1.42,0,0,1,.29-.63.75.75,0,0,1,.52-.26,1.41,1.41,0,0,1,.75.24,3,3,0,0,1,1.22,1.34,5,5,0,0,1,.41,2.12,5.35,5.35,0,0,1-.1,1,1.64,1.64,0,0,1-.3.65.69.69,0,0,1-.5.25,1.4,1.4,0,0,1-.74-.23m.08-6.74a3.78,3.78,0,0,0-1.46-.53,1.56,1.56,0,0,0-1.09.24,1.87,1.87,0,0,0-.7.94,4.73,4.73,0,0,0-.24,1.62,7.69,7.69,0,0,0,.23,2,6.52,6.52,0,0,0,.65,1.68,6.2,6.2,0,0,0,1,1.39,6.43,6.43,0,0,0,1.39,1.07,3.7,3.7,0,0,0,1.47.54,1.62,1.62,0,0,0,1.09-.25,1.92,1.92,0,0,0,.69-1,5,5,0,0,0,.24-1.61,7.56,7.56,0,0,0-.23-1.93,6.64,6.64,0,0,0-.64-1.68,6.27,6.27,0,0,0-1-1.39,6.83,6.83,0,0,0-1.4-1.09" transform="translate(-528.67 -44.13)" style="fill:#f9273c"/><path d="M1115.43,432.19a3.34,3.34,0,0,0-.7-.3,1.71,1.71,0,0,0-.58-.06,1.2,1.2,0,0,0-.5.14,2.26,2.26,0,0,0-.45.31l0-1.22-1.46-.85,0,8.1,1.69,1,0-5.12a3.12,3.12,0,0,1,.83-.6.87.87,0,0,1,.82.07,1.94,1.94,0,0,1,.86,1.83l0,5.27,1.7,1v-5.43a5.55,5.55,0,0,0-.13-1.24,4.83,4.83,0,0,0-.41-1.14,4.12,4.12,0,0,0-1.61-1.71" transform="translate(-528.67 -44.13)" style="fill:#f9273c"/><path d="M1122.58,433.91l-1.74-.49v2.07l-1.9-1.09v1.51l1.89,1.09v4a5.76,5.76,0,0,0,.15,1.35,4.11,4.11,0,0,0,.48,1.14,4.6,4.6,0,0,0,.83,1,7.71,7.71,0,0,0,1.2.86,8,8,0,0,0,.88.43,9.42,9.42,0,0,0,.92.34v-1.55a7.33,7.33,0,0,1-.72-.23,6,6,0,0,1-.81-.39,2.39,2.39,0,0,1-.94-.89,2.57,2.57,0,0,1-.27-1.21V438l2.74,1.58v-1.51l-2.74-1.58v-2.58" transform="translate(-528.67 -44.13)" style="fill:#f9273c"/><path d="M1131.3,441.53l-3.71-2.14v1.51l2,1.15,0,5.07-2.22-1.29v1.51l6,3.46v-1.51l-2-1.17,0-6.59m-1-4a1.21,1.21,0,0,0-.44-.15.57.57,0,0,0-.35.07.64.64,0,0,0-.24.27,1.21,1.21,0,0,0-.08.45,1.77,1.77,0,0,0,.08.54,2.5,2.5,0,0,0,.23.54,2.73,2.73,0,0,0,.35.47,2,2,0,0,0,.44.35,1.13,1.13,0,0,0,.44.16.65.65,0,0,0,.35-.07.56.56,0,0,0,.23-.27,1,1,0,0,0,.09-.44,2.15,2.15,0,0,0-.08-.55,3.65,3.65,0,0,0-.23-.54,2.73,2.73,0,0,0-.35-.47,2.48,2.48,0,0,0-.44-.36" transform="translate(-528.67 -44.13)" style="fill:#f9273c"/><path d="M1138.84,445.71a3,3,0,0,0-.71-.31,2,2,0,0,0-.58-.06,1.38,1.38,0,0,0-.5.14,2.58,2.58,0,0,0-.45.31l0-1.22-1.46-.84,0,8.09,1.69,1v-5.12a3,3,0,0,1,.83-.61.86.86,0,0,1,.83.08,1.93,1.93,0,0,1,.85,1.82l0,5.27,1.7,1v-5.43a5.55,5.55,0,0,0-.13-1.24,4.43,4.43,0,0,0-.41-1.14,3.89,3.89,0,0,0-.67-1,3.78,3.78,0,0,0-.93-.75" transform="translate(-528.67 -44.13)" style="fill:#f9273c"/><path d="M1148.78,451.62l-1.69-1,0,5.12a3.12,3.12,0,0,1-.83.6.84.84,0,0,1-.81-.06,1.54,1.54,0,0,1-.65-.71,2.62,2.62,0,0,1-.22-1.13l0-5.27-1.7-1v5.43a5.15,5.15,0,0,0,.14,1.25,4.47,4.47,0,0,0,.4,1.13,4,4,0,0,0,.67,1,4.43,4.43,0,0,0,1,.75,3.28,3.28,0,0,0,.69.3,1.69,1.69,0,0,0,.58.05,1.2,1.2,0,0,0,.5-.14,2.58,2.58,0,0,0,.45-.31l0,1.22,1.46.85,0-8.1" transform="translate(-528.67 -44.13)" style="fill:#f9273c"/><path d="M1152.18,456.74a1.41,1.41,0,0,1,.49-1.1,1,1,0,0,1,1,.11,3.09,3.09,0,0,1,.54.43,2.45,2.45,0,0,1,.44.6,3.09,3.09,0,0,1,.3.75,3.31,3.31,0,0,1,.11.9l-2.93-1.69m1.58-2.42a3.29,3.29,0,0,0-1.37-.47,1.55,1.55,0,0,0-1.05.29,2.08,2.08,0,0,0-.67,1,5.25,5.25,0,0,0-.24,1.66,7.77,7.77,0,0,0,.23,1.89,6.74,6.74,0,0,0,.68,1.66,6.63,6.63,0,0,0,1.08,1.4,6.82,6.82,0,0,0,1.44,1.09c.21.13.43.24.66.36s.45.21.67.3l.65.25c.21.08.41.13.59.18v-1.54a9.53,9.53,0,0,1-1.21-.4,9.4,9.4,0,0,1-1.1-.55,3.74,3.74,0,0,1-.81-.61,4.11,4.11,0,0,1-.62-.77,3.42,3.42,0,0,1-.4-.92,3.81,3.81,0,0,1-.14-1l4.63,2.67c0-.18,0-.37,0-.58s0-.38,0-.51a5.59,5.59,0,0,0-.2-1.57,6,6,0,0,0-1.54-2.77,5.89,5.89,0,0,0-1.32-1" transform="translate(-528.67 -44.13)" style="fill:#f9273c"/><path d="M1161.39,464a1.25,1.25,0,0,0-.49-.17.6.6,0,0,0-.36.09.72.72,0,0,0-.22.29,1.2,1.2,0,0,0-.07.44,1.42,1.42,0,0,0,0,.47,2.37,2.37,0,0,0,.15.4,3.2,3.2,0,0,0,.19.37c.07.12.13.25.19.37a1.74,1.74,0,0,1,.14.38,1.49,1.49,0,0,1,.07.43.63.63,0,0,1-.16.48.61.61,0,0,1-.42.15,1.85,1.85,0,0,1-.63-.14,3.68,3.68,0,0,1-.61-.29l-.17-.1v1.27a5.48,5.48,0,0,0,1.66.67,2,2,0,0,0,1.17-.1,1.41,1.41,0,0,0,.71-.73,3.09,3.09,0,0,0,.24-1.25,4.67,4.67,0,0,0-.1-.89,4,4,0,0,0-.74-1.61,2.29,2.29,0,0,0-.6-.53m0-5.18a1,1,0,0,0-.49-.16.62.62,0,0,0-.39.07.63.63,0,0,0-.27.31,1.09,1.09,0,0,0-.1.5,2.27,2.27,0,0,0,.09.62,3.66,3.66,0,0,0,.27.61,2.55,2.55,0,0,0,.4.53,2,2,0,0,0,.48.39,1.2,1.2,0,0,0,.49.17.64.64,0,0,0,.4-.07.6.6,0,0,0,.26-.3,1.13,1.13,0,0,0,.11-.51,1.92,1.92,0,0,0-.11-.61,2.4,2.4,0,0,0-.26-.62,3.13,3.13,0,0,0-.39-.53,2,2,0,0,0-.49-.4" transform="translate(-528.67 -44.13)" style="fill:#f2f2f2"/><path d="M1014.24,393.54l-3.72-2.14v1.51l2,1.15v5.06l-2.23-1.29v1.51l6,3.46v-1.51l-2-1.17,0-6.58m-1-4a1,1,0,0,0-.44-.16.54.54,0,0,0-.36.07.62.62,0,0,0-.23.27,1,1,0,0,0-.09.44,2.15,2.15,0,0,0,.08.55,3.54,3.54,0,0,0,.23.53,2.86,2.86,0,0,0,.36.48,1.83,1.83,0,0,0,.44.35,1,1,0,0,0,.43.15.62.62,0,0,0,.36-.07.66.66,0,0,0,.23-.26,1,1,0,0,0,.08-.45,1.73,1.73,0,0,0-.08-.54,2.83,2.83,0,0,0-.23-.54,2.68,2.68,0,0,0-.35-.48,1.69,1.69,0,0,0-.43-.34" transform="translate(-528.67 -44.13)" style="fill:#f9273c"/><path d="M1022.73,395.13a5.68,5.68,0,0,0-1.26-.55,1.62,1.62,0,0,0-1,0,1.19,1.19,0,0,0-.62.66,3.27,3.27,0,0,0-.22,1.35v1.22l-2-1.18v1.51l2,1.18v5.42l1.7,1,0-5.41,2.76,1.59v-1.51l-2.76-1.6v-1.3a1.78,1.78,0,0,1,.11-.68.68.68,0,0,1,.3-.34.71.71,0,0,1,.44,0,2.35,2.35,0,0,1,.56.24,8.88,8.88,0,0,1,.85.56,8.35,8.35,0,0,1,.73.62v-1.57a9.64,9.64,0,0,0-.76-.61q-.42-.3-.87-.57" transform="translate(-528.67 -44.13)" style="fill:#f9273c"/><path d="M1030.18,399a5.49,5.49,0,0,0-1.38.77,4.56,4.56,0,0,0-1.09,1.14,5.71,5.71,0,0,0-.71,1.62,8.67,8.67,0,0,0-.26,2.15,13.51,13.51,0,0,0,.84,4.53,23.74,23.74,0,0,0,2.51,5l1-.6a19.24,19.24,0,0,1-2-4.22,12.4,12.4,0,0,1-.67-3.86,6,6,0,0,1,.69-3,4.27,4.27,0,0,1,2-1.84l-1-1.66" transform="translate(-528.67 -44.13)" style="fill:#f2f2f2"/><polyline points="511.67 364.48 509.86 363.43 508.36 367.23 507.93 368.4 507.5 366.67 506.05 361.24 504.17 360.15 506.93 369.85 508.88 370.97 511.67 364.48" style="fill:#9ef2c6"/><path d="M1055.14,421.7l-6-3.44v1.55l6,3.44V421.7m0-3.13-6-3.44v1.54l6,3.44v-1.54" transform="translate(-528.67 -44.13)" style="fill:#f2f2f2"/><path d="M1062.94,426.21l-6-3.45v1.55l6,3.45v-1.55m0-3.14-6-3.44v1.54l6,3.45v-1.55" transform="translate(-528.67 -44.13)" style="fill:#f2f2f2"/><path d="M1074.34,425.08l-1.69-1,0,11.25,1.68,1,0-5.11a3,3,0,0,1,.83-.61.92.92,0,0,1,.83.08,1.92,1.92,0,0,1,.85,1.82l0,5.27,1.7,1v-5.43a5.61,5.61,0,0,0-.13-1.24A4.76,4.76,0,0,0,1078,431a4.2,4.2,0,0,0-.66-1,3.94,3.94,0,0,0-1-.75,4.15,4.15,0,0,0-.66-.3,1.81,1.81,0,0,0-.55-.07,1.31,1.31,0,0,0-.48.12,3.48,3.48,0,0,0-.44.27l.09-1.41v-2.77" transform="translate(-528.67 -44.13)" style="fill:#9ef2c6"/><polyline points="558.47 391.5 556.65 390.45 555.17 394.25 554.73 395.42 554.3 393.69 552.86 388.26 550.97 387.17 553.74 396.87 555.69 397.99 558.47 391.5" style="fill:#9ef2c6"/><polyline points="564.38 391.39 560.73 389.28 560.69 404.05 564.34 406.15 564.34 404.64 562.25 403.44 562.28 391.69 564.37 392.9 564.38 391.39" style="fill:#f2f2f2"/><path d="M1101.92,444.17l-1.7-1v5.12a3,3,0,0,1-.83.61.9.9,0,0,1-.82-.07,1.63,1.63,0,0,1-.65-.72,2.67,2.67,0,0,1-.21-1.12v-5.27l-1.68-1,0,5.43a6.28,6.28,0,0,0,.13,1.24,5.22,5.22,0,0,0,.4,1.13,5,5,0,0,0,.68,1,4,4,0,0,0,.94.74,3.14,3.14,0,0,0,.7.31,2,2,0,0,0,.58.06,1.62,1.62,0,0,0,.5-.15,5.11,5.11,0,0,0,.46-.3l0,1.21,1.46.84,0-8.08" transform="translate(-528.67 -44.13)" style="fill:#9ef2c6"/><polyline points="579.68 400.22 576.05 398.12 576.04 399.63 578.12 400.83 578.09 412.58 576.01 411.38 576.01 412.89 579.64 414.99 579.68 400.22" style="fill:#f2f2f2"/><path d="M1113.27,446.94l-1,.58a18.92,18.92,0,0,1,2,4.23,12.4,12.4,0,0,1,.67,3.86,6.17,6.17,0,0,1-.69,3,4.17,4.17,0,0,1-2,1.84l1,1.67a5.75,5.75,0,0,0,1.38-.75,4.65,4.65,0,0,0,1.08-1.17,6.21,6.21,0,0,0,.7-1.63,8.59,8.59,0,0,0,.26-2.14,13.79,13.79,0,0,0-.83-4.54,22.76,22.76,0,0,0-2.52-5" transform="translate(-528.67 -44.13)" style="fill:#f2f2f2"/><path d="M1130.91,460.78a4.33,4.33,0,0,0-1.52-.58,1.7,1.7,0,0,0-1.93,1.1,4.32,4.32,0,0,0-.27,1.61,7.38,7.38,0,0,0,.24,1.9,7.1,7.1,0,0,0,.71,1.7,7,7,0,0,0,1.12,1.43,7.73,7.73,0,0,0,1.51,1.13,7.39,7.39,0,0,0,1.11.53,3.74,3.74,0,0,0,1,.25v-1.72a2.6,2.6,0,0,1-.45-.07l-.48-.12a4.09,4.09,0,0,1-.49-.18,5.16,5.16,0,0,1-.47-.24,3.46,3.46,0,0,1-.83-.65,4.25,4.25,0,0,1-.64-.87,4.19,4.19,0,0,1-.41-1,4.14,4.14,0,0,1-.14-1.12,2.91,2.91,0,0,1,.13-.95,1,1,0,0,1,.4-.56.93.93,0,0,1,.63-.15,2,2,0,0,1,.84.3,7,7,0,0,1,1,.69,9,9,0,0,1,.93.92v-1.88a10.59,10.59,0,0,0-.85-.7,11,11,0,0,0-1.15-.75" transform="translate(-528.67 -44.13)" style="fill:#f9273c"/><path d="M1138,471.59a3.1,3.1,0,0,1-1.21-1.34,4.8,4.8,0,0,1-.44-2.17,4.38,4.38,0,0,1,.09-.93,1.53,1.53,0,0,1,.3-.64.72.72,0,0,1,.52-.25,1.44,1.44,0,0,1,.75.24,3,3,0,0,1,1.21,1.33,4.94,4.94,0,0,1,.41,2.13,4,4,0,0,1-.1,1,1.56,1.56,0,0,1-.29.65.7.7,0,0,1-.51.25,1.42,1.42,0,0,1-.73-.23m.07-6.74a3.69,3.69,0,0,0-1.45-.53,1.66,1.66,0,0,0-1.1.24,1.79,1.79,0,0,0-.68.95,4.39,4.39,0,0,0-.25,1.61,8.29,8.29,0,0,0,.22,2,6.54,6.54,0,0,0,.66,1.68,6.16,6.16,0,0,0,1,1.39,6.74,6.74,0,0,0,1.4,1.07,3.86,3.86,0,0,0,1.47.54,1.58,1.58,0,0,0,1.09-.25,2,2,0,0,0,.68-1,4.77,4.77,0,0,0,.24-1.62,7.49,7.49,0,0,0-.22-1.92,6.52,6.52,0,0,0-.65-1.68,6.45,6.45,0,0,0-1-1.4,6.93,6.93,0,0,0-1.41-1.08" transform="translate(-528.67 -44.13)" style="fill:#f9273c"/><path d="M1146.58,469.78a2.74,2.74,0,0,0-.7-.31,1.73,1.73,0,0,0-.58-.07,1.77,1.77,0,0,0-.51.15,2.42,2.42,0,0,0-.45.31l0-1.22-1.46-.84,0,8.08,1.69,1,0-5.12a2.72,2.72,0,0,1,.83-.6.84.84,0,0,1,.82.08A1.88,1.88,0,0,1,1147,473v5.27l1.69,1,0-5.43a6.36,6.36,0,0,0-.13-1.24,4.53,4.53,0,0,0-.41-1.12,4.13,4.13,0,0,0-1.61-1.71" transform="translate(-528.67 -44.13)" style="fill:#f9273c"/><path d="M1153.72,471.48,1152,471v2.07l-1.89-1.09v1.51l1.89,1.09v3.95a5.69,5.69,0,0,0,.15,1.35,4.24,4.24,0,0,0,.48,1.16,5.08,5.08,0,0,0,.83,1,7.24,7.24,0,0,0,1.2.85,7.87,7.87,0,0,0,.87.44c.32.13.62.24.93.34v-1.55c-.22-.06-.46-.13-.73-.23a5.94,5.94,0,0,1-.81-.39,2.38,2.38,0,0,1-.93-.9,2.53,2.53,0,0,1-.27-1.2v-3.81l2.74,1.59v-1.52l-2.74-1.58v-2.59" transform="translate(-528.67 -44.13)" style="fill:#f9273c"/><path d="M1162.45,479.12l-3.72-2.15v1.51l2,1.15v5.06l-2.23-1.29v1.51l6,3.46v-1.51l-2-1.17,0-6.57m-1-4a1.13,1.13,0,0,0-.44-.16.54.54,0,0,0-.36.07.69.69,0,0,0-.23.27,1,1,0,0,0-.08.45,1.77,1.77,0,0,0,.08.54,2.5,2.5,0,0,0,.23.53,2.36,2.36,0,0,0,.35.48,2.48,2.48,0,0,0,.44.36,1.18,1.18,0,0,0,.44.14.58.58,0,0,0,.35-.06.62.62,0,0,0,.23-.27,1,1,0,0,0,.09-.45,1.75,1.75,0,0,0-.09-.54,2.47,2.47,0,0,0-.22-.53,3,3,0,0,0-.36-.49,2,2,0,0,0-.43-.34" transform="translate(-528.67 -44.13)" style="fill:#f9273c"/><path d="M1170,483.29a2.74,2.74,0,0,0-.7-.31,2,2,0,0,0-.58-.07,2.15,2.15,0,0,0-.51.15,2.42,2.42,0,0,0-.45.31l0-1.22-1.46-.84,0,8.08,1.7,1v-5.11a2.61,2.61,0,0,1,.83-.61.84.84,0,0,1,.82.08,1.87,1.87,0,0,1,.85,1.82v5.27l1.69,1,0-5.43a6.36,6.36,0,0,0-.13-1.24,5,5,0,0,0-.4-1.12,4.16,4.16,0,0,0-.68-1,3.83,3.83,0,0,0-.94-.75" transform="translate(-528.67 -44.13)" style="fill:#f9273c"/><path d="M1179.92,489.2l-1.69-1v5.12a3.15,3.15,0,0,1-.84.6.84.84,0,0,1-.81-.06,1.57,1.57,0,0,1-.65-.72,2.7,2.7,0,0,1-.21-1.12v-5.27l-1.69-1v5.43a5.2,5.2,0,0,0,.13,1.25,4.9,4.9,0,0,0,.4,1.13,4.59,4.59,0,0,0,.68,1,4.1,4.1,0,0,0,.94.74,3.14,3.14,0,0,0,.7.31,1.69,1.69,0,0,0,.58.05,1.38,1.38,0,0,0,.5-.14,3,3,0,0,0,.45-.31l0,1.21,1.46.85,0-8.09" transform="translate(-528.67 -44.13)" style="fill:#f9273c"/><path d="M1183.33,494.32a1.33,1.33,0,0,1,.49-1.1,1,1,0,0,1,1,.12,2.63,2.63,0,0,1,.54.42,2.93,2.93,0,0,1,.44.59,3.17,3.17,0,0,1,.3.76,3.27,3.27,0,0,1,.1.9l-2.92-1.69m1.57-2.42a3.07,3.07,0,0,0-1.36-.47,1.55,1.55,0,0,0-1,.28,2.24,2.24,0,0,0-.67,1,5,5,0,0,0-.24,1.66,7.77,7.77,0,0,0,.23,1.89,6.9,6.9,0,0,0,.68,1.66,6,6,0,0,0,1.08,1.39,7.06,7.06,0,0,0,1.43,1.1l.67.36c.22.11.44.21.67.3l.65.25.59.18V500a8.2,8.2,0,0,1-1.21-.41,8.65,8.65,0,0,1-1.1-.54,4.09,4.09,0,0,1-.81-.61,3.8,3.8,0,0,1-.62-.78,3.5,3.5,0,0,1-.4-.91,3.47,3.47,0,0,1-.15-1l4.63,2.67c0-.17,0-.36,0-.57s0-.38,0-.51a6.44,6.44,0,0,0-.2-1.57,5.85,5.85,0,0,0-.58-1.47,6.67,6.67,0,0,0-1-1.31,6.14,6.14,0,0,0-1.33-1" transform="translate(-528.67 -44.13)" style="fill:#f9273c"/><path d="M1192.53,501.61a1.21,1.21,0,0,0-.48-.17.54.54,0,0,0-.36.09.64.64,0,0,0-.22.29,1.19,1.19,0,0,0-.08.44,1.78,1.78,0,0,0,.06.47c0,.14.09.27.14.4l.19.37.2.37a2.92,2.92,0,0,1,.14.38,1.19,1.19,0,0,1,.06.42.68.68,0,0,1-.15.49.61.61,0,0,1-.42.14,1.61,1.61,0,0,1-.63-.13,4.19,4.19,0,0,1-.65-.31l-.13-.08V506a5.34,5.34,0,0,0,1.65.68,2,2,0,0,0,1.18-.09,1.49,1.49,0,0,0,.7-.74,2.93,2.93,0,0,0,.24-1.25,3.35,3.35,0,0,0-.1-.88,4,4,0,0,0-.27-.87,3.5,3.5,0,0,0-.46-.75,2.18,2.18,0,0,0-.61-.53m0-5.18a1.11,1.11,0,0,0-.48-.17.76.76,0,0,0-.4.08.79.79,0,0,0-.27.3,1.29,1.29,0,0,0-.09.51,1.94,1.94,0,0,0,.09.62,2.53,2.53,0,0,0,.27.61,2.83,2.83,0,0,0,.39.52,1.83,1.83,0,0,0,.49.4,1,1,0,0,0,.49.17.66.66,0,0,0,.4-.07.68.68,0,0,0,.26-.31,1.06,1.06,0,0,0,.1-.5,2.05,2.05,0,0,0-.1-.62,2.49,2.49,0,0,0-.26-.61,2.9,2.9,0,0,0-.39-.53,2.66,2.66,0,0,0-.5-.4" transform="translate(-528.67 -44.13)" style="fill:#f2f2f2"/><path d="M1012.72,418.88a1.82,1.82,0,0,1-.52-.44,2.4,2.4,0,0,1-.39-.66,4.42,4.42,0,0,1-.23-.92,7.12,7.12,0,0,1-.07-1.19,4.07,4.07,0,0,1,.12-1.06,1.5,1.5,0,0,1,.36-.65.85.85,0,0,1,.56-.22,1.57,1.57,0,0,1,.73.23,5.33,5.33,0,0,1,.6.41,5.8,5.8,0,0,1,.49.42v3.54a3.15,3.15,0,0,1-.82.62.89.89,0,0,1-.82-.08m3.36-7.84-1.69-1v3.16c-.14-.12-.3-.25-.48-.38a6,6,0,0,0-.53-.34,4.62,4.62,0,0,0-1.44-.58A1.6,1.6,0,0,0,1010,413a4.52,4.52,0,0,0-.28,1.77,8.54,8.54,0,0,0,.17,1.78,6.88,6.88,0,0,0,.5,1.59,5.79,5.79,0,0,0,.81,1.28,4.11,4.11,0,0,0,1.11.93,3.14,3.14,0,0,0,.68.29,1.69,1.69,0,0,0,.58.05,1.2,1.2,0,0,0,.5-.14,2.27,2.27,0,0,0,.46-.3l0,1.22,1.47.85,0-11.25" transform="translate(-528.67 -44.13)" style="fill:#9ef2c6"/><path d="M1022.67,414.69a5.12,5.12,0,0,0-1.25-.54,1.47,1.47,0,0,0-1,0,1.22,1.22,0,0,0-.63.65,3.72,3.72,0,0,0-.22,1.35v1.23l-2-1.18v1.51l2.05,1.18,0,5.41,1.7,1,0-5.42,2.76,1.6V420l-2.77-1.6v-1.31a1.66,1.66,0,0,1,.11-.67.62.62,0,0,1,.29-.34.68.68,0,0,1,.45,0,2.23,2.23,0,0,1,.55.23,9.14,9.14,0,0,1,.86.57,8.15,8.15,0,0,1,.72.6v-1.56c-.24-.2-.49-.4-.77-.61s-.57-.39-.87-.57" transform="translate(-528.67 -44.13)" style="fill:#9ef2c6"/><path d="M1029,421.48a5,5,0,0,0-1.34-.59,1.76,1.76,0,0,0-1,0,1,1,0,0,0-.58.43,1.54,1.54,0,0,0-.2.81,3.74,3.74,0,0,0,.12,1,4.09,4.09,0,0,0,.39.89,4.91,4.91,0,0,0,.65.87,11.11,11.11,0,0,0,.91.9l.9.85q.35.36.54.6a1.65,1.65,0,0,1,.26.45,1.15,1.15,0,0,1,.06.37c0,.26-.11.41-.32.44a1.69,1.69,0,0,1-1-.33,10.36,10.36,0,0,1-1.22-.84,14.2,14.2,0,0,1-1.3-1.2v1.74a13.4,13.4,0,0,0,1.18.93c.42.3.88.59,1.4.89a5.71,5.71,0,0,0,1.14.52,2.32,2.32,0,0,0,1,.13,1.05,1.05,0,0,0,.71-.39,1.61,1.61,0,0,0,.27-1,3.7,3.7,0,0,0-.11-.9,3.09,3.09,0,0,0-.36-.87,5.5,5.5,0,0,0-.67-.9,11.09,11.09,0,0,0-1-1c-.35-.33-.64-.6-.86-.83a6.8,6.8,0,0,1-.51-.58,1.64,1.64,0,0,1-.25-.42,1.13,1.13,0,0,1-.06-.36c0-.26.11-.39.32-.42a1.5,1.5,0,0,1,.83.27,10.5,10.5,0,0,1,1.05.69c.36.28.73.6,1.14,1v-1.58c-.27-.21-.57-.45-.91-.7a12.13,12.13,0,0,0-1.18-.75" transform="translate(-528.67 -44.13)" style="fill:#9ef2c6"/><path d="M1037.92,423a5.78,5.78,0,0,0-1.38.76,4.65,4.65,0,0,0-1.09,1.16,5.26,5.26,0,0,0-.7,1.61,8.22,8.22,0,0,0-.26,2.15,13.49,13.49,0,0,0,.83,4.53,24.48,24.48,0,0,0,2.51,5l1-.6a19.77,19.77,0,0,1-2-4.22,12.46,12.46,0,0,1-.67-3.87,6.22,6.22,0,0,1,.69-3,4.31,4.31,0,0,1,2-1.84l-1-1.66" transform="translate(-528.67 -44.13)" style="fill:#f2f2f2"/><polyline points="519.41 388.55 517.6 387.5 516.11 391.29 515.67 392.46 515.25 390.74 513.8 385.31 511.91 384.22 514.68 393.92 516.63 395.04 519.41 388.55" style="fill:#9ef2c6"/><path d="M1052,440.06a1,1,0,0,0-.48-.17.69.69,0,0,0-.36.09.55.55,0,0,0-.22.29,1.23,1.23,0,0,0-.08.44,1.65,1.65,0,0,0,.06.46,3.93,3.93,0,0,0,.14.41l.19.38c.07.12.14.23.2.36s.1.25.14.37a1.56,1.56,0,0,1,.06.44.63.63,0,0,1-.15.47.54.54,0,0,1-.42.16,1.85,1.85,0,0,1-.63-.14,4.7,4.7,0,0,1-.61-.29l-.17-.11v1.27a5.05,5.05,0,0,0,1.65.67,1.94,1.94,0,0,0,1.17-.09,1.39,1.39,0,0,0,.71-.72,3.06,3.06,0,0,0,.24-1.27,3.9,3.9,0,0,0-.1-.88,4.51,4.51,0,0,0-.27-.86,3.5,3.5,0,0,0-.46-.75,2,2,0,0,0-.61-.53" transform="translate(-528.67 -44.13)" style="fill:#f2f2f2"/><path d="M1070.66,445.72l-1.69-1,0,5.12a2.91,2.91,0,0,1-.83.6.82.82,0,0,1-.81-.06,1.52,1.52,0,0,1-.65-.72,2.66,2.66,0,0,1-.22-1.12l0-5.27-1.69-1v5.43a5.67,5.67,0,0,0,.13,1.24,4.74,4.74,0,0,0,.4,1.13,4,4,0,0,0,.67,1,3.66,3.66,0,0,0,1,.75,2.49,2.49,0,0,0,.69.3,1.51,1.51,0,0,0,.58.06,1.21,1.21,0,0,0,.5-.15,2.52,2.52,0,0,0,.45-.3l0,1.22,1.47.84,0-8.08" transform="translate(-528.67 -44.13)" style="fill:#9ef2c6"/><path d="M1075.38,453.57a1.07,1.07,0,0,0-.48-.17.61.61,0,0,0-.36.1.58.58,0,0,0-.22.28,1.23,1.23,0,0,0-.08.44,1.65,1.65,0,0,0,.06.46,2.48,2.48,0,0,0,.15.41l.18.38c.07.12.14.23.2.36a2.5,2.5,0,0,1,.15.38,1.45,1.45,0,0,1,0,.43.63.63,0,0,1-.15.47.54.54,0,0,1-.42.16,1.85,1.85,0,0,1-.63-.14,4.08,4.08,0,0,1-.6-.29l-.17-.1V458a5.23,5.23,0,0,0,1.65.66,1.86,1.86,0,0,0,1.17-.09,1.39,1.39,0,0,0,.71-.72,2.86,2.86,0,0,0,.24-1.26,3.9,3.9,0,0,0-.09-.89,5.39,5.39,0,0,0-.28-.86,3.35,3.35,0,0,0-.46-.75,2.16,2.16,0,0,0-.61-.53" transform="translate(-528.67 -44.13)" style="fill:#f2f2f2"/><path d="M1091.1,464.22a2.81,2.81,0,0,1-.93-.92,4.49,4.49,0,0,1-.62-1.5l3.38-.86a2.62,2.62,0,0,0,0,.27c0,.1,0,.19,0,.29a8.59,8.59,0,0,1-.15,1.59,2.81,2.81,0,0,1-.39,1,.87.87,0,0,1-.58.36,1.31,1.31,0,0,1-.73-.19m-1.8-4.29a2.72,2.72,0,0,1,0-.28v-.3a7.78,7.78,0,0,1,.14-1.6,2.42,2.42,0,0,1,.4-.95.84.84,0,0,1,.57-.37,1.26,1.26,0,0,1,.72.19,2.75,2.75,0,0,1,.94.92,5.1,5.1,0,0,1,.64,1.54l-3.4.85m1.93-4.83a3.47,3.47,0,0,0-1.53-.52,1.51,1.51,0,0,0-1.15.4,2.79,2.79,0,0,0-.72,1.29,8.27,8.27,0,0,0-.25,2.16,12,12,0,0,0,.25,2.57,9.15,9.15,0,0,0,.71,2.07,6.68,6.68,0,0,0,1.08,1.58,6.24,6.24,0,0,0,1.38,1.1,3.5,3.5,0,0,0,1.54.52,1.59,1.59,0,0,0,1.14-.41,2.69,2.69,0,0,0,.72-1.3,8.14,8.14,0,0,0,.25-2.15,12.14,12.14,0,0,0-.25-2.58,8.6,8.6,0,0,0-.71-2.06,6.68,6.68,0,0,0-1.08-1.58,6.25,6.25,0,0,0-1.38-1.09" transform="translate(-528.67 -44.13)" style="fill:#7572ff"/><path d="M1097.62,457.49l-1,.59a19.3,19.3,0,0,1,2,4.22,12.48,12.48,0,0,1,.66,3.87,6.27,6.27,0,0,1-.68,3,4.39,4.39,0,0,1-2.05,1.84l1,1.66a5.6,5.6,0,0,0,1.38-.76,4.33,4.33,0,0,0,1.08-1.17,5.65,5.65,0,0,0,.7-1.63A8.45,8.45,0,0,0,1101,467a13.68,13.68,0,0,0-.82-4.54,23.28,23.28,0,0,0-2.52-5" transform="translate(-528.67 -44.13)" style="fill:#f2f2f2"/><path d="M1106.67,471.63a1.21,1.21,0,0,0-.48-.17.59.59,0,0,0-.36.1.58.58,0,0,0-.23.29,1.14,1.14,0,0,0-.07.43,1.74,1.74,0,0,0,0,.47c.05.15.09.27.15.41l.2.37c.06.12.12.24.19.36s.1.25.14.38a1.44,1.44,0,0,1,.06.43.63.63,0,0,1-.16.48.56.56,0,0,1-.41.15,2,2,0,0,1-.64-.14,3.61,3.61,0,0,1-.6-.29l-.17-.1v1.27a5.05,5.05,0,0,0,1.65.66,1.94,1.94,0,0,0,1.17-.08,1.41,1.41,0,0,0,.71-.73,3,3,0,0,0,.24-1.26,4.11,4.11,0,0,0-.38-1.75,3.25,3.25,0,0,0-.45-.74,2.07,2.07,0,0,0-.61-.54m.06-5.17a1.19,1.19,0,0,0-.5-.17.64.64,0,0,0-.39.08.67.67,0,0,0-.27.3,1.09,1.09,0,0,0-.1.5,2,2,0,0,0,.1.62,2.55,2.55,0,0,0,.26.61,3.51,3.51,0,0,0,.4.53,2,2,0,0,0,.49.39,1.34,1.34,0,0,0,.49.18.76.76,0,0,0,.4-.08.65.65,0,0,0,.26-.3,1.29,1.29,0,0,0,.1-.51,1.9,1.9,0,0,0-.1-.61,2.55,2.55,0,0,0-.26-.61,3,3,0,0,0-.39-.54,2.47,2.47,0,0,0-.49-.39" transform="translate(-528.67 -44.13)" style="fill:#f2f2f2"/><path d="M985.72,412.75l-.58-.34v1.5l.44.25a3.44,3.44,0,0,1,.6.44,2.12,2.12,0,0,1,.46.56,2.6,2.6,0,0,1,.3.72,3.79,3.79,0,0,1,.1.93v1.32a4.67,4.67,0,0,0,.36,2,3.23,3.23,0,0,0,1.09,1.3,2,2,0,0,0-.65-.16.63.63,0,0,0-.45.17,1.22,1.22,0,0,0-.27.56,5.08,5.08,0,0,0-.09,1V425a2.49,2.49,0,0,1-.11.78.63.63,0,0,1-.3.38.6.6,0,0,1-.46,0,2.14,2.14,0,0,1-.6-.26l-.44-.25v1.49l.58.34a4.5,4.5,0,0,0,1.3.54,1.23,1.23,0,0,0,.89-.12,1.24,1.24,0,0,0,.51-.73,4.51,4.51,0,0,0,.17-1.34v-2.1a2.51,2.51,0,0,1,.08-.67.54.54,0,0,1,.23-.35.67.67,0,0,1,.43,0,2.54,2.54,0,0,1,.64.28l.44.25v-1.5l-.44-.25a2.63,2.63,0,0,1-1.06-1,2.94,2.94,0,0,1-.31-1.41V417.7a5.64,5.64,0,0,0-.7-2.92,5.75,5.75,0,0,0-2.14-2" transform="translate(-528.67 -44.13)" style="fill:#f2f2f2"/><path d="M988.53,437.49l-3.72-2.14v1.51l2,1.14,0,5.07-2.23-1.29v1.51l6,3.46v-1.51l-2-1.18,0-6.57m-.95-4a1.24,1.24,0,0,0-.44-.16.62.62,0,0,0-.36.08.69.69,0,0,0-.23.27,1,1,0,0,0-.08.44,1.68,1.68,0,0,0,.08.54,2.58,2.58,0,0,0,.23.54,2,2,0,0,0,.36.47,1.66,1.66,0,0,0,.44.36,1,1,0,0,0,.43.15.58.58,0,0,0,.35-.07.57.57,0,0,0,.23-.27,1,1,0,0,0,.09-.44,2,2,0,0,0-.08-.54,3.25,3.25,0,0,0-.23-.54,3,3,0,0,0-.35-.48,2.05,2.05,0,0,0-.44-.35" transform="translate(-528.67 -44.13)" style="fill:#f9273c"/><path d="M997,439.07a5.12,5.12,0,0,0-1.25-.54,1.47,1.47,0,0,0-1,0,1.17,1.17,0,0,0-.62.65,3.49,3.49,0,0,0-.23,1.35v1.23l-2-1.18v1.51L994,443.3l0,5.41,1.71,1v-5.42l2.77,1.6v-1.51l-2.76-1.6v-1.3a1.75,1.75,0,0,1,.11-.68.62.62,0,0,1,.29-.34.75.75,0,0,1,.45,0,2.23,2.23,0,0,1,.55.23,8,8,0,0,1,.86.57,8.12,8.12,0,0,1,.72.61v-1.57c-.24-.2-.49-.4-.77-.6a9.39,9.39,0,0,0-.87-.58" transform="translate(-528.67 -44.13)" style="fill:#f9273c"/><path d="M1004.47,442.9a5.82,5.82,0,0,0-1.38.77,4.78,4.78,0,0,0-1.09,1.15,5.44,5.44,0,0,0-.7,1.62,8.17,8.17,0,0,0-.26,2.15,13.53,13.53,0,0,0,.83,4.53,25,25,0,0,0,2.51,5l1-.6a19.24,19.24,0,0,1-2-4.21,12.09,12.09,0,0,1-.66-3.86,6.21,6.21,0,0,1,.68-3,4.34,4.34,0,0,1,2-1.83l-1-1.67" transform="translate(-528.67 -44.13)" style="fill:#f2f2f2"/><path d="M1009.63,446.5l-1.69-1,0,11.25,1.69,1v-5.11a2.91,2.91,0,0,1,.83-.61.89.89,0,0,1,.83.08,1.91,1.91,0,0,1,.85,1.82v5.27l1.69,1v-5.43a5.77,5.77,0,0,0-.13-1.25,5.33,5.33,0,0,0-.4-1.12,4.59,4.59,0,0,0-.67-1,3.94,3.94,0,0,0-1-.75,2.9,2.9,0,0,0-.66-.3,1.81,1.81,0,0,0-.55-.07,1.31,1.31,0,0,0-.48.12,3.08,3.08,0,0,0-.44.27l.09-1.41V446.5" transform="translate(-528.67 -44.13)" style="fill:#9ef2c6"/><polyline points="493.76 412.93 491.94 411.88 490.46 415.68 490.03 416.85 489.6 415.12 488.15 409.69 486.26 408.6 489.03 418.3 490.98 419.42 493.76 412.93" style="fill:#9ef2c6"/><polyline points="499.67 412.81 496.02 410.71 495.98 425.48 499.63 427.58 499.63 426.07 497.54 424.87 497.58 413.12 499.66 414.32 499.67 412.81" style="fill:#f2f2f2"/><path d="M1037.21,465.59l-1.69-1,0,5.12a2.83,2.83,0,0,1-.83.61.85.85,0,0,1-.81-.08,1.5,1.5,0,0,1-.65-.71,2.67,2.67,0,0,1-.21-1.12v-5.27l-1.69-1,0,5.42a5.7,5.7,0,0,0,.14,1.25,4.47,4.47,0,0,0,.4,1.13,4.54,4.54,0,0,0,.67,1,4.27,4.27,0,0,0,.94.74,3.14,3.14,0,0,0,.7.31,2.08,2.08,0,0,0,.59.06,1.64,1.64,0,0,0,.49-.15,4.13,4.13,0,0,0,.46-.31l0,1.22,1.46.84,0-8.09" transform="translate(-528.67 -44.13)" style="fill:#9ef2c6"/><polyline points="514.97 421.65 511.34 419.55 511.33 421.06 513.41 422.26 513.38 434.01 511.3 432.81 511.3 434.32 514.93 436.42 514.97 421.65" style="fill:#f2f2f2"/><path d="M1057.65,483.2a.9.9,0,0,0-.41-.15.51.51,0,0,0-.35.07.62.62,0,0,0-.23.25,1.21,1.21,0,0,0-.08.45,2.14,2.14,0,0,0,.08.54,2.66,2.66,0,0,0,.23.52,2,2,0,0,0,.34.46,1.9,1.9,0,0,0,.42.34.91.91,0,0,0,.42.14.48.48,0,0,0,.34-.06.49.49,0,0,0,.23-.26,1.1,1.1,0,0,0,.1-.44,2.18,2.18,0,0,0-.09-.54,3,3,0,0,0-.23-.52,2,2,0,0,0-.35-.46,1.5,1.5,0,0,0-.42-.34m1-8.39-2-1.13.24,8.17,1.44.84.28-7.88" transform="translate(-528.67 -44.13)" style="fill:#f2f2f2"/><path d="M1068.44,488.17l-6-3.44v1.55l6,3.44v-1.55m0-3.13-6-3.44v1.54l6,3.44V485" transform="translate(-528.67 -44.13)" style="fill:#f2f2f2"/><polyline points="554.55 450.92 550.24 448.44 550.24 450.16 554.55 452.65 554.55 450.92" style="fill:#f2f2f2"/><polyline points="561.4 449.6 559.99 448.78 557.1 448.86 557.65 450.77 559.67 450.65 559.65 457.34 557.35 456.01 557.34 457.74 563.37 461.21 563.37 459.49 561.38 458.34 561.4 449.6" style="fill:#7572ff"/><path d="M1095.37,495.38l-1,.59a19.75,19.75,0,0,1,2,4.22,12.19,12.19,0,0,1,.66,3.87,6.24,6.24,0,0,1-.68,3,4.29,4.29,0,0,1-2.05,1.84l1,1.66a5.42,5.42,0,0,0,1.38-.75,4.67,4.67,0,0,0,1.07-1.18,5.58,5.58,0,0,0,.7-1.62,8.59,8.59,0,0,0,.26-2.14,13.77,13.77,0,0,0-.82-4.54,23.28,23.28,0,0,0-2.52-5" transform="translate(-528.67 -44.13)" style="fill:#f2f2f2"/><path d="M1111.88,515.32a1.82,1.82,0,0,1-.52-.44,2.33,2.33,0,0,1-.38-.66,3.65,3.65,0,0,1-.24-.91,8.36,8.36,0,0,1-.08-1.19,4,4,0,0,1,.13-1.06,1.48,1.48,0,0,1,.36-.66.86.86,0,0,1,.56-.21,1.4,1.4,0,0,1,.74.23c.19.12.39.25.59.4a3.66,3.66,0,0,1,.49.43v3.53a2.66,2.66,0,0,1-.83.61.85.85,0,0,1-.81-.07m3.36-7.84-1.7-1v3.16a5,5,0,0,0-.48-.37,4,4,0,0,0-.53-.35,4.82,4.82,0,0,0-1.45-.58,1.76,1.76,0,0,0-1.15.13,1.83,1.83,0,0,0-.76.92,4.71,4.71,0,0,0-.28,1.77,9.45,9.45,0,0,0,.17,1.79,7.49,7.49,0,0,0,.5,1.58,5.57,5.57,0,0,0,.81,1.28,4.11,4.11,0,0,0,1.11.93,2.57,2.57,0,0,0,.68.29,1.51,1.51,0,0,0,1.09-.08,2.59,2.59,0,0,0,.46-.3l0,1.21,1.46.84,0-11.24" transform="translate(-528.67 -44.13)" style="fill:#9ef2c6"/><path d="M1121.83,511.13a5.54,5.54,0,0,0-1.25-.54,1.57,1.57,0,0,0-1,0,1.22,1.22,0,0,0-.61.65,3.33,3.33,0,0,0-.22,1.35v1.23l-2-1.18v1.51l2,1.18,0,5.41,1.71,1v-5.42l2.77,1.6v-1.51l-2.76-1.6v-1.3a1.84,1.84,0,0,1,.11-.69.61.61,0,0,1,.3-.33.71.71,0,0,1,.44,0,2,2,0,0,1,.56.24,8.28,8.28,0,0,1,.85.56c.28.22.52.42.72.61v-1.57c-.24-.2-.5-.4-.77-.6a7.74,7.74,0,0,0-.87-.58" transform="translate(-528.67 -44.13)" style="fill:#9ef2c6"/><path d="M1128.14,517.92a5.65,5.65,0,0,0-1.35-.59,1.86,1.86,0,0,0-1,0,.91.91,0,0,0-.58.43,1.58,1.58,0,0,0-.2.82,3.44,3.44,0,0,0,.13,1,3.72,3.72,0,0,0,.38.88,5.46,5.46,0,0,0,.65.87,9.75,9.75,0,0,0,.91.91c.37.33.67.61.9.85a4.38,4.38,0,0,1,.54.6,2.13,2.13,0,0,1,.26.43,1.33,1.33,0,0,1,.07.38c0,.26-.11.41-.33.44a1.68,1.68,0,0,1-1-.33,9.42,9.42,0,0,1-1.22-.85,12.66,12.66,0,0,1-1.3-1.19v1.75c.37.32.76.62,1.17.92s.88.59,1.4.89a5.71,5.71,0,0,0,1.14.52,2.3,2.3,0,0,0,1,.13,1,1,0,0,0,.71-.39,1.59,1.59,0,0,0,.27-1,3.27,3.27,0,0,0-.11-.9,3.21,3.21,0,0,0-.36-.87,6.54,6.54,0,0,0-.66-.89,12.47,12.47,0,0,0-1-1c-.36-.33-.65-.61-.87-.83a4.69,4.69,0,0,1-.51-.58,1.64,1.64,0,0,1-.25-.42,1.13,1.13,0,0,1-.06-.36c0-.26.11-.39.32-.41a1.39,1.39,0,0,1,.83.26,9.12,9.12,0,0,1,1,.7,10.16,10.16,0,0,1,1.13,1v-1.58c-.26-.22-.56-.45-.91-.7a11.9,11.9,0,0,0-1.17-.76" transform="translate(-528.67 -44.13)" style="fill:#9ef2c6"/><path d="M1137.08,519.46a6.19,6.19,0,0,0-1.38.77,4.44,4.44,0,0,0-1.08,1.16,5.23,5.23,0,0,0-.71,1.62,8.09,8.09,0,0,0-.26,2.14,13.24,13.24,0,0,0,.83,4.53,24.31,24.31,0,0,0,2.52,5l1-.6a19.71,19.71,0,0,1-2-4.22,12.09,12.09,0,0,1-.66-3.86,6.21,6.21,0,0,1,.68-3,4.39,4.39,0,0,1,2-1.83l-1-1.67" transform="translate(-528.67 -44.13)" style="fill:#f2f2f2"/><path d="M1142.24,523.07l-1.69-1,0,11.25,1.69,1,0-5.12a2.8,2.8,0,0,1,.82-.61.92.92,0,0,1,.83.08,1.93,1.93,0,0,1,.86,1.83l0,5.27,1.69,1v-5.43a5.61,5.61,0,0,0-.13-1.24,4.51,4.51,0,0,0-.4-1.12,4.41,4.41,0,0,0-.67-1,3.8,3.8,0,0,0-.94-.74,3.11,3.11,0,0,0-.66-.3,1.89,1.89,0,0,0-.56-.08,1.31,1.31,0,0,0-.48.12,2.62,2.62,0,0,0-.43.28l.09-1.42v-2.77" transform="translate(-528.67 -44.13)" style="fill:#9ef2c6"/><polyline points="626.37 489.5 624.56 488.45 623.07 492.25 622.63 493.41 622.21 491.68 620.76 486.25 618.87 485.16 621.64 494.86 623.59 495.98 626.37 489.5" style="fill:#9ef2c6"/><polyline points="632.28 489.38 628.64 487.27 628.6 502.04 632.24 504.14 632.24 502.63 630.16 501.43 630.19 489.69 632.27 490.89 632.28 489.38" style="fill:#f2f2f2"/><path d="M1169.82,542.16l-1.69-1v5.12a3,3,0,0,1-.84.61.87.87,0,0,1-.81-.07,1.59,1.59,0,0,1-.65-.71,2.59,2.59,0,0,1-.21-1.13v-5.27l-1.69-1,0,5.43a5.68,5.68,0,0,0,.14,1.24,4.34,4.34,0,0,0,.4,1.13,4.25,4.25,0,0,0,.68,1,3.88,3.88,0,0,0,.94.75,2.89,2.89,0,0,0,.7.3,1.71,1.71,0,0,0,.58.06,1.34,1.34,0,0,0,.49-.15,3.29,3.29,0,0,0,.46-.3l0,1.21,1.46.84,0-8.08" transform="translate(-528.67 -44.13)" style="fill:#9ef2c6"/><polyline points="647.58 498.21 643.96 496.12 643.95 497.63 646.02 498.82 645.99 510.57 643.92 509.38 643.91 510.89 647.54 512.98 647.58 498.21" style="fill:#f2f2f2"/><path d="M1182.34,554.52a1.07,1.07,0,0,0-.48-.17.54.54,0,0,0-.36.09.61.61,0,0,0-.22.29,1.15,1.15,0,0,0-.08.44,1.78,1.78,0,0,0,.06.47,2.74,2.74,0,0,0,.15.4c.06.13.12.25.19.37s.13.24.19.37a2.5,2.5,0,0,1,.15.38,1.42,1.42,0,0,1,0,.42.66.66,0,0,1-.15.48.57.57,0,0,1-.42.15,1.64,1.64,0,0,1-.63-.14,3.11,3.11,0,0,1-.64-.31l-.13-.07V559a5.54,5.54,0,0,0,1.65.67,2.05,2.05,0,0,0,1.18-.09,1.39,1.39,0,0,0,.7-.73,2.86,2.86,0,0,0,.24-1.26,3.81,3.81,0,0,0-.09-.88,4.41,4.41,0,0,0-.28-.87,3.69,3.69,0,0,0-.46-.74,2,2,0,0,0-.61-.53" transform="translate(-528.67 -44.13)" style="fill:#f2f2f2"/><path d="M1201,560.17l-1.69-1v5.12a3.21,3.21,0,0,1-.84.61.85.85,0,0,1-.81-.08,1.54,1.54,0,0,1-.65-.71,2.67,2.67,0,0,1-.21-1.12v-5.27l-1.69-1v5.43a5.2,5.2,0,0,0,.13,1.25,5.07,5.07,0,0,0,.4,1.13,4.25,4.25,0,0,0,.68,1,4.33,4.33,0,0,0,.94.74,3.14,3.14,0,0,0,.7.31,1.69,1.69,0,0,0,.58,0,1.38,1.38,0,0,0,.5-.14,4,4,0,0,0,.45-.31l0,1.22,1.46.84,0-8.09" transform="translate(-528.67 -44.13)" style="fill:#9ef2c6"/><path d="M1204.58,558.43l-1,.59a19.81,19.81,0,0,1,2,4.23,12.1,12.1,0,0,1,.66,3.87,6.23,6.23,0,0,1-.68,3,4.24,4.24,0,0,1-2,1.84l1,1.67a6,6,0,0,0,1.38-.76,4.8,4.8,0,0,0,1.07-1.17,5.77,5.77,0,0,0,.7-1.63,8.59,8.59,0,0,0,.26-2.14,13.77,13.77,0,0,0-.82-4.54,23.51,23.51,0,0,0-2.52-5" transform="translate(-528.67 -44.13)" style="fill:#f2f2f2"/><path d="M1213.63,572.58a1.21,1.21,0,0,0-.48-.17.59.59,0,0,0-.36.09.55.55,0,0,0-.22.29,1.19,1.19,0,0,0-.08.44,1.78,1.78,0,0,0,.06.47c0,.14.09.27.14.4l.2.37c.06.12.12.25.19.37s.1.25.14.38a1.42,1.42,0,0,1,.06.42.62.62,0,0,1-.16.48.5.5,0,0,1-.41.15,1.81,1.81,0,0,1-.63-.13,4.19,4.19,0,0,1-.65-.31l-.13-.08V577a5.05,5.05,0,0,0,1.65.67,1.93,1.93,0,0,0,1.17-.09,1.41,1.41,0,0,0,.71-.73,3,3,0,0,0,.24-1.26,4.36,4.36,0,0,0-.09-.87,4.66,4.66,0,0,0-.28-.87,3.5,3.5,0,0,0-.46-.75,2.18,2.18,0,0,0-.61-.53m.06-5.18a1.37,1.37,0,0,0-.49-.17.66.66,0,0,0-.4.08.72.72,0,0,0-.27.3,1.29,1.29,0,0,0-.09.51,2.32,2.32,0,0,0,.09.62,2.53,2.53,0,0,0,.27.61,2.83,2.83,0,0,0,.39.52,1.83,1.83,0,0,0,.49.4,1.15,1.15,0,0,0,.49.17.66.66,0,0,0,.4-.07.81.81,0,0,0,.26-.31,1.25,1.25,0,0,0,.1-.51,1.94,1.94,0,0,0-.1-.61,3,3,0,0,0-.26-.61,2.9,2.9,0,0,0-.39-.53,2.53,2.53,0,0,0-.49-.4" transform="translate(-528.67 -44.13)" style="fill:#f2f2f2"/><path d="M987.05,463a2,2,0,0,1-.75-.69,1.55,1.55,0,0,1-.28-.91.9.9,0,0,1,.09-.42.45.45,0,0,1,.28-.22.73.73,0,0,1,.48,0,3.24,3.24,0,0,1,.73.32l1,.6v1.07a2.16,2.16,0,0,1-.83.36,1,1,0,0,1-.74-.13m.31-6.73a7.72,7.72,0,0,0-1.38-.65,6.73,6.73,0,0,0-1.17-.3v1.56a4.54,4.54,0,0,1,1.18.22,6,6,0,0,1,1.23.55,3.73,3.73,0,0,1,.67.47,3,3,0,0,1,.44.53,2,2,0,0,1,.24.57,2.4,2.4,0,0,1,.07.6v.49l-.92-.53a6.4,6.4,0,0,0-1.52-.68,2.17,2.17,0,0,0-1.08-.07,1,1,0,0,0-.65.46,1.83,1.83,0,0,0-.21.93,4.17,4.17,0,0,0,.14,1.11,4,4,0,0,0,.42,1,4.44,4.44,0,0,0,.68.9,4.07,4.07,0,0,0,1,.73,3,3,0,0,0,.75.34,2.21,2.21,0,0,0,.64.11,1.51,1.51,0,0,0,.53-.09,2.23,2.23,0,0,0,.47-.22l0,1.08,1.45.83,0-5.52a4.9,4.9,0,0,0-.17-1.29,4.15,4.15,0,0,0-.54-1.17,5.25,5.25,0,0,0-.92-1.05,7.52,7.52,0,0,0-1.34-.94" transform="translate(-528.67 -44.13)" style="fill:#9ef2c6"/><path d="M994.81,467.33a2.14,2.14,0,0,1-.52-.44,2.33,2.33,0,0,1-.38-.66,4.42,4.42,0,0,1-.23-.92,8.25,8.25,0,0,1-.08-1.19,3.54,3.54,0,0,1,.13-1.05,1.39,1.39,0,0,1,.36-.66.84.84,0,0,1,.55-.22,1.52,1.52,0,0,1,.74.24,5.12,5.12,0,0,1,.59.4,4.76,4.76,0,0,1,.5.42v3.54a2.78,2.78,0,0,1-.83.61.87.87,0,0,1-.82-.07m3.36-7.84-1.69-1v3.17c-.14-.13-.3-.26-.47-.39a5.24,5.24,0,0,0-.53-.34,4.76,4.76,0,0,0-1.45-.58,1.79,1.79,0,0,0-1.16.13,1.84,1.84,0,0,0-.76.91,4.83,4.83,0,0,0-.27,1.78A8.7,8.7,0,0,0,992,465a6.71,6.71,0,0,0,.49,1.57,5.43,5.43,0,0,0,.81,1.29,4.26,4.26,0,0,0,1.11.93,3.36,3.36,0,0,0,.68.29,1.69,1.69,0,0,0,.58.05,1.25,1.25,0,0,0,.51-.14,2.13,2.13,0,0,0,.46-.3l0,1.22,1.46.84,0-11.24" transform="translate(-528.67 -44.13)" style="fill:#9ef2c6"/><path d="M1002.61,471.83a1.94,1.94,0,0,1-.52-.44,2.33,2.33,0,0,1-.38-.66,3.78,3.78,0,0,1-.23-.91,7.19,7.19,0,0,1-.08-1.19,4,4,0,0,1,.13-1.06,1.31,1.31,0,0,1,.36-.65.76.76,0,0,1,.56-.22,1.46,1.46,0,0,1,.73.23,4.38,4.38,0,0,1,.59.4c.2.15.36.3.5.42v3.54a2.66,2.66,0,0,1-.83.62.87.87,0,0,1-.82-.08M1006,464l-1.69-1v3.16c-.13-.12-.29-.25-.47-.39s-.35-.24-.53-.34a4.92,4.92,0,0,0-1.45-.58,1.75,1.75,0,0,0-1.15.14,1.73,1.73,0,0,0-.77.91,5,5,0,0,0-.28,1.77,8.69,8.69,0,0,0,.18,1.79,7.48,7.48,0,0,0,.49,1.58,5.34,5.34,0,0,0,.82,1.29,4.38,4.38,0,0,0,1.1.92,2.88,2.88,0,0,0,.68.29,1.49,1.49,0,0,0,1.09-.08,3.29,3.29,0,0,0,.46-.3l0,1.21,1.46.85,0-11.25" transform="translate(-528.67 -44.13)" style="fill:#9ef2c6"/><path d="M1012.22,467a6.92,6.92,0,0,0-1.39.76,4.79,4.79,0,0,0-1.08,1.16,5.71,5.71,0,0,0-.71,1.62,8.19,8.19,0,0,0-.25,2.15,13.28,13.28,0,0,0,.83,4.53,24.42,24.42,0,0,0,2.51,5l1-.6a19.18,19.18,0,0,1-2-4.21,12.17,12.17,0,0,1-.67-3.87,6.06,6.06,0,0,1,.69-3,4.34,4.34,0,0,1,2-1.83l-1-1.67" transform="translate(-528.67 -44.13)" style="fill:#f2f2f2"/><path d="M1021.55,476.16l-1.69-1v5.11a2.81,2.81,0,0,1-.84.61.82.82,0,0,1-.81-.07,1.54,1.54,0,0,1-.65-.71,2.7,2.7,0,0,1-.21-1.12v-5.27l-1.69-1v5.43a5.2,5.2,0,0,0,.13,1.25,4.61,4.61,0,0,0,.4,1.13,4,4,0,0,0,.68,1,4.08,4.08,0,0,0,.94.75,3.06,3.06,0,0,0,.7.3,1.49,1.49,0,0,0,.58.06,1.39,1.39,0,0,0,.5-.15,2.42,2.42,0,0,0,.45-.31l0,1.23,1.46.84,0-8.08" transform="translate(-528.67 -44.13)" style="fill:#9ef2c6"/><path d="M1025.11,474.42l-1,.57a19.65,19.65,0,0,1,2,4.24,12.09,12.09,0,0,1,.66,3.86,6.21,6.21,0,0,1-.68,3,4.29,4.29,0,0,1-2,1.84l1,1.67a6,6,0,0,0,1.38-.76,4.63,4.63,0,0,0,1.07-1.17,5.9,5.9,0,0,0,.7-1.63,8.11,8.11,0,0,0,.25-2.14,13.5,13.5,0,0,0-.81-4.54,24.19,24.19,0,0,0-2.52-5" transform="translate(-528.67 -44.13)" style="fill:#f2f2f2"/><path d="M1034.16,488.55a1,1,0,0,0-.48-.16.59.59,0,0,0-.36.09.57.57,0,0,0-.23.29,1.5,1.5,0,0,0-.07.44,1.65,1.65,0,0,0,.06.46,3.93,3.93,0,0,0,.14.41c.06.12.12.25.19.37l.2.36c.05.13.1.26.14.38a1.54,1.54,0,0,1,.06.43.62.62,0,0,1-.16.48.53.53,0,0,1-.41.16,2.13,2.13,0,0,1-.63-.14,4.16,4.16,0,0,1-.61-.29l-.17-.11V493a5.19,5.19,0,0,0,1.65.67,1.93,1.93,0,0,0,1.17-.09,1.37,1.37,0,0,0,.71-.73,3,3,0,0,0,.24-1.26,4.53,4.53,0,0,0-.09-.88,5.39,5.39,0,0,0-.28-.86,3.5,3.5,0,0,0-.46-.75,2.22,2.22,0,0,0-.61-.54m0-5.17a1.46,1.46,0,0,0-.48-.17.66.66,0,0,0-.4.08.67.67,0,0,0-.27.3,1.29,1.29,0,0,0-.09.51,2.38,2.38,0,0,0,.36,1.23,3.13,3.13,0,0,0,.39.53,2.27,2.27,0,0,0,.49.39,1.37,1.37,0,0,0,.49.17.59.59,0,0,0,.66-.38,1.29,1.29,0,0,0,.1-.51,2.28,2.28,0,0,0-.1-.61,2.48,2.48,0,0,0-.26-.6,2.42,2.42,0,0,0-.89-.94" transform="translate(-528.67 -44.13)" style="fill:#f2f2f2"/></svg>